<svg width="262" height="76" viewBox="0 0 262 76" fill="none" xmlns="http://www.w3.org/2000/svg">
<mask id="mask0_1029_4552" style="mask-type:luminance" maskUnits="userSpaceOnUse" x="0" y="0" width="262" height="76">
<path d="M262 0H0V75.3571H262V0Z" fill="white"/>
</mask>
<g mask="url(#mask0_1029_4552)">
<path d="M193.846 42.8334C197.302 42.8747 200.684 41.8348 203.519 39.8592L208.933 46.9682C207.541 47.9533 206.046 48.783 204.473 49.4422C200.95 50.8828 197.172 51.6039 193.366 51.5629C188.659 51.6238 184.012 50.4928 179.859 48.2751C175.933 46.1721 172.657 43.0301 170.393 39.1923C168.131 35.2029 166.941 30.6946 166.941 26.1082C166.941 21.5216 168.131 17.0136 170.393 13.0241C172.692 9.18994 175.989 6.05278 179.933 3.94787C184.086 1.73056 188.733 0.601785 193.44 0.666846C197.233 0.624969 200.995 1.34377 204.506 2.78084C205.964 3.39729 207.355 4.15917 208.66 5.05488L202.919 11.8971C200.203 10.1992 197.056 9.31521 193.853 9.34958C190.788 9.30442 187.76 10.0436 185.059 11.4969C182.529 12.878 180.435 14.9382 179.014 17.4455C177.587 20.1063 176.84 23.0787 176.84 26.0982C176.84 29.1176 177.587 32.0902 179.014 34.7509C180.435 37.2583 182.529 39.3183 185.059 40.6994C187.759 42.147 190.783 42.8816 193.846 42.8334Z" fill="#0045B2"/>
<path fill-rule="evenodd" clip-rule="evenodd" d="M124.261 9.60975C122.469 6.8797 119.905 4.74598 116.895 3.48115C113.361 2.00297 109.557 1.2806 105.728 1.36046H88.4414V50.8494H98.2413V36.785H105.728C109.562 36.8672 113.37 36.1449 116.908 34.6643C119.917 33.3964 122.477 31.2575 124.261 28.5224C125.94 25.6585 126.824 22.399 126.824 19.0794C126.824 15.7599 125.94 12.5002 124.261 9.63641V9.60975ZM116.961 19.0995C116.961 22.0737 115.975 24.3878 114.035 25.9748C112.095 27.5621 109.135 28.3957 105.295 28.3957H98.2413V9.76979H105.295C109.135 9.76979 112.075 10.5901 114.035 12.1906C115.995 13.7911 116.961 16.0918 116.961 19.0728V19.0995Z" fill="#0045B2"/>
<path d="M141.191 42.5068V29.8228H161.564V21.6202H141.191V9.70311H164.557V1.36047H131.391V50.8494H165.531V42.5068H141.191Z" fill="#0045B2"/>
<path fill-rule="evenodd" clip-rule="evenodd" d="M258.175 13.0308C255.882 9.18955 252.583 6.04862 248.634 3.94793C244.422 1.79119 239.757 0.666504 235.024 0.666504C230.292 0.666504 225.628 1.79119 221.415 3.94793C217.463 6.05733 214.166 9.21045 211.881 13.0641C209.615 17.0337 208.422 21.5264 208.422 26.0982C208.422 30.6701 209.615 35.1628 211.881 39.1324C214.163 42.9895 217.462 46.1454 221.415 48.2553C225.628 50.4121 230.292 51.5368 235.024 51.5368C239.757 51.5368 244.422 50.4121 248.634 48.2553C252.578 46.1575 255.877 43.0244 258.175 39.1923C260.446 35.2122 261.642 30.7082 261.642 26.1249C261.642 21.5416 260.446 17.0376 258.175 13.0575V13.0308ZM251.768 26.1282C251.808 29.1416 251.056 32.1127 249.588 34.7444C248.184 37.2633 246.106 39.3416 243.588 40.7463C240.947 42.1561 237.998 42.8936 235.005 42.8936C232.011 42.8936 229.063 42.1561 226.422 40.7463C223.906 39.338 221.83 37.2607 220.422 34.7444C218.995 32.0954 218.248 29.1337 218.248 26.1249C218.248 23.1161 218.995 20.1545 220.422 17.5055C221.83 14.9892 223.906 12.9119 226.422 11.5037C229.065 10.0983 232.012 9.36341 235.005 9.36341C237.998 9.36341 240.945 10.0983 243.588 11.5037C246.106 12.9082 248.184 14.9865 249.588 17.5055C251.057 20.1394 251.808 23.1127 251.768 26.1282Z" fill="#0045B2"/>
<path d="M91.5814 66.3142H96.6946L96.708 63.7867H88.4414V75.0636H91.5814V66.3142Z" fill="#0045B2"/>
<path fill-rule="evenodd" clip-rule="evenodd" d="M116.266 72.8697H111.499L110.613 75.0569H107.359L112.339 63.78H115.479L120.473 75.0569H117.139L116.266 72.8697ZM115.333 70.5155L113.886 66.9077L112.433 70.5355L115.333 70.5155Z" fill="#0045B2"/>
<path fill-rule="evenodd" clip-rule="evenodd" d="M141.823 65.7692C141.396 65.1177 140.789 64.605 140.075 64.2936H140.082C139.239 63.9343 138.33 63.7592 137.415 63.7801H132.262V75.0837H135.442V72.1429H137.408C138.324 72.1637 139.233 71.9887 140.075 71.6293C140.789 71.318 141.396 70.8053 141.823 70.1538C142.249 69.5022 142.476 68.7403 142.476 67.9615C142.476 67.1826 142.249 66.4207 141.823 65.7692ZM139.091 68.6526C139.005 68.8629 138.871 69.0507 138.702 69.2019C138.275 69.5168 137.75 69.6683 137.222 69.6288H135.448V66.3277H137.222C137.751 66.29 138.276 66.4438 138.702 66.7611C138.871 66.9158 139.003 67.1062 139.09 67.3184C139.176 67.5305 139.214 67.7593 139.202 67.9882C139.216 68.2152 139.178 68.4424 139.091 68.6526Z" fill="#0045B2"/>
<path fill-rule="evenodd" clip-rule="evenodd" d="M162.594 72.8697H157.827L156.941 75.0569H153.688L158.667 63.78H161.807L166.801 75.0569H163.468L162.594 72.8697ZM161.661 70.5355L160.208 66.9278L158.761 70.5355H161.661Z" fill="#0045B2"/>
<path d="M190.587 75.0636V63.7867H187.399V68.0213H183.047V63.7867H179.859V75.0636H183.047V70.6623H187.399V75.0636H190.587Z" fill="#0045B2"/>
<path d="M213.671 66.3142H210.225V75.0636H207.084V66.3142H203.617V63.7867H213.671V66.3142Z" fill="#0045B2"/>
<path d="M229.295 63.7867H226.156V75.0636H229.17L233.809 68.4548V75.0636H236.949V63.7867H233.956L229.295 70.4087V63.7867Z" fill="#0045B2"/>
<path fill-rule="evenodd" clip-rule="evenodd" d="M257.953 63.78V75.0571H254.806V72.2227H253.059L251.206 75.0571H247.872L250.159 71.7559C249.451 71.4603 248.85 70.9583 248.432 70.3155C248.037 69.6252 247.828 68.8435 247.828 68.0481C247.828 67.2526 248.037 66.4709 248.432 65.7807C248.855 65.1217 249.465 64.6056 250.185 64.3003C251.027 63.9395 251.937 63.7623 252.852 63.78H257.953ZM251.058 68.0214C251.042 68.2587 251.077 68.4971 251.159 68.7201C251.242 68.9432 251.372 69.1461 251.538 69.3152C251.923 69.6329 252.414 69.7905 252.912 69.7554H254.812V66.2943H252.946C251.692 66.2943 251.058 66.8678 251.058 68.0214Z" fill="#0045B2"/>
<path fill-rule="evenodd" clip-rule="evenodd" d="M73.1867 46.5547L73.7267 51.096H60.6267C58.3837 57.113 54.5578 62.4123 49.5533 66.4344C44.0801 70.749 37.0999 73.4898 28.4867 74.5101L23.9467 75.0503V61.9661C17.932 59.7185 12.6349 55.8895 8.61333 50.8827C4.3 45.4077 1.56 38.4254 0.539999 29.8094L0 25.268H13.0933C15.3329 19.2492 19.1593 13.9491 24.1666 9.92978C29.6401 5.61509 36.62 2.87422 45.2333 1.84723L49.7734 1.30707V14.3979C55.7902 16.6381 61.0886 20.4657 65.1067 25.4746C69.42 30.9564 72.1667 37.9319 73.1867 46.5547ZM32.0867 65.6674C36.614 64.7542 40.8762 62.8277 44.5534 60.0323L44.52 60.0656C47.5435 57.6468 50.003 54.5972 51.7267 51.1295H37.36V42.9936H64.3334C63.4205 38.4648 61.4946 34.2013 58.7001 30.5229C56.2842 27.4878 53.2356 25.0162 49.7666 23.2806V37.6385H41.64V10.6767C37.1122 11.5885 32.8497 13.5152 29.1733 16.3118C26.1479 18.7287 23.6881 21.7788 21.9667 25.2479H36.3267V33.3906H9.36667C10.2718 37.9206 12.196 42.1852 14.9933 45.8611C17.4149 48.8815 20.4657 51.337 23.9334 53.0567V38.6989H32.0867V65.6674Z" fill="#0045B2"/>
</g>
</svg>
