<svg width="292" height="31" viewBox="0 0 292 31" fill="none" xmlns="http://www.w3.org/2000/svg">
<path d="M27.2352 30.5267H20.686V10.8066L6.30963 30.5267H0V0.473282H6.6291V20.1934L21.0853 0.473282H27.2352V30.5267ZM32.0274 0.552163H38.7363V12.3842H52.1543V0.552163H58.8632V30.5267H52.1543V18.458H38.7363V30.5267H32.0274V0.552163ZM70.2845 30.5267H63.6554V0.473282H84.2615V6.46819H70.2845V30.5267ZM116.449 15.5394C116.449 6.38931 109.74 0.157761 100.475 0H100.315C91.0503 0.0788804 84.3414 6.38931 84.3414 15.4606C84.3414 24.6107 91.0503 30.8422 100.315 30.9211H100.475C109.74 30.9211 116.449 24.6107 116.449 15.5394ZM100.395 24.9262C95.0438 24.9262 91.2899 21.2977 91.2899 15.5394C91.2899 9.70229 95.0438 6.15267 100.395 6.15267C105.746 6.15267 109.5 9.78117 109.5 15.5394C109.5 21.2977 105.746 24.9262 100.395 24.9262ZM186.334 6.62595H176.51V0.552163H202.787V6.62595H193.043V30.5267H186.334V6.62595ZM206.86 0.552163H220.518C227.786 0.552163 232.178 4.8117 232.178 10.9644C232.178 17.9059 226.747 21.5344 219.879 21.5344H213.569V30.5267H206.86V0.552163ZM220.038 15.6183C223.393 15.6183 225.31 13.6463 225.31 10.9644C225.31 8.0458 223.233 6.38931 219.879 6.38931H213.489V15.5394H220.038V15.6183ZM292 30.5267L281.218 15.145L291.521 0.473282H283.853L277.384 9.70229L270.915 0.473282H263.008L273.391 15.3028L262.608 30.5267H270.276L277.224 20.6667L284.093 30.5267H292ZM255.101 30.5267H261.889L248.871 0.315522H242.721L229.702 30.5267H236.491L239.367 23.5852H252.225L255.101 30.5267ZM241.763 17.7481L245.836 8.36132L249.909 17.7481H241.763ZM135.377 24.9262C130.026 24.9262 126.272 21.2977 126.272 15.5394C126.272 9.70229 130.026 6.15267 135.377 6.15267C138.173 6.15267 140.489 6.94148 142.486 8.59796L146.639 4.49618C143.844 1.81425 140.09 0.0788804 135.457 0.0788804H135.298C126.033 0.157761 119.324 6.46819 119.324 15.5394C119.324 24.6896 126.033 30.9211 135.298 31H135.457C140.01 30.9211 143.764 29.1858 146.639 26.5827L142.486 22.4809C140.489 24.1374 138.173 24.9262 135.377 24.9262ZM163.252 24.9262C157.9 24.9262 154.147 21.2977 154.147 15.5394C154.147 9.70229 157.9 6.15267 163.252 6.15267C166.047 6.15267 168.363 6.94148 170.36 8.59796L174.513 4.49618C171.718 1.81425 167.964 0.0788804 163.332 0.0788804H163.172C153.907 0.157761 147.198 6.46819 147.198 15.5394C147.198 24.6896 153.907 30.9211 163.172 31H163.332C167.884 30.9211 171.638 29.1858 174.513 26.5827L170.36 22.4809C168.363 24.1374 166.047 24.9262 163.252 24.9262Z" fill="#0045B2"/>
</svg>
