<svg width="254" height="53" viewBox="0 0 254 53" fill="none" xmlns="http://www.w3.org/2000/svg">
<path d="M26.9275 33.9916C24.8951 34.0322 22.9119 33.3636 21.3181 32.1006C19.7243 30.8375 18.6193 29.0587 18.1926 27.0692V27.0078C18.0471 26.1056 17.9697 25.1937 17.9609 24.2798V16.0206H23.9159V24.2798C23.9212 24.8506 23.9667 25.4204 24.0522 25.9848C24.2579 26.5778 24.6429 27.092 25.154 27.4559C25.665 27.8198 26.2765 28.0153 26.9036 28.0153C27.5308 28.0153 28.1423 27.8198 28.6533 27.4559C29.1643 27.092 29.5494 26.5778 29.7551 25.9848C29.8479 25.4141 29.9002 24.8375 29.9118 24.2593V16.007H35.894V24.2661C35.8857 25.1798 35.8105 26.0915 35.6692 26.9942V27.0624C35.2448 29.0549 34.1397 30.837 32.5441 32.1017C30.9485 33.3665 28.9623 34.0348 26.9275 33.9916Z" fill="#0045B2"/>
<path d="M26.9077 42.9532C22.8595 42.9538 18.9226 41.6267 15.6995 39.1748C12.4783 36.7581 10.261 33.2369 9.47195 29.2856V29.2243C9.15094 27.1936 8.98014 25.142 8.96094 23.0861V8.00001H14.9227V23.1134C14.9427 24.815 15.0839 26.513 15.3452 28.1944C16.3127 33.2004 21.2729 36.9651 26.8872 36.9651C32.5015 36.9651 37.4549 33.2004 38.4225 28.2012C38.6869 26.5179 38.8281 24.8174 38.8449 23.1134V0H44.8271V23.1134C44.8077 25.1693 44.6369 27.2208 44.3161 29.2515V29.3129C43.5306 33.2622 41.3182 36.783 38.1022 39.2021C34.8808 41.6441 30.9486 42.9617 26.9077 42.9532Z" fill="#0045B2"/>
<path d="M26.9133 51.9353C20.8311 51.9389 14.9152 49.9483 10.0703 46.2678C5.27519 42.6653 1.97393 37.4209 0.797179 31.5363V31.4749C0.296936 28.3391 0.0304736 25.1703 0 21.9949V0H5.98224V21.9949C6.00469 24.8244 6.23241 27.6486 6.66359 30.4451C8.36696 39.3112 17.0542 45.9472 26.8997 45.9472C36.7451 45.9472 45.4187 39.284 47.1221 30.4451C47.5477 27.6456 47.7754 24.8196 47.8034 21.9881V8.00001H53.7857V21.9949C53.7553 25.1678 53.4911 28.3341 52.9953 31.4681V31.5363C51.8174 37.4204 48.5163 42.6644 43.7221 46.2678C38.888 49.9439 32.9843 51.9345 26.9133 51.9353ZM73.7969 44.972C74.3043 44.695 74.8746 44.554 75.4526 44.5627C75.9058 44.5556 76.3552 44.6464 76.7703 44.8288C77.1853 45.0112 77.5562 45.281 77.8577 45.6199L78.9683 44.5832C78.5493 44.0968 78.0218 43.716 77.4285 43.4715C76.7811 43.2024 76.0853 43.0701 75.3844 43.0828C74.5268 43.0693 73.68 43.2759 72.9248 43.6829C72.2094 44.0632 71.611 44.6314 71.1941 45.3266C70.7755 46.0523 70.5551 46.8756 70.5551 47.7136C70.5551 48.5517 70.7755 49.3749 71.1941 50.1007C71.6039 50.7985 72.198 51.3696 72.9111 51.7512C73.6684 52.1522 74.5142 52.3562 75.3708 52.3445C76.0707 52.3543 76.7656 52.2244 77.4148 51.9626C78.0113 51.7171 78.5413 51.3338 78.9615 50.8441L77.885 49.8211C77.5847 50.1618 77.2142 50.4334 76.799 50.6171C76.3838 50.8008 75.9337 50.8922 75.4798 50.885C74.9019 50.8937 74.3316 50.7528 73.8241 50.4758C73.3472 50.2153 72.9511 49.8283 72.6795 49.3573C72.4111 48.856 72.2707 48.296 72.2707 47.7273C72.2707 47.1585 72.4111 46.5986 72.6795 46.0973C72.9427 45.6274 73.329 45.2383 73.7969 44.972ZM82.7839 44.6446H85.7546V52.2081H87.4102V44.6446H90.3877V43.2328H82.7839V44.6446ZM100.901 43.6147C100.253 43.347 99.5573 43.217 98.8569 43.2328H95.164V52.2081H96.8333V49.6165H98.8773C99.578 49.6358 100.275 49.5056 100.921 49.2345C101.466 49.0057 101.929 48.6184 102.25 48.1228C102.554 47.6063 102.715 47.0175 102.715 46.4178C102.715 45.8181 102.554 45.2293 102.25 44.7128C101.92 44.2203 101.45 43.8379 100.901 43.6147ZM100.444 47.7477C99.9624 48.0886 99.3775 48.2524 98.7887 48.2115H96.8401V44.6446H98.7887C99.3767 44.6017 99.9615 44.7631 100.444 45.1015C100.623 45.2722 100.766 45.4775 100.863 45.7049C100.96 45.9324 101.011 46.1772 101.011 46.4246C101.011 46.672 100.96 46.9169 100.863 47.1443C100.766 47.3718 100.623 47.577 100.444 47.7477ZM110.31 43.2192L106.263 52.1945H107.987L108.873 50.1484H113.37L114.269 52.1945H116.013L111.925 43.2192H110.31ZM109.438 48.8117L111.121 44.8833L112.818 48.8117H109.438ZM127.978 43.2328H126.029L123.91 46.2337L121.791 43.2328H119.863L122.909 47.6045L119.658 52.2081H121.58L123.91 48.9413L126.247 52.2081H128.223L124.959 47.5431L127.978 43.2328ZM139.397 43.7034C138.629 43.3107 137.779 43.1059 136.917 43.1059C136.055 43.1059 135.205 43.3107 134.437 43.7034C133.718 44.0824 133.119 44.6538 132.706 45.3539C132.291 46.0734 132.073 46.8896 132.073 47.7205C132.073 48.5513 132.291 49.3675 132.706 50.087C133.121 50.7874 133.72 51.3606 134.437 51.7443C135.205 52.1371 136.055 52.3418 136.917 52.3418C137.779 52.3418 138.629 52.1371 139.397 51.7443C140.114 51.3634 140.713 50.7924 141.128 50.0939C141.546 49.3681 141.767 48.5448 141.767 47.7068C141.767 46.8688 141.546 46.0455 141.128 45.3198C140.711 44.6318 140.112 44.0725 139.397 43.7034ZM139.663 49.3436C139.401 49.8171 139.012 50.2071 138.539 50.469C138.041 50.7388 137.483 50.8801 136.917 50.8801C136.351 50.8801 135.793 50.7388 135.295 50.469C134.819 50.2128 134.425 49.8275 134.158 49.3573C133.885 48.8598 133.742 48.3015 133.742 47.7341C133.742 47.1667 133.885 46.6084 134.158 46.1109C134.419 45.6375 134.809 45.2475 135.282 44.9856C135.78 44.7158 136.337 44.5745 136.903 44.5745C137.47 44.5745 138.027 44.7158 138.525 44.9856C138.998 45.2475 139.388 45.6375 139.649 46.1109C139.922 46.6084 140.065 47.1667 140.065 47.7341C140.065 48.3015 139.922 48.8598 139.649 49.3573L139.663 49.3436ZM152.554 47.5431C152.95 47.3816 153.29 47.1093 153.535 46.7588C153.767 46.3948 153.886 45.9698 153.876 45.538C153.889 45.205 153.818 44.8741 153.669 44.576C153.52 44.2779 153.298 44.0224 153.024 43.833C152.317 43.3927 151.491 43.1829 150.66 43.2328H146.64V52.2081H150.905C151.801 52.2578 152.689 52.0188 153.44 51.5261C153.909 51.1444 154.214 50.5973 154.293 49.9973C154.371 49.3973 154.217 48.79 153.862 48.3002C153.518 47.9148 153.059 47.6496 152.554 47.5431ZM148.289 44.515H150.51C150.946 44.4862 151.379 44.6012 151.743 44.8424C151.884 44.9566 151.996 45.1028 152.069 45.2688C152.143 45.4348 152.176 45.6159 152.166 45.7972C152.177 45.9776 152.144 46.1581 152.071 46.3232C151.997 46.4883 151.885 46.6331 151.743 46.7452C151.377 46.9808 150.945 47.0931 150.51 47.0657H148.275L148.289 44.515ZM150.857 50.9259H148.289V48.2865H150.857C152.036 48.2865 152.629 48.723 152.629 49.596C152.629 50.469 152.029 50.9259 150.851 50.9259H150.857ZM162.093 43.2192L158.005 52.2081H159.722L160.614 50.1621H165.104L166.004 52.2081H167.755L163.667 43.2328L162.093 43.2192ZM161.214 48.8117L162.897 44.8833L164.593 48.8117H161.214ZM178.752 46.9361H174.098V43.2328H172.429V52.2081H174.098V48.3615H178.752V52.2081H180.421V43.2328H178.752V46.9361ZM188.12 49.6096V43.2328H186.478V52.2081H188.025L192.856 45.8517V52.2081H194.505V43.2328H192.951L188.12 49.6096ZM202.224 44.6309V46.9634H206.571V48.3343H202.224V50.81H206.599V52.2081H200.555V43.2328H206.599V44.6309H202.224ZM101.637 9.29584C99.4786 8.11424 97.0513 7.51269 94.5916 7.54988C92.4248 7.53349 90.2813 7.9994 88.3164 8.91391C86.4452 9.76327 84.8084 11.0553 83.547 12.6786C82.2979 14.3054 81.4525 16.2057 81.0805 18.2234H77.6056V7.99319H71.6234V33.9711H77.6056V23.3931H81.0124C81.3253 25.4639 82.1429 27.4258 83.3931 29.1054C84.6432 30.7849 86.2873 32.1305 88.1802 33.0231C90.1803 33.955 92.3653 34.4213 94.5712 34.3871C97.0309 34.4243 99.4582 33.8228 101.616 32.6411C103.663 31.5291 105.366 29.8782 106.542 27.8671C107.709 25.7601 108.321 23.3909 108.321 20.9821C108.321 18.5734 107.709 16.2042 106.542 14.0972C105.376 12.0787 103.679 10.4183 101.637 9.29584ZM101.248 25.3231C100.63 26.535 99.6858 27.5504 98.523 28.2558C97.3351 28.9352 95.9905 29.2926 94.6223 29.2926C93.2541 29.2926 91.9096 28.9352 90.7216 28.2558C89.5588 27.5504 88.6151 26.535 87.9962 25.3231C87.3374 23.971 86.995 22.4865 86.995 20.9821C86.995 19.4778 87.3374 17.9932 87.9962 16.6411C88.6151 15.4293 89.5588 14.4139 90.7216 13.7085C91.9096 13.029 93.2541 12.6717 94.6223 12.6717C95.9905 12.6717 97.3351 13.029 98.523 13.7085C99.6858 14.4139 100.63 15.4293 101.248 16.6411C101.907 17.9932 102.25 19.4778 102.25 20.9821C102.25 22.4865 101.907 23.971 101.248 25.3231ZM120.585 12.89H132.965L132.999 7.99319H114.644V33.9711H120.626L120.585 12.89ZM150.796 34.4144C153.332 34.4545 155.837 33.854 158.08 32.6684C160.176 31.5661 161.934 29.9164 163.169 27.8943C164.39 25.8054 165.033 23.4292 165.033 21.0094C165.033 18.5896 164.39 16.2134 163.169 14.1245C161.934 12.1025 160.176 10.4528 158.08 9.3504C155.819 8.20249 153.32 7.60426 150.786 7.60426C148.251 7.60426 145.752 8.20249 143.492 9.3504C141.391 10.4457 139.631 12.097 138.402 14.1245C137.197 16.2184 136.563 18.5927 136.563 21.0094C136.563 23.4261 137.197 25.8004 138.402 27.8943C139.631 29.9218 141.391 31.5732 143.492 32.6684C145.742 33.8541 148.254 34.4545 150.796 34.4144ZM143.696 16.6752C144.373 15.4383 145.383 14.4172 146.613 13.7289C147.891 13.0353 149.322 12.672 150.776 12.672C152.23 12.672 153.661 13.0353 154.939 13.7289C156.164 14.4225 157.173 15.4423 157.855 16.6752C158.549 18.0047 158.911 19.4823 158.911 20.9821C158.911 22.482 158.549 23.9596 157.855 25.289C157.173 26.522 156.164 27.5418 154.939 28.2353C153.661 28.929 152.23 29.2922 150.776 29.2922C149.322 29.2922 147.891 28.929 146.613 28.2353C145.383 27.5471 144.373 26.5259 143.696 25.289C142.998 23.961 142.633 22.4828 142.633 20.9821C142.633 19.4814 142.998 18.0033 143.696 16.6752ZM192.317 22.4109C193.214 20.8978 193.687 19.171 193.687 17.4118C193.687 15.6526 193.214 13.9258 192.317 12.4126C191.359 10.9539 189.995 9.80852 188.393 9.11852C186.496 8.31213 184.45 7.91922 182.39 7.96591H171.134V33.9438H177.151V26.8099H182.39C184.448 26.8561 186.493 26.4705 188.393 25.6778C189.995 25.0018 191.361 23.8648 192.317 22.4109ZM186.185 20.74C184.986 21.5984 183.527 22.013 182.056 21.9131H177.151V12.89H182.056C183.527 12.7901 184.986 13.2048 186.185 14.0631C186.663 14.4755 187.039 14.9931 187.284 15.5752C187.529 16.1574 187.635 16.7883 187.596 17.4186C187.626 18.0388 187.514 18.6577 187.27 19.2285C187.026 19.7992 186.655 20.3068 186.185 20.7127V20.74ZM224.654 33.9711V7.99319H219.006L206.592 24.9139V7.99319H200.61V33.9711H206.299L218.706 17.0844V33.9711H224.654ZM242.799 7.99319C240.754 7.94448 238.724 8.3449 236.85 9.16626C235.248 9.87635 233.891 11.0465 232.953 12.5286C232.046 14.1112 231.571 15.9053 231.577 17.7301C231.583 19.5549 232.069 21.3458 232.987 22.9225C233.968 24.4005 235.385 25.5354 237.041 26.1688L231.59 33.9984H237.947L242.553 27.0964H248.052V33.9984H254V7.99319H242.799ZM248.072 22.3155H242.799C241.413 22.4172 240.041 21.9799 238.969 21.0947C238.52 20.6368 238.171 20.0892 237.947 19.4876C237.723 18.8859 237.628 18.2437 237.668 17.6028C237.623 16.952 237.722 16.2993 237.957 15.691C238.193 15.0828 238.559 14.5339 239.031 14.0836C240.149 13.2175 241.545 12.7928 242.955 12.89H248.079L248.072 22.3155Z" fill="#0045B2"/>
</svg>
