<svg width="211" height="43" viewBox="0 0 211 43" fill="none" xmlns="http://www.w3.org/2000/svg">
<path fill-rule="evenodd" clip-rule="evenodd" d="M210.027 12.4735C210.027 5.86311 204.426 0.543892 193.063 0.543892C180.969 0.543892 174.749 7.32743 174.749 15.7101H185.856C185.856 11.3566 188.273 9.08695 192.901 9.08695C197.284 9.08695 199.149 10.6663 199.149 13.165C199.149 15.6625 197.769 17.3639 194.361 17.3639L188.078 17.3685V24.5332L194.197 24.5286C198.095 24.5286 199.719 26.2219 199.719 28.9622C199.719 31.5411 198.014 33.9921 193.063 33.9921C187.706 33.9921 185.271 31.2529 185.271 26.739H174.193C174.193 36.9753 181.376 42.4561 193.063 42.4561C204.587 42.4561 211 37.6192 211 29.8815C211 25.8523 208.89 22.9504 204.832 21.2583C208.321 19.4046 210.026 16.0192 210.026 12.4723L210.027 12.4735ZM156.444 41.3672H167.842V1.634H156.444V5.98049C153.507 2.31968 149.637 0.817 145.428 0.817C134.716 0.817 126.185 9.08927 126.185 21.5C126.185 33.9107 134.716 42.183 145.428 42.183C149.637 42.183 153.507 40.6792 156.444 37.0195V41.3672ZM157.237 21.5C157.237 27.785 152.544 32.386 146.922 32.386C141.382 32.386 136.607 27.785 136.607 21.5C136.607 15.215 141.382 10.614 146.923 10.614C152.544 10.614 157.237 15.215 157.237 21.5ZM106.961 11.1684H123.524V1.63284H95.5689V41.3672H106.962L106.961 11.1684ZM89.9423 21.5C89.9423 9.62619 80.3418 0 68.5 0C56.657 0 47.0577 9.62619 47.0577 21.5C47.0577 33.3738 56.6582 43 68.5 43C80.3429 43 89.9423 33.3738 89.9423 21.5ZM80.7075 23.557C74.1348 25.1213 69.5573 30.7276 68.5 39.7576C67.4426 30.7276 62.8651 25.1213 56.2925 23.557C55.1624 16.4888 61.3858 10.3072 68.5 10.2968C75.6142 10.3072 81.8375 16.4888 80.7075 23.557ZM10.414 21.5C10.414 15.05 14.7571 9.79703 20.9992 9.79703C25.7948 9.79703 29.7756 12.4282 30.7708 16.3284H41.628C41.0653 7.27978 32.8222 0 21.25 0C9.12692 0 0 8.85219 0 21.5035C0 34.1559 9.12692 43 21.25 43C33.025 43 41.3466 35.7539 41.628 25.8546H30.7708C29.9245 30.3801 26.157 33.2018 21.0004 33.2018C15.2998 33.2018 10.414 28.1162 10.414 21.5Z" fill="#0045B2"/>
</svg>
