<svg width="351" height="61" viewBox="0 0 351 61" fill="none" xmlns="http://www.w3.org/2000/svg">
<path d="M30.1795 59.4934V22.5018H37.6864V37.0772H52.5354V22.5018H60.0424V59.4934H52.5354V44.2246H37.6864V59.4934H30.1795ZM65.2561 22.5018H87.942V29.6492H72.7465V36.8956H85.0052V44.043H72.763V52.2964H87.942V59.4934H65.2561V22.5018ZM101.9 29.6492H100.25V40.7087H100.993C104.54 40.7087 108.368 39.2561 108.368 35.1294C108.368 31.4979 105.266 29.6492 101.95 29.6492H101.9ZM92.7102 59.4934V22.5018H101.9C109.358 22.5018 115.809 27.2722 115.809 35.1789C115.809 43.2342 108.912 47.9386 101.504 47.9386H100.201V59.4934H92.7102ZM127.143 29.6492V59.4934H119.653V22.5018H138.742V29.6492H127.143ZM145.87 41.0553C145.863 42.6628 146.174 44.2557 146.785 45.7425C147.396 47.2293 148.294 48.5806 149.429 49.7188C150.564 50.857 151.912 51.7597 153.396 52.3748C154.881 52.99 156.472 53.3055 158.079 53.3033C159.69 53.305 161.285 52.9862 162.772 52.3656C164.259 51.745 165.608 50.835 166.741 49.6884C169.011 47.3889 170.285 44.2876 170.288 41.0553C170.304 37.886 169.126 34.8269 166.988 32.4883C165.858 31.2779 164.487 30.3167 162.965 29.6658C161.442 29.015 159.8 28.6888 158.145 28.7083C156.487 28.6886 154.842 29.0145 153.317 29.6653C151.792 30.3161 150.418 31.2775 149.285 32.4883C147.152 34.8304 145.975 37.8872 145.985 41.0553M138.495 41.0553C138.465 38.364 139.014 35.6977 140.104 33.2371C141.195 30.7765 142.801 28.579 144.814 26.7935C148.46 23.5022 153.169 21.6332 158.079 21.5279C163.016 21.5782 167.768 23.4133 171.459 26.6945C173.472 28.48 175.078 30.6775 176.169 33.1381C177.259 35.5987 177.808 38.2649 177.778 40.9563C177.792 43.5802 177.263 46.1786 176.224 48.5877C175.185 50.9968 173.658 53.1645 171.74 54.954C168.04 58.4356 163.158 60.3825 158.079 60.4012C153 60.3825 148.117 58.4356 144.418 54.954C142.498 53.1657 140.97 50.9983 139.931 48.5889C138.891 46.1795 138.363 43.5805 138.379 40.9563M188.354 29.5831V59.4934H180.847V22.5018H201.487V29.6492L188.354 29.5831ZM217.293 41.6331L214.191 35.1459L211.057 41.6331H217.293ZM220.444 48.4669H207.905L202.593 59.4934H194.525L214.323 19.6626L233.924 59.4934H225.675L220.444 48.4669ZM244.384 29.4676H242.734V40.5271H243.477C247.024 40.5271 250.835 39.091 250.835 34.9478C250.835 31.3164 247.75 29.4676 244.434 29.4676H244.384ZM235.194 59.4934V22.3862H244.401C251.842 22.3862 258.309 27.1732 258.309 35.0634C258.309 43.1022 251.429 47.7406 243.988 47.7406C243.559 47.7406 243.13 47.7406 242.701 47.7406V59.4934H235.194ZM275.848 41.7321L272.746 35.245L269.611 41.7321H275.848ZM278.999 48.5659H266.443L261.147 59.4934H253.079L272.878 19.6626L292.528 59.4934H284.279L278.999 48.5659ZM293.699 59.4934V22.5018H301.206V37.0772H316.055V22.5018H323.562V59.4934H316.055V44.2246H301.206V59.4934H293.699ZM335.689 59.4934V29.6327H328V22.5018H350.967V29.6492H343.196V59.4934H335.689ZM0.0195312 32.0922V23.4261C2.6524 22.17 5.53355 21.5213 8.45045 21.5279C13.1663 21.5501 17.7079 23.3135 21.2041 26.4799C23.1674 28.3295 24.7164 30.5747 25.7487 33.0672C26.7811 35.5597 27.2734 38.2429 27.1932 40.9398C27.2753 43.6083 26.8097 46.2654 25.825 48.7468C24.8403 51.2282 23.3574 53.4812 21.4681 55.3667C18.0427 58.6425 13.486 60.4696 8.74743 60.4673C5.71684 60.4891 2.72475 59.7874 0.0195313 58.4204L0.0195312 49.8204C2.43713 51.9202 5.49874 53.1315 8.69794 53.2538C11.256 53.2056 13.716 52.2604 15.6488 50.5831C17.5816 48.9058 18.8645 46.6029 19.2737 44.0761H4.25974V37.0772H19.2737C18.7081 34.6356 17.3172 32.4643 15.3361 30.9304C13.355 29.3965 10.9052 28.5941 8.40096 28.6588C5.27651 28.7154 2.28647 29.9403 0.0195312 32.0922Z" fill="#0045B2"/>
<path d="M8.63201 10.6334C7.61956 11.1815 6.48327 11.4601 5.33224 11.4422C4.60332 11.4684 3.87717 11.3393 3.2019 11.0635C2.52663 10.7876 1.91765 10.3714 1.41533 9.84228C0.913009 9.31319 0.528808 8.68334 0.288185 7.99446C0.0475619 7.30558 -0.0439883 6.5734 0.0196005 5.84645C-0.0166979 5.09211 0.102294 4.33836 0.369198 3.63193C0.636101 2.92551 1.04522 2.28148 1.57119 1.73978C2.09716 1.19808 2.72876 0.770273 3.42682 0.482883C4.12487 0.195493 4.8745 0.0546506 5.62922 0.0690909C6.59274 0.0416846 7.54881 0.245443 8.41752 0.663333V2.06641C7.57645 1.59402 6.62673 1.34937 5.66221 1.35662C5.10433 1.36829 4.55472 1.49401 4.04719 1.72605C3.53967 1.95808 3.08494 2.29152 2.71097 2.70586C2.337 3.12021 2.05169 3.60671 1.87258 4.13544C1.69348 4.66418 1.62436 5.22398 1.66949 5.78042C1.60631 6.33607 1.66193 6.8988 1.83265 7.4313C2.00338 7.9638 2.28531 8.45391 2.65975 8.86911C3.0342 9.28432 3.49259 9.61513 4.00454 9.83962C4.51648 10.0641 5.07029 10.1771 5.62922 10.1712C6.55704 10.161 7.46644 9.91077 8.26903 9.44492L8.63201 10.6334Z" fill="#0045B2"/>
<path d="M14.357 1.45574H11.1562V0.168213H19.3562L18.8942 1.45574H15.8419V11.2772H14.357V1.45574Z" fill="#0045B2"/>
<path d="M22.5703 0.168089H24.8472C25.6867 0.120182 26.5238 0.296803 27.2725 0.679798C27.8038 0.985323 28.2396 1.43284 28.531 1.9722C28.8224 2.51157 28.9579 3.12146 28.9224 3.73354C28.9471 4.39087 28.775 5.04061 28.4281 5.59941C28.0812 6.15821 27.5754 6.60059 26.9755 6.86982C26.2719 7.14663 25.5205 7.28127 24.7647 7.26599H24.1377V11.2771H22.6363L22.5703 0.168089ZM24.7647 6.04449C25.2828 6.05938 25.7972 5.95193 26.2661 5.73086C26.62 5.54005 26.9094 5.24834 27.0974 4.89273C27.2854 4.53713 27.3636 4.13367 27.322 3.73354C27.3639 3.34742 27.3018 2.95712 27.1423 2.60305C26.9827 2.24898 26.7315 1.94402 26.4145 1.71972C25.9056 1.46031 25.3332 1.35151 24.7647 1.40609H24.0057V6.04449H24.7647Z" fill="#0045B2"/>
<path d="M35.8869 0.0690918H36.9923L41.2655 11.2772H39.6156L38.6092 8.32246H34.303L33.2471 11.2442H31.6797L35.8869 0.0690918ZM38.1307 7.13398L37.0913 4.22879C36.7778 3.28791 36.6128 2.7762 36.4644 2.38003L35.8209 4.2453L34.7815 7.13398H38.1307Z" fill="#0045B2"/>
<path d="M47.5031 5.69797L43.8569 0.168213H45.5892L48.4435 4.55901L51.4463 0.168213H53.1292L49.318 5.64845L53.0302 11.2772H51.3308L48.3775 6.80392L45.2758 11.2772H43.6094L47.5031 5.69797Z" fill="#0045B2"/>
<path d="M56.1172 5.76387C56.1172 4.31918 56.6908 2.93366 57.7119 1.91211C58.7329 0.890553 60.1178 0.31665 61.5618 0.31665C63.0058 0.31665 64.3907 0.890553 65.4117 1.91211C66.4328 2.93366 67.0064 4.31918 67.0064 5.76387C67.0064 7.20857 66.4328 8.59409 65.4117 9.61564C64.3907 10.6372 63.0058 11.2111 61.5618 11.2111C60.1178 11.2111 58.7329 10.6372 57.7119 9.61564C56.6908 8.59409 56.1172 7.20857 56.1172 5.76387ZM65.4225 5.76387C65.4843 5.21878 65.4302 4.66679 65.264 4.14405C65.0977 3.6213 64.8229 3.13958 64.4577 2.73043C64.0924 2.32127 63.6449 1.99391 63.1445 1.76977C62.644 1.54563 62.1019 1.42977 61.5536 1.42977C61.0052 1.42977 60.4631 1.54563 59.9627 1.76977C59.4622 1.99391 59.0147 2.32127 58.6494 2.73043C58.2842 3.13958 58.0094 3.6213 57.8432 4.14405C57.6769 4.66679 57.6229 5.21878 57.6846 5.76387C57.6229 6.30897 57.6769 6.86095 57.8432 7.3837C58.0094 7.90645 58.2842 8.38817 58.6494 8.79732C59.0147 9.20648 59.4622 9.53384 59.9627 9.75798C60.4631 9.98212 61.0052 10.098 61.5536 10.098C62.1019 10.098 62.644 9.98212 63.1445 9.75798C63.6449 9.53384 64.0924 9.20648 64.4577 8.79732C64.8229 8.38817 65.0977 7.90645 65.264 7.3837C65.4302 6.86095 65.4843 6.30897 65.4225 5.76387Z" fill="#0045B2"/>
<path d="M71.0469 0.168213H73.8352C76.178 0.168213 77.2339 1.48875 77.2339 2.99086C77.2545 3.48226 77.1311 3.96896 76.8791 4.39121C76.627 4.81346 76.2572 5.15289 75.815 5.36784C76.4289 5.49538 76.9784 5.83474 77.3674 6.32657C77.7565 6.81841 77.9604 7.43143 77.9434 8.05843C77.9434 9.87418 76.64 11.2442 74.1487 11.2442H71.0469V0.168213ZM73.6702 5.02119C75.0231 5.02119 75.7491 4.32791 75.7491 3.22196C75.7491 2.11601 75.1386 1.42272 73.7032 1.42272H72.6143V5.02119H73.6702ZM74.0662 9.97322C75.5181 9.97322 76.4255 9.41199 76.4255 8.04193C76.4255 6.67187 75.5676 6.24269 74.2642 6.24269H72.6143V9.97322H74.0662Z" fill="#0045B2"/>
<path d="M84.9919 0.0690918H86.1138L90.4035 11.2111H88.7536L87.7142 8.32246H83.4245L82.3686 11.2442H80.8672L84.9919 0.0690918ZM87.2522 7.06795L86.2128 4.16276C85.8828 3.22188 85.7179 2.71017 85.5859 2.31401C85.4704 2.71017 85.2889 3.23839 84.9424 4.17927L83.903 7.06795H87.2522Z" fill="#0045B2"/>
<path d="M94.6547 7.7448C95.1002 6.91946 95.3807 6.45727 95.8426 6.20967C95.2393 6.03591 94.7151 5.65763 94.3599 5.13965C94.0047 4.62168 93.8406 3.99624 93.8958 3.37051C93.8935 2.90774 93.9884 2.44965 94.1745 2.02596C94.3605 1.60227 94.6336 1.22246 94.9758 0.911161C95.3181 0.599862 95.722 0.364034 96.1612 0.218978C96.6005 0.073923 97.0653 0.0228812 97.5255 0.069165H100.545V11.2772H99.0104V6.67186H97.3605C97.0306 6.67186 96.6181 7.03501 96.1396 8.02541L94.4897 11.3268H92.8398L94.6547 7.7448ZM97.674 5.45036H99.0104V1.40621H97.6905C97.3973 1.36509 97.0986 1.38868 96.8154 1.47532C96.5322 1.56197 96.2714 1.70956 96.0513 1.90776C95.8312 2.10595 95.6571 2.34994 95.5412 2.62259C95.4254 2.89525 95.3706 3.18996 95.3807 3.48606C95.3807 4.85612 96.3541 5.45036 97.6245 5.45036" fill="#0045B2"/>
<path d="M113.598 0.0690918H114.703L118.993 11.2111H117.343L116.32 8.32246H112.014L110.958 11.2442H109.391L113.598 0.0690918ZM115.842 7.13398L114.802 4.22879C114.489 3.28791 114.324 2.7762 114.175 2.38003L113.532 4.2453L112.492 7.13398H115.842Z" fill="#0045B2"/>
<path d="M122.423 0.16826H123.908V5.02124H124.997C126.646 5.02124 126.861 2.74331 127.587 1.20818C127.733 0.862834 127.979 0.569445 128.294 0.366277C128.609 0.163109 128.978 0.0595898 129.352 0.0692192C129.633 0.0634342 129.912 0.108163 130.177 0.201273V1.55483C129.992 1.48761 129.797 1.45407 129.6 1.45579C129.429 1.44885 129.26 1.4941 129.116 1.58551C128.971 1.67692 128.858 1.81016 128.791 1.96749C128.247 2.97441 127.999 4.9222 126.811 5.61548C127.356 5.79706 127.752 6.35829 128.23 7.26616L130.359 11.2773H128.709L126.811 7.66232C126.3 6.67191 125.888 6.32527 125.541 6.32527H123.891V11.2773H122.406L122.423 0.16826Z" fill="#0045B2"/>
<path d="M133.988 0.168213H135.457V10.0062H140.72V0.168213H142.205V10.0062H143.558V14.3805H142.089V11.2772H133.988V0.168213Z" fill="#0045B2"/>
<path d="M147.207 0.168173H148.675V6.88641C148.675 7.66223 148.675 8.20695 148.675 8.8012C149.038 8.25647 149.517 7.56319 150.177 6.72135L155.126 0.118652H156.562V11.2772H155.11V4.31136C155.11 3.50253 155.11 2.99082 155.11 2.46261C154.731 3.00733 154.269 3.6676 153.658 4.47643L148.51 11.2772H147.24L147.207 0.168173Z" fill="#0045B2"/>
<path d="M160.586 5.76393C160.546 5.02226 160.656 4.28006 160.912 3.58269C161.168 2.88531 161.563 2.24739 162.073 1.70793C162.583 1.16846 163.198 0.738769 163.88 0.445112C164.562 0.151456 165.297 0 166.039 0C166.782 0 167.516 0.151456 168.198 0.445112C168.88 0.738769 169.495 1.16846 170.006 1.70793C170.516 2.24739 170.911 2.88531 171.167 3.58269C171.422 4.28006 171.533 5.02226 171.492 5.76393C171.533 6.5056 171.422 7.2478 171.167 7.94518C170.911 8.64255 170.516 9.28047 170.006 9.81993C169.495 10.3594 168.88 10.7891 168.198 11.0827C167.516 11.3764 166.782 11.5279 166.039 11.5279C165.297 11.5279 164.562 11.3764 163.88 11.0827C163.198 10.7891 162.583 10.3594 162.073 9.81993C161.563 9.28047 161.168 8.64255 160.912 7.94518C160.656 7.2478 160.546 6.5056 160.586 5.76393ZM169.908 5.76393C169.97 5.21884 169.916 4.66685 169.75 4.1441C169.583 3.62136 169.309 3.13964 168.943 2.73048C168.578 2.32133 168.131 1.99396 167.63 1.76983C167.13 1.54569 166.588 1.42982 166.039 1.42982C165.491 1.42982 164.949 1.54569 164.448 1.76983C163.948 1.99396 163.5 2.32133 163.135 2.73048C162.77 3.13964 162.495 3.62136 162.329 4.1441C162.163 4.66685 162.109 5.21884 162.17 5.76393C162.109 6.30902 162.163 6.86101 162.329 7.38376C162.495 7.90651 162.77 8.38822 163.135 8.79738C163.5 9.20653 163.948 9.5339 164.448 9.75803C164.949 9.98217 165.491 10.098 166.039 10.098C166.588 10.098 167.13 9.98217 167.63 9.75803C168.131 9.5339 168.578 9.20653 168.943 8.79738C169.309 8.38822 169.583 7.90651 169.75 7.38376C169.916 6.86101 169.97 6.30902 169.908 5.76393Z" fill="#0045B2"/>
<path d="M175.57 0.168213H177.055V4.95517H182.863V0.168213H184.348V11.2772H182.863V6.24269H177.055V11.2772H175.57V0.168213Z" fill="#0045B2"/>
<path d="M188.934 0.168213H194.527L194.081 1.45574H190.435V4.97167H194.048V6.2592H190.435V10.0062H194.593V11.2772H188.934V0.168213Z" fill="#0045B2"/>
<path d="M198.751 0.168065H201.011C201.851 0.118548 202.688 0.295257 203.437 0.679774C203.968 0.9853 204.404 1.43282 204.695 1.97218C204.986 2.51154 205.122 3.12144 205.086 3.73352C205.111 4.39085 204.939 5.04059 204.592 5.59938C204.245 6.15818 203.739 6.60057 203.14 6.8698C202.416 7.159 201.641 7.29393 200.863 7.26596H200.219V11.2771H198.734L198.751 0.168065ZM200.978 6.04446C201.497 6.06387 202.012 5.95621 202.48 5.73084C202.834 5.54003 203.123 5.24831 203.311 4.89271C203.499 4.53711 203.577 4.13365 203.536 3.73352C203.563 3.34676 203.487 2.95975 203.316 2.61182C203.145 2.2639 202.885 1.96748 202.562 1.75271C202.055 1.48533 201.484 1.36525 200.912 1.40607H200.153V6.04446H200.978Z" fill="#0045B2"/>
<path d="M209.012 0.168213H210.513V4.95517H216.321V0.168213H217.789V11.2772H216.321V6.24269H210.513V11.2772H209.012V0.168213Z" fill="#0045B2"/>
<path d="M225.424 0.0690918H226.53L230.836 11.2111H229.186L228.147 8.32246H223.84L222.751 11.2772H221.102L225.424 0.0690918ZM227.701 7.13398L226.662 4.22879L226.051 2.38003C225.936 2.7762 225.738 3.30441 225.408 4.2453L224.368 7.13398H227.701Z" fill="#0045B2"/>
<path d="M235.095 7.74467C235.334 7.13315 235.74 6.60118 236.266 6.20954C235.661 6.03615 235.135 5.65855 234.777 5.14095C234.42 4.62336 234.252 3.99771 234.303 3.37038C234.3 2.90607 234.396 2.44643 234.583 2.0215C234.77 1.59656 235.044 1.21588 235.388 0.904324C235.733 0.592764 236.138 0.35733 236.58 0.213398C237.021 0.0694668 237.488 0.0202751 237.949 0.069036H240.968V11.2771H239.484V6.67173H237.834C237.487 6.67173 237.091 7.03488 236.613 8.02528L234.963 11.3266H233.23L235.095 7.74467ZM238.114 5.45023H239.5V1.40608H238.164C237.877 1.37758 237.589 1.41074 237.316 1.50334C237.044 1.59594 236.795 1.74582 236.585 1.94289C236.376 2.13996 236.211 2.37965 236.102 2.64582C235.993 2.91198 235.942 3.19845 235.953 3.48593C235.953 4.85599 236.926 5.45023 238.197 5.45023" fill="#0045B2"/>
<path d="M250.984 0.168161H252.469V5.02114H253.558C255.208 5.02114 255.423 2.74321 256.165 1.20809C256.308 0.864049 256.551 0.571221 256.863 0.36798C257.175 0.164739 257.542 0.0605684 257.914 0.0691207C258.195 0.0618567 258.474 0.106628 258.739 0.201175V1.55473C258.56 1.4858 258.37 1.45217 258.178 1.45569C258.005 1.44767 257.833 1.49227 257.686 1.5836C257.539 1.67494 257.423 1.80874 257.353 1.9674C256.808 2.97431 256.561 4.9221 255.39 5.61538C255.918 5.79696 256.33 6.35819 256.792 7.26606L258.937 11.2607H257.287L255.373 7.66222C254.862 6.67182 254.449 6.32517 254.119 6.32517H252.469V11.2772H250.984V0.168161Z" fill="#0045B2"/>
<path d="M262.039 5.76387C262.039 4.31918 262.613 2.93366 263.634 1.91211C264.655 0.890553 266.04 0.31665 267.484 0.31665C268.928 0.31665 270.313 0.890553 271.334 1.91211C272.355 2.93366 272.928 4.31918 272.928 5.76387C272.928 7.20857 272.355 8.59409 271.334 9.61564C270.313 10.6372 268.928 11.2111 267.484 11.2111C266.04 11.2111 264.655 10.6372 263.634 9.61564C262.613 8.59409 262.039 7.20857 262.039 5.76387ZM271.344 5.76387C271.406 5.21878 271.352 4.66679 271.186 4.14405C271.02 3.6213 270.745 3.13958 270.38 2.73043C270.014 2.32127 269.567 1.99391 269.066 1.76977C268.566 1.54563 268.024 1.42977 267.475 1.42977C266.927 1.42977 266.385 1.54563 265.885 1.76977C265.384 1.99391 264.937 2.32127 264.571 2.73043C264.206 3.13958 263.931 3.6213 263.765 4.14405C263.599 4.66679 263.545 5.21878 263.606 5.76387C263.545 6.30897 263.599 6.86095 263.765 7.3837C263.931 7.90645 264.206 8.38817 264.571 8.79732C264.937 9.20648 265.384 9.53384 265.885 9.75798C266.385 9.98212 266.927 10.098 267.475 10.098C268.024 10.098 268.566 9.98212 269.066 9.75798C269.567 9.53384 270.014 9.20648 270.38 8.79732C270.745 8.38817 271.02 7.90645 271.186 7.3837C271.352 6.86095 271.406 6.30897 271.344 5.76387Z" fill="#0045B2"/>
<path d="M277.002 0.168267H278.388L281.407 4.69111C281.852 5.36789 282.133 5.78056 282.413 6.24275C282.661 5.79707 282.958 5.30186 283.387 4.59207L286.208 0.135254H287.578V11.2773H286.109V4.42701C286.109 3.89879 286.109 3.22201 286.109 2.66078C285.878 3.08996 285.515 3.6677 285.317 3.98132L282.76 8.05849H282.017L279.213 3.89879C278.941 3.51257 278.693 3.11016 278.47 2.6938C278.47 3.189 278.47 3.9153 278.47 4.34447V11.2773H276.969L277.002 0.168267Z" fill="#0045B2"/>
<path d="M292.215 0.168213H300.53V11.2772H299.045V1.45574H293.683V11.2772H292.215V0.168213Z" fill="#0045B2"/>
<path d="M308.152 0.0690918H309.258L313.498 11.2772H311.848L310.874 8.32246H306.585L305.529 11.2442H303.879L308.152 0.0690918ZM310.396 7.06795L309.357 4.16276L308.746 2.31401C308.631 2.71017 308.433 3.23839 308.103 4.17927L307.063 7.06795H310.396Z" fill="#0045B2"/>
<path d="M316.98 0.168213H318.482V4.95517H324.289V0.168213H325.758V11.2772H324.289V6.24269H318.482V11.2772H316.98V0.168213Z" fill="#0045B2"/>
<path d="M330.359 0.168173H331.844V6.88641C331.844 7.66223 331.844 8.20695 331.844 8.8012C332.207 8.25647 332.669 7.56319 333.329 6.72135L338.279 0.118652H339.731V11.2772H338.246V4.31136C338.246 3.50253 338.246 2.99082 338.246 2.46261C337.883 3.00733 337.404 3.6676 336.81 4.47643L331.646 11.2772H330.376L330.359 0.168173Z" fill="#0045B2"/>
<path d="M345.11 7.74492C345.348 7.1334 345.754 6.60143 346.281 6.20979C345.682 6.03014 345.164 5.64989 344.812 5.1329C344.461 4.61591 344.298 3.99366 344.351 3.37063C344.348 2.90786 344.443 2.44977 344.629 2.02608C344.815 1.6024 345.088 1.22258 345.431 0.911283C345.773 0.599984 346.177 0.364156 346.616 0.2191C347.055 0.074045 347.52 0.0230033 347.98 0.0692871H351V11.2774H349.515V6.67198H347.865C347.535 6.67198 347.122 7.03513 346.644 8.02554L344.994 11.3269H343.262L345.11 7.74492ZM348.145 5.45048H349.531V1.40633H348.145C347.853 1.36488 347.555 1.38835 347.272 1.47508C346.99 1.56182 346.73 1.70969 346.511 1.9082C346.292 2.10671 346.12 2.35099 346.006 2.62371C345.892 2.89642 345.839 3.19088 345.852 3.48618C345.852 4.85624 346.825 5.45048 348.096 5.45048" fill="#0045B2"/>
</svg>
