<svg width="278" height="77" viewBox="0 0 278 77" fill="none" xmlns="http://www.w3.org/2000/svg">
<path d="M71.2539 36.054H86.5594V50.2181L95.0295 36.054H111.811L98.8039 54.7107L112.188 75.3951H94.5935L86.5594 60.4457V75.3951H71.2539V36.054Z" fill="#0045B2"/>
<path d="M67.3942 74.1689C64.997 75.4612 61.7178 76.5843 57.1214 76.5843C44.659 76.5843 35.8125 68.3245 35.8125 55.7307C35.8125 41.4575 47.1751 34.8875 56.9032 34.8875C60.0141 34.8875 64.3332 35.6726 67.3942 37.8593V51.6259C65.0464 48.6538 61.6087 47.4612 58.9243 47.4612C53.2379 47.4612 50.5137 51.3376 50.5137 56.1185C50.5137 61.1182 54.0601 63.9808 58.8747 63.9808C62.2627 63.9808 65.2149 62.4105 67.3942 60.3827V74.1689Z" fill="#0045B2"/>
<path d="M15.2956 65.7048V59.8008H17.1481C18.6242 59.8008 20.9819 60.0791 20.9819 62.7231C20.9819 65.4764 18.5646 65.7048 17.1481 65.7048H15.2956ZM0 35.8064V75.1477H22.6163C33.2262 75.1477 35.5246 68.17 35.5246 64.1841C35.5246 58.8467 31.9683 54.9701 27.0447 54.1252V54.0159C30.2148 53.0618 33.7116 50.2488 33.7116 45.8157C33.7116 42.7743 32.5626 35.8064 21.5762 35.8064H0ZM15.2956 50.7557V45.2491H16.7221C19.3968 45.2491 20.1102 46.6607 20.1102 48.0024C20.1102 49.3443 19.3968 50.7557 16.7221 50.7557H15.2956Z" fill="#0045B2"/>
<path d="M201.631 41.069L197.263 41.238L196.867 40.1645L192.656 39.8664L192.638 39.0812L188.129 39.0115L188.872 40.6415L190.884 40.8802L190.637 40.3534L192.459 41.5759L195.48 42.2618L197.492 42.3314L202.554 41.6555L201.631 41.069Z" fill="#0045B2"/>
<path d="M190.492 37.2538L188.431 36.9753C188.431 36.9753 188.491 36.2599 187.689 35.8623C186.885 35.4647 187.074 35.8326 187.074 35.8326L186.291 35.2559L184.844 35.0074L184.726 33.9239L182.843 33.8244L182.883 33.2878L181.418 33.109L180.792 32.5424L180.992 31.9262L180.624 31.3695L178.872 30.5345L177.405 29.9482L176.435 28.8249L175.285 27.821L173.8 26.3599L170.094 25.0578L166.577 22.4536L165.151 21.8472L163.645 21.1018L160.445 19.3723L155.74 16.7384L145.318 11.6592L142.346 10.3372C140.662 9.60169 140.385 9.21405 140.345 8.99538C138.819 8.63756 138.314 8.36918 137.522 7.56406C136.709 7.59389 134.916 6.55023 134.421 6.07313C134.421 6.04331 131.35 5.14873 131.152 4.96981C131.142 4.78098 123.187 1.96805 122.216 1.7295C121.523 1.66987 119.601 1.31203 119.333 1.18281C119.007 1.18281 117.788 0.795166 117.293 0.745461C115.638 0.55661 114.053 0.298184 112.349 0.268369C111.131 0.258426 110.437 0.268369 109.368 0C108.991 0.238556 106.494 -0.20874 105.613 0.447277C104.612 0.487036 102.334 0.993961 101.7 1.30209C100.343 1.36174 98.0246 2.85268 97.2419 3.24032C96.8555 3.42918 96.4396 3.62798 96.0234 3.82676C98.5101 4.71138 101.343 5.75504 101.343 5.8644C101.541 6.04331 104.603 6.93787 104.612 6.95774C105.108 7.4448 106.901 8.47851 107.713 8.4487C108.506 9.25381 109.021 9.52217 110.546 9.88C110.586 10.0987 110.853 10.4863 112.538 11.2219L115.509 12.5438L125.931 17.6231L130.637 20.257L133.836 21.9865L135.342 22.7318L136.769 23.3382L137.938 24.2031L140.236 25.0976L145.417 26.7873L151.668 29.2326L153.996 30.0376L156.344 30.7732L157.453 30.5644L158.672 30.9819L160.019 32.1944L161.396 31.7374L162.327 31.9061L163.07 32.8804L163.556 33.457L164.735 33.8148L165.904 33.9639L167.291 33.7053L168.915 33.8445L169.49 34.8186L171.758 35.2162L173.382 35.3454L175.018 35.4745L176.266 36.061L177.415 37.3135L179.049 37.6514L183.28 38.2676L187.113 37.8005L189.609 37.9196L190.492 37.2538Z" fill="#0045B2"/>
<path d="M156.16 43.4719L160.668 43.5414L160.697 44.3168L164.898 44.625L165.304 45.7083L169.663 45.5293L170.604 46.1157L165.532 46.7918L163.521 46.7221L160.489 46.0462L158.666 44.8038L158.914 45.3406L156.903 45.112L156.16 43.4719Z" fill="#0045B2"/>
<path d="M156.63 41.6165C156.63 41.6165 156.689 40.9006 155.887 40.5032C155.085 40.0956 155.263 40.4733 155.263 40.4733L154.48 39.8969L153.034 39.6483L152.915 38.565L151.043 38.4756L151.092 37.9388L149.616 37.7598L148.992 37.2032L149.19 36.5868L148.814 36.0303L147.06 35.1853L145.594 34.599L144.623 33.4958L143.464 32.4818L141.978 31.0208L138.273 29.7186L134.757 27.1245L133.33 26.5179L131.814 25.7725L128.624 24.0431L123.909 21.399L113.497 16.32L110.525 14.998C108.841 14.2624 108.564 13.8748 108.524 13.6561C106.999 13.2983 106.493 13.03 105.691 12.2249C104.888 12.2646 103.086 11.2209 102.59 10.7339C102.59 10.7041 99.529 9.80952 99.331 9.63059C99.3211 9.45168 91.3662 6.62881 90.3954 6.39027C89.692 6.34058 87.7802 5.97281 87.5127 5.85353C87.1857 5.86348 85.9672 5.47582 85.4719 5.41618C83.8174 5.22735 82.2324 4.96889 80.5284 4.93908C79.3099 4.91921 78.6264 4.93908 77.5467 4.68066C77.1603 4.91921 74.6739 4.46197 73.7822 5.12794C72.7916 5.1677 70.5131 5.67462 69.8792 5.98274C68.5219 6.03244 66.2038 7.53334 65.4113 7.92098C64.7278 8.25894 63.9452 8.59687 63.3013 8.99446C63.004 9.23302 58.6452 11.3998 58.3577 11.6682C58.4172 11.8173 54.0883 14.4017 53.682 14.7793C53.5036 14.9782 52.3446 15.4452 52.0574 15.7235C51.7601 16.0119 50.6013 17.0556 50.205 17.2443C50.0365 17.6022 48.9367 17.9998 48.7585 18.3676C48.5011 18.7354 47.1833 19.3715 46.9755 19.62C46.9357 19.6498 46.2125 20.2461 45.628 20.7332C45.3902 21.0513 45.1426 21.3793 44.905 21.7072C44.6176 21.8168 43.4585 22.4826 43.1613 22.7112C43.191 23.407 43.2406 24.5102 42.1509 24.3014L40.8729 25.0569C41.0314 25.047 40.1993 26.2794 39.5158 27.1343C39.1095 27.6314 37.2373 28.3173 36.8707 28.824C36.1178 29.8677 35.1568 30.8319 34.4141 31.8558V31.9351H34.503C34.5131 32.0743 35.2263 32.0544 35.3253 32.3327C35.4739 32.7404 35.0282 33.0982 34.9192 33.456L35.0083 33.446V33.5255C35.5827 33.5056 36.1475 32.8993 36.6133 32.6508C36.9995 32.5117 37.3957 32.3428 37.7822 32.1935C38.4755 31.786 39.1591 31.3786 39.8526 30.9611C45.0139 28.1582 50.1652 25.3452 55.3265 22.5322C57.7932 21.2004 59.7646 19.958 62.479 18.4471C63.1328 18.0893 65.6093 16.4095 67.4916 16.2902C69.8593 16.1411 72.7024 16.7474 73.4652 17.0654C74.1983 17.3239 75.9912 18.2383 76.893 18.457C77.1704 18.5663 77.6855 18.9341 77.8042 18.9341C77.8934 19.0634 79.5973 19.3317 80.4987 19.6498C80.806 19.8485 81.103 20.0274 81.4101 20.2063C82.8863 20.6437 86.5713 21.5085 87.9089 21.9258C89.0381 22.2738 89.7119 22.9099 90.2767 23.0293C91.0491 23.5659 91.2176 23.2876 92.1587 23.7547C93.5853 23.9038 94.467 24.4109 94.5164 24.4606C94.9623 24.6394 95.2595 24.8284 95.7052 25.0072C96.0717 25.0569 96.7751 25.6035 97.0526 25.7428C97.3895 25.8125 99.7076 26.5181 99.9454 26.6374C100.332 26.5977 101.976 27.3131 102.184 27.4921C102.65 27.7107 103.175 27.8301 103.7 27.9394L108.435 29.7982L113.606 31.4879L119.857 33.933L122.195 34.738L124.543 35.4637L125.643 35.255L126.861 35.6725L128.208 36.8852L129.585 36.4279L130.517 36.5969L131.26 37.5709L131.735 38.1574L132.914 38.5054L134.083 38.6544L135.47 38.3958L137.095 38.5252L137.669 39.5093L139.937 39.8969L141.572 40.0261L143.207 40.1552L144.455 40.7319L145.594 41.9743L147.229 42.3022L151.469 42.9284L155.303 42.4613L157.799 42.5805L158.691 41.9046L156.63 41.6165Z" fill="#0045B2"/>
<path d="M124.947 73.803C124.214 74.1905 123.233 74.5186 121.916 74.5186C119.776 74.5186 118.468 73.7732 117.438 72.8088C116.021 71.4473 115.477 69.9266 115.477 68.1077C115.477 65.891 116.398 64.2807 117.438 63.3067C118.667 62.1438 120.202 61.6865 121.936 61.6865C122.798 61.6865 123.828 61.8356 124.947 62.442V65.235C123.828 63.9428 122.431 63.8534 121.985 63.8534C119.528 63.8534 117.933 65.891 117.933 68.1473C117.933 70.8708 120.024 72.3419 122.084 72.3419C123.214 72.3419 124.234 71.8449 124.947 71V73.803Z" fill="#0045B2"/>
<path d="M131.933 74.234H129.535V64.026H126.781V61.9683H134.687V64.026H131.933V74.234Z" fill="#0045B2"/>
<path d="M137.105 61.9683V74.2438H139.503V69.7014H141.048C142.455 69.7014 143.466 69.2939 144.149 68.6179C145.09 67.6836 145.159 66.3518 145.159 65.8746C145.159 64.99 144.902 63.7972 143.911 62.9126C143.01 62.1173 142.059 61.9783 140.682 61.9783H137.105V61.9683ZM139.503 64.026H140.325C140.9 64.026 141.524 64.0558 142.019 64.4136C142.376 64.6719 142.703 65.1292 142.703 65.8051C142.703 66.3419 142.485 66.8886 142.049 67.2364C141.534 67.634 140.939 67.634 140.484 67.634H139.513V64.026H139.503Z" fill="#0045B2"/>
<path d="M155.392 74.2361H157.958L152.796 61.7021H150.993L145.684 74.2361H148.279L149.369 71.6616H154.312L155.392 74.2361ZM150.122 69.7135L151.885 65.3101L153.619 69.7135H150.122Z" fill="#0045B2"/>
<path d="M163.413 67.7633L159.758 61.9684H162.621L164.77 65.7654L167.029 61.9684H169.902L166.128 67.7633L170.318 74.2341H167.455L164.77 69.7415L161.947 74.2341H159.074L163.413 67.7633Z" fill="#0045B2"/>
<path d="M178.953 61.6936C175.099 61.6936 172.414 64.3774 172.414 68.1146C172.414 71.8519 175.099 74.5257 178.953 74.5257C182.806 74.5257 185.491 71.8519 185.491 68.1146C185.491 64.3774 182.806 61.6936 178.953 61.6936ZM178.953 72.3488C176.566 72.3488 174.87 70.5896 174.87 68.1146C174.87 65.6297 176.566 63.8604 178.953 63.8604C181.341 63.8604 183.034 65.6297 183.034 68.1146C183.034 70.5896 181.341 72.3488 178.953 72.3488Z" fill="#0045B2"/>
<path d="M191.009 68.8963H191.89C192.405 68.8963 193.01 68.8963 193.525 69.1348C194.307 69.4828 194.425 70.1486 194.425 70.5364C194.425 71.0136 194.257 71.6 193.663 71.9478C193.128 72.256 192.465 72.2857 192.029 72.2857H191.009V68.8963ZM188.621 61.9683V74.2438H192.731C193.802 74.2438 194.921 74.065 195.842 73.2499C196.684 72.4945 196.883 71.4905 196.883 70.765C196.883 70.1189 196.734 69.1645 196 68.4592C195.695 68.1709 195.208 67.8229 194.406 67.6937C194.743 67.5048 195.784 66.8587 195.784 65.2783C195.784 64.2446 195.358 63.2905 194.643 62.7337C193.654 61.9683 192.326 61.9683 191.653 61.9683H188.621ZM191.009 63.9165H191.711C192.682 63.9165 193.544 64.3439 193.544 65.4573C193.544 67.0277 192.058 67.0674 191.692 67.0674H191.009V63.9165Z" fill="#0045B2"/>
<path d="M205.967 61.6936C202.114 61.6936 199.43 64.3774 199.43 68.1146C199.43 71.8519 202.104 74.5257 205.967 74.5257C209.832 74.5257 212.506 71.8519 212.506 68.1146C212.506 64.3774 209.822 61.6936 205.967 61.6936ZM205.967 72.3488C203.581 72.3488 201.886 70.5896 201.886 68.1146C201.886 65.6297 203.581 63.8604 205.967 63.8604C208.355 63.8604 210.05 65.6297 210.05 68.1146C210.04 70.5896 208.355 72.3488 205.967 72.3488Z" fill="#0045B2"/>
<path d="M219.383 58.0417C219.77 59.0754 220.799 59.115 221.036 59.115C221.273 59.115 222.304 59.0754 222.691 58.0417L224.344 58.7078C223.87 59.95 222.73 60.7651 221.036 60.7651C219.342 60.7651 218.213 59.9601 217.726 58.7078L219.383 58.0417ZM218.014 61.9678V70.2078L224.781 61.6795H226.436V74.2335H224.036V65.9537L217.272 74.472H215.617V61.9579H218.014V61.9678Z" fill="#0045B2"/>
<path d="M236.518 61.9684V67.2962C236.518 68.9959 236.31 69.9203 236.073 70.5166C235.694 71.441 235.01 72.2161 234.129 72.1766V76.9973H236.329V74.2341H243.859V76.9973H246.068V72.1766H244.779V61.9684H236.518ZM238.836 64.0261H242.403V72.1766H237.459C237.805 71.8485 238.162 71.4012 238.419 70.7254C238.648 70.1389 238.836 69.1946 238.836 67.2962V64.0261Z" fill="#0045B2"/>
<path d="M254.526 61.6937C250.672 61.6937 247.988 64.3775 247.988 68.1147C247.988 71.8521 250.672 74.5258 254.526 74.5258C258.39 74.5258 261.065 71.8521 261.065 68.1147C261.065 64.3775 258.379 61.6937 254.526 61.6937ZM254.526 72.3489C252.137 72.3489 250.443 70.5897 250.443 68.1147C250.443 65.6298 252.137 63.8606 254.526 63.8606C256.923 63.8606 258.608 65.6298 258.608 68.1147C258.608 70.5897 256.912 72.3489 254.526 72.3489Z" fill="#0045B2"/>
<path d="M263.566 74.2349L265.835 61.7407H267.499L270.818 69.762L274.284 61.7407H275.948L277.999 74.2349H275.572L274.473 66.6707L271.115 74.3938H270.45L267.232 66.6707L265.994 74.2349H263.566Z" fill="#0045B2"/>
</svg>
