<svg width="294" height="75" viewBox="0 0 294 75" fill="none" xmlns="http://www.w3.org/2000/svg">
<path d="M42.9063 0.000114441H18.1734C8.1495 0.000114441 0 8.14341 0 18.1514V42.8606C0 52.8665 8.1495 61.0115 18.1734 61.0115H42.9063C52.9217 61.0115 61.074 52.8665 61.074 42.8606V18.1514C61.074 8.14341 52.9217 0.000114441 42.9063 0.000114441Z" fill="#0045B2"/>
<path d="M33.0129 41.7224C31.4934 43.9458 29.5095 45.1191 27.2726 45.1191C24.6685 45.1191 22.6991 43.9528 21.248 41.5436C19.7282 39.0214 18.9563 35.2405 18.9563 30.3052C18.9563 25.7802 19.7735 22.1844 21.3828 19.6159C22.8953 17.2049 24.7893 16.0805 27.3446 16.0805C29.619 16.0805 31.3948 17.0247 32.9391 19.0588C34.5941 21.2419 35.9914 24.8485 36.9936 29.4829C35.7366 35.751 34.5064 39.54 33.0129 41.7224ZM49.8187 38.0042L49.7974 38.2763C49.7099 39.3345 49.0455 40.4065 47.9434 40.4065C47.1006 40.4065 46.4228 40.094 45.8704 39.4537C45.2063 38.689 44.6078 37.7728 44.0037 36.1083C45.717 30.3017 51.0002 11.7034 51.0002 11.7034H40.9732C40.9732 11.7034 40.0469 16.0643 39.2111 20.0318C39.1697 19.9357 39.127 19.8386 39.0834 19.7481C38.248 17.9655 36.9143 15.9816 35.4309 14.5874C32.8475 12.1613 29.8103 10.98 26.1424 10.98C21.0803 10.98 16.7974 12.8507 13.4127 16.5408C10.0438 20.2096 8.26562 24.9158 8.26562 30.1488C8.26562 35.9793 9.95564 40.7673 13.2867 44.3747C16.7633 48.1448 20.9181 49.8997 26.3617 49.8997C29.5327 49.8997 32.5601 48.9582 35.3663 47.1044C37.1796 45.9087 38.8346 44.2526 40.3969 42.1011C41.0543 44.225 41.7155 45.6763 42.506 46.7614C43.7868 48.5147 45.705 49.521 47.7672 49.521C49.9139 49.521 51.8696 48.4214 52.8746 46.6549C53.7643 45.0864 54.1273 43.1425 54.1273 39.945V38.0042H49.8187Z" fill="white"/>
<path d="M81.101 18.4938L82.2053 13.4968C82.3841 12.688 83.014 11.4537 84.6665 11.4537C86.318 11.4537 86.947 12.688 87.1267 13.4968L88.2311 18.4938H81.101ZM91.6465 12.5859C90.9546 9.46831 88.9849 7.29154 84.6665 7.29154C80.6032 7.29154 78.3765 9.46831 77.6829 12.5859L74.5469 26.7002H77.8994C78.665 26.7002 79.4261 26.0891 79.5887 25.344L80.2231 22.4732H89.1081L89.7433 25.344C89.9078 26.0891 90.6671 26.7002 91.4317 26.7002H94.7852L91.6465 12.5859Z" fill="#0045B2"/>
<path d="M103.051 12.004H110.53V26.699H115.161V7.74901H101.197C99.6704 7.74901 98.4197 8.9969 98.4197 10.5247V20.1007C98.4197 21.3815 97.8275 22.1964 96.8004 22.4022L95.8516 22.6285L96.7106 26.699H97.593C100.76 26.699 103.051 24.3448 103.051 20.3384V12.004Z" fill="#0045B2"/>
<path d="M155.402 22.5145H153.716V11.9357H155.402C158.573 11.9357 160.07 13.9393 160.07 17.223C160.07 20.511 158.573 22.5145 155.402 22.5145ZM147.398 22.5145C144.229 22.5145 142.729 20.511 142.729 17.223C142.729 13.9393 144.229 11.9357 147.398 11.9357H149.084V22.5145H147.398ZM155.402 7.74907H153.716V5.54743H150.474C149.71 5.54743 149.084 6.1677 149.084 6.9324V7.74907H147.398C141.675 7.74907 138.098 11.6468 138.098 17.223C138.098 22.8017 141.675 26.699 147.398 26.699H149.084V28.9961H152.326C153.092 28.9961 153.716 28.3716 153.716 27.6111V26.699H155.402C161.126 26.699 164.702 22.8017 164.702 17.223C164.702 11.6468 161.126 7.74907 155.402 7.74907Z" fill="#0045B2"/>
<path d="M129.53 22.4463H122.884V16.81H129.53C130.659 16.81 131.978 17.8198 131.978 19.6267C131.978 21.4328 130.659 22.4463 129.53 22.4463ZM129.53 12.5543H122.884V7.75093H118.254V25.3123C118.254 26.0753 118.879 26.6991 119.643 26.6991H129.53C133.568 26.6991 136.606 23.6616 136.606 19.6267C136.606 15.5947 134.056 12.5543 129.53 12.5543Z" fill="#0045B2"/>
<path d="M171.428 18.4938L172.528 13.4968C172.711 12.688 173.34 11.4537 174.992 11.4537C176.644 11.4537 177.271 12.688 177.454 13.4968L178.554 18.4938H171.428ZM181.973 12.5859C181.28 9.46831 179.312 7.29154 174.992 7.29154C170.932 7.29154 168.703 9.46831 168.008 12.5859L164.871 26.7002H168.225C168.99 26.7002 169.753 26.0891 169.914 25.344L170.549 22.4732H179.435L180.068 25.344C180.233 26.0891 180.993 26.7002 181.757 26.7002H185.108L181.973 12.5859Z" fill="#0045B2"/>
<path d="M204.553 49.3576H196.014V45.6198H204.553C205.171 45.6952 206.01 46.3004 206.01 47.4887C206.01 48.6665 205.171 49.3576 204.553 49.3576ZM204.183 38.2707C204.797 38.2707 205.64 38.9611 205.64 40.1396C205.64 41.3266 204.797 41.9314 204.183 42.0068H196.014V38.2707H204.183ZM208.813 43.4585C209.63 42.6547 210.155 41.5615 210.155 40.0446C210.155 36.6854 207.552 34.3383 204.187 34.3383H192.866C192.103 34.3383 191.477 34.9603 191.477 35.7243V51.9015C191.477 52.6645 192.103 53.2882 192.866 53.2882L204.902 53.29C208.448 53.29 210.804 50.7553 210.804 47.3978C210.804 45.7061 210 44.382 208.813 43.4585Z" fill="#0045B2"/>
<path d="M173.501 43.8131C173.501 40.4146 175.314 37.8167 178.505 37.8167H179.533C182.722 37.8167 184.535 40.4146 184.535 43.8131C184.535 47.2125 182.722 49.8118 179.533 49.8118H178.505C175.314 49.8118 173.501 47.2125 173.501 43.8131ZM178.226 33.9022C172.501 33.9022 168.5 37.9749 168.5 43.8131C168.5 49.6484 172.501 53.7246 178.226 53.7246H179.81C185.538 53.7246 189.537 49.6484 189.537 43.8131C189.537 37.9749 185.538 33.9022 179.81 33.9022H178.226Z" fill="#0045B2"/>
<path d="M91.8086 34.3384L92.4196 37.2045C92.5813 37.9692 93.3406 38.5913 94.1044 38.5913H98.4211V53.2883H103.053V38.5913H107.235C107.998 38.5913 108.755 37.9692 108.916 37.2045L109.527 34.3384H91.8086Z" fill="#0045B2"/>
<path d="M247.797 34.3384V41.8631H238.788V34.3384H234.156V53.2883H238.788V45.9271H247.797V53.2883H252.428V34.3384H247.797Z" fill="#0045B2"/>
<path d="M135.159 45.0841L136.261 40.085C136.44 39.2789 137.068 38.0429 138.721 38.0429C140.374 38.0429 141.003 39.2789 141.184 40.0885L142.286 45.0841H135.159ZM145.702 39.1765C145.008 36.0582 143.044 33.8825 138.721 33.8825C134.664 33.8825 132.435 36.0582 131.743 39.1765L128.605 53.2883H131.959C132.724 53.2883 133.484 52.6796 133.649 51.9349L134.282 49.0614H143.165L143.798 51.9349C143.961 52.6796 144.724 53.2883 145.489 53.2883H148.841L145.702 39.1765Z" fill="#0045B2"/>
<path d="M218.423 45.084L219.528 40.0849C219.71 39.2788 220.336 38.0428 221.987 38.0428C223.639 38.0428 224.269 39.2788 224.451 40.0884L225.552 45.084H218.423ZM228.971 39.1763C228.276 36.0581 226.311 33.8824 221.987 33.8824C217.926 33.8824 215.701 36.0581 215.006 39.1763L211.871 53.2882H215.225C215.99 53.2882 216.749 52.6795 216.912 51.9347L217.547 49.0613H226.432L227.068 51.9347C227.232 52.6795 227.992 53.2882 228.753 53.2882H232.111L228.971 39.1763Z" fill="#0045B2"/>
<path d="M93.2479 53.2362V53.2899H84.2021C78.7236 53.2899 74.8984 49.3943 74.8984 43.8128C74.8984 38.2337 78.7236 34.3371 84.2021 34.3371H91.0635L90.3923 37.2411C90.2216 37.9862 89.4551 38.5911 88.6922 38.5911H84.2021C81.2737 38.5911 79.5287 40.7741 79.5287 43.8128C79.5287 46.8504 81.2737 49.0352 84.2021 49.0352H90.8883C91.6521 49.0352 92.4186 49.6418 92.5902 50.387L93.2479 53.2362Z" fill="#0045B2"/>
<path d="M121.939 44.2276H115.296V38.5966H121.939C123.07 38.5966 124.39 39.6048 124.39 41.4124C124.39 43.2178 123.07 44.2276 121.939 44.2276ZM121.939 34.3371L112.054 34.3392C111.288 34.3392 110.664 34.9647 110.664 35.7267V53.2899H115.296V48.483H121.939C126.471 48.483 129.019 45.4429 129.019 41.4124C129.019 37.3803 125.976 34.3371 121.939 34.3371Z" fill="#0045B2"/>
<path d="M291.685 49.2875H281.709V45.6496H292.554V41.9942H281.709V38.3373H291.685C292.506 38.3373 293.156 37.9783 293.382 36.9852L294 34.3383H278.468C277.704 34.3383 277.078 34.9603 277.078 35.725V51.9015C277.078 52.6645 277.704 53.29 278.468 53.29H294L293.382 50.6431C293.156 49.65 292.506 49.2875 291.685 49.2875Z" fill="#0045B2"/>
<path d="M255.602 53.2883V34.3384H260.233V46.8408L268.257 35.4551C268.709 34.8412 269.701 34.3384 270.469 34.3384H273.903V53.2883H269.27V40.7863L261.245 52.1698C260.796 52.7859 259.801 53.2883 259.036 53.2883H255.602Z" fill="#0045B2"/>
<path d="M162.811 43.7124L169.273 34.3384H165.021C164.1 34.3384 163.455 34.6168 162.886 35.5081L159.442 40.909H158.827L155.38 35.5081C154.815 34.6168 154.17 34.3384 153.245 34.3384H148.855L155.457 43.9126L148.994 53.2883H153.245C154.17 53.2883 154.815 53.012 155.38 52.1186L158.827 46.716H159.442L162.886 52.1186C163.455 53.012 164.1 53.2883 165.021 53.2883H169.412L162.811 43.7124Z" fill="#0045B2"/>
<path d="M75.2773 67.752C75.2773 65.3024 76.9262 63.0826 79.7746 63.0826C80.9329 63.0826 81.6832 63.3414 82.3517 63.7775L81.7524 64.6885C81.233 64.3358 80.5932 64.1044 79.7486 64.1044C77.6495 64.1044 76.5722 65.8197 76.5722 67.7253C76.5722 69.6578 77.6082 71.4426 79.7746 71.4426C80.7568 71.4426 81.4523 71.1157 81.9689 70.6796L82.5153 71.5509C82.0516 71.9864 81.029 72.4766 79.7486 72.4766C76.8723 72.4766 75.2773 70.2037 75.2773 67.752Z" fill="#0045B2"/>
<path d="M84.2422 63.2458H89.0261V64.2809H85.4687V67.017H88.5894V68.0384H85.4687V71.279H89.1214V72.3137H84.2422V63.2458Z" fill="#0045B2"/>
<path d="M93.4266 67.7252C94.9398 67.7252 95.5652 67.113 95.5652 65.9415C95.5652 64.9345 94.9937 64.2539 93.4671 64.2539H92.4041V67.7252H93.4266ZM91.1641 63.2458H93.5767C95.4439 63.2458 96.834 64.1308 96.834 65.9146C96.834 67.7252 95.5652 68.7323 93.4266 68.7323H92.4041V72.3137H91.1641V63.2458Z" fill="#0045B2"/>
<path d="M101.141 71.3193C102.639 71.3193 103.335 70.8561 103.335 69.7673C103.335 68.7197 102.776 68.0798 101.222 68.0798H99.914V71.3193H101.141ZM101.086 67.1119C102.395 67.1119 102.966 66.6355 102.966 65.6158C102.966 64.6614 102.326 64.2395 101.114 64.2395H99.914V67.1119H101.086ZM98.6875 63.2458H101.209C102.899 63.2458 104.221 63.858 104.221 65.5061C104.221 66.5952 103.594 67.2627 102.599 67.5215V67.5482C103.703 67.7397 104.616 68.5149 104.616 69.7673C104.616 71.6191 103.213 72.3137 101.168 72.3137H98.6875V63.2458Z" fill="#0045B2"/>
<path d="M106.562 63.2458H107.707V69.3049C107.707 69.9855 107.667 70.408 107.652 70.5707H107.68C107.83 70.3256 108.103 69.8491 108.552 69.1954L112.613 63.2458H113.84V72.3137H112.709V65.8598C112.709 65.3966 112.749 64.9881 112.749 64.8258H112.722C112.572 65.0843 112.286 65.5877 111.987 66.0366L107.707 72.3137H106.562V63.2458Z" fill="#0045B2"/>
<path d="M115.816 67.7519C115.816 65.3023 117.465 63.0825 120.314 63.0825C121.472 63.0825 122.222 63.3412 122.89 63.7774L122.291 64.6883C121.772 64.3357 121.132 64.1042 120.287 64.1042C118.188 64.1042 117.111 65.8195 117.111 67.7252C117.111 69.6577 118.147 71.4424 120.314 71.4424C121.295 71.4424 121.99 71.1156 122.508 70.6794L123.053 71.5508C122.59 71.9862 121.568 72.4764 120.287 72.4764C117.41 72.4764 115.816 70.2036 115.816 67.7519Z" fill="#0045B2"/>
<path d="M130.291 71.3056C131.818 71.3056 132.444 70.6794 132.444 69.5493C132.444 68.5562 131.859 67.8749 130.346 67.8749H129.01V71.3056H130.291ZM127.77 63.2469H132.908V64.2809H129.01V66.868H130.454C132.308 66.868 133.698 67.7397 133.698 69.5086C133.698 71.3193 132.43 72.3137 130.291 72.3137H127.77V63.2469Z" fill="#0045B2"/>
<path d="M135.291 72.2589L135.456 71.3191C135.565 71.3461 135.715 71.3605 135.891 71.3605C136.64 71.3605 137.077 70.9107 137.5 69.945L137.731 69.4267L134.992 63.2457H136.177L138.33 68.1066L140.472 63.2457H141.657L138.509 70.3938C137.881 71.8093 137.131 72.3406 135.891 72.3406C135.632 72.3406 135.415 72.3136 135.291 72.2589Z" fill="#0045B2"/>
<path d="M147.911 71.2788V64.2807H145.008L144.641 68.1199C144.477 69.8623 144.123 70.761 143.632 71.2788H147.911ZM141.547 71.2788H142.27C142.977 70.6793 143.25 69.849 143.428 67.9152L143.877 63.2457H149.152V71.2788H150.079L149.792 74.2733H148.947L148.852 72.3136H142.746L142.556 74.2733H141.711L141.547 71.2788Z" fill="#0045B2"/>
<path d="M151.589 72.2589L151.752 71.3191C151.861 71.3461 152.011 71.3605 152.189 71.3605C152.938 71.3605 153.374 70.9107 153.796 69.945L154.028 69.4267L151.289 63.2457H152.474L154.628 68.1066L156.768 63.2457H157.953L154.805 70.3938C154.178 71.8093 153.429 72.3406 152.189 72.3406C151.93 72.3406 151.711 72.3136 151.589 72.2589Z" fill="#0045B2"/>
<path d="M170.275 72.3135H159.508V63.2456H160.747V71.2787H164.427V63.2456H165.655V71.2787H169.334V63.2456H170.574V71.2787H171.515L171.215 74.2732H170.369L170.275 72.3135Z" fill="#0045B2"/>
<path d="M173.406 63.2458H178.19V64.2809H174.632V67.017H177.753V68.0384H174.632V71.279H178.285V72.3137H173.406V63.2458Z" fill="#0045B2"/>
<path d="M180.328 63.2458H185.207V64.2676H181.568V72.3137H180.328V63.2458Z" fill="#0045B2"/>
<path d="M193.657 67.7934C193.657 65.8197 192.58 64.1044 190.481 64.1044C188.383 64.1044 187.252 65.7937 187.252 67.7664C187.252 69.7405 188.356 71.4558 190.454 71.4558C192.552 71.4558 193.657 69.7682 193.657 67.7934ZM185.957 67.7934C185.957 65.3017 187.606 63.0826 190.454 63.0826C193.289 63.0826 194.965 65.2748 194.965 67.7664C194.965 70.244 193.316 72.4766 190.481 72.4766C187.634 72.4766 185.957 70.2711 185.957 67.7934Z" fill="#0045B2"/>
<path d="M202.363 71.3193C203.862 71.3193 204.557 70.8561 204.557 69.7673C204.557 68.7197 203.999 68.0798 202.444 68.0798H201.136V71.3193H202.363ZM202.308 67.1119C203.617 67.1119 204.189 66.6355 204.189 65.6158C204.189 64.6614 203.548 64.2395 202.335 64.2395H201.136V67.1119H202.308ZM199.91 63.2458H202.431C204.122 63.2458 205.443 63.858 205.443 65.5061C205.443 66.5952 204.815 67.2627 203.822 67.5215V67.5482C204.925 67.7397 205.838 68.5149 205.838 69.7673C205.838 71.6191 204.434 72.3137 202.39 72.3137H199.91V63.2458Z" fill="#0045B2"/>
<path d="M210.773 63.2458H212.013V67.0313H216.932V63.2458H218.173V72.3137H216.932V68.0653H212.013V72.3137H210.773V63.2458Z" fill="#0045B2"/>
<path d="M225.363 69.1551L224.287 66.228C224.001 65.4658 223.878 65.0429 223.742 64.6614H223.715C223.591 65.0698 223.441 65.5331 223.183 66.228L222.093 69.1551H225.363ZM223.183 63.2458H224.369L227.871 72.3137H226.536L225.745 70.1766H221.712L220.934 72.3137H219.707L223.183 63.2458Z" fill="#0045B2"/>
<path d="M228.484 67.752C228.484 65.3024 230.133 63.0826 232.983 63.0826C234.14 63.0826 234.89 63.3414 235.558 63.7775L234.959 64.6885C234.44 64.3358 233.799 64.1044 232.954 64.1044C230.856 64.1044 229.778 65.8197 229.778 67.7253C229.778 69.6578 230.815 71.4426 232.983 71.4426C233.963 71.4426 234.658 71.1157 235.176 70.6796L235.721 71.5509C235.258 71.9864 234.236 72.4766 232.954 72.4766C230.078 72.4766 228.484 70.2037 228.484 67.752Z" fill="#0045B2"/>
<path d="M239.101 64.2809H236.539V63.2458H242.903V64.2809H240.341V72.3137H239.101V64.2809Z" fill="#0045B2"/>
<path d="M251.352 67.7933C251.352 65.8195 250.276 64.1042 248.177 64.1042C246.078 64.1042 244.946 65.7936 244.946 67.7662C244.946 69.7404 246.051 71.4557 248.151 71.4557C250.248 71.4557 251.352 69.7681 251.352 67.7933ZM243.652 67.7933C243.652 65.3016 245.302 63.0825 248.151 63.0825C250.985 63.0825 252.66 65.2747 252.66 67.7662C252.66 70.2439 251.012 72.4764 248.177 72.4764C245.328 72.4764 243.652 70.2709 243.652 67.7933Z" fill="#0045B2"/>
<path d="M258.766 67.2484V64.2539H257.54C256.217 64.2539 255.59 64.7441 255.59 65.7097C255.59 66.6769 256.176 67.2484 257.458 67.2484H258.766ZM253.777 71.2923H253.914C254.527 71.2923 254.894 70.5851 255.685 69.4406C256.08 68.8553 256.503 68.2834 256.803 68.0923V68.0653C255.413 67.9711 254.335 67.2081 254.335 65.7241C254.335 64.1589 255.481 63.2458 257.417 63.2458H259.992V72.3137H258.766V68.215H258.398C257.811 68.2295 257.443 68.978 256.653 70.1352C255.576 71.7278 255.14 72.3137 254.282 72.3137H253.805L253.777 71.2923Z" fill="#0045B2"/>
<path d="M273.307 72.3135H262.539V63.2456H263.78V71.2787H267.46V63.2456H268.686V71.2787H272.366V63.2456H273.607V71.2787H274.547L274.247 74.2732H273.402L273.307 72.3135Z" fill="#0045B2"/>
<path d="M276.438 63.2458H281.221V64.2809H277.664V67.017H280.786V68.0384H277.664V71.279H281.318V72.3137H276.438V63.2458Z" fill="#0045B2"/>
<path d="M284.043 63.2458H285.202L287.369 69.3049C287.628 70.0391 287.778 70.4889 287.927 70.9522H287.954C288.077 70.5167 288.242 70.0265 288.5 69.3049L290.681 63.2458H291.852L293.079 72.3137H291.839L291.09 66.6228C291.007 65.9685 290.967 65.6014 290.94 65.3426H290.912C290.831 65.6424 290.722 66.0239 290.517 66.6085L288.486 72.3137H287.286L285.216 66.6085C285.011 66.0239 284.888 65.6424 284.793 65.3426H284.766C284.738 65.6561 284.697 66.0366 284.629 66.6498L283.935 72.3137H282.789L284.043 63.2458Z" fill="#0045B2"/>
</svg>
