<svg width="369" height="98" viewBox="0 0 369 98" fill="none" xmlns="http://www.w3.org/2000/svg">
<path fill-rule="evenodd" clip-rule="evenodd" d="M0 0V97.7692H8.14312V7.28569H96.787V0H0ZM96.7875 23.5017H23.9648V97.7686H32.3397V97.7687H96.7869V97.7686H96.7875V23.5017ZM96.7869 97.7686V81.5522H48.3934V49.1192H96.7869V32.6676H32.3397V97.7686H96.7869ZM114.236 23.2673V97.7695H135.176V39.719H348.292V23.2673H114.236ZM223.121 44.1841H238.244C242.199 44.1841 245.223 45.1241 247.317 47.4745C248.947 49.5895 249.876 52.4099 249.876 55.9352V74.5021C249.876 78.2623 248.947 81.0827 247.317 83.4328C245.458 86.253 242.897 87.4281 239.175 87.4281H223.121H212.186V97.7692H196.598V44.1841H223.121ZM223.121 74.5021H234.289V55.9352H223.121H212.186V74.5021H223.121ZM180.312 44.1841H151.462C146.809 44.1841 143.552 45.3593 141.458 48.1794C139.597 50.5298 138.666 54.0551 138.666 58.5205V83.4328C138.666 87.6633 139.597 91.1886 141.69 93.7739C143.784 96.3591 147.042 97.7692 151.462 97.7692H180.312C184.733 97.7692 188.223 96.3591 190.317 93.7739C192.178 91.4235 193.341 87.8982 193.341 83.4328V58.5205C193.341 54.29 192.411 50.7647 190.317 48.1794C187.99 45.3593 184.733 44.1841 180.312 44.1841ZM175.892 83.4328H155.883V58.5205H175.892V83.4328ZM324.794 97.7695H369.001V23.2673H351.318V82.9631H327.819V43.9492H309.672V82.493C309.672 86.9584 311.068 90.7186 313.394 93.539C315.721 96.3591 319.677 97.7695 324.794 97.7695ZM268.027 97.7695H306.415V82.9631H270.585V58.9908H306.415V44.1844H268.027C258.022 44.1844 253.135 47.7097 253.135 58.2856V82.7279C253.135 92.3638 258.254 97.7695 268.027 97.7695ZM117.726 0.235107V8.46089H117.959L120.983 0.235107H124.939L120.751 8.93092C122.612 9.63601 123.31 11.2811 123.775 13.6314C124.008 14.5715 124.183 15.4528 124.357 16.3342C124.531 17.2155 124.706 18.0968 124.939 19.0369H121.449C120.983 17.6268 120.751 16.2166 120.518 14.8065C120.053 12.6913 119.587 11.2811 118.191 11.2811H117.959V18.8019H114.469V0.235107H117.726ZM125.637 9.40088C125.637 14.5714 127.265 19.0368 131.453 19.0368C134.943 19.0368 137.503 16.2165 137.503 9.16587C137.503 4.93546 136.106 0 131.686 0C127.731 0 125.637 4.2304 125.637 9.40088ZM133.78 9.40088C133.78 13.1613 133.315 15.9815 131.686 15.9815C130.057 15.9815 129.359 13.1613 129.359 9.40088C129.359 6.11058 130.057 3.05529 131.686 3.05529C133.315 3.05529 133.78 6.11058 133.78 9.40088ZM143.318 0.235107V7.75581H147.041V0.235107H150.531V18.8018H147.041V11.0461H143.318V18.8018H139.596V0.235107H143.318ZM159.837 19.0368C161.001 19.0368 162.164 18.8018 162.629 18.5667L162.164 15.2764C162.079 15.2764 161.931 15.3079 161.744 15.3479C161.42 15.417 160.978 15.5115 160.535 15.5115C158.209 15.5115 156.58 13.8663 156.58 9.40088C156.58 4.93546 158.441 3.05529 160.535 3.05529C161.233 3.05529 161.699 3.2903 162.164 3.52534L162.862 0.470045C162.396 0.235022 161.466 0 160.303 0C156.813 0 152.857 2.82028 152.857 9.87093C152.857 15.0414 155.184 19.0368 159.837 19.0368ZM167.981 14.5714L167.283 18.8018H163.793L167.748 0.235064H172.169L175.659 18.8018H172.169L171.471 14.5714H167.981ZM171.006 11.7512L170.308 7.75576C170.191 7.16822 170.075 6.4044 169.959 5.64057L169.959 5.64041L169.958 5.63927C169.842 4.87588 169.726 4.1126 169.61 3.52539C169.493 4.11293 169.377 4.87675 169.261 5.64058L169.261 5.64074L169.261 5.64188C169.144 6.40527 169.028 7.16855 168.912 7.75576L168.446 11.7512H171.006ZM188.456 18.8019V0.235107H178.917V8.46089C178.917 11.9862 178.684 14.1014 177.521 15.2765C177.288 15.7466 176.823 15.9816 176.357 15.9816L177.055 19.0369C177.986 19.0369 178.917 18.5668 179.615 18.0968C181.941 16.4516 182.174 12.4563 182.174 8.22586V3.29039H184.966V18.8019H188.456Z" fill="#0045B2"/>
</svg>
