<svg width="32" height="32" viewBox="0 0 32 32" fill="none" xmlns="http://www.w3.org/2000/svg">
   <rect width="32" height="32" fill="#0045B2"/>
   <path d="M22.5072 24.5291C21.5446 24.5291 20.6834 24.3349 19.9234 23.9465C19.1691 23.5525 18.5668 23.0121 18.1165 22.3253C17.6718 21.6386 17.4354 20.8533 17.4072 19.9695H18.9355C18.9862 20.8871 19.3465 21.6414 20.0163 22.2324C20.6862 22.8179 21.5165 23.1106 22.5072 23.1106C23.2784 23.1106 23.9652 22.9276 24.5675 22.5617C25.1698 22.1902 25.6398 21.6836 25.9776 21.0419C26.321 20.3945 26.4926 19.6655 26.4926 18.855C26.487 18.0106 26.3041 17.2675 25.9438 16.6258C25.5835 15.9785 25.0938 15.4718 24.4746 15.106C23.861 14.7401 23.1715 14.5571 22.4059 14.5571C21.8261 14.5515 21.2576 14.6472 20.7003 14.8442C20.143 15.0412 19.6786 15.2945 19.3071 15.6041L17.7281 15.4015L18.7667 7H27.3117V8.41854H20.0923L19.3999 14.2025H19.4844C19.8672 13.8816 20.3316 13.6199 20.8776 13.4172C21.4292 13.2146 22.0119 13.1132 22.6254 13.1132C23.6443 13.1132 24.559 13.3581 25.3696 13.8478C26.1859 14.3376 26.8304 15.0131 27.3032 15.8743C27.7817 16.73 28.021 17.7151 28.021 18.8296C28.021 19.9217 27.7817 20.8983 27.3032 21.7596C26.8304 22.6152 26.1774 23.2907 25.3443 23.7861C24.5168 24.2814 23.5711 24.5291 22.5072 24.5291Z" fill="white"/>
   <path d="M5.65496 24.2927H4L10.2906 7H11.9793L18.2699 24.2927H16.6149L11.194 9.05182H11.0758L5.65496 24.2927ZM6.84553 17.6644H15.4243V19.0829H6.84553V17.6644Z" fill="white"/>
   </svg>