<svg xmlns="http://www.w3.org/2000/svg">
   <symbol id="icon-logo" width="151" height="107" viewBox="0 0 151 107" fill="none">
      <path
         d="M117.453 106.652C111.596 106.652 106.356 105.471 101.732 103.108C97.1429 100.71 93.4782 97.4221 90.7383 93.2437C88.0326 89.0653 86.5941 84.2875 86.4229 78.9104H95.7215C96.0298 84.493 98.2217 89.0824 102.297 92.6786C106.373 96.2405 111.425 98.0215 117.453 98.0215C122.145 98.0215 126.323 96.9084 129.988 94.6822C133.653 92.4217 136.512 89.3393 138.567 85.4349C140.657 81.4962 141.701 77.0609 141.701 72.129C141.667 66.9916 140.554 62.4707 138.362 58.5663C136.17 54.6276 133.19 51.5452 129.423 49.319C125.69 47.0928 121.494 45.9797 116.836 45.9797C113.309 45.9454 109.849 46.5277 106.459 47.7264C103.068 48.9251 100.242 50.4663 97.982 52.3501L88.3751 51.1171L94.6941 0H146.684V8.63082H102.76L98.5471 43.822H99.0608C101.39 41.8698 104.215 40.2772 107.538 39.0442C110.894 37.8112 114.439 37.1947 118.172 37.1947C124.371 37.1947 129.937 38.6846 134.868 41.6643C139.835 44.644 143.756 48.7539 146.633 53.994C149.544 59.1999 151 65.1935 151 71.9749C151 78.6193 149.544 84.5615 146.633 89.8017C143.756 95.0076 139.783 99.1175 134.714 102.131C129.68 105.145 123.926 106.652 117.453 106.652Z"
         fill="#0045B2" />
      <path
         d="M10.0693 105.214H0L38.2736 0H48.5484L86.822 105.214H76.7527L43.7706 12.4839H43.0514L10.0693 105.214ZM17.313 64.8853H69.509V73.5161H17.313V64.8853Z"
         fill="#0045B2" />
   </symbol>

   <symbol id="icon-A5" width="100%" height="100%" viewBox="0 0 1072" fill="none">
      <path
         d="M765.906 939.769C712.791 939.769 664.958 929.207 622.406 908.081C579.854 886.956 545.752 857.985 520.099 821.166C494.447 784.348 480.414 742.399 478 695.32H586.644C590.869 737.269 609.882 771.975 643.682 799.438C677.784 826.598 718.525 840.179 765.906 840.179C803.932 840.179 837.732 831.276 867.307 813.471C897.184 795.665 920.573 771.22 937.473 740.136C954.675 708.75 963.276 673.29 963.276 633.756C963.276 593.316 954.373 557.252 936.568 525.565C919.064 493.575 894.921 468.376 864.138 449.967C833.356 431.557 798.198 422.202 758.663 421.9C730.295 421.598 701.173 425.974 671.296 435.028C641.419 443.78 616.823 455.097 597.508 468.979L492.486 456.304L548.619 0H1030.27V99.5902H642.776L610.183 373.01H615.616C634.628 357.921 658.469 345.397 687.139 335.438C715.809 325.479 745.686 320.499 776.771 320.499C833.507 320.499 884.056 334.08 928.419 361.241C973.084 388.1 1008.09 424.918 1033.44 471.695C1059.09 518.473 1071.92 571.889 1071.92 631.945C1071.92 691.095 1058.64 743.909 1032.08 790.384C1005.83 836.558 969.613 873.074 923.44 899.933C877.266 926.491 824.755 939.769 765.906 939.769Z"
         fill="#ECECEC" />
      <path
         d="M-179.303 927.094H-297L43.4174 0H159.304L499.721 927.094H382.024L104.982 146.669H97.7393L-179.303 927.094ZM-135.845 564.948H338.566V664.538H-135.845V564.948Z"
         fill="#ECECEC" />
   </symbol>
   <symbol id="icon-eye" fill="none">

      <rect width="50" height="50" rx="25" fill="white" />
      <path
         d="M25.0002 14.4737C17.8231 14.4737 11.6939 19.1114 9.21069 25.6579C11.6939 32.2044 17.8231 36.8421 25.0002 36.8421C32.1772 36.8421 38.3064 32.2044 40.7896 25.6579C38.3064 19.1114 32.1772 14.4737 25.0002 14.4737ZM25.0002 33.114C21.0384 33.114 17.8231 29.7737 17.8231 25.6579C17.8231 21.5421 21.0384 18.2017 25.0002 18.2017C28.9619 18.2017 32.1772 21.5421 32.1772 25.6579C32.1772 29.7737 28.9619 33.114 25.0002 33.114ZM25.0002 21.1842C22.6174 21.1842 20.6939 23.1825 20.6939 25.6579C20.6939 28.1333 22.6174 30.1316 25.0002 30.1316C27.3829 30.1316 29.3064 28.1333 29.3064 25.6579C29.3064 23.1825 27.3829 21.1842 25.0002 21.1842Z"
         fill="#CBCBCB" />


   </symbol>
   <symbol id="icon-eye-hover" fill="none">

      <rect width="50" height="50" rx="25" fill="#0045B2" />
      <path
         d="M25.0002 14.4737C17.8231 14.4737 11.6939 19.1114 9.21069 25.6579C11.6939 32.2044 17.8231 36.8421 25.0002 36.8421C32.1772 36.8421 38.3064 32.2044 40.7896 25.6579C38.3064 19.1114 32.1772 14.4737 25.0002 14.4737ZM25.0002 33.114C21.0384 33.114 17.8231 29.7737 17.8231 25.6579C17.8231 21.5421 21.0384 18.2017 25.0002 18.2017C28.9619 18.2017 32.1772 21.5421 32.1772 25.6579C32.1772 29.7737 28.9619 33.114 25.0002 33.114ZM25.0002 21.1842C22.6174 21.1842 20.6939 23.1825 20.6939 25.6579C20.6939 28.1333 22.6174 30.1316 25.0002 30.1316C27.3829 30.1316 29.3064 28.1333 29.3064 25.6579C29.3064 23.1825 27.3829 21.1842 25.0002 21.1842Z"
         fill="white" />


   </symbol>
   <symbol id="icon-dowland" fill="none">
      <rect width="50" height="50" rx="25" fill="white" />
      <path
         d="M36.8422 20.743H30.0753V10.5263H19.9249V20.743H13.158L25.0001 32.6625L36.8422 20.743ZM13.158 36.0681V39.4737H36.8422V36.0681H13.158Z"
         fill="#CBCBCB" />
   </symbol>
   <symbol id="icon-dowland-hover" fill="none">
      <rect width="50" height="50" rx="25" fill="#0045B2" />
      <path
         d="M36.8422 20.743H30.0753V10.5263H19.9249V20.743H13.158L25.0001 32.6625L36.8422 20.743ZM13.158 36.0681V39.4737H36.8422V36.0681H13.158Z"
         fill="white" />
   </symbol>













   <symbol id="icon-logo-site" width="201" height="26" viewBox="0 0 201 26" fill="none">
      <path
         d="M5.36752 13.4859C4.11811 13.4859 3.10157 12.5023 3.10157 11.2931C3.10157 10.084 4.11811 9.1003 5.36752 9.1003C6.61705 9.1003 7.63346 10.084 7.63346 11.2931C7.63346 12.5023 6.61705 13.4859 5.36752 13.4859ZM5.36752 6.09894C2.4031 6.09894 0 8.42437 0 11.2931C0 14.1618 2.4031 16.4873 5.36752 16.4873C8.33181 16.4873 10.7349 14.1618 10.7349 11.2931C10.7349 8.42437 8.33181 6.09894 5.36752 6.09894Z"
         fill="white" />
      <path
         d="M9.21405 16.6013V16.5981H5.30969V19.4855H7.62568C7.87368 20.2203 7.69894 21.063 7.09617 21.6461C6.24373 22.4728 4.85345 22.4728 4.00101 21.6461C3.14677 20.8196 3.14677 19.4758 4.00101 18.6493L3.97432 18.6234H0.607676C0.0366029 20.3539 0.462826 22.3246 1.88146 23.6973C3.90774 25.6582 7.18945 25.6582 9.21572 23.6973C11.2403 21.7364 11.242 18.559 9.21572 16.5981L9.21405 16.6013Z"
         fill="white" />
      <path
         d="M196.307 2.13952L194.096 -0.000101089L191.886 2.13952L187.702 6.18672L189.913 8.32617L194.096 4.27898L198.278 8.32617L200.489 6.18672L196.307 2.13952Z"
         fill="white" />
      <path
         d="M15.3713 9.88245C15.7105 9.08682 16.3839 8.62184 17.2792 8.62184C18.0353 8.62184 18.8971 8.95459 19.1581 9.88245H15.3713ZM22.5197 10.5177C22.1763 7.7866 19.8686 6.09812 17.223 6.09812V6.09788C14.1648 6.09788 11.8945 8.36743 11.8945 11.3334C11.8945 14.287 14.146 16.5566 17.3171 16.5566C19.8313 16.5566 22.1205 15.1403 22.5197 12.659L19.2373 12.6585C19.0431 13.5245 18.2364 13.942 17.3356 13.942C16.1171 13.942 15.254 13.1916 15.1406 11.919H22.501C22.551 11.5676 22.5958 11.1236 22.5197 10.5177Z"
         fill="white" />
      <path d="M24.334 16.3213H27.5234V9.28219H30.7884V16.3213H33.9779V6.33471H24.334V16.3213Z" fill="white" />
      <path
         d="M39.3293 9.88245C39.6685 9.08682 40.342 8.62184 41.2373 8.62184C41.9933 8.62184 42.8551 8.95459 43.1162 9.88245H39.3293ZM46.478 10.5177C46.1343 7.7866 43.8268 6.09812 41.1811 6.09812V6.09788C38.1229 6.09788 35.8525 8.36743 35.8525 11.3334C35.8525 14.287 38.1041 16.5566 41.2751 16.5566C43.7894 16.5566 46.0785 15.1403 46.478 12.659L43.1953 12.6585C43.0011 13.5245 42.1944 13.942 41.2937 13.942C40.0751 13.942 39.212 13.1916 39.0986 11.919H46.4588C46.5088 11.5676 46.5537 11.1236 46.478 10.5177Z"
         fill="white" />
      <path d="M48.293 16.3213H51.4826V9.28219H54.9903V6.33471H48.293V16.3213Z" fill="white" />
      <path
         d="M61.52 13.615C60.3011 13.615 59.344 12.7254 59.344 11.3272C59.344 9.94726 60.2819 9.03939 61.52 9.04262C62.7581 9.03939 63.6973 9.94726 63.6973 11.3272C63.6973 12.7254 62.7581 13.615 61.52 13.615ZM63.6973 7.46254C63.0301 6.65127 62.0691 6.09788 60.7515 6.09788C58.1803 6.09788 56.1172 8.22241 56.1172 11.3272C56.1172 14.4139 58.1431 16.5566 60.7694 16.5566C62.0807 16.5566 63.034 16.0261 63.6973 15.2428V16.3205H66.8869V6.33391H63.6973V7.46254Z"
         fill="white" />
      <path d="M69.1377 16.3213H72.3273V2.33993H69.1377V16.3213Z" fill="white" />
      <path
         d="M83.6553 16.3477H86.8449V9.30856H89.7086V16.3477H92.8982V9.30856H95.7503V16.3477H98.9412V6.36108H83.6553V16.3477Z"
         fill="white" />
      <path
         d="M106.226 13.6414C105.006 13.6414 104.049 12.7518 104.049 11.3537C104.049 9.97376 104.987 9.06589 106.226 9.06912C107.464 9.06589 108.402 9.97376 108.402 11.3537C108.402 12.7518 107.464 13.6414 106.226 13.6414ZM108.402 7.48891C107.735 6.67776 106.775 6.12425 105.457 6.12425C102.887 6.12425 100.822 8.24878 100.822 11.3537C100.822 14.4404 102.848 16.583 105.476 16.583C106.786 16.583 107.74 16.0526 108.402 15.2693V16.347H111.592V6.3604H108.402V7.48891Z"
         fill="white" />
      <path d="M113.845 16.3486H117.034V9.30953H120.542V6.36206H113.845V16.3486Z" fill="white" />
      <path
         d="M132.001 6.3611H128.027L125.231 10.1679V2.36627H122.042V16.3477H125.231V12.3964L128.277 16.3477H132.288L128.177 11.1846L132.001 6.3611Z"
         fill="white" />
      <path
         d="M136.046 9.90988C136.384 9.11421 137.058 8.64933 137.954 8.64933C138.71 8.64933 139.572 8.982 139.832 9.90988H136.046ZM143.193 10.545C142.852 7.81405 140.543 6.12542 137.897 6.12542V6.12515C134.839 6.12515 132.569 8.39495 132.569 11.3607C132.569 14.3145 134.821 16.584 137.991 16.584C140.505 16.584 142.795 15.1677 143.193 12.6864L139.912 12.6859C139.718 13.552 138.911 13.9695 138.011 13.9695C136.791 13.9695 135.928 13.219 135.815 11.9464H143.175C143.226 11.5949 143.271 11.1509 143.193 10.545Z"
         fill="white" />
      <path
         d="M149.214 4.16295H146.025V6.36115H144.257V9.26618H146.025V16.3477H152.332V13.4425H149.214V9.26618H152.332V6.36115H149.214V4.16295Z"
         fill="white" />
      <path
         d="M155.795 1.51255C154.654 1.51255 153.804 2.2253 153.804 3.29129C153.804 4.35785 154.654 5.07031 155.795 5.07031C156.936 5.07031 157.787 4.35785 157.787 3.29129C157.787 2.2253 156.936 1.51255 155.795 1.51255Z"
         fill="white" />
      <path d="M154.199 16.3477H157.389V6.3611H154.199V16.3477Z" fill="white" />
      <path d="M159.643 16.3477H162.832V9.3086H166.098V16.3477H169.287V6.36112H159.643V16.3477Z" fill="white" />
      <path
         d="M176.566 13.5336C175.347 13.5336 174.389 12.6439 174.389 11.3002C174.389 9.97487 175.329 9.06686 176.566 9.07015C177.804 9.06686 178.742 9.97487 178.742 11.3002C178.742 12.6439 177.804 13.5336 176.566 13.5336ZM178.742 7.48567C178.075 6.67877 177.116 6.12522 175.797 6.12522C173.226 6.12522 171.162 8.24977 171.162 11.3002C171.162 14.3325 173.189 16.4752 175.816 16.4752C177.127 16.4752 178.079 15.9444 178.742 15.1654V17.6086H172.474V20.52L181.932 20.5244V6.36147H178.742V7.48567Z"
         fill="white" />
   </symbol>
   <symbol id="icon-A5-mini" width="683" height="583" viewBox="0 0 683 583" fill="none">
      <path
         d="M489.255 582.993C455.626 582.993 425.342 576.306 398.401 562.931C371.46 549.556 349.869 531.213 333.628 507.903C317.387 484.592 308.502 458.033 306.974 428.226H375.759C378.434 454.785 390.471 476.758 411.871 494.146C433.462 511.342 459.257 519.94 489.255 519.94C513.33 519.94 534.73 514.304 553.455 503.03C572.37 491.757 587.178 476.281 597.878 456.6C608.769 436.729 614.215 414.278 614.215 389.248C614.215 363.645 608.578 340.812 597.305 320.749C586.223 300.496 570.937 284.541 551.448 272.886C531.959 261.231 509.699 255.308 484.669 255.116C466.709 254.925 448.27 257.696 429.354 263.428C410.438 268.969 394.866 276.134 382.638 284.923L316.145 276.899L351.684 -12H656.633V51.0532H411.298L390.663 224.163H394.102C406.139 214.61 421.234 206.68 439.385 200.375C457.537 194.07 476.453 190.917 496.133 190.917C532.055 190.917 564.059 199.515 592.146 216.711C620.425 233.717 642.589 257.027 658.639 286.643C674.88 316.259 683 350.079 683 388.102C683 425.551 674.593 458.989 657.779 488.414C641.156 517.647 618.227 540.767 588.994 557.772C559.76 574.586 526.514 582.993 489.255 582.993Z"
         fill="#1454B8" />
      <path
         d="M-124.483 574.968H-199L16.5275 -12H89.8985L305.426 574.968H230.908L55.5058 80.8602H50.9201L-124.483 574.968ZM-96.9684 345.684H203.394V408.737H-96.9684V345.684Z"
         fill="#1454B8" />
   </symbol>
   <symbol id="icon-closed" width="32" height="32" viewBox="0 0 32 32" fill="none">
      <path d="M2 2L30 30M30 2L2 30" stroke="#979797" stroke-width="3" />
   </symbol>
   <symbol id="icon-viber" width="20" height="19" viewBox="0 0 20 19" fill="none">
      <path
         d="M12.7075 10.0577L12.7074 10.0578C12.8458 10.1078 13.2257 10.2821 13.5686 10.4419C13.9256 10.6083 14.2853 10.7793 14.4082 10.8386C14.4394 10.8536 14.4762 10.8707 14.5146 10.8886C14.5883 10.923 14.668 10.9601 14.7249 10.9901C14.8117 11.0359 14.9758 11.1275 15.082 11.3007L14.6557 11.5621L15.082 11.3007C15.1637 11.434 15.1799 11.5862 15.1859 11.6597C15.1941 11.7602 15.1922 11.8737 15.1817 11.9933C15.1604 12.2336 15.101 12.5294 14.986 12.8439L14.9847 12.8474C14.8215 13.2834 14.4052 13.6184 14.0591 13.8322C13.699 14.0547 13.2756 14.2305 12.9528 14.2771L12.9502 14.2775C12.4955 14.3408 11.8891 14.3752 11.2111 14.1663C10.8507 14.0566 10.3825 13.9079 9.78514 13.6572M12.7075 10.0577L8.54511 6.93166C8.54512 6.93168 8.54513 6.93169 8.54513 6.9317M12.7075 10.0577L12.699 10.0549C12.6955 10.0537 12.6919 10.0524 12.6882 10.0512C12.5892 10.0172 12.3957 9.9509 12.1878 9.9733C11.9173 10.0025 11.7199 10.1594 11.5826 10.3603C11.4548 10.5424 11.0881 10.9647 10.9116 11.1615C10.8615 11.1377 10.8001 11.1119 10.7285 11.0818C10.3796 10.935 9.78914 10.6866 9.08272 10.0777L9.08185 10.077C8.50753 9.58423 8.09184 8.98129 7.90278 8.68622C7.98151 8.60494 8.07649 8.49418 8.153 8.40495C8.19152 8.36002 8.22536 8.32056 8.25009 8.29306C8.40441 8.12148 8.47804 7.97261 8.54185 7.8436C8.55013 7.82684 8.55826 7.81042 8.56637 7.79433C8.74706 7.43585 8.64304 7.1204 8.54513 6.9317M12.7075 10.0577L8.54513 6.9317M9.78514 13.6572C9.78493 13.6571 9.78472 13.657 9.7845 13.6569L9.97798 13.1959M9.78514 13.6572C9.78535 13.6573 9.78556 13.6574 9.78578 13.6575L9.97798 13.1959M9.78514 13.6572C8.48457 13.1155 7.42661 12.223 6.68672 11.4626C6.31459 11.0801 6.01783 10.7257 5.80605 10.4565C5.70005 10.3218 5.61527 10.2084 5.55309 10.1235C5.52256 10.0818 5.4975 10.0471 5.47875 10.0211L5.47788 10.0199L5.45513 9.98847C5.45067 9.98235 5.44848 9.97939 5.44779 9.97848C5.44749 9.97807 5.44749 9.97807 5.44772 9.97837C5.44565 9.97568 5.44335 9.9727 5.44085 9.96946C5.36645 9.87315 5.10649 9.53665 4.86157 9.0729C4.61232 8.60094 4.35428 7.95247 4.35428 7.26042C4.35428 5.97334 5.02832 5.28471 5.29484 5.01243C5.31103 4.99589 5.32571 4.98089 5.33864 4.96739C5.673 4.61835 6.07331 4.52231 6.3454 4.52231H6.35468C6.50354 4.52231 6.67076 4.5223 6.82097 4.53101C6.82105 4.5279 7.07059 4.51514 7.27007 4.60525C7.52432 4.72009 7.69106 4.94825 7.81218 5.2308C7.89967 5.43013 8.03646 5.75066 8.16873 6.06061C8.19315 6.11783 8.21742 6.17469 8.24119 6.23036C8.31815 6.41059 8.39011 6.57872 8.44649 6.70884C8.47472 6.77399 8.49856 6.82847 8.51691 6.86965C8.53399 6.90798 8.54243 6.92593 8.54458 6.9305C8.545 6.9314 8.54518 6.93178 8.54513 6.9317M9.97798 13.1959C10.554 13.4376 11.0046 13.5808 11.3576 13.6883M9.97798 13.1959L11.3576 13.6883M11.3576 13.6883C11.9383 13.8673 12.4632 13.8405 12.8813 13.7823C13.3458 13.7151 14.312 13.2183 14.5164 12.6722L11.3576 13.6883ZM5.42058 16.4527L5.42346 16.4543C6.73557 17.2053 8.23812 17.6036 9.77359 17.6036C14.4688 17.6036 18.3235 13.9142 18.3284 9.33792V9.33738C18.3284 7.12628 17.435 5.05029 15.8208 3.49003L15.8197 3.48897C14.2017 1.93459 12.0564 1.07563 9.77823 1.07563C5.07925 1.07563 1.22338 4.75983 1.22338 9.3329C1.22338 10.8931 1.674 12.4156 2.53504 13.7323C2.53534 13.7328 2.53565 13.7332 2.53596 13.7337L2.60212 13.8364L1.8509 16.4837L1.61439 17.3172L2.45439 17.1049L5.30411 16.385L5.42058 16.4527ZM5.63045 15.418L5.45427 15.3156L5.25671 15.3655L3.04943 15.9232L3.62584 13.8919L3.68754 13.6745L3.56507 13.4845L3.37462 13.1891L3.37462 13.189L3.37278 13.1862C2.61787 12.0324 2.22338 10.6996 2.22338 9.3329C2.22338 5.34746 5.59551 2.07563 9.77823 2.07563C11.8013 2.07563 13.6971 2.83685 15.1263 4.20957C16.5496 5.58552 17.3283 7.40341 17.3284 9.33684C17.3241 13.328 13.9508 16.6036 9.77359 16.6036C8.41098 16.6036 7.08047 16.2502 5.92164 15.5872C5.92117 15.587 5.92069 15.5867 5.92022 15.5864L5.63045 15.418ZM7.81157 8.7782C7.81116 8.77875 7.81093 8.77903 7.81093 8.77902L7.81157 8.7782ZM0.717882 18.1433L1.85595 14.1383L1.91488 13.9309L1.80453 13.7457C1.00468 12.4032 0.583648 10.8891 0.583614 9.33309C0.588142 4.48303 4.6902 0.500225 9.77316 0.5C12.2388 0.504365 14.5432 1.4275 16.2784 3.09949C18.0128 4.77079 18.9634 6.98703 18.9636 9.34141C18.9592 14.1962 14.8522 18.1792 9.77359 18.1792H9.76894C8.2284 18.1792 6.7148 17.8048 5.36987 17.0995L5.20053 17.0107L5.01515 17.0575L0.717882 18.1433Z"
         fill="white" stroke="white" />


   </symbol>
   <symbol id="icon-viber-hover" width="20" height="19" viewBox="0 0 20 19" fill="none">
      <path fill-rule="evenodd" clip-rule="evenodd"
         d="M9.77359 17.1036C8.32427 17.1036 6.90747 16.7276 5.67184 16.0204L5.37919 15.8503L2.33191 16.6202L3.14483 13.7554L2.95437 13.46C2.1461 12.2245 1.72338 10.7966 1.72338 9.3329C1.72338 5.05365 5.33738 1.57563 9.77823 1.57563C11.929 1.57563 13.9497 2.38582 15.4733 3.84954C16.9923 5.31774 17.8284 7.26489 17.8284 9.33738C17.8238 13.6211 14.2098 17.1036 9.77359 17.1036ZM12.5375 10.5281C12.7605 10.6086 13.9497 11.1726 14.1912 11.289C14.4328 11.4054 14.5953 11.4636 14.6557 11.5621C14.7161 11.6605 14.7161 12.1261 14.5164 12.6722C14.312 13.2183 13.3458 13.7151 12.8813 13.7823C12.4632 13.8405 11.9383 13.8673 11.3576 13.6883C11.0046 13.5808 10.554 13.4376 9.97798 13.1959C7.54852 12.1843 5.96449 9.82976 5.84371 9.6731C5.72294 9.51643 4.85428 8.4108 4.85428 7.26042C4.85428 6.11003 5.47674 5.54603 5.69971 5.31326C5.92268 5.0805 6.18282 5.02231 6.3454 5.02231C6.50798 5.02231 6.67057 5.02231 6.80992 5.03126C6.95857 5.03574 7.15832 4.97307 7.35342 5.42965C7.55781 5.89517 8.04091 7.04556 8.1013 7.16194C8.16169 7.27832 8.19885 7.41261 8.11988 7.56928C8.04091 7.72594 7.9991 7.82442 7.87833 7.95871C7.75755 8.09299 7.62284 8.26309 7.516 8.36604C7.39522 8.48242 7.2698 8.60776 7.40916 8.84052C7.55316 9.07328 8.03627 9.83872 8.75628 10.4564C9.68068 11.2532 10.4611 11.4994 10.7026 11.6158C10.9442 11.7322 11.0882 11.7142 11.2275 11.5576C11.3669 11.4054 11.8314 10.8772 11.994 10.6444C12.1519 10.4117 12.3145 10.452 12.5375 10.5281Z"
         fill="#0045B2" />
      <path fill-rule="evenodd" clip-rule="evenodd"
         d="M9.77359 0C12.3656 0.00447622 14.7951 0.975814 16.6253 2.73944C18.4555 4.50307 19.4636 6.84861 19.4636 9.34186C19.4589 14.4895 15.111 18.6792 9.77359 18.6792H9.76894C8.14775 18.6792 6.55444 18.2853 5.13764 17.5423L0 18.8404L1.37499 14.0016C0.529557 12.5826 0.0836139 10.9802 0.0836139 9.3329C0.0882591 4.18974 4.43156 0 9.77359 0ZM5.67184 16.0204C6.90747 16.7276 8.32427 17.1036 9.77359 17.1036C14.2098 17.1036 17.8238 13.6211 17.8284 9.33738C17.8284 7.26489 16.9923 5.31774 15.4733 3.84954C13.9497 2.38582 11.929 1.57563 9.77823 1.57563C5.33738 1.57563 1.72338 5.05365 1.72338 9.3329C1.72338 10.7966 2.1461 12.2245 2.95437 13.46L3.14483 13.7554L2.33191 16.6202L5.37919 15.8503L5.67184 16.0204Z"
         fill="#0045B2" />
      <path
         d="M9.78514 13.6572C10.3825 13.9079 10.8507 14.0566 11.2111 14.1663C11.8891 14.3752 12.4955 14.3408 12.9502 14.2775L12.9528 14.2771C13.2756 14.2305 13.699 14.0547 14.0591 13.8322C14.4052 13.6184 14.8215 13.2834 14.9847 12.8474L14.986 12.8439C15.101 12.5294 15.1604 12.2336 15.1817 11.9933C15.1922 11.8737 15.1941 11.7602 15.1859 11.6597C15.1799 11.5862 15.1637 11.434 15.082 11.3007C14.9758 11.1275 14.8117 11.0359 14.7249 10.9901C14.668 10.9601 14.5883 10.923 14.5146 10.8886C14.4762 10.8707 14.4394 10.8536 14.4082 10.8386C14.2853 10.7793 13.9256 10.6083 13.5686 10.4419C13.2257 10.2821 12.8458 10.1078 12.7074 10.0578L12.7075 10.0577L12.699 10.0549C12.6955 10.0537 12.6919 10.0524 12.6882 10.0512C12.5893 10.0172 12.3957 9.9509 12.1878 9.9733C11.9173 10.0025 11.7199 10.1594 11.5826 10.3603C11.4548 10.5424 11.0881 10.9647 10.9116 11.1615C10.8615 11.1377 10.8001 11.1119 10.7285 11.0818C10.3796 10.935 9.78914 10.6866 9.08272 10.0777L9.08185 10.077C8.50753 9.58423 8.09184 8.98129 7.90278 8.68622C7.98151 8.60494 8.07649 8.49418 8.153 8.40495C8.19152 8.36002 8.22536 8.32056 8.25009 8.29306C8.40441 8.12148 8.47804 7.97261 8.54185 7.8436C8.55014 7.82684 8.55826 7.81042 8.56637 7.79433C8.74708 7.43582 8.64303 7.12036 8.54511 6.93165C8.54521 6.93185 8.54505 6.93149 8.54459 6.93052C8.54246 6.92598 8.53401 6.90803 8.51691 6.86965C8.49856 6.82847 8.47472 6.77399 8.44649 6.70884C8.39011 6.57872 8.31815 6.41059 8.24119 6.23036C8.21741 6.17467 8.19313 6.11778 8.1687 6.06053C8.03644 5.75061 7.89966 5.43011 7.81218 5.2308C7.69106 4.94825 7.52432 4.72009 7.27007 4.60525C7.07059 4.51514 6.82105 4.5279 6.82097 4.53101C6.67076 4.5223 6.50354 4.52231 6.35468 4.52231H6.3454C6.07331 4.52231 5.673 4.61835 5.33864 4.96739C5.32571 4.98089 5.31103 4.99589 5.29484 5.01243C5.02832 5.28471 4.35428 5.97334 4.35428 7.26042C4.35428 7.95247 4.61232 8.60094 4.86158 9.0729C5.10649 9.53664 5.36644 9.87315 5.44084 9.96946C5.44335 9.9727 5.44565 9.97567 5.44772 9.97837C5.44749 9.97807 5.44749 9.97807 5.44779 9.97848C5.44848 9.97939 5.45067 9.98235 5.45513 9.98847L5.47788 10.0199C5.49672 10.046 5.52208 10.0812 5.55309 10.1235C5.61527 10.2084 5.70005 10.3218 5.80605 10.4565C6.01783 10.7257 6.31459 11.0801 6.68672 11.4626C7.42661 12.223 8.48457 13.1155 9.78514 13.6572ZM9.78514 13.6572C9.78493 13.6571 9.78472 13.657 9.7845 13.6569L9.97798 13.1959M9.78514 13.6572C9.78535 13.6573 9.78556 13.6574 9.78578 13.6575L9.97798 13.1959M9.97798 13.1959C10.554 13.4376 11.0046 13.5808 11.3576 13.6883M9.97798 13.1959L11.3576 13.6883M11.3576 13.6883C11.9383 13.8673 12.4632 13.8405 12.8813 13.7823C13.3458 13.7151 14.312 13.2183 14.5164 12.6722C14.7161 12.1261 14.7161 11.6605 14.6557 11.5621C14.6072 11.483 14.4929 11.4299 14.3246 11.3518L14.3246 11.3518L14.3244 11.3517C14.2832 11.3325 14.2387 11.3119 14.1912 11.289C13.9497 11.1726 12.7605 10.6086 12.5375 10.5281L11.3576 13.6883ZM5.42058 16.4527L5.42346 16.4543C6.73557 17.2053 8.23812 17.6036 9.77359 17.6036C14.4688 17.6036 18.3235 13.9142 18.3284 9.33792V9.33738C18.3284 7.12628 17.435 5.05029 15.8208 3.49003L15.8197 3.48897C14.2017 1.93459 12.0564 1.07563 9.77823 1.07563C5.07925 1.07563 1.22338 4.75983 1.22338 9.3329C1.22338 10.8931 1.674 12.4156 2.53504 13.7323C2.53534 13.7328 2.53565 13.7332 2.53596 13.7337L2.60212 13.8364L1.8509 16.4837L1.61439 17.3172L2.45439 17.1049L5.30411 16.385L5.42058 16.4527ZM5.63045 15.418L5.45427 15.3156L5.25671 15.3655L3.04943 15.9232L3.62584 13.8919L3.68754 13.6745L3.56507 13.4845L3.37462 13.1891L3.37462 13.189L3.37278 13.1862C2.61787 12.0324 2.22338 10.6996 2.22338 9.3329C2.22338 5.34746 5.59551 2.07563 9.77823 2.07563C11.8013 2.07563 13.6972 2.83688 15.1264 4.20965C16.5496 5.58558 17.3283 7.40345 17.3284 9.33684C17.3241 13.328 13.9508 16.6036 9.77359 16.6036C8.41098 16.6036 7.08047 16.2502 5.92164 15.5872C5.92117 15.587 5.92069 15.5867 5.92022 15.5864L5.63045 15.418ZM7.81157 8.7782C7.81116 8.77875 7.81093 8.77903 7.81093 8.77902L7.81157 8.7782ZM0.717882 18.1433L1.85595 14.1383L1.91488 13.9309L1.80453 13.7457C1.00468 12.4032 0.583648 10.8891 0.583614 9.33309C0.588142 4.48303 4.6902 0.500225 9.77316 0.5C12.2388 0.504365 14.5432 1.4275 16.2784 3.09949C18.0128 4.77079 18.9634 6.98703 18.9636 9.34141C18.9592 14.1962 14.8522 18.1792 9.77359 18.1792H9.76894C8.2284 18.1792 6.7148 17.8048 5.36987 17.0995L5.20053 17.0107L5.01515 17.0575L0.717882 18.1433Z"
         stroke="#0045B2" />
   </symbol>
   <symbol id="icon-arrow-left-circle">
      <circle class='circle' cx="25" cy="25"
         style="stroke-width: var(--stroke-width, 2);r: var(--circle-radius, 24);" />
      <path class='path' d="M27.7719 16.6667L19 25.4387L27.7719 34.2106" stroke-width="2" />
   </symbol>
   <symbol id="icon-telegram">
      <path
         d="M1.30828 6.6783C6.41687 4.48908 9.82339 3.04581 11.5279 2.34849C16.3944 0.357507 17.4057 0.0116528 18.0648 0.000110717C18.2097 -0.00227929 18.5339 0.0330578 18.7438 0.20063C18.9211 0.342125 18.9699 0.533264 18.9932 0.667417C19.0166 0.801569 19.0456 1.10717 19.0225 1.34596C18.7588 4.07146 17.6177 10.6855 17.0372 13.7381C16.7915 15.0298 16.3078 15.4629 15.8396 15.5053C14.8219 15.5974 14.0492 14.8438 13.0635 14.2083C11.5212 13.2139 10.6499 12.5948 9.15276 11.6244C7.4226 10.503 8.54419 9.8866 9.5302 8.87928C9.78825 8.61566 14.272 4.60421 14.3588 4.24031C14.3697 4.1948 14.3797 4.02515 14.2773 3.93557C14.1748 3.84599 14.0236 3.87662 13.9144 3.90099C13.7598 3.93552 11.2959 5.53735 6.52275 8.70649C5.82338 9.17886 5.18991 9.40901 4.62234 9.39695C3.99665 9.38365 2.79306 9.04897 1.89832 8.7629C0.800881 8.41202 -0.0713405 8.2265 0.00461044 7.63059C0.0441704 7.32021 0.478728 7.00278 1.30828 6.6783Z" />
   </symbol>
   <symbol id="icon-VK">
      <path fill-rule="evenodd" clip-rule="evenodd"
         d="M11.7742 11.7968C11.9237 11.7968 12.0746 11.7926 12.2175 11.7512C12.3421 11.7152 12.4931 11.6531 12.5951 11.549C12.7665 11.3739 12.7735 11.0547 12.7736 11.0091C12.7736 11.0053 12.7736 11.002 12.7735 10.9982C12.7729 10.8944 12.7761 9.33084 13.5624 9.09324C14.3641 8.85153 15.3934 10.703 16.4858 11.4149C16.9249 11.7013 17.3076 11.802 17.5697 11.8335C17.8131 11.8627 18.0608 11.8337 18.3061 11.8305L20.7598 11.7981C20.8242 11.7972 20.8885 11.7952 20.9522 11.7868C21.2753 11.7439 22.2707 11.5307 21.6591 10.5669C21.5993 10.4735 21.2369 9.72292 19.4893 8.18123C17.6583 6.56743 17.9042 6.82844 20.1082 4.03653C21.4507 2.33641 21.9873 1.29846 21.8194 0.854636C21.7094 0.561313 21.2039 0.524479 20.9019 0.529729C20.7487 0.532392 20.5958 0.543295 20.4425 0.544195L17.6737 0.560456C17.4827 0.561578 17.287 0.534705 17.1021 0.579557C17.0548 0.591029 17.0067 0.60811 16.9625 0.633234C16.8707 0.685545 16.7958 0.774144 16.7449 0.847112C16.6907 0.924946 16.6546 1.01195 16.6186 1.0986C16.4696 1.45752 16.0215 2.49468 15.4586 3.40279C13.9953 5.76307 13.4106 5.88798 13.1712 5.74174C12.6143 5.39948 12.7533 4.36864 12.7533 3.63638C12.7533 1.34822 13.1188 0.394566 12.0425 0.147773C11.6855 0.0655088 11.4225 0.0116815 10.5087 0.00254105C9.3361 -0.0086306 8.34419 0.00660391 7.78196 0.267615C7.40786 0.441284 7.11926 0.829246 7.29562 0.851589C7.5126 0.87901 8.00428 0.977524 8.26509 1.31471C8.52104 1.64592 8.57563 2.28996 8.58709 2.5798C8.59099 2.6784 8.59358 2.77524 8.59867 2.87379C8.62789 3.43979 8.6925 5.4679 8.13789 5.75494C7.69538 5.98447 7.08826 5.51627 5.78317 3.37436C5.16324 2.3565 4.68414 1.23894 4.61834 1.08324C4.61297 1.07054 4.60798 1.05864 4.60197 1.0462C4.57461 0.989539 4.48317 0.817274 4.33912 0.716513C4.28321 0.67741 4.22142 0.645467 4.16081 0.61964C3.95315 0.531141 3.71997 0.524257 3.49193 0.525666L0.754647 0.542584C0.726512 0.542757 0.698512 0.543137 0.670452 0.545077C0.551518 0.553298 0.211896 0.590328 0.0711209 0.749012C-0.0367799 0.870177 0.00180145 1.08346 0.0338233 1.19841C0.0486341 1.25158 0.0697569 1.30029 0.0929654 1.35074C0.395137 2.00764 2.69315 6.89891 5.27225 9.45074C7.50371 11.6576 10.0003 11.7974 10.5717 11.799C10.6528 11.7992 10.7331 11.7968 10.8142 11.7968H11.7742Z" />
   </symbol>
   <symbol id="icon-arrow-down">
      <path d="M13 1L7 7L1 1" stroke-width="2" />
   </symbol>
   <symbol id="icon-arrow-right">
      <path d="M1 0.5L5.75 5.25L1 10" stroke="#979797" />
   </symbol>
</svg>