<svg xmlns="http://www.w3.org/2000/svg">
	<symbol id="icon-logo" width="125" height="83" viewBox="0 0 125 83" fill="none">
		<path
			d="M97.0914 26.5491V17.6976H120.121V0.116089H75.9178V3.51954V17.6976V48.521L88.7242 47.788C90.562 45.6854 93.2616 44.3537 96.2732 44.3537C101.806 44.3537 106.293 48.8421 106.293 54.3754C106.293 59.9087 101.806 64.3953 96.2732 64.3953C90.738 64.3953 86.2515 59.9087 86.2515 54.3754C86.2515 54.3119 86.2551 54.2502 86.2569 54.1867H69.3086C69.3086 69.6891 81.7595 81.9985 97.0642 81.9985C112.367 81.9985 124.832 69.5785 124.832 54.2738C124.832 38.971 112.216 26.5491 97.0914 26.5491Z"
			fill="#122B8F" />
		<path d="M87.1272 81.999H59.8197L33.4375 0.114761H60.7431L87.1272 81.999Z" fill="#0063DB" />
		<path d="M51.7188 56.8513L77.4442 51.9402L55.6556 69.0718L51.7188 56.8513Z" fill="#122B8F" />
		<path d="M17.9258 47.7586H88.747L1.11719 82L17.9258 47.7586Z" fill="#0063DB" />
	</symbol>

	<symbol id="icon-A5" fill="none">


		<path
			d="M65.4638 18.4331V12.4609H81.0018V0.59874H51.1779V2.89504V12.4609V33.2574L59.8185 32.7629C61.0584 31.3443 62.8798 30.4458 64.9117 30.4458C68.645 30.4458 71.6721 33.4741 71.6721 37.2074C71.6721 40.9408 68.645 43.9678 64.9117 43.9678C61.1772 43.9678 58.1501 40.9408 58.1501 37.2074C58.1501 37.1646 58.1525 37.123 58.1538 37.0801H46.7188C46.7188 47.5396 55.1194 55.8447 65.4454 55.8447C75.7702 55.8447 84.1806 47.4649 84.1806 37.1389C84.1806 26.8141 75.6686 18.4331 65.4638 18.4331Z"
			fill="white" />
		<path d="M58.74 55.8457H40.3157L22.5156 0.598492H40.9387L58.74 55.8457Z" fill="white" />
		<path d="M34.8516 38.8779L52.2085 35.5644L37.5077 47.123L34.8516 38.8779Z" fill="white" />
		<path d="M12.0517 32.7431H59.8347L0.710938 55.8457L12.0517 32.7431Z" fill="white" />



	</symbol>
	<symbol id="icon-eye" fill="none">

		<rect width="50" height="50" rx="25" fill="white" />
		<path
			d="M25.0002 14.4737C17.8231 14.4737 11.6939 19.1114 9.21069 25.6579C11.6939 32.2044 17.8231 36.8421 25.0002 36.8421C32.1772 36.8421 38.3064 32.2044 40.7896 25.6579C38.3064 19.1114 32.1772 14.4737 25.0002 14.4737ZM25.0002 33.114C21.0384 33.114 17.8231 29.7737 17.8231 25.6579C17.8231 21.5421 21.0384 18.2017 25.0002 18.2017C28.9619 18.2017 32.1772 21.5421 32.1772 25.6579C32.1772 29.7737 28.9619 33.114 25.0002 33.114ZM25.0002 21.1842C22.6174 21.1842 20.6939 23.1825 20.6939 25.6579C20.6939 28.1333 22.6174 30.1316 25.0002 30.1316C27.3829 30.1316 29.3064 28.1333 29.3064 25.6579C29.3064 23.1825 27.3829 21.1842 25.0002 21.1842Z"
			fill="#CBCBCB" />


	</symbol>
	<symbol id="icon-eye-hover" fill="none">

		<rect width="50" height="50" rx="25" fill="#0045B2" />
		<path
			d="M25.0002 14.4737C17.8231 14.4737 11.6939 19.1114 9.21069 25.6579C11.6939 32.2044 17.8231 36.8421 25.0002 36.8421C32.1772 36.8421 38.3064 32.2044 40.7896 25.6579C38.3064 19.1114 32.1772 14.4737 25.0002 14.4737ZM25.0002 33.114C21.0384 33.114 17.8231 29.7737 17.8231 25.6579C17.8231 21.5421 21.0384 18.2017 25.0002 18.2017C28.9619 18.2017 32.1772 21.5421 32.1772 25.6579C32.1772 29.7737 28.9619 33.114 25.0002 33.114ZM25.0002 21.1842C22.6174 21.1842 20.6939 23.1825 20.6939 25.6579C20.6939 28.1333 22.6174 30.1316 25.0002 30.1316C27.3829 30.1316 29.3064 28.1333 29.3064 25.6579C29.3064 23.1825 27.3829 21.1842 25.0002 21.1842Z"
			fill="white" />


	</symbol>
	<symbol id="icon-dowland" fill="none">
		<rect width="50" height="50" rx="25" fill="white" />
		<path
			d="M36.8422 20.743H30.0753V10.5263H19.9249V20.743H13.158L25.0001 32.6625L36.8422 20.743ZM13.158 36.0681V39.4737H36.8422V36.0681H13.158Z"
			fill="#CBCBCB" />
	</symbol>
	<symbol id="icon-dowland-hover" fill="none">
		<rect width="50" height="50" rx="25" fill="#0045B2" />
		<path
			d="M36.8422 20.743H30.0753V10.5263H19.9249V20.743H13.158L25.0001 32.6625L36.8422 20.743ZM13.158 36.0681V39.4737H36.8422V36.0681H13.158Z"
			fill="white" />
	</symbol>
	<symbol id="icon-logo-site" width="201" height="26" viewBox="0 0 201 26" fill="none">
		<path
			d="M5.36752 13.4859C4.11811 13.4859 3.10157 12.5023 3.10157 11.2931C3.10157 10.084 4.11811 9.1003 5.36752 9.1003C6.61705 9.1003 7.63346 10.084 7.63346 11.2931C7.63346 12.5023 6.61705 13.4859 5.36752 13.4859ZM5.36752 6.09894C2.4031 6.09894 0 8.42437 0 11.2931C0 14.1618 2.4031 16.4873 5.36752 16.4873C8.33181 16.4873 10.7349 14.1618 10.7349 11.2931C10.7349 8.42437 8.33181 6.09894 5.36752 6.09894Z"
			fill="white" />
		<path
			d="M9.21405 16.6013V16.5981H5.30969V19.4855H7.62568C7.87368 20.2203 7.69894 21.063 7.09617 21.6461C6.24373 22.4728 4.85345 22.4728 4.00101 21.6461C3.14677 20.8196 3.14677 19.4758 4.00101 18.6493L3.97432 18.6234H0.607676C0.0366029 20.3539 0.462826 22.3246 1.88146 23.6973C3.90774 25.6582 7.18945 25.6582 9.21572 23.6973C11.2403 21.7364 11.242 18.559 9.21572 16.5981L9.21405 16.6013Z"
			fill="white" />
		<path
			d="M196.307 2.13952L194.096 -0.000101089L191.886 2.13952L187.702 6.18672L189.913 8.32617L194.096 4.27898L198.278 8.32617L200.489 6.18672L196.307 2.13952Z"
			fill="white" />
		<path
			d="M15.3713 9.88245C15.7105 9.08682 16.3839 8.62184 17.2792 8.62184C18.0353 8.62184 18.8971 8.95459 19.1581 9.88245H15.3713ZM22.5197 10.5177C22.1763 7.7866 19.8686 6.09812 17.223 6.09812V6.09788C14.1648 6.09788 11.8945 8.36743 11.8945 11.3334C11.8945 14.287 14.146 16.5566 17.3171 16.5566C19.8313 16.5566 22.1205 15.1403 22.5197 12.659L19.2373 12.6585C19.0431 13.5245 18.2364 13.942 17.3356 13.942C16.1171 13.942 15.254 13.1916 15.1406 11.919H22.501C22.551 11.5676 22.5958 11.1236 22.5197 10.5177Z"
			fill="white" />
		<path d="M24.334 16.3213H27.5234V9.28219H30.7884V16.3213H33.9779V6.33471H24.334V16.3213Z" fill="white" />
		<path
			d="M39.3293 9.88245C39.6685 9.08682 40.342 8.62184 41.2373 8.62184C41.9933 8.62184 42.8551 8.95459 43.1162 9.88245H39.3293ZM46.478 10.5177C46.1343 7.7866 43.8268 6.09812 41.1811 6.09812V6.09788C38.1229 6.09788 35.8525 8.36743 35.8525 11.3334C35.8525 14.287 38.1041 16.5566 41.2751 16.5566C43.7894 16.5566 46.0785 15.1403 46.478 12.659L43.1953 12.6585C43.0011 13.5245 42.1944 13.942 41.2937 13.942C40.0751 13.942 39.212 13.1916 39.0986 11.919H46.4588C46.5088 11.5676 46.5537 11.1236 46.478 10.5177Z"
			fill="white" />
		<path d="M48.293 16.3213H51.4826V9.28219H54.9903V6.33471H48.293V16.3213Z" fill="white" />
		<path
			d="M61.52 13.615C60.3011 13.615 59.344 12.7254 59.344 11.3272C59.344 9.94726 60.2819 9.03939 61.52 9.04262C62.7581 9.03939 63.6973 9.94726 63.6973 11.3272C63.6973 12.7254 62.7581 13.615 61.52 13.615ZM63.6973 7.46254C63.0301 6.65127 62.0691 6.09788 60.7515 6.09788C58.1803 6.09788 56.1172 8.22241 56.1172 11.3272C56.1172 14.4139 58.1431 16.5566 60.7694 16.5566C62.0807 16.5566 63.034 16.0261 63.6973 15.2428V16.3205H66.8869V6.33391H63.6973V7.46254Z"
			fill="white" />
		<path d="M69.1377 16.3213H72.3273V2.33993H69.1377V16.3213Z" fill="white" />
		<path
			d="M83.6553 16.3477H86.8449V9.30856H89.7086V16.3477H92.8982V9.30856H95.7503V16.3477H98.9412V6.36108H83.6553V16.3477Z"
			fill="white" />
		<path
			d="M106.226 13.6414C105.006 13.6414 104.049 12.7518 104.049 11.3537C104.049 9.97376 104.987 9.06589 106.226 9.06912C107.464 9.06589 108.402 9.97376 108.402 11.3537C108.402 12.7518 107.464 13.6414 106.226 13.6414ZM108.402 7.48891C107.735 6.67776 106.775 6.12425 105.457 6.12425C102.887 6.12425 100.822 8.24878 100.822 11.3537C100.822 14.4404 102.848 16.583 105.476 16.583C106.786 16.583 107.74 16.0526 108.402 15.2693V16.347H111.592V6.3604H108.402V7.48891Z"
			fill="white" />
		<path d="M113.845 16.3486H117.034V9.30953H120.542V6.36206H113.845V16.3486Z" fill="white" />
		<path
			d="M132.001 6.3611H128.027L125.231 10.1679V2.36627H122.042V16.3477H125.231V12.3964L128.277 16.3477H132.288L128.177 11.1846L132.001 6.3611Z"
			fill="white" />
		<path
			d="M136.046 9.90988C136.384 9.11421 137.058 8.64933 137.954 8.64933C138.71 8.64933 139.572 8.982 139.832 9.90988H136.046ZM143.193 10.545C142.852 7.81405 140.543 6.12542 137.897 6.12542V6.12515C134.839 6.12515 132.569 8.39495 132.569 11.3607C132.569 14.3145 134.821 16.584 137.991 16.584C140.505 16.584 142.795 15.1677 143.193 12.6864L139.912 12.6859C139.718 13.552 138.911 13.9695 138.011 13.9695C136.791 13.9695 135.928 13.219 135.815 11.9464H143.175C143.226 11.5949 143.271 11.1509 143.193 10.545Z"
			fill="white" />
		<path
			d="M149.214 4.16295H146.025V6.36115H144.257V9.26618H146.025V16.3477H152.332V13.4425H149.214V9.26618H152.332V6.36115H149.214V4.16295Z"
			fill="white" />
		<path
			d="M155.795 1.51255C154.654 1.51255 153.804 2.2253 153.804 3.29129C153.804 4.35785 154.654 5.07031 155.795 5.07031C156.936 5.07031 157.787 4.35785 157.787 3.29129C157.787 2.2253 156.936 1.51255 155.795 1.51255Z"
			fill="white" />
		<path d="M154.199 16.3477H157.389V6.3611H154.199V16.3477Z" fill="white" />
		<path d="M159.643 16.3477H162.832V9.3086H166.098V16.3477H169.287V6.36112H159.643V16.3477Z" fill="white" />
		<path
			d="M176.566 13.5336C175.347 13.5336 174.389 12.6439 174.389 11.3002C174.389 9.97487 175.329 9.06686 176.566 9.07015C177.804 9.06686 178.742 9.97487 178.742 11.3002C178.742 12.6439 177.804 13.5336 176.566 13.5336ZM178.742 7.48567C178.075 6.67877 177.116 6.12522 175.797 6.12522C173.226 6.12522 171.162 8.24977 171.162 11.3002C171.162 14.3325 173.189 16.4752 175.816 16.4752C177.127 16.4752 178.079 15.9444 178.742 15.1654V17.6086H172.474V20.52L181.932 20.5244V6.36147H178.742V7.48567Z"
			fill="white" />
	</symbol>
	<symbol id="icon-A5-mini" width="683" height="583" viewBox="0 0 683 583" fill="none">
		<path
			d="M489.255 582.993C455.626 582.993 425.342 576.306 398.401 562.931C371.46 549.556 349.869 531.213 333.628 507.903C317.387 484.592 308.502 458.033 306.974 428.226H375.759C378.434 454.785 390.471 476.758 411.871 494.146C433.462 511.342 459.257 519.94 489.255 519.94C513.33 519.94 534.73 514.304 553.455 503.03C572.37 491.757 587.178 476.281 597.878 456.6C608.769 436.729 614.215 414.278 614.215 389.248C614.215 363.645 608.578 340.812 597.305 320.749C586.223 300.496 570.937 284.541 551.448 272.886C531.959 261.231 509.699 255.308 484.669 255.116C466.709 254.925 448.27 257.696 429.354 263.428C410.438 268.969 394.866 276.134 382.638 284.923L316.145 276.899L351.684 -12H656.633V51.0532H411.298L390.663 224.163H394.102C406.139 214.61 421.234 206.68 439.385 200.375C457.537 194.07 476.453 190.917 496.133 190.917C532.055 190.917 564.059 199.515 592.146 216.711C620.425 233.717 642.589 257.027 658.639 286.643C674.88 316.259 683 350.079 683 388.102C683 425.551 674.593 458.989 657.779 488.414C641.156 517.647 618.227 540.767 588.994 557.772C559.76 574.586 526.514 582.993 489.255 582.993Z"
			fill="#1454B8" />
		<path
			d="M-124.483 574.968H-199L16.5275 -12H89.8985L305.426 574.968H230.908L55.5058 80.8602H50.9201L-124.483 574.968ZM-96.9684 345.684H203.394V408.737H-96.9684V345.684Z"
			fill="#1454B8" />
	</symbol>
	<symbol id="icon-closed" fill="none">
		<path d="M2 2L30 30M30 2L2 30" stroke-width="3" />
	</symbol>
	<symbol id="icon-closed-24" fill="none">
		<path d="M2 2L22 22M22 2L2 22" stroke="#979797" stroke-width="3" />
	</symbol>
	<symbol id="icon-arrow-left-circle">
		<circle class='circle' cx="25" cy="25" style="stroke-width: var(--stroke-width, 2);r: var(--circle-radius, 24);" />
		<path class='path' d="M27.7719 16.6667L19 25.4387L27.7719 34.2106" stroke-width="2" />
	</symbol>
	<symbol id="icon-arrow-down">
		<path d="M13 1L7 7L1 1" stroke-width="2" />
	</symbol>
	<symbol id="icon-arrow-down-big">
		<path d="M31 1L16 16L0.999998 1" stroke="#979797" stroke-width="2.5" />
	</symbol>
	<symbol id="icon-arrow-right">
		<path d="M1 0.5L5.75 5.25L1 10" stroke="#979797" />
	</symbol>
	<symbol id="icon-ok-big">
		<circle cx="70" cy="70" r="67.5615" transform="rotate(-90 70 70)" stroke="#0045B2" stroke-width="4.87694" />
		<path d="M39.1997 70.6388L63.7611 95.2002L105.761 53.2002" stroke="#0045B2" stroke-width="4.87694" />
	</symbol>
	<symbol id="icon-logo-mini">
		<path
			d="M59.1154 53.6792C56.1677 53.6792 53.5303 53.0845 51.2031 51.8951C48.8932 50.6884 47.0488 49.0336 45.6697 46.9305C44.3079 44.8275 43.5839 42.4228 43.4977 39.7164H48.1779C48.333 42.5262 49.4362 44.8361 51.4876 46.6461C53.5389 48.4389 56.0815 49.3352 59.1154 49.3352C61.477 49.3352 63.5801 48.775 65.4245 47.6545C67.269 46.5168 68.7084 44.9654 69.7426 43.0003C70.7942 41.0179 71.3199 38.7856 71.3199 36.3033C71.3027 33.7176 70.7425 31.4422 69.6392 29.477C68.536 27.4947 67.0363 25.9432 65.1401 24.8228C63.2611 23.7023 61.1495 23.1421 58.8051 23.1421C57.0296 23.1248 55.2886 23.4179 53.582 24.0212C51.8754 24.6245 50.4533 25.4002 49.3156 26.3483L44.4803 25.7278L47.6607 0H73.8281V4.34398H51.7203L49.6 22.0561H49.8586C51.0308 21.0735 52.4529 20.2719 54.125 19.6514C55.8143 19.0308 57.5984 18.7205 59.4774 18.7205C62.5975 18.7205 65.3987 19.4704 67.8809 20.9701C70.3804 22.4698 72.3542 24.5383 73.8022 27.1758C75.2674 29.7959 76 32.8126 76 36.2257C76 39.5699 75.2674 42.5607 73.8022 45.1981C72.3542 47.8183 70.3546 49.8869 67.8034 51.4038C65.2694 52.9208 62.3734 53.6792 59.1154 53.6792Z"
			fill="white" />
		<path
			d="M5.06798 52.9552H0L19.2635 0H24.4349L43.6984 52.9552H38.6304L22.0302 6.28326H21.6682L5.06798 52.9552ZM8.71383 32.6575H34.9846V37.0014H8.71383V32.6575Z"
			fill="white" />
	</symbol>
	<symbol id="icon-arrow-burger">
		<path d="M21 1L11 11L1 1" stroke="white" stroke-width="2" />
	</symbol>
	<symbol id="icon-closed-mini" width="10" height="10" viewBox="0 0 10 10">
		<path d="M1 1L9 9M9 1L1 9" />
	</symbol>
	<symbol id="icon-outline-prev">
		<circle cx="25" cy="25" r="24.5" />
		<path d="M27.7719 16.667L19 25.4389L27.7719 34.2109" />
	</symbol>
	<symbol id="icon-outline-next">
		<circle cx="25" cy="25" r="24.5" />
		<path d="M22.2281 16.667L31 25.4389L22.2281 34.2109" />
	</symbol>
	<symbol id="icon-corner-card">

		<path opacity="0.1" d="M44 0L0 24L74.5 11.5L44 0Z" fill="#122B8F" />
		<path d="M74.5 24V11.5L0 24H74.5Z" fill="white" />


	</symbol>

	<symbol id="icon-vk" fill="none">
		<path
			d="M30.833 0C33.1342 0 35 1.86581 35 4.16699V30.833C35 33.1342 33.1342 35 30.833 35H4.16699C1.86581 35 0 33.1342 0 30.833V4.16699C0 1.86581 1.86581 0 4.16699 0H30.833ZM18.2373 11.7188C17.8198 11.6556 15.8861 11.6552 15.1152 11.6875C14.8822 11.7024 14.6547 11.7686 14.4492 11.8799C14.244 11.991 14.0651 12.1452 13.9248 12.332C14.4888 12.5898 14.9363 13.0498 15.1807 13.6211V16.4297C15.2183 16.6302 15.1755 16.8378 15.0615 17.0068C14.9475 17.1756 14.7717 17.2927 14.5723 17.332C13.9711 17.332 12.8616 15.2072 12.6367 14.8193C12.4118 14.4311 11.6777 12.2262 11.5811 12.0967C11.4745 11.9154 11.3176 11.7686 11.1299 11.6748H7.79004C7.56403 11.6748 7.56418 11.8348 7.5 12.0615C7.62217 13.2992 8.01717 14.4947 8.65625 15.5605C9.72776 17.7061 12.0298 21.0699 14.0518 22.3301C15.1743 23.0197 16.4809 23.3474 17.7949 23.2676C17.9683 23.2763 18.142 23.2493 18.3047 23.1885C18.4675 23.1275 18.6168 23.0337 18.7422 22.9131C18.9871 22.4647 19.0934 21.9526 19.0479 21.4434C19.0313 20.7107 19.3972 20.6914 19.5898 20.6914C19.6745 20.6834 19.7603 20.696 19.8389 20.7285C19.9173 20.7611 19.9867 20.8125 20.041 20.8779C20.2015 21.0389 21.272 22.2652 21.5615 22.5234C21.9169 22.8454 22.3332 23.0933 22.7852 23.252H25.7939C26.0316 23.268 26.267 23.1961 26.4561 23.0508C26.645 22.9055 26.775 22.6962 26.8213 22.4619C26.7727 22.1866 26.6504 21.929 26.4678 21.7178C26.2714 21.5231 24.1988 19.2344 23.9414 18.9414C23.731 18.7184 23.5909 18.4376 23.54 18.1348C23.5857 17.8781 23.6901 17.6353 23.8447 17.4258C23.974 17.2621 26.4529 13.257 26.7422 12.6123C26.8012 12.5299 26.838 12.4329 26.8496 12.332C26.8613 12.2313 26.8471 12.1289 26.8086 12.0352C26.7702 11.9414 26.708 11.8591 26.6289 11.7959C26.5499 11.7327 26.4562 11.6907 26.3564 11.6738H22.6592C22.4842 11.6855 22.318 11.7564 22.1875 11.874C21.7746 12.1288 21.4446 12.4991 21.2393 12.9395C20.8526 13.713 19.9822 17.292 19.5967 17.3203C19.5298 17.3383 19.4593 17.3399 19.3916 17.3252C19.324 17.3105 19.2605 17.2803 19.207 17.2363C19.1536 17.1923 19.1114 17.1358 19.084 17.0723C19.0565 17.0085 19.0442 16.9385 19.0488 16.8691V12.6729C19.0408 12.4453 18.956 12.2269 18.8086 12.0537C18.6611 11.8806 18.46 11.7623 18.2373 11.7188Z"
			fill="white" />


	</symbol>
	<symbol id="icon-rutube" fill="none">

		<path
			d="M30.833 0C33.1342 0 35 1.86581 35 4.16699V30.833C35 33.1342 33.1342 35 30.833 35H4.16699C1.86581 35 0 33.1342 0 30.833V4.16699C0 1.86581 1.86581 0 4.16699 0H30.833ZM20.0264 12.2451H9.16602V24.71H12.252V20.6553H17.9385L20.6357 24.71H24.0908L21.1162 20.6357C22.2127 20.4712 22.7052 20.131 23.1113 19.5703C23.5174 19.0095 23.7217 18.1126 23.7217 16.916V15.9814C23.7217 15.2718 23.6471 14.7111 23.5176 14.2812C23.3882 13.8514 23.1669 13.4774 22.8525 13.1416C22.5206 12.8237 22.1507 12.6002 21.707 12.4502C21.2633 12.3193 20.7091 12.2441 20.0264 12.2441V12.2451ZM19.5273 14.9932C19.9521 14.9932 20.2472 15.0683 20.3955 15.1992C20.5438 15.3302 20.6357 15.5729 20.6357 15.9277V16.9746C20.6357 17.3483 20.5438 17.5907 20.3955 17.7217C20.2473 17.8526 19.9522 17.9092 19.5273 17.9092V17.9082H12.252V14.9932H19.5273ZM26.4619 7.50098C25.1528 7.50102 24.0918 8.56301 24.0918 9.87207C24.092 11.181 25.1529 12.2421 26.4619 12.2422C27.7709 12.2422 28.8318 11.181 28.832 9.87207C28.832 8.56299 27.7711 7.50098 26.4619 7.50098Z"
			fill="white" />


	</symbol>
	<symbol id="icon-youtube" fill="none">
		<path
			d="M30.833 0C33.1342 0 35 1.86581 35 4.16699V30.833C35 33.1342 33.1342 35 30.833 35H4.16699C1.86581 35 0 33.1342 0 30.833V4.16699C0 1.86581 1.86581 0 4.16699 0H30.833ZM12.6631 9.16602C11.2389 9.22577 9.89563 9.84767 8.92871 10.8955C7.96188 11.9433 7.44976 13.3319 7.50391 14.7568V20.3477C7.4491 21.7728 7.96087 23.1619 8.92773 24.21C9.89473 25.2581 11.2386 25.8801 12.6631 25.9395H21.6904C23.1147 25.8801 24.458 25.2579 25.4248 24.21C26.3915 23.162 26.9042 21.7736 26.8496 20.3486V14.7578C26.9041 13.3328 26.3915 11.9445 25.4248 10.8965C24.4578 9.8484 23.1148 9.22577 21.6904 9.16602H12.6631ZM20.4014 17.5518L15.2422 20.793V14.3105L20.4014 17.5518Z"
			fill="white" />
	</symbol>
	<symbol id="icon-telegram" fill="none">
		<path
			d="M30.833 0C33.1342 0 35 1.86581 35 4.16699V30.833C35 33.1342 33.1342 35 30.833 35H4.16699C1.86581 35 0 33.1342 0 30.833V4.16699C0 1.86581 1.86581 0 4.16699 0H30.833ZM26.4746 10.8613C26.6101 9.66562 25.3757 10.0207 24.9062 10.1572C24.437 10.2937 10.4935 15.5962 9.70312 15.9971C9.55207 16.0588 9.42176 16.1625 9.32715 16.2949C9.23248 16.4274 9.17696 16.5838 9.16797 16.7461C9.15889 16.9085 9.19699 17.0698 9.27637 17.2119C9.35578 17.3541 9.47377 17.4709 9.61719 17.5488C10.173 17.7665 13.915 18.8809 13.915 18.8809L22.2012 14.1719L16.125 20.1162L15.2734 24.3604C15.2924 24.4002 15.3085 24.4416 15.3223 24.4834C15.3893 24.5792 15.4761 24.6609 15.5762 24.7217C15.6761 24.7823 15.7882 24.8215 15.9043 24.8369C16.0203 24.8522 16.1386 24.8431 16.251 24.8105C16.3634 24.7779 16.468 24.7225 16.5576 24.6475C16.8293 24.3745 18.3486 21.709 18.3486 21.709C18.3598 21.7172 20.4515 23.2475 21.7939 24.3096C21.947 24.5021 22.1545 24.6447 22.3896 24.7188C22.6248 24.7929 22.8769 24.7954 23.1133 24.7256C23.3499 24.6558 23.5603 24.5161 23.7168 24.3262C23.8732 24.1364 23.9692 23.9045 23.9922 23.6602C24.128 23.0022 26.3388 12.0579 26.4746 10.8613Z"
			fill="white" />
	</symbol>
	<symbol id="icon-whatsapp" fill="none">
		<path
			d="M30.833 0C33.1342 0 35 1.86581 35 4.16699V30.833C35 33.1342 33.1342 35 30.833 35H4.16699C1.86581 35 0 33.1342 0 30.833V4.16699C0 1.86581 1.86581 0 4.16699 0H30.833ZM18.1621 8.75C13.3296 8.75012 9.41211 12.6675 9.41211 17.5C9.40942 19.047 9.81899 20.5672 10.5986 21.9033L9.41602 26.25L13.7607 25.0645C15.0964 25.8435 16.6158 26.2526 18.1621 26.25C22.9947 26.25 26.9121 22.3326 26.9121 17.5C26.9121 12.6674 22.9947 8.75 18.1621 8.75ZM15.3564 13.3896C15.4036 13.3931 15.4509 13.3985 15.498 13.4043C15.6371 13.421 15.7902 13.5049 15.8418 13.6221C16.1031 14.2141 16.3566 14.8097 16.6016 15.4082C16.6556 15.5403 16.6227 15.7109 16.5195 15.877C16.467 15.9618 16.3861 16.0808 16.29 16.2031C16.1932 16.3266 15.9869 16.5523 15.9785 16.5615C15.9785 16.5615 15.8916 16.6653 15.9248 16.7939C15.9476 16.8569 15.9782 16.9166 16.0146 16.9727L16.0654 17.0566C16.3137 17.4634 16.6138 17.8364 16.958 18.166C17.063 18.2675 17.1661 18.3725 17.2764 18.4688C17.687 18.8313 18.1521 19.1269 18.6543 19.3457C18.7287 19.3772 18.7665 19.3949 18.875 19.4404C18.9292 19.4636 18.9851 19.4829 19.042 19.498C19.1008 19.5131 19.1625 19.5104 19.2197 19.4902C19.277 19.47 19.327 19.4334 19.3633 19.3848C19.9959 18.6183 20.0552 18.5686 20.0596 18.5703C20.1035 18.5292 20.1558 18.4977 20.2129 18.4785C20.2698 18.4594 20.33 18.4528 20.3896 18.459C20.4427 18.4615 20.4952 18.4739 20.5439 18.4951C21.0041 18.7044 21.7534 19.0306 21.7705 19.0381L22.2803 19.2666C22.365 19.3077 22.4426 19.4046 22.4463 19.498C22.4489 19.5567 22.4556 19.6519 22.4346 19.8252C22.4066 20.0516 22.3377 20.3232 22.2695 20.4658C22.2205 20.5662 22.1594 20.6546 22.0859 20.7305C21.9879 20.8328 21.915 20.8949 21.7969 20.9824C21.7246 21.036 21.6875 21.0615 21.6875 21.0615C21.5788 21.1305 21.4669 21.1948 21.3525 21.2539C21.1273 21.3735 20.8787 21.4426 20.624 21.4561C20.4614 21.4639 20.2994 21.4755 20.1377 21.4668L19.6406 21.3906C18.3966 21.0633 17.2458 20.4506 16.2803 19.6006C16.0826 19.4265 15.8991 19.2391 15.7119 19.0527C14.9349 18.2784 14.3452 17.4426 13.9873 16.6533C13.8124 16.2632 13.701 15.8456 13.6992 15.417C13.6967 14.8863 13.8708 14.3699 14.1943 13.9492C14.2582 13.8661 14.3179 13.7805 14.4229 13.6816C14.4986 13.6032 14.5848 13.5353 14.6797 13.4814C14.7813 13.4315 14.8919 13.4024 15.0049 13.3945L15.1807 13.3877L15.0039 13.3936C15.1211 13.3845 15.2391 13.3829 15.3564 13.3896Z"
			fill="white" />
	</symbol>
</svg>