<svg xmlns="http://www.w3.org/2000/svg">
   <symbol id="icon-logo" width="151" height="107" viewBox="0 0 151 107" fill="none">
      <path
         d="M117.453 106.652C111.596 106.652 106.356 105.471 101.732 103.108C97.1429 100.71 93.4782 97.4221 90.7383 93.2437C88.0326 89.0653 86.5941 84.2875 86.4229 78.9104H95.7215C96.0298 84.493 98.2217 89.0824 102.297 92.6786C106.373 96.2405 111.425 98.0215 117.453 98.0215C122.145 98.0215 126.323 96.9084 129.988 94.6822C133.653 92.4217 136.512 89.3393 138.567 85.4349C140.657 81.4962 141.701 77.0609 141.701 72.129C141.667 66.9916 140.554 62.4707 138.362 58.5663C136.17 54.6276 133.19 51.5452 129.423 49.319C125.69 47.0928 121.494 45.9797 116.836 45.9797C113.309 45.9454 109.849 46.5277 106.459 47.7264C103.068 48.9251 100.242 50.4663 97.982 52.3501L88.3751 51.1171L94.6941 0H146.684V8.63082H102.76L98.5471 43.822H99.0608C101.39 41.8698 104.215 40.2772 107.538 39.0442C110.894 37.8112 114.439 37.1947 118.172 37.1947C124.371 37.1947 129.937 38.6846 134.868 41.6643C139.835 44.644 143.756 48.7539 146.633 53.994C149.544 59.1999 151 65.1935 151 71.9749C151 78.6193 149.544 84.5615 146.633 89.8017C143.756 95.0076 139.783 99.1175 134.714 102.131C129.68 105.145 123.926 106.652 117.453 106.652Z"
         fill="#0045B2" />
      <path
         d="M10.0693 105.214H0L38.2736 0H48.5484L86.822 105.214H76.7527L43.7706 12.4839H43.0514L10.0693 105.214ZM17.313 64.8853H69.509V73.5161H17.313V64.8853Z"
         fill="#0045B2" />
   </symbol>
   <symbol id="icon-arrow-down" width="14" height="9" viewBox="0 0 14 9" fill="none">
      <path d="M13 1L7 7L1 1" stroke="#515151" stroke-width="2" />
   </symbol>

</svg>