<svg xmlns="http://www.w3.org/2000/svg">
   <symbol id="icon-logo" width="151" height="107" viewBox="0 0 151 107" fill="none">
      <path
         d="M117.453 106.652C111.596 106.652 106.356 105.471 101.732 103.108C97.1429 100.71 93.4782 97.4221 90.7383 93.2437C88.0326 89.0653 86.5941 84.2875 86.4229 78.9104H95.7215C96.0298 84.493 98.2217 89.0824 102.297 92.6786C106.373 96.2405 111.425 98.0215 117.453 98.0215C122.145 98.0215 126.323 96.9084 129.988 94.6822C133.653 92.4217 136.512 89.3393 138.567 85.4349C140.657 81.4962 141.701 77.0609 141.701 72.129C141.667 66.9916 140.554 62.4707 138.362 58.5663C136.17 54.6276 133.19 51.5452 129.423 49.319C125.69 47.0928 121.494 45.9797 116.836 45.9797C113.309 45.9454 109.849 46.5277 106.459 47.7264C103.068 48.9251 100.242 50.4663 97.982 52.3501L88.3751 51.1171L94.6941 0H146.684V8.63082H102.76L98.5471 43.822H99.0608C101.39 41.8698 104.215 40.2772 107.538 39.0442C110.894 37.8112 114.439 37.1947 118.172 37.1947C124.371 37.1947 129.937 38.6846 134.868 41.6643C139.835 44.644 143.756 48.7539 146.633 53.994C149.544 59.1999 151 65.1935 151 71.9749C151 78.6193 149.544 84.5615 146.633 89.8017C143.756 95.0076 139.783 99.1175 134.714 102.131C129.68 105.145 123.926 106.652 117.453 106.652Z"
         fill="#0045B2" />
      <path
         d="M10.0693 105.214H0L38.2736 0H48.5484L86.822 105.214H76.7527L43.7706 12.4839H43.0514L10.0693 105.214ZM17.313 64.8853H69.509V73.5161H17.313V64.8853Z"
         fill="#0045B2" />
   </symbol>
   <symbol id="icon-arrow-down" width="14" height="9" viewBox="0 0 14 9" fill="none">
      <path d="M13 1L7 7L1 1" stroke="#515151" stroke-width="2" />
   </symbol>
   <symbol id="icon-arrow-left-circle" width="50" height="50" viewBox="0 0 50 50" fill="none">
      <circle cx="25" cy="25" r="24" stroke="#0045B2" stroke-width="2" />
      <path d="M27.7719 16.6667L19 25.4387L27.7719 34.2106" stroke="#0045B2" stroke-width="2" />
   </symbol>
   <symbol id="icon-arrow-left-circle-hover" width="50" height="50" viewBox="0 0 50 50" fill="none">
      <circle cx="25" cy="25" r="25" fill="#0045B2" />
      <path d="M27.7719 16.6667L19 25.4387L27.7719 34.2106" stroke="white" stroke-width="2" />
   </symbol>
   <symbol id="icon-A5" width="1072" height="940" viewBox="0 0 1072 940" fill="none">
      <path
         d="M765.906 939.769C712.791 939.769 664.958 929.207 622.406 908.081C579.854 886.956 545.752 857.985 520.099 821.166C494.447 784.348 480.414 742.399 478 695.32H586.644C590.869 737.269 609.882 771.975 643.682 799.438C677.784 826.598 718.525 840.179 765.906 840.179C803.932 840.179 837.732 831.276 867.307 813.471C897.184 795.665 920.573 771.22 937.473 740.136C954.675 708.75 963.276 673.29 963.276 633.756C963.276 593.316 954.373 557.252 936.568 525.565C919.064 493.575 894.921 468.376 864.138 449.967C833.356 431.557 798.198 422.202 758.663 421.9C730.295 421.598 701.173 425.974 671.296 435.028C641.419 443.78 616.823 455.097 597.508 468.979L492.486 456.304L548.619 0H1030.27V99.5902H642.776L610.183 373.01H615.616C634.628 357.921 658.469 345.397 687.139 335.438C715.809 325.479 745.686 320.499 776.771 320.499C833.507 320.499 884.056 334.08 928.419 361.241C973.084 388.1 1008.09 424.918 1033.44 471.695C1059.09 518.473 1071.92 571.889 1071.92 631.945C1071.92 691.095 1058.64 743.909 1032.08 790.384C1005.83 836.558 969.613 873.074 923.44 899.933C877.266 926.491 824.755 939.769 765.906 939.769Z"
         fill="#ECECEC" />
      <path
         d="M-179.303 927.094H-297L43.4174 0H159.304L499.721 927.094H382.024L104.982 146.669H97.7393L-179.303 927.094ZM-135.845 564.948H338.566V664.538H-135.845V564.948Z"
         fill="#ECECEC" />
   </symbol>
   <symbol id="icon-eye" width="40" height="40" viewBox="0 0 40 40" fill="none">
      <rect width="40" height="40" rx="20" fill="white" />
      <path
         d="M19.9997 11.5791C14.2581 11.5791 9.35477 15.2893 7.36816 20.5265C9.35477 25.7637 14.2581 29.4738 19.9997 29.4738C25.7414 29.4738 30.6447 25.7637 32.6313 20.5265C30.6447 15.2893 25.7414 11.5791 19.9997 11.5791ZM19.9997 26.4914C16.8304 26.4914 14.2581 23.8191 14.2581 20.5265C14.2581 17.2338 16.8304 14.5616 19.9997 14.5616C23.1691 14.5616 25.7414 17.2338 25.7414 20.5265C25.7414 23.8191 23.1691 26.4914 19.9997 26.4914ZM19.9997 16.9475C18.0935 16.9475 16.5548 18.5461 16.5548 20.5265C16.5548 22.5068 18.0935 24.1054 19.9997 24.1054C21.906 24.1054 23.4447 22.5068 23.4447 20.5265C23.4447 18.5461 21.906 16.9475 19.9997 16.9475Z"
         fill="#CBCBCB" />
   </symbol>

</svg>