<svg xmlns="http://www.w3.org/2000/svg">
   <symbol id="icon-logo" width="151" height="107" viewBox="0 0 151 107" fill="none">
      <path
         d="M117.453 106.652C111.596 106.652 106.356 105.471 101.732 103.108C97.1429 100.71 93.4782 97.4221 90.7383 93.2437C88.0326 89.0653 86.5941 84.2875 86.4229 78.9104H95.7215C96.0298 84.493 98.2217 89.0824 102.297 92.6786C106.373 96.2405 111.425 98.0215 117.453 98.0215C122.145 98.0215 126.323 96.9084 129.988 94.6822C133.653 92.4217 136.512 89.3393 138.567 85.4349C140.657 81.4962 141.701 77.0609 141.701 72.129C141.667 66.9916 140.554 62.4707 138.362 58.5663C136.17 54.6276 133.19 51.5452 129.423 49.319C125.69 47.0928 121.494 45.9797 116.836 45.9797C113.309 45.9454 109.849 46.5277 106.459 47.7264C103.068 48.9251 100.242 50.4663 97.982 52.3501L88.3751 51.1171L94.6941 0H146.684V8.63082H102.76L98.5471 43.822H99.0608C101.39 41.8698 104.215 40.2772 107.538 39.0442C110.894 37.8112 114.439 37.1947 118.172 37.1947C124.371 37.1947 129.937 38.6846 134.868 41.6643C139.835 44.644 143.756 48.7539 146.633 53.994C149.544 59.1999 151 65.1935 151 71.9749C151 78.6193 149.544 84.5615 146.633 89.8017C143.756 95.0076 139.783 99.1175 134.714 102.131C129.68 105.145 123.926 106.652 117.453 106.652Z"
         fill="#0045B2" />
      <path
         d="M10.0693 105.214H0L38.2736 0H48.5484L86.822 105.214H76.7527L43.7706 12.4839H43.0514L10.0693 105.214ZM17.313 64.8853H69.509V73.5161H17.313V64.8853Z"
         fill="#0045B2" />
   </symbol>
   <symbol id="icon-arrow-down" width="14" height="9" viewBox="0 0 14 9" fill="none">
      <path d="M13 1L7 7L1 1" stroke="#515151" stroke-width="2" />
   </symbol>
   <symbol id="icon-arrow-down-blue" width="14" height="9" viewBox="0 0 14 9" fill="none">
         <path d="M13 1L7 7L1 1" stroke="#0045B2" stroke-width="2"/>
   </symbol>
   <symbol id="icon-arrow-left-circle" width="50" height="50" viewBox="0 0 50 50" fill="none">
      <circle cx="25" cy="25" r="24" stroke="#0045B2" stroke-width="2" />
      <path d="M27.7719 16.6667L19 25.4387L27.7719 34.2106" stroke="#0045B2" stroke-width="2" />
   </symbol>
   <symbol id="icon-arrow-left-circle-hover" width="50" height="50" viewBox="0 0 50 50" fill="none">
      <circle cx="25" cy="25" r="25" fill="#0045B2" />
      <path d="M27.7719 16.6667L19 25.4387L27.7719 34.2106" stroke="white" stroke-width="2" />
   </symbol>
   <symbol id="icon-A5" width="1072" height="930" viewBox="0 0 1072" fill="none">
      <path
         d="M765.906 939.769C712.791 939.769 664.958 929.207 622.406 908.081C579.854 886.956 545.752 857.985 520.099 821.166C494.447 784.348 480.414 742.399 478 695.32H586.644C590.869 737.269 609.882 771.975 643.682 799.438C677.784 826.598 718.525 840.179 765.906 840.179C803.932 840.179 837.732 831.276 867.307 813.471C897.184 795.665 920.573 771.22 937.473 740.136C954.675 708.75 963.276 673.29 963.276 633.756C963.276 593.316 954.373 557.252 936.568 525.565C919.064 493.575 894.921 468.376 864.138 449.967C833.356 431.557 798.198 422.202 758.663 421.9C730.295 421.598 701.173 425.974 671.296 435.028C641.419 443.78 616.823 455.097 597.508 468.979L492.486 456.304L548.619 0H1030.27V99.5902H642.776L610.183 373.01H615.616C634.628 357.921 658.469 345.397 687.139 335.438C715.809 325.479 745.686 320.499 776.771 320.499C833.507 320.499 884.056 334.08 928.419 361.241C973.084 388.1 1008.09 424.918 1033.44 471.695C1059.09 518.473 1071.92 571.889 1071.92 631.945C1071.92 691.095 1058.64 743.909 1032.08 790.384C1005.83 836.558 969.613 873.074 923.44 899.933C877.266 926.491 824.755 939.769 765.906 939.769Z"
         fill="#ECECEC" />
      <path
         d="M-179.303 927.094H-297L43.4174 0H159.304L499.721 927.094H382.024L104.982 146.669H97.7393L-179.303 927.094ZM-135.845 564.948H338.566V664.538H-135.845V564.948Z"
         fill="#ECECEC" />
   </symbol>
   <symbol id="icon-eye" width="40" height="40" viewBox="0 0 40 40" fill="none">
      <rect width="40" height="40" rx="20" fill="white" />
      <path
         d="M19.9997 11.5791C14.2581 11.5791 9.35477 15.2893 7.36816 20.5265C9.35477 25.7637 14.2581 29.4738 19.9997 29.4738C25.7414 29.4738 30.6447 25.7637 32.6313 20.5265C30.6447 15.2893 25.7414 11.5791 19.9997 11.5791ZM19.9997 26.4914C16.8304 26.4914 14.2581 23.8191 14.2581 20.5265C14.2581 17.2338 16.8304 14.5616 19.9997 14.5616C23.1691 14.5616 25.7414 17.2338 25.7414 20.5265C25.7414 23.8191 23.1691 26.4914 19.9997 26.4914ZM19.9997 16.9475C18.0935 16.9475 16.5548 18.5461 16.5548 20.5265C16.5548 22.5068 18.0935 24.1054 19.9997 24.1054C21.906 24.1054 23.4447 22.5068 23.4447 20.5265C23.4447 18.5461 21.906 16.9475 19.9997 16.9475Z"
         fill="#CBCBCB" />
   </symbol>
   <symbol id="icon-logo-site" width="201" height="26" viewBox="0 0 201 26" fill="none">
      <path
         d="M5.36752 13.4859C4.11811 13.4859 3.10157 12.5023 3.10157 11.2931C3.10157 10.084 4.11811 9.1003 5.36752 9.1003C6.61705 9.1003 7.63346 10.084 7.63346 11.2931C7.63346 12.5023 6.61705 13.4859 5.36752 13.4859ZM5.36752 6.09894C2.4031 6.09894 0 8.42437 0 11.2931C0 14.1618 2.4031 16.4873 5.36752 16.4873C8.33181 16.4873 10.7349 14.1618 10.7349 11.2931C10.7349 8.42437 8.33181 6.09894 5.36752 6.09894Z"
         fill="white" />
      <path
         d="M9.21405 16.6013V16.5981H5.30969V19.4855H7.62568C7.87368 20.2203 7.69894 21.063 7.09617 21.6461C6.24373 22.4728 4.85345 22.4728 4.00101 21.6461C3.14677 20.8196 3.14677 19.4758 4.00101 18.6493L3.97432 18.6234H0.607676C0.0366029 20.3539 0.462826 22.3246 1.88146 23.6973C3.90774 25.6582 7.18945 25.6582 9.21572 23.6973C11.2403 21.7364 11.242 18.559 9.21572 16.5981L9.21405 16.6013Z"
         fill="white" />
      <path
         d="M196.307 2.13952L194.096 -0.000101089L191.886 2.13952L187.702 6.18672L189.913 8.32617L194.096 4.27898L198.278 8.32617L200.489 6.18672L196.307 2.13952Z"
         fill="white" />
      <path
         d="M15.3713 9.88245C15.7105 9.08682 16.3839 8.62184 17.2792 8.62184C18.0353 8.62184 18.8971 8.95459 19.1581 9.88245H15.3713ZM22.5197 10.5177C22.1763 7.7866 19.8686 6.09812 17.223 6.09812V6.09788C14.1648 6.09788 11.8945 8.36743 11.8945 11.3334C11.8945 14.287 14.146 16.5566 17.3171 16.5566C19.8313 16.5566 22.1205 15.1403 22.5197 12.659L19.2373 12.6585C19.0431 13.5245 18.2364 13.942 17.3356 13.942C16.1171 13.942 15.254 13.1916 15.1406 11.919H22.501C22.551 11.5676 22.5958 11.1236 22.5197 10.5177Z"
         fill="white" />
      <path d="M24.334 16.3213H27.5234V9.28219H30.7884V16.3213H33.9779V6.33471H24.334V16.3213Z" fill="white" />
      <path
         d="M39.3293 9.88245C39.6685 9.08682 40.342 8.62184 41.2373 8.62184C41.9933 8.62184 42.8551 8.95459 43.1162 9.88245H39.3293ZM46.478 10.5177C46.1343 7.7866 43.8268 6.09812 41.1811 6.09812V6.09788C38.1229 6.09788 35.8525 8.36743 35.8525 11.3334C35.8525 14.287 38.1041 16.5566 41.2751 16.5566C43.7894 16.5566 46.0785 15.1403 46.478 12.659L43.1953 12.6585C43.0011 13.5245 42.1944 13.942 41.2937 13.942C40.0751 13.942 39.212 13.1916 39.0986 11.919H46.4588C46.5088 11.5676 46.5537 11.1236 46.478 10.5177Z"
         fill="white" />
      <path d="M48.293 16.3213H51.4826V9.28219H54.9903V6.33471H48.293V16.3213Z" fill="white" />
      <path
         d="M61.52 13.615C60.3011 13.615 59.344 12.7254 59.344 11.3272C59.344 9.94726 60.2819 9.03939 61.52 9.04262C62.7581 9.03939 63.6973 9.94726 63.6973 11.3272C63.6973 12.7254 62.7581 13.615 61.52 13.615ZM63.6973 7.46254C63.0301 6.65127 62.0691 6.09788 60.7515 6.09788C58.1803 6.09788 56.1172 8.22241 56.1172 11.3272C56.1172 14.4139 58.1431 16.5566 60.7694 16.5566C62.0807 16.5566 63.034 16.0261 63.6973 15.2428V16.3205H66.8869V6.33391H63.6973V7.46254Z"
         fill="white" />
      <path d="M69.1377 16.3213H72.3273V2.33993H69.1377V16.3213Z" fill="white" />
      <path
         d="M83.6553 16.3477H86.8449V9.30856H89.7086V16.3477H92.8982V9.30856H95.7503V16.3477H98.9412V6.36108H83.6553V16.3477Z"
         fill="white" />
      <path
         d="M106.226 13.6414C105.006 13.6414 104.049 12.7518 104.049 11.3537C104.049 9.97376 104.987 9.06589 106.226 9.06912C107.464 9.06589 108.402 9.97376 108.402 11.3537C108.402 12.7518 107.464 13.6414 106.226 13.6414ZM108.402 7.48891C107.735 6.67776 106.775 6.12425 105.457 6.12425C102.887 6.12425 100.822 8.24878 100.822 11.3537C100.822 14.4404 102.848 16.583 105.476 16.583C106.786 16.583 107.74 16.0526 108.402 15.2693V16.347H111.592V6.3604H108.402V7.48891Z"
         fill="white" />
      <path d="M113.845 16.3486H117.034V9.30953H120.542V6.36206H113.845V16.3486Z" fill="white" />
      <path
         d="M132.001 6.3611H128.027L125.231 10.1679V2.36627H122.042V16.3477H125.231V12.3964L128.277 16.3477H132.288L128.177 11.1846L132.001 6.3611Z"
         fill="white" />
      <path
         d="M136.046 9.90988C136.384 9.11421 137.058 8.64933 137.954 8.64933C138.71 8.64933 139.572 8.982 139.832 9.90988H136.046ZM143.193 10.545C142.852 7.81405 140.543 6.12542 137.897 6.12542V6.12515C134.839 6.12515 132.569 8.39495 132.569 11.3607C132.569 14.3145 134.821 16.584 137.991 16.584C140.505 16.584 142.795 15.1677 143.193 12.6864L139.912 12.6859C139.718 13.552 138.911 13.9695 138.011 13.9695C136.791 13.9695 135.928 13.219 135.815 11.9464H143.175C143.226 11.5949 143.271 11.1509 143.193 10.545Z"
         fill="white" />
      <path
         d="M149.214 4.16295H146.025V6.36115H144.257V9.26618H146.025V16.3477H152.332V13.4425H149.214V9.26618H152.332V6.36115H149.214V4.16295Z"
         fill="white" />
      <path
         d="M155.795 1.51255C154.654 1.51255 153.804 2.2253 153.804 3.29129C153.804 4.35785 154.654 5.07031 155.795 5.07031C156.936 5.07031 157.787 4.35785 157.787 3.29129C157.787 2.2253 156.936 1.51255 155.795 1.51255Z"
         fill="white" />
      <path d="M154.199 16.3477H157.389V6.3611H154.199V16.3477Z" fill="white" />
      <path d="M159.643 16.3477H162.832V9.3086H166.098V16.3477H169.287V6.36112H159.643V16.3477Z" fill="white" />
      <path
         d="M176.566 13.5336C175.347 13.5336 174.389 12.6439 174.389 11.3002C174.389 9.97487 175.329 9.06686 176.566 9.07015C177.804 9.06686 178.742 9.97487 178.742 11.3002C178.742 12.6439 177.804 13.5336 176.566 13.5336ZM178.742 7.48567C178.075 6.67877 177.116 6.12522 175.797 6.12522C173.226 6.12522 171.162 8.24977 171.162 11.3002C171.162 14.3325 173.189 16.4752 175.816 16.4752C177.127 16.4752 178.079 15.9444 178.742 15.1654V17.6086H172.474V20.52L181.932 20.5244V6.36147H178.742V7.48567Z"
         fill="white" />
   </symbol>
   <symbol id="icon-A5-mini" width="683" height="583" viewBox="0 0 683 583" fill="none">
      <path
         d="M489.255 582.993C455.626 582.993 425.342 576.306 398.401 562.931C371.46 549.556 349.869 531.213 333.628 507.903C317.387 484.592 308.502 458.033 306.974 428.226H375.759C378.434 454.785 390.471 476.758 411.871 494.146C433.462 511.342 459.257 519.94 489.255 519.94C513.33 519.94 534.73 514.304 553.455 503.03C572.37 491.757 587.178 476.281 597.878 456.6C608.769 436.729 614.215 414.278 614.215 389.248C614.215 363.645 608.578 340.812 597.305 320.749C586.223 300.496 570.937 284.541 551.448 272.886C531.959 261.231 509.699 255.308 484.669 255.116C466.709 254.925 448.27 257.696 429.354 263.428C410.438 268.969 394.866 276.134 382.638 284.923L316.145 276.899L351.684 -12H656.633V51.0532H411.298L390.663 224.163H394.102C406.139 214.61 421.234 206.68 439.385 200.375C457.537 194.07 476.453 190.917 496.133 190.917C532.055 190.917 564.059 199.515 592.146 216.711C620.425 233.717 642.589 257.027 658.639 286.643C674.88 316.259 683 350.079 683 388.102C683 425.551 674.593 458.989 657.779 488.414C641.156 517.647 618.227 540.767 588.994 557.772C559.76 574.586 526.514 582.993 489.255 582.993Z"
         fill="#1454B8" />
      <path
         d="M-124.483 574.968H-199L16.5275 -12H89.8985L305.426 574.968H230.908L55.5058 80.8602H50.9201L-124.483 574.968ZM-96.9684 345.684H203.394V408.737H-96.9684V345.684Z"
         fill="#1454B8" />
   </symbol>

</svg>