<svg xmlns="http://www.w3.org/2000/svg">
   <symbol id="icon-zoomlion" width="302" height="101" viewBox="0 0 302 101" fill="none">
      <g clip-path="url(#clip0_1181_4588)">
         <rect width="302" height="101" fill="white" />
         <path d="M302 0H0V101H302V0Z" fill="white" />
         <path
            d="M235.008 42.0082C234.694 40.7208 233.921 39.5936 232.834 38.8397C231.399 37.7704 229.747 37.0317 227.995 36.6762C225.768 36.159 223.487 35.9131 221.202 35.9437C218.847 35.9012 216.496 36.1588 214.206 36.7103C212.488 37.0942 210.872 37.8436 209.468 38.9078C208.409 39.6831 207.662 40.8132 207.362 42.0933C207.103 44.0467 206.995 46.0173 207.039 47.9874V52.7231C206.986 54.7279 207.099 56.7336 207.379 58.7194C207.717 59.9728 208.479 61.0691 209.536 61.8198C210.969 62.8848 212.614 63.6284 214.358 64.0002C216.587 64.5067 218.866 64.7525 221.151 64.7327C223.495 64.7609 225.834 64.4977 228.113 63.9491C229.836 63.5778 231.454 62.8272 232.851 61.7516C233.906 60.9756 234.647 59.8449 234.94 58.5661C235.226 56.6096 235.34 54.6315 235.28 52.655V47.9874C235.347 45.9875 235.227 43.9857 234.923 42.0082M226.942 51.6329C226.963 52.6848 226.924 53.7371 226.823 54.7843C226.72 55.4295 226.417 56.0257 225.957 56.4878C225.425 57.0423 224.757 57.4475 224.021 57.6632C223.106 57.9655 222.147 58.1095 221.185 58.0891C220.248 58.0978 219.315 57.9657 218.417 57.6973C217.677 57.4755 217.001 57.0782 216.447 56.5389C216.006 56.063 215.706 55.4731 215.581 54.8354C215.463 53.7723 215.418 52.7023 215.445 51.6329V49.0947C215.418 48.0423 215.463 46.9893 215.581 45.9432C215.666 45.296 215.965 44.6961 216.43 44.2397C216.965 43.6927 217.632 43.2937 218.366 43.0814C219.283 42.794 220.241 42.656 221.202 42.6725C222.14 42.6531 223.074 42.7854 223.97 43.0643C224.719 43.2757 225.403 43.6742 225.957 44.2227C226.408 44.6939 226.714 45.2852 226.84 45.9262C226.941 46.9848 226.981 48.0485 226.959 49.1117L226.942 51.6329Z"
            fill="#0045B2" />
         <path
            d="M126.801 42.008C126.49 40.7194 125.716 39.5911 124.628 38.8395C123.186 37.7704 121.528 37.0319 119.771 36.6761C117.544 36.1589 115.264 35.913 112.978 35.9436C110.623 35.8981 108.272 36.1558 105.982 36.7102C104.26 37.0977 102.64 37.8467 101.227 38.9077C100.182 39.6897 99.4478 40.8187 99.1553 42.0932C98.879 44.045 98.7654 46.0165 98.8156 47.9873V52.723C98.7561 54.7284 98.8755 56.7352 99.1722 58.7193C99.5179 59.9828 100.3 61.0818 101.38 61.8196C102.826 62.885 104.481 63.6284 106.237 64.0001C108.465 64.508 110.744 64.7538 113.029 64.7326C115.368 64.7629 117.701 64.4996 119.975 63.949C121.701 63.5757 123.325 62.8255 124.729 61.7515C125.793 60.9805 126.541 59.8486 126.835 58.566C127.105 56.6078 127.212 54.6308 127.158 52.6549V47.9873C127.216 45.9875 127.097 43.9865 126.801 42.008ZM118.82 51.5987C118.844 52.6515 118.793 53.7046 118.667 54.7501C118.579 55.3962 118.28 55.995 117.818 56.4536C117.293 57.0081 116.631 57.4136 115.899 57.629C114.985 57.9313 114.026 58.0753 113.063 58.0549C112.126 58.0649 111.193 57.9328 110.295 57.6631C109.562 57.4494 108.895 57.0506 108.359 56.5047C107.88 56.0496 107.559 55.4527 107.442 54.8012C107.341 53.7369 107.302 52.6676 107.323 51.5987V49.0945C107.323 47.6125 107.323 46.5563 107.425 45.9431C107.551 45.3021 107.857 44.7108 108.308 44.2396C108.839 43.6875 109.508 43.2876 110.244 43.0812C112.063 42.5475 113.996 42.5475 115.814 43.0812C116.56 43.2881 117.24 43.6875 117.784 44.2396C118.255 44.6965 118.564 45.2943 118.667 45.9431C118.794 46.9999 118.845 48.0645 118.82 49.1286V51.5987Z"
            fill="#0045B2" />
         <path
            d="M94.2813 42.0082C93.9893 40.7248 93.2329 39.5957 92.1586 38.8397C90.7016 37.7756 89.0337 37.0378 87.2679 36.6763C85.0408 36.162 82.7604 35.9161 80.4753 35.9438C78.1314 35.901 75.7917 36.1587 73.5128 36.7104C71.7937 37.0907 70.1773 37.8404 68.775 38.9079C67.7117 39.6789 66.9634 40.8108 66.6693 42.0934C66.3754 44.0434 66.2617 46.0165 66.3296 47.9875V52.7232C66.2701 54.7286 66.3895 56.7353 66.6862 58.7195C67.0276 59.9804 67.8038 61.0791 68.8769 61.8198C70.3003 62.9051 71.939 63.6718 73.6826 64.0684C75.9113 64.5734 78.1905 64.8192 80.4753 64.8009C82.8251 64.831 85.1696 64.5678 87.4547 64.0173C89.1887 63.6508 90.8191 62.9 92.2265 61.8198C93.2857 61.0481 94.0283 59.9156 94.3152 58.6343C94.6095 56.6785 94.7288 54.7003 94.6718 52.7232V47.9875C94.7415 45.9863 94.6106 43.9832 94.2813 42.0082ZM86.2999 51.5989C86.2999 53.0809 86.2999 54.1371 86.198 54.7503C86.1024 55.3978 85.7983 55.996 85.332 56.4538C84.7999 57.0083 84.1325 57.4135 83.3961 57.6292C82.4871 57.9295 81.534 58.0735 80.5772 58.0551C79.6456 58.0662 78.7178 57.9341 77.8261 57.6633C77.0812 57.4535 76.4027 57.0545 75.8563 56.5049C75.3795 56.0527 75.0685 55.4526 74.9732 54.8014C74.8472 53.7388 74.7962 52.6687 74.8204 51.5989V49.0947C74.8075 48.0429 74.8472 46.9911 74.9393 45.9433C75.0551 45.306 75.3496 44.7151 75.7884 44.2398C76.3252 43.6952 76.9914 43.2965 77.7242 43.0814C78.6473 42.7929 79.6105 42.6548 80.5772 42.6726C81.5037 42.6526 82.4273 42.785 83.3112 43.0644C84.0606 43.2636 84.7417 43.6641 85.281 44.2227C85.7611 44.6771 86.0826 45.2744 86.198 45.9262C86.198 46.5395 86.2999 47.6297 86.2999 49.1118V51.5989Z"
            fill="#0045B2" />
         <path
            d="M239.491 64.3578H247.591V49.0605L258.052 64.3578H266.186V36.4717H258.052V51.9053L247.557 36.4717H239.491V64.3578Z"
            fill="#0045B2" />
         <path d="M202.794 36.4888H194.065V64.3749H202.794V36.4888Z" fill="#0045B2" />
         <path d="M167.659 64.3578H189.837V57.5098H176.388V36.4717H167.659V64.3578Z" fill="#0045B2" />
         <path
            d="M131.369 64.3578H138.433V43.0983L143.851 64.3578H150.236L155.687 42.6042V64.3578H162.751V36.4717H150.473L147.111 50.4744L143.681 36.4717H131.369V64.3578Z"
            fill="#0045B2" />
         <path
            d="M35.9668 42.4339H52.0993L35.9668 58.583V64.3578H62.8316V58.3786H46.6312L62.7297 42.2465V36.4717H35.9668V42.4339Z"
            fill="#0045B2" />
      </g>
      <defs>
         <clipPath id="clip0_1181_4588">
            <rect width="302" height="101" fill="white" />
         </clipPath>
      </defs>
   </symbol>
   <symbol id="icon-arrow-down" width="336" height="100" viewBox="0 0 336 100" fill="none">
      <path d="M133.912 34.9227H128.821V52.7706H126.05V34.9227H120.895V32.7964H133.912V34.9227Z" fill="#0045B2" />
      <path
         d="M145.447 46.5848C145.447 48.5178 144.996 50.1287 144.159 51.2885C143.321 52.4482 142.096 53.0281 140.55 53.0281C139.841 53.0281 139.196 52.8993 138.617 52.5771C138.037 52.3194 137.585 51.8684 137.199 51.3529V58.4405H134.428V37.9508H136.941L137.134 39.6261C137.521 38.9818 138.037 38.5307 138.552 38.1441C139.132 37.822 139.776 37.6287 140.55 37.6287C142.096 37.6287 143.321 38.273 144.159 39.5617C144.996 40.8503 145.447 42.59 145.447 44.7163V46.5848ZM142.676 44.7807C142.676 43.2988 142.419 42.139 141.968 41.2369C141.516 40.3348 140.743 39.8838 139.841 39.8838C139.261 39.8838 138.745 40.0771 138.294 40.3993C137.908 40.7214 137.521 41.1725 137.263 41.8168V49.2266C137.521 49.8065 137.843 50.1931 138.23 50.5153C138.681 50.8374 139.196 50.9663 139.776 50.9663C140.743 50.9663 141.452 50.5797 141.903 49.7421C142.354 48.9689 142.612 47.8735 142.612 46.5848V44.7807H142.676Z"
         fill="#0045B2" />
      <path
         d="M155.694 52.7704C155.565 52.4482 155.501 52.1261 155.436 51.8039C155.372 51.4818 155.307 51.1596 155.307 50.8374C154.921 51.4818 154.405 52.0617 153.761 52.4482C153.116 52.8993 152.472 53.0926 151.699 53.0926C150.474 53.0926 149.443 52.706 148.734 51.9328C148.025 51.1596 147.703 50.0642 147.703 48.7756C147.703 47.358 148.154 46.2627 149.121 45.4251C150.087 44.5874 151.441 44.2008 153.181 44.2008H155.243V42.6544C155.243 41.7524 155.05 41.0436 154.663 40.5281C154.276 40.0127 153.696 39.755 152.923 39.755C152.279 39.755 151.699 40.0127 151.312 40.4637C150.925 40.9147 150.732 41.4946 150.732 42.139H148.09L148.025 42.0745C147.961 40.9147 148.412 39.8838 149.379 38.9818C150.345 38.0797 151.57 37.6287 153.116 37.6287C154.598 37.6287 155.758 38.0797 156.661 38.9173C157.563 39.755 158.014 40.9792 158.014 42.59V49.4843C158.014 50.0642 158.078 50.6441 158.143 51.1596C158.207 51.6751 158.336 52.1905 158.465 52.706H155.694V52.7704ZM152.343 50.9663C152.987 50.9663 153.567 50.773 154.147 50.3864C154.663 49.9998 155.05 49.5488 155.307 48.9689V45.9405H153.181C152.343 45.9405 151.699 46.1982 151.183 46.7781C150.732 47.2936 150.474 48.0024 150.474 48.7756C150.474 49.4199 150.603 49.9998 150.925 50.3864C151.312 50.773 151.763 50.9663 152.343 50.9663Z"
         fill="#0045B2" />
      <path
         d="M171.803 52.7708H169.032V46.4563H164.07V52.7708H161.299V37.9512H164.07V44.33H169.032V37.9512H171.803V52.7708Z"
         fill="#0045B2" />
      <path
         d="M180.183 50.9663C180.892 50.9663 181.471 50.7086 181.923 50.1931C182.374 49.6777 182.631 48.9689 182.631 48.0668H185.145V48.1313C185.209 49.5488 184.694 50.7086 183.727 51.6751C182.76 52.6416 181.536 53.0926 180.118 53.0926C178.249 53.0926 176.832 52.4483 175.865 51.2241C174.898 49.9998 174.383 48.389 174.383 46.456V44.3942C174.383 42.4612 174.898 40.8504 175.865 39.6261C176.832 38.3375 178.249 37.7576 180.118 37.7576C181.6 37.7576 182.825 38.273 183.791 39.2395C184.758 40.206 185.209 41.5591 185.145 43.1055L185.08 43.1699H182.696C182.696 42.2034 182.438 41.3658 181.987 40.7215C181.536 40.0772 180.956 39.8194 180.183 39.8194C179.152 39.8194 178.378 40.2705 177.927 41.1081C177.476 41.9457 177.283 43.0411 177.283 44.3942V46.456C177.283 47.8091 177.476 48.9045 177.927 49.7421C178.378 50.5153 179.152 50.9663 180.183 50.9663Z"
         fill="#0045B2" />
      <path
         d="M201.189 32.7964V52.7706H198.418V34.9227H192.876V41.9459C192.876 45.7474 192.425 48.518 191.587 50.1933C190.749 51.8686 189.332 52.7706 187.463 52.7706H186.754V50.6443H187.205C188.301 50.6443 189.009 50 189.461 48.7113C189.847 47.4227 190.105 45.1675 190.105 41.9459V32.7964H201.189Z"
         fill="#0045B2" />
      <path
         d="M212.467 37.9512H215.239V52.7708H212.467V42.7192H212.403L207.505 52.7708H204.734V37.9512H207.505V48.0027H207.634L212.467 37.9512Z"
         fill="#0045B2" />
      <path
         d="M218.01 45.5539C218.01 43.1699 218.396 41.2369 219.17 39.8194C219.943 38.4019 221.103 37.6931 222.585 37.6931C222.907 37.6931 223.165 37.6931 223.423 37.7575C223.681 37.822 223.938 37.8864 224.196 38.0153V31.3787H226.967V38.0153C227.225 37.8864 227.483 37.822 227.805 37.7575C228.127 37.6931 228.385 37.6287 228.707 37.6287C230.189 37.6287 231.285 38.3374 232.123 39.755C232.896 41.1725 233.347 43.1055 233.347 45.4895V45.7472C233.347 47.9379 232.96 49.6776 232.123 51.0307C231.349 52.3194 230.189 53.0281 228.772 53.0281C228.449 53.0281 228.127 53.0281 227.805 52.9637C227.547 52.8993 227.225 52.8348 226.967 52.706V58.4405H224.196V52.706C223.938 52.8348 223.681 52.8993 223.423 52.9637C223.165 53.0281 222.843 53.0281 222.585 53.0281C221.103 53.0281 220.008 52.3838 219.234 51.0307C218.461 49.7421 218.01 47.9379 218.01 45.7472V45.5539ZM230.576 45.5539C230.576 43.8787 230.383 42.4611 229.932 41.4302C229.481 40.3993 228.836 39.8194 227.998 39.8194C227.805 39.8194 227.612 39.8194 227.483 39.8838C227.29 39.8838 227.161 39.9482 227.032 40.0127V50.9019C227.161 50.9663 227.29 50.9663 227.483 51.0307C227.676 51.0307 227.805 51.0307 228.063 51.0307C228.965 51.0307 229.609 50.5797 229.996 49.6132C230.383 48.7111 230.641 47.4225 230.641 45.8761V45.5539H230.576ZM220.781 45.8116C220.781 47.358 220.974 48.6467 221.361 49.5488C221.747 50.4508 222.392 50.9663 223.294 50.9663C223.487 50.9663 223.616 50.9663 223.81 50.9663C224.003 50.9663 224.132 50.9019 224.261 50.9019V39.9482C224.132 39.9482 224.003 39.8838 223.81 39.8838C223.681 39.8838 223.487 39.8194 223.359 39.8194C222.456 39.8194 221.812 40.3348 221.425 41.4302C221.039 42.4611 220.845 43.8787 220.845 45.6184V45.8116H220.781Z"
         fill="#0045B2" />
      <path d="M245.59 40.0775H241.53V52.7708H238.695V40.0775H234.699V37.9512H245.59V40.0775Z" fill="#0045B2" />
      <path d="M258.738 34.9227H253.583V52.7706H250.812V34.9227H245.721V32.7964H258.738V34.9227Z" fill="#0045B2" />
      <path
         d="M264.796 53.0926C263.056 53.0926 261.638 52.4483 260.543 51.2885C259.512 50.0643 258.932 48.5179 258.932 46.5849V44.3942C258.932 42.4612 259.447 40.8504 260.478 39.6261C261.509 38.3375 262.863 37.7576 264.409 37.7576C266.085 37.7576 267.374 38.3375 268.276 39.4973C269.178 40.6571 269.629 42.2034 269.629 44.1364V46.0694H261.638V46.6493C261.638 47.938 261.896 48.9689 262.476 49.8065C263.056 50.6442 263.829 51.0952 264.86 51.0952C265.634 51.0952 266.278 50.9663 266.858 50.7086C267.438 50.4509 267.954 50.1287 268.405 49.6777L269.307 51.4174C268.856 51.9328 268.211 52.3839 267.438 52.706C266.665 52.8993 265.763 53.0926 264.796 53.0926ZM264.474 39.755C263.636 39.755 262.992 40.1416 262.54 40.9148C262.025 41.688 261.767 42.7189 261.703 43.8787H266.923V43.2988C266.923 42.2679 266.729 41.3658 266.278 40.7215C265.891 40.1416 265.247 39.755 264.474 39.755Z"
         fill="#0045B2" />
      <path
         d="M276.589 43.3635H276.718L279.038 37.9512H282.195L278.264 45.2965L282.324 52.7708H279.167L276.718 47.1651H276.653L274.205 52.7708H271.047L275.107 45.2965L271.176 37.9512H274.333L276.589 43.3635Z"
         fill="#0045B2" />
      <path
         d="M294.953 52.7708H292.182V46.4563H287.22V52.7708H284.449V37.9512H287.22V44.33H292.182V37.9512H294.953V52.7708Z"
         fill="#0045B2" />
      <path
         d="M305.973 37.9512H308.744V52.7708H305.973V42.7192H305.909L301.011 52.7708H298.24V37.9512H301.011V48.0027H301.076L305.973 37.9512Z"
         fill="#0045B2" />
      <path
         d="M316.349 46.5208H314.931V52.7708H312.16V37.9512H314.931V44.1367H316.284L319.7 37.9512H323.115L318.54 44.9099L323.502 52.7708H319.893L316.349 46.5208Z"
         fill="#0045B2" />
      <path
         d="M332.911 52.7704C332.782 52.4482 332.717 52.1261 332.653 51.8039C332.589 51.4818 332.524 51.1596 332.524 50.8374C332.137 51.4818 331.622 52.0617 330.978 52.4482C330.333 52.8993 329.689 53.0926 328.915 53.0926C327.691 53.0926 326.66 52.706 325.951 51.9328C325.242 51.1596 324.92 50.0642 324.92 48.7756C324.92 47.358 325.371 46.2627 326.338 45.4251C327.304 44.5874 328.658 44.2008 330.398 44.2008H332.46V42.6544C332.46 41.7524 332.266 41.0436 331.88 40.5281C331.493 40.0127 330.913 39.755 330.14 39.755C329.495 39.755 328.915 40.0127 328.529 40.4637C328.142 40.9147 327.949 41.4946 327.949 42.139H325.307L325.242 42.0745C325.178 40.9147 325.629 39.8838 326.595 38.9818C327.562 38.0797 328.786 37.6287 330.333 37.6287C331.815 37.6287 332.975 38.0797 333.877 38.9173C334.78 39.755 335.231 40.9792 335.231 42.59V49.4843C335.231 50.0642 335.295 50.6441 335.36 51.1596C335.424 51.6751 335.553 52.1905 335.682 52.706H332.911V52.7704ZM329.56 50.9663C330.204 50.9663 330.784 50.773 331.364 50.3864C331.88 49.9998 332.266 49.5488 332.524 48.9689V45.9405H330.398C329.56 45.9405 328.915 46.1982 328.4 46.7781C327.949 47.2936 327.691 48.0024 327.691 48.7756C327.691 49.4199 327.82 49.9998 328.142 50.3864C328.464 50.773 328.915 50.9663 329.56 50.9663Z"
         fill="#0045B2" />
      <path
         d="M122.119 59.3428H123.15V70.6185H128.628V59.3428H129.594V70.6185H130.626L130.497 74.4201H129.594V71.4562H122.119V59.3428Z"
         fill="#0045B2" />
      <path
         d="M135.201 71.6497C134.234 71.6497 133.461 71.2631 132.816 70.5543C132.172 69.8455 131.914 68.879 131.914 67.7837V66.3017C131.914 65.1419 132.236 64.2399 132.816 63.4667C133.461 62.6935 134.17 62.3069 135.072 62.3069C136.038 62.3069 136.747 62.629 137.263 63.3378C137.778 63.9821 138.036 64.8842 138.036 66.044V67.0105H132.881V67.7837C132.881 68.6858 133.074 69.3945 133.525 69.9744C133.912 70.5543 134.492 70.812 135.201 70.812C135.716 70.812 136.103 70.7476 136.489 70.5543C136.876 70.361 137.134 70.1033 137.392 69.8455L137.778 70.5543C137.521 70.8765 137.134 71.1986 136.747 71.3919C136.361 71.5208 135.845 71.6497 135.201 71.6497ZM135.072 63.1445C134.427 63.1445 133.912 63.4022 133.525 63.9821C133.138 64.562 132.881 65.2708 132.881 66.1084H137.069V65.7218C137.069 64.9486 136.876 64.3687 136.554 63.8533C136.167 63.4022 135.716 63.1445 135.072 63.1445Z"
         fill="#0045B2" />
      <path
         d="M145.64 71.4562H144.673V67.3325H140.871V71.4562H139.84V62.4355H140.871V66.4948H144.673V62.4355H145.64V71.4562Z"
         fill="#0045B2" />
      <path d="M153.438 63.3376H150.796V71.4562H149.765V63.3376H147.252V62.4355H153.438V63.3376Z" fill="#0045B2" />
      <path
         d="M161.106 67.7837C161.106 68.9435 160.849 69.91 160.333 70.6187C159.818 71.3275 159.109 71.6497 158.207 71.6497C157.691 71.6497 157.24 71.5208 156.853 71.3275C156.467 71.1342 156.144 70.812 155.887 70.4254V74.9357H154.984V62.4357H155.822L155.951 63.66C156.209 63.2089 156.531 62.8868 156.918 62.629C157.304 62.3713 157.755 62.2424 158.271 62.2424C159.173 62.2424 159.882 62.629 160.398 63.4022C160.913 64.1754 161.171 65.2064 161.171 66.495V67.7837H161.106ZM160.075 66.5594C160.075 65.5929 159.882 64.7553 159.56 64.1754C159.173 63.5311 158.658 63.2734 157.949 63.2734C157.433 63.2734 157.047 63.4022 156.724 63.7244C156.402 64.0466 156.144 64.4332 155.951 64.8842V69.4589C156.144 69.91 156.402 70.2966 156.724 70.5543C157.047 70.812 157.433 70.9409 157.949 70.9409C158.658 70.9409 159.173 70.6832 159.56 70.1033C159.946 69.5234 160.075 68.8146 160.075 67.9125V66.5594Z"
         fill="#0045B2" />
      <path
         d="M173.544 67.9768C173.544 69.201 173.222 70.1031 172.642 70.7474C172.062 71.3917 171.159 71.7139 170.128 71.7139C169.033 71.7139 168.131 71.3273 167.486 70.5541C166.842 69.7809 166.52 68.6211 166.52 67.2036V63.8531C166.52 62.3711 166.842 61.2757 167.486 60.5025C168.131 59.7294 169.033 59.2783 170.128 59.2783C171.224 59.2783 172.062 59.6005 172.642 60.1804C173.222 60.8247 173.544 61.7268 173.544 62.8866V62.951H172.642C172.642 61.9845 172.384 61.2757 171.997 60.8247C171.61 60.3737 170.966 60.116 170.128 60.116C169.291 60.116 168.646 60.4381 168.195 61.0824C167.744 61.7268 167.486 62.6288 167.486 63.7886V67.2036C167.486 68.4278 167.744 69.3299 168.195 69.9742C168.646 70.6185 169.291 70.9407 170.128 70.9407C170.966 70.9407 171.546 70.7474 171.997 70.2964C172.384 69.8453 172.642 69.1366 172.642 68.1056H173.544V67.9768Z"
         fill="#0045B2" />
      <path d="M181.405 71.4562H180.374V63.3376H176.572V71.4562H175.541V62.4355H181.405V71.4562Z" fill="#0045B2" />
      <path
         d="M186.626 71.6497C185.66 71.6497 184.886 71.2631 184.242 70.5543C183.598 69.8455 183.34 68.879 183.34 67.7837V66.3017C183.34 65.1419 183.662 64.2399 184.242 63.4667C184.886 62.6935 185.595 62.3069 186.498 62.3069C187.464 62.3069 188.173 62.629 188.689 63.3378C189.204 63.9821 189.462 64.8842 189.462 66.044V67.0105H184.306V67.7837C184.306 68.6858 184.5 69.3945 184.951 69.9744C185.338 70.5543 185.918 70.812 186.626 70.812C187.142 70.812 187.529 70.7476 187.915 70.5543C188.302 70.361 188.56 70.1033 188.817 69.8455L189.204 70.5543C188.946 70.8765 188.56 71.1986 188.173 71.3919C187.722 71.5208 187.206 71.6497 186.626 71.6497ZM186.498 63.1445C185.853 63.1445 185.338 63.4022 184.951 63.9821C184.564 64.562 184.306 65.2708 184.306 66.1084H188.495V65.7218C188.495 64.9486 188.302 64.3687 187.98 63.8533C187.593 63.4022 187.078 63.1445 186.498 63.1445Z"
         fill="#0045B2" />
      <path
         d="M191.266 62.4355H192.232V70.6185H196.034V62.4355H197.065V70.6185H197.903L197.774 74.1623H196.872V71.4562H191.266V62.4355Z"
         fill="#0045B2" />
      <path
         d="M204.411 62.4355H205.378V71.4562H204.411V64.3685H204.347L200.609 71.4562H199.578V62.4355H200.609V69.5232V69.5876L204.411 62.4355Z"
         fill="#0045B2" />
      <path
         d="M212.403 71.4561C212.339 71.134 212.339 70.8762 212.275 70.683C212.275 70.4897 212.21 70.2964 212.21 70.1031C211.952 70.5541 211.566 70.9407 211.179 71.1984C210.728 71.5206 210.277 71.6494 209.697 71.6494C208.924 71.6494 208.408 71.3917 207.957 70.9407C207.57 70.4896 207.377 69.8453 207.377 69.0721C207.377 68.2345 207.699 67.5902 208.279 67.0747C208.859 66.5592 209.632 66.3015 210.664 66.3015H212.21V65.2061C212.21 64.5618 212.081 64.0464 211.695 63.7242C211.372 63.3376 210.921 63.2087 210.341 63.2087C209.826 63.2087 209.375 63.402 208.988 63.7242C208.666 64.0464 208.472 64.4974 208.472 65.0128H207.57V64.9484C207.57 64.2397 207.828 63.6598 208.344 63.1443C208.859 62.6288 209.568 62.3711 210.406 62.3711C211.244 62.3711 211.888 62.6288 212.403 63.1443C212.919 63.6598 213.177 64.3685 213.177 65.335V69.7809C213.177 70.1031 213.177 70.4252 213.241 70.683C213.241 71.0051 213.306 71.2628 213.37 71.585H212.403V71.4561ZM209.89 70.7474C210.47 70.7474 210.921 70.6185 211.372 70.2963C211.823 69.9742 212.081 69.5876 212.275 69.0721V67.1391H210.664C209.955 67.1391 209.439 67.3324 209.052 67.719C208.666 68.1056 208.472 68.5567 208.472 69.1366C208.472 69.652 208.601 70.0386 208.859 70.2963C209.052 70.6185 209.375 70.7474 209.89 70.7474Z"
         fill="#0045B2" />
      <path
         d="M221.425 62.4355V71.4562H220.394V63.3376H217.429V66.4304C217.429 68.2345 217.236 69.4587 216.914 70.2964C216.527 71.0696 215.947 71.4562 215.109 71.4562H214.787V70.5541H215.045C215.56 70.5541 215.883 70.2319 216.14 69.652C216.334 69.0721 216.463 67.9768 216.463 66.4304V62.4355H221.425Z"
         fill="#0045B2" />
      <path
         d="M224.84 65.7216H226.902C227.74 65.7216 228.448 65.9793 228.9 66.4948C229.415 67.0103 229.608 67.719 229.608 68.5567C229.608 69.3943 229.351 70.103 228.9 70.6185C228.384 71.134 227.74 71.3917 226.902 71.3917H223.873V62.3711H224.904V65.7216H224.84ZM224.84 66.5592V70.6185H226.902C227.482 70.6185 227.933 70.4252 228.191 70.0386C228.448 69.652 228.642 69.201 228.642 68.6211C228.642 68.0412 228.513 67.5902 228.191 67.2036C227.933 66.817 227.482 66.6237 226.902 66.6237H224.84V66.5592Z"
         fill="#0045B2" />
      <path
         d="M237.341 71.4562H236.374V67.3325H232.572V71.4562H231.541V62.4355H232.572V66.4948H236.374V62.4355H237.341V71.4562Z"
         fill="#0045B2" />
      <path
         d="M240.758 65.7216H242.82C243.658 65.7216 244.366 65.9793 244.818 66.4948C245.333 67.0103 245.526 67.719 245.526 68.5567C245.526 69.3943 245.269 70.103 244.818 70.6185C244.302 71.134 243.658 71.3917 242.82 71.3917H239.791V62.3711H240.822V65.7216H240.758ZM240.758 66.5592V70.6185H242.82C243.4 70.6185 243.851 70.4252 244.109 70.0386C244.431 69.652 244.56 69.201 244.56 68.6211C244.56 68.0412 244.431 67.5902 244.109 67.2036C243.851 66.817 243.4 66.6237 242.82 66.6237H240.758V66.5592ZM248.169 71.4561H247.137V62.4355H248.104V71.4561H248.169Z"
         fill="#0045B2" />
      <path
         d="M253.001 66.1082L254.87 62.4355H256.095L253.581 66.8814L256.159 71.4562H254.999L253.001 67.6546L251.068 71.4562H249.908L252.486 66.8814L249.973 62.4355H251.133L253.001 66.1082Z"
         fill="#0045B2" />
      <path d="M267.372 60.1804H264.021V71.4562H262.99V60.1804H259.639V59.3428H267.372V60.1804Z" fill="#0045B2" />
      <path
         d="M270.982 71.6497C270.015 71.6497 269.242 71.2631 268.598 70.5543C267.953 69.8455 267.695 68.879 267.695 67.7837V66.3017C267.695 65.1419 268.018 64.2399 268.598 63.4667C269.242 62.6935 269.951 62.3069 270.853 62.3069C271.82 62.3069 272.529 62.629 273.044 63.3378C273.56 63.9821 273.817 64.8842 273.817 66.044V67.0105H268.662V67.7837C268.662 68.6858 268.855 69.3945 269.306 69.9744C269.693 70.5543 270.273 70.812 270.982 70.812C271.497 70.812 271.884 70.7476 272.271 70.5543C272.657 70.361 272.915 70.1033 273.173 69.8455L273.56 70.5543C273.302 70.8765 272.915 71.1986 272.529 71.3919C272.077 71.5208 271.562 71.6497 270.982 71.6497ZM270.853 63.1445C270.209 63.1445 269.693 63.4022 269.306 63.9821C268.92 64.562 268.662 65.2708 268.662 66.1084H272.851V65.7218C272.851 64.9486 272.657 64.3687 272.335 63.8533C271.949 63.4022 271.433 63.1445 270.853 63.1445Z"
         fill="#0045B2" />
      <path
         d="M277.941 66.1082L279.874 62.4355H281.034L278.521 66.8814L281.099 71.4562H279.939L278.005 67.6546L276.008 71.4562H274.848L277.425 66.8814L274.912 62.4355H276.137L277.941 66.1082Z"
         fill="#0045B2" />
      <path
         d="M288.573 71.4562H287.542V67.3325H283.74V71.4562H282.773V62.4355H283.74V66.4948H287.542V62.4355H288.573V71.4562Z"
         fill="#0045B2" />
      <path
         d="M290.443 66.3017C290.443 65.1419 290.766 64.1754 291.346 63.4022C291.926 62.629 292.763 62.2424 293.794 62.2424C294.825 62.2424 295.599 62.629 296.243 63.4022C296.823 64.1754 297.145 65.1419 297.145 66.3017V67.6548C297.145 68.8146 296.823 69.7811 296.243 70.5543C295.663 71.3275 294.825 71.6497 293.794 71.6497C292.763 71.6497 291.99 71.2631 291.346 70.5543C290.766 69.7811 290.443 68.8146 290.443 67.6548V66.3017ZM291.474 67.6548C291.474 68.5569 291.668 69.3301 292.054 69.91C292.441 70.4899 293.021 70.812 293.794 70.812C294.503 70.812 295.083 70.4899 295.47 69.91C295.857 69.3301 296.05 68.5569 296.05 67.6548V66.3017C296.05 65.3997 295.857 64.6909 295.47 64.0466C295.083 63.4667 294.503 63.1445 293.73 63.1445C293.021 63.1445 292.441 63.4667 291.99 64.0466C291.603 64.6265 291.41 65.3997 291.41 66.3017V67.6548H291.474Z"
         fill="#0045B2" />
      <path
         d="M304.684 62.4355V71.4562H303.653V63.3376H300.689V66.4304C300.689 68.2345 300.496 69.4587 300.173 70.2964C299.787 71.0696 299.207 71.4562 298.369 71.4562H298.047V70.5541H298.305C298.82 70.5541 299.142 70.2319 299.4 69.652C299.594 69.0721 299.722 67.9768 299.722 66.4304V62.4355H304.684Z"
         fill="#0045B2" />
      <path
         d="M306.617 66.3017C306.617 65.1419 306.939 64.1754 307.519 63.4022C308.099 62.629 308.937 62.2424 309.968 62.2424C310.999 62.2424 311.773 62.629 312.417 63.4022C312.997 64.1754 313.319 65.1419 313.319 66.3017V67.6548C313.319 68.8146 312.997 69.7811 312.417 70.5543C311.837 71.3275 310.999 71.6497 309.968 71.6497C308.937 71.6497 308.164 71.2631 307.519 70.5543C306.939 69.7811 306.617 68.8146 306.617 67.6548V66.3017ZM307.648 67.6548C307.648 68.5569 307.842 69.3301 308.228 69.91C308.615 70.4899 309.195 70.812 309.968 70.812C310.677 70.812 311.257 70.4899 311.644 69.91C312.03 69.3301 312.224 68.5569 312.224 67.6548V66.3017C312.224 65.3997 312.03 64.6909 311.644 64.0466C311.257 63.4667 310.677 63.1445 309.904 63.1445C309.195 63.1445 308.615 63.4667 308.164 64.0466C307.777 64.6265 307.584 65.3997 307.584 66.3017V67.6548H307.648Z"
         fill="#0045B2" />
      <path d="M319.829 63.3376H316.156V71.4562H315.125V62.4355H319.829V63.3376Z" fill="#0045B2" />
      <path
         d="M326.079 62.4355H327.046V71.4562H326.079V64.3685H326.015L322.277 71.4562H321.246V62.4355H322.277V69.5232V69.5876L326.079 62.4355Z"
         fill="#0045B2" />
      <path
         d="M334.263 62.4356H335.294V71.4563H334.263V64.3686H334.198L330.461 71.4563H329.43V62.4356H330.461V69.5233H330.525L334.263 62.4356ZM334.392 58.8918C334.456 59.5362 334.263 60.0516 333.876 60.4382C333.49 60.8248 332.974 61.0181 332.33 61.0181C331.685 61.0181 331.17 60.8248 330.783 60.4382C330.396 60.0516 330.203 59.5362 330.267 58.8918V58.8274H331.041C331.041 59.2784 331.17 59.6006 331.363 59.8583C331.556 60.1161 331.879 60.2449 332.33 60.2449C332.781 60.2449 333.038 60.1161 333.296 59.8583C333.49 59.6006 333.618 59.2784 333.618 58.8274H334.392V58.8918Z"
         fill="#0045B2" />
      <path
         d="M60.7694 32.4742H79.2644H96.7928C89.7041 13.5309 71.4024 0 50.0074 0C28.5481 0.064433 10.2464 13.5309 3.15769 32.4742H57.1606L49.1052 60.5026C48.6541 62.4356 50.5874 62.4356 50.5874 62.4356H64.2493C64.3137 62.4356 64.3137 62.4356 64.3781 62.4356H65.667L71.9179 42.4613C72.369 40.5284 70.4357 40.5284 70.4357 40.5284H60.8338C58.9005 40.5284 59.3516 38.5954 59.3516 38.5954L60.7694 32.4742ZM11.0197 40.5284H1.54662H0.902196C0.322213 43.6211 0 46.7784 0 50C0 77.5773 22.3616 100 50.0074 100C77.5889 100 100.015 77.6418 100.015 50C100.015 46.7784 99.6927 43.6211 99.1127 40.5284H98.726H89.5107C87.5775 40.5284 87.1264 42.4613 87.1264 42.4613L79.5221 68.4278C79.071 70.3608 80.4888 70.8763 80.4888 70.8763H65.2159H64.7648H33.5101C31.5769 70.8763 32.0924 68.8789 32.0924 68.8789L40.2122 40.5928H39.4389H30.1591C28.2258 40.5928 27.7748 42.5258 27.7748 42.5258L20.1705 68.4923C19.7194 70.4253 21.0727 70.9407 21.0727 70.9407H6.31537C4.3821 70.9407 4.83319 69.1366 4.83319 69.1366L12.5663 42.5258C13.0174 40.5284 11.0197 40.5284 11.0197 40.5284Z"
         fill="#0045B2" />
      <mask id="mask0_1181_4529" style="mask-type:luminance" maskUnits="userSpaceOnUse" x="0" y="0" width="101"
         height="100">
         <path
            d="M60.7694 32.4742H79.2644H96.7928C89.7041 13.5309 71.4024 0 50.0074 0C28.5481 0.064433 10.2464 13.5309 3.15769 32.4742H57.1606L49.1052 60.5026C48.6541 62.4356 50.5874 62.4356 50.5874 62.4356H64.2493C64.3137 62.4356 64.3137 62.4356 64.3781 62.4356H65.667L71.9179 42.4613C72.369 40.5284 70.4357 40.5284 70.4357 40.5284H60.8338C58.9005 40.5284 59.3516 38.5954 59.3516 38.5954L60.7694 32.4742ZM11.0197 40.5284H1.54662H0.902196C0.322213 43.6211 0 46.7784 0 50C0 77.5773 22.3616 100 50.0074 100C77.5889 100 100.015 77.6418 100.015 50C100.015 46.7784 99.6927 43.6211 99.1127 40.5284H98.726H89.5107C87.5775 40.5284 87.1264 42.4613 87.1264 42.4613L79.5221 68.4278C79.071 70.3608 80.4888 70.8763 80.4888 70.8763H65.2159H64.7648H33.5101C31.5769 70.8763 32.0924 68.8789 32.0924 68.8789L40.2122 40.5928H39.4389H30.1591C28.2258 40.5928 27.7748 42.5258 27.7748 42.5258L20.1705 68.4923C19.7194 70.4253 21.0727 70.9407 21.0727 70.9407H6.31537C4.3821 70.9407 4.83319 69.1366 4.83319 69.1366L12.5663 42.5258C13.0174 40.5284 11.0197 40.5284 11.0197 40.5284Z"
            fill="white" />
      </mask>
      <g mask="url(#mask0_1181_4529)">
         <path d="M99.9504 0.0644531H0V100H99.9504V0.0644531Z" fill="#0045B2" />
      </g>


   </symbol>
   <symbol id="icon-arrow-down" width="99" height="105" viewBox="0 0 99 105" fill="none">

      <path
         d="M2.01808 0.0912132L0 0.243519V14.5224V28.7631H6.28269H12.5654V21.3381C12.5654 17.2639 12.7177 13.9131 12.87 13.9131C13.0223 13.9131 21.285 17.2639 31.2231 21.3381L49.2715 28.7631L51.975 27.6589C61.3419 23.737 85.7873 13.9131 86.0919 13.9131C86.2823 13.9131 86.4346 22.7851 86.4346 36.1881V58.4631H92.7173H99V29.3343V0.205444H92.565H86.13L67.7769 7.82083C57.6865 12.0093 49.3477 15.4362 49.2715 15.4362C49.1954 15.4362 40.9708 12.0093 30.9565 7.78275L12.7558 0.167366L8.37692 0.0531349C5.97808 -0.0230179 3.08423 -0.0230179 2.01808 0.0912132Z"
         fill="#0045B2" />
      <path
         d="M0 62.6135V83.9366L3.54115 87.0208C5.445 88.6962 8.83385 91.2854 11.0042 92.7704C31.4896 106.478 57.5723 108.268 79.7711 97.4919C86.0919 94.4458 92.4888 90.0289 97.4008 85.3454L99 83.8223V77.4254V71.0285H92.7173H86.4346V74.6839C86.4346 78.8723 86.7773 78.3392 81.4846 82.0327C64.5785 93.7223 42.4938 95.1692 23.8742 85.8404C20.9042 84.3554 15.84 81.0808 13.9742 79.4435L12.5654 78.1869V59.7577V41.3285H6.28269H0V62.6135Z"
         fill="#0045B2" />
      <path
         d="M43.027 46.2786V51.2286L38.9527 51.2666C36.6681 51.3047 34.4977 51.3428 34.0789 51.3809C33.3554 51.4189 33.3173 51.7236 33.2031 57.5874L33.127 63.7939H38.077H43.027V68.9343V74.0747H49.3096H55.5923V68.9343V63.7939H60.5423H65.4923L65.4162 57.5874L65.302 51.4189L60.4662 51.3047L55.5923 51.1905V46.2786V41.3286H49.3096H43.027V46.2786Z"
         fill="#0045B2" />


   </symbol>
   <symbol id="icon-arrow-down" width="201" height="168" viewBox="0 0 201 168" fill="none">
      <path fill-rule="evenodd" clip-rule="evenodd"
         d="M92.8518 0C93.4851 0 94.5215 0.0766423 95.1548 0.191606C95.7882 0.306569 97.3427 0.632299 98.6094 0.938869C99.8761 1.22628 101.68 1.80109 102.64 2.20347C103.599 2.60584 105.116 3.41058 106.037 4.00456C106.958 4.57938 108.378 5.59489 110.605 7.45347L111.046 6.95529C111.276 6.68704 112.293 5.90146 113.291 5.23084C114.289 4.57938 115.806 3.71715 116.65 3.3531C117.495 2.98905 118.876 2.51004 119.721 2.28011C120.584 2.05018 122.177 1.82026 123.367 1.76277C124.653 1.68613 126.112 1.74361 127.11 1.87774C128.012 2.01186 129.432 2.33759 130.276 2.60584C131.121 2.87409 132.637 3.50639 133.635 4.02372C134.633 4.54106 136.015 5.38412 136.706 5.90146C137.397 6.39963 138.644 7.56843 139.489 8.44982C140.333 9.35036 141.485 10.8449 142.041 11.7838C142.598 12.7226 143.308 14.1597 143.615 14.9836C143.941 15.7883 144.325 17.2637 144.498 18.2409C144.709 19.4672 144.786 20.6168 144.709 22.0155C144.651 23.1268 144.421 24.7172 144.21 25.5602C143.98 26.4033 143.423 27.8786 142.963 28.8175C142.502 29.7564 141.581 31.2701 140.909 32.1706C140.256 33.0712 139.086 34.3932 138.356 35.1405C137.608 35.8878 136.264 37.0374 135.362 37.7272C134.46 38.3978 133.079 39.3558 132.292 39.854C131.505 40.333 130.219 41.0611 129.432 41.4827C128.664 41.885 127.954 42.364 127.877 42.5173C127.782 42.6706 127.417 44.0119 127.052 45.4872C126.668 46.9626 126.189 49.1086 125.977 50.2774C125.766 51.4462 125.44 53.458 125.267 54.7801C125.114 56.1022 124.922 58.9763 124.864 61.1989C124.788 63.6898 124.845 66.104 124.979 67.5219C125.095 68.7865 125.171 69.8403 125.152 69.8595C125.114 69.8978 123.463 69.6296 121.448 69.2655C119.433 68.9015 116.074 68.3841 113.963 68.1159C111.852 67.8476 108.493 67.5411 106.478 67.4069C104.309 67.2728 101.085 67.2345 98.5134 67.292C96.1336 67.3495 93.1204 67.5411 91.7962 67.6943C90.4719 67.8668 88.3992 68.1734 87.1901 68.3841C85.9809 68.6141 83.985 69.0356 82.7759 69.3421C81.5667 69.6487 79.398 70.3002 77.9778 70.7984C76.5576 71.2774 74.2545 72.1971 72.8919 72.8294C71.5292 73.4617 70.2818 74.0173 70.1474 74.094C69.9939 74.1706 70.1666 73.5 70.5696 72.4078C70.9343 71.4115 71.3949 69.687 71.606 68.5757C71.8363 67.4644 72.0666 65.7016 72.1434 64.6478C72.2202 63.5173 72.1818 61.8695 72.0282 60.6241C71.9131 59.4553 71.6828 57.865 71.5101 57.0794C71.3565 56.2938 71.0494 55.0484 70.8383 54.3011C70.6272 53.5538 70.1474 52.0976 69.7636 51.0438C69.3797 49.99 68.4201 47.844 66.1746 43.3796L63.7756 42.1724C62.4513 41.5018 60.3786 40.2947 59.1695 39.49C57.6341 38.4936 56.3482 37.4206 54.9472 36.0219C53.8341 34.9106 52.6441 33.5119 52.3179 32.937C51.9724 32.3622 51.4542 31.3276 51.1855 30.6378C50.7825 29.6606 50.6482 28.9708 50.5714 27.4763C50.5138 26.3458 50.5714 25.1195 50.7057 24.5064C50.8401 23.9316 51.3199 22.6861 51.7997 21.7281C52.2603 20.7892 53.1623 19.3713 53.7957 18.6241C54.429 17.8577 55.523 16.7464 56.2523 16.1524C56.9624 15.5776 58.0179 14.7728 58.5937 14.3896C59.1695 14.0064 60.4362 13.2783 61.3766 12.7801C62.317 12.2819 64.0059 11.573 65.1191 11.2089C66.2322 10.8449 67.7868 10.385 68.5736 10.2126C69.3605 10.0401 71.1838 9.8677 75.1949 9.69526L75.8667 8.64142C76.2313 8.06661 77.1334 6.97445 77.8819 6.20803C78.6303 5.46077 80.0122 4.33029 80.9526 3.71715C81.893 3.08485 83.4668 2.26095 84.4072 1.87774C85.3476 1.49453 86.9598 0.99635 87.9577 0.785584C88.9557 0.574817 90.2224 0.306569 90.7406 0.210766C91.278 0.114964 92.2184 0.0191606 92.8518 0V0ZM87.9577 3.3531C87.1709 3.52555 85.8274 3.90876 84.983 4.21533C84.1385 4.54106 82.9294 5.07755 82.2961 5.42244C81.6627 5.7865 80.6455 6.53376 80.0122 7.08942C79.398 7.66423 78.7455 8.39234 78.5536 8.6989C78.3617 9.02464 78.1122 9.50365 77.997 9.81022C77.8051 10.2892 77.8627 10.4234 78.8607 11.5347C79.4556 12.1861 80.3001 13.24 80.7223 13.8723C81.1445 14.5046 81.7203 15.5009 81.9698 16.0757C82.2193 16.6505 82.488 17.6469 82.5456 18.2792C82.6031 18.969 82.5455 19.7354 82.392 20.1953C82.2577 20.6168 81.8354 21.3832 81.4516 21.8814C81.0678 22.3796 80.5688 22.9352 80.3385 23.0885C80.089 23.2226 79.8587 23.3376 79.8203 23.3184C79.7627 23.2801 79.59 22.6095 79.4364 21.8239C79.2637 21.0383 78.8607 19.8504 78.5536 19.1989C78.2273 18.5283 77.5748 17.5511 77.0758 17.0146C76.5384 16.4398 75.6364 15.7883 74.9071 15.4243C74.197 15.0602 73.0262 14.6962 72.2202 14.5429C71.3181 14.3896 70.1666 14.3513 69.1494 14.4279C68.2474 14.4854 66.8655 14.7153 66.0787 14.9453C65.2918 15.156 63.9099 15.6734 63.0079 16.0949C62.1059 16.5164 60.8584 17.2445 60.225 17.7044C59.5917 18.1642 58.5361 19.0839 57.8836 19.7546C57.2503 20.406 56.4058 21.4407 56.0412 22.0155C55.6765 22.5903 55.1967 23.6058 54.9664 24.2765C54.7361 24.9279 54.5058 25.9243 54.4482 26.4799C54.3714 27.0164 54.429 28.0894 54.5634 28.8175C54.6785 29.5648 55.0624 30.7719 55.4078 31.5C55.7533 32.2473 56.4634 33.3969 56.9816 34.0867C57.4998 34.7573 58.8048 36.0985 59.8796 37.0566C60.9544 37.9954 62.4322 39.1259 63.1423 39.5666C63.8524 39.9881 64.9271 40.5438 65.5029 40.7737C66.0787 41.0228 67.2494 41.4252 68.0938 41.6743C68.9383 41.9425 70.7999 42.3066 72.2202 42.5173C73.6404 42.7281 75.2141 42.9005 75.7323 42.9005C76.2313 42.9005 76.6344 42.9772 76.6344 43.0922C76.6344 43.2071 76.4041 43.3412 76.097 43.3987C75.8091 43.4754 74.3121 43.4945 72.7575 43.4562C71.1838 43.4179 69.9171 43.437 69.9171 43.5328C69.9171 43.6095 70.4353 44.4717 71.0686 45.4489C71.7212 46.4069 72.7383 48.2463 73.3717 49.5109C73.9858 50.7755 74.7535 52.5383 75.0606 53.4389C75.3677 54.3394 75.8667 56.1022 76.1546 57.3668C76.5384 59.0338 76.7111 60.4516 76.8071 62.5018C76.9031 64.8969 76.9606 65.2993 77.2101 65.2035C77.3637 65.146 78.3233 64.7819 79.3213 64.4179C80.3193 64.0538 82.1809 63.4599 83.4476 63.0958C84.7143 62.7317 86.9214 62.1761 88.3416 61.8695C89.7618 61.5821 92.0649 61.1606 93.4275 60.969C95.4043 60.7007 97.0932 60.6241 101.488 60.6241C105.768 60.6241 107.591 60.7007 109.357 60.969C110.624 61.1606 112.735 61.5246 114.059 61.7737C115.383 62.042 117.226 62.4635 118.185 62.7318C119.145 62.9808 119.951 63.1533 120.009 63.0958C120.066 63.0383 120.162 61.8887 120.239 60.5666C120.335 59.2254 120.527 56.9644 120.7 55.5465C120.853 54.1286 121.218 51.9635 121.486 50.7564C121.755 49.5493 122.273 47.6907 122.638 46.6369C123.003 45.583 123.617 44.0693 123.981 43.2838L124.634 41.8467C123.348 42.0958 122.465 42.2491 121.832 42.3449C121.199 42.4407 119.183 42.5173 117.36 42.5173C115.345 42.5173 113.848 42.4407 113.522 42.3066C113.061 42.115 113.253 42.0383 115.403 41.7318C116.727 41.5401 118.838 41.1569 120.105 40.8695C121.371 40.6013 123.578 39.9881 124.999 39.5283C126.419 39.0493 128.357 38.302 129.317 37.8422C130.276 37.4015 131.562 36.6925 132.196 36.2901C132.829 35.8878 133.942 34.9872 134.672 34.2974C135.382 33.6077 136.341 32.5155 136.802 31.8832C137.243 31.2509 137.877 30.2162 138.184 29.5839C138.51 28.9516 138.932 27.917 139.162 27.2847C139.374 26.6524 139.661 25.6177 139.796 24.9854C139.93 24.3531 140.045 22.7628 140.045 21.4407C140.026 19.8504 139.93 18.5858 139.7 17.7044C139.527 16.9763 139.047 15.6734 138.644 14.8303C138.241 13.9872 137.55 12.8184 137.128 12.2436C136.687 11.6688 135.785 10.7299 135.132 10.1743C134.46 9.61861 133.366 8.87135 132.676 8.52646C131.985 8.16241 130.833 7.68339 130.085 7.47263C129.336 7.2427 128.012 6.99361 127.11 6.91697C126.208 6.84033 124.653 6.84033 123.655 6.91697C122.657 6.99361 121.064 7.28102 120.105 7.54927C119.145 7.81752 117.61 8.4115 116.65 8.89051C115.69 9.35036 114.366 10.1551 113.675 10.6533L112.409 11.573C112.197 13.7956 111.948 15.3093 111.737 16.3631C111.526 17.417 111.104 18.8923 110.816 19.6204C110.528 20.3677 109.933 21.5173 109.491 22.2071C109.069 22.8969 108.11 24.0274 107.361 24.7555C106.613 25.4644 105.787 26.1542 105.519 26.2883C105.25 26.4033 105 26.4799 104.962 26.4224C104.904 26.365 105.212 25.4644 105.634 24.4106C106.056 23.3568 106.613 21.8047 106.862 20.9617C107.112 20.1186 107.457 18.7007 107.611 17.8002C107.764 16.8996 107.956 15.4818 108.014 14.6387C108.09 13.7956 108.052 12.5119 107.937 11.7646C107.802 10.9982 107.438 9.84854 107.054 9.08212C106.709 8.35401 105.998 7.31934 105.48 6.80201C104.981 6.28467 104.214 5.63321 103.791 5.3458C103.369 5.05839 102.505 4.57938 101.872 4.31113C101.239 4.02372 100.068 3.62135 99.2811 3.41058C98.4942 3.19982 97.1124 2.95073 96.2104 2.85493C95.3083 2.75912 94.0225 2.68248 93.3316 2.68248C92.6406 2.70164 91.4891 2.77828 90.7406 2.87409C89.9921 2.95073 88.7446 3.1615 87.9577 3.3531ZM34.9681 106.514H42.9521C49.2087 106.514 50.9168 106.571 50.8977 106.763C50.8977 106.878 50.6482 107.606 49.8037 109.675L37.1944 109.771L36.7722 110.767C36.5419 111.323 35.4096 114.14 34.2388 117.014C33.0681 119.869 32.1085 122.321 32.1085 122.417C32.1085 122.532 33.2217 122.609 35.0833 122.609C37.8278 122.609 38.0581 122.628 37.9621 122.953C37.9237 123.126 37.6742 123.797 36.9449 125.578L30.7075 125.77L28.6347 130.848C27.4832 133.645 25.9478 137.132 25.2185 138.608C24.4892 140.083 23.4528 141.942 22.9347 142.727C22.4165 143.513 21.3033 144.892 20.4781 145.774C19.6336 146.655 18.4437 147.747 17.8103 148.207C17.177 148.648 16.083 149.28 15.3729 149.606C14.6436 149.932 13.5305 150.334 12.878 150.487C12.2062 150.641 10.9012 150.775 9.94155 150.775C9.00113 150.775 7.79202 150.66 7.25464 150.526C6.73645 150.372 5.87281 150.066 5.33542 149.797C4.81724 149.548 3.81924 148.82 3.12832 148.169C2.39902 147.498 1.63134 146.521 1.26668 145.87C0.940417 145.256 0.518189 144.222 0.326267 143.589C0.115153 142.842 0 141.788 0 140.62C0 139.527 0.134345 138.301 0.345459 137.554C0.518189 136.864 0.902032 135.791 1.18991 135.159C1.4778 134.526 2.09195 133.453 2.55256 132.764C3.01317 132.074 4.08793 130.809 4.93239 129.966C5.79604 129.104 7.21626 127.935 8.11829 127.341C9.02032 126.766 10.4022 125.981 11.189 125.617C11.9759 125.253 13.3194 124.735 14.1638 124.467C15.0083 124.18 16.4285 123.777 17.3305 123.586C18.2326 123.375 19.9791 123.068 21.2265 122.896C22.4548 122.743 24.6044 122.609 25.967 122.609C27.7903 122.609 28.4812 122.551 28.5388 122.379C28.5772 122.245 29.863 119.026 31.3984 115.232C32.9338 111.438 34.3732 107.932 34.5843 107.433L34.9681 106.514ZM18.9619 126.326C18.1174 126.498 16.6396 126.901 15.6992 127.226C14.7396 127.552 13.1083 128.261 12.0719 128.797C11.0355 129.334 9.48094 130.349 8.63648 131.039C7.77283 131.71 6.60211 132.879 6.02634 133.626C5.45058 134.354 4.70208 135.561 4.35662 136.308C4.01117 137.036 3.62732 138.205 3.49298 138.895C3.33944 139.642 3.30105 140.62 3.37782 141.386C3.45459 142.095 3.74247 143.11 4.03036 143.743C4.35662 144.413 4.93239 145.218 5.46977 145.716C5.96877 146.176 6.79403 146.751 7.29303 146.981C8.06071 147.345 8.52133 147.402 10.1335 147.383C11.6688 147.383 12.283 147.287 13.3002 146.904C13.9719 146.655 15.0083 146.138 15.6032 145.755C16.179 145.371 17.2154 144.471 17.9063 143.743C18.5972 143.015 19.6144 141.75 20.171 140.907C20.7276 140.064 21.8215 138.071 22.6084 136.5C23.3761 134.91 24.7195 131.901 25.564 129.794C26.4276 127.686 27.1185 125.885 27.1185 125.808C27.1185 125.732 26.3509 125.674 25.4296 125.693C24.5084 125.713 23.0114 125.789 22.1286 125.866C21.2265 125.943 19.8063 126.153 18.9619 126.326ZM42.6642 156.714C42.8753 156.714 43.0481 156.81 43.0481 156.944C43.0481 157.078 42.8369 157.768 42.5682 158.477C42.2996 159.186 42.0884 159.991 42.0884 160.259C42.0884 160.578 42.2484 160.815 42.5682 160.968C42.9713 161.179 43.1248 161.16 43.5662 160.796C43.9309 160.527 44.3147 159.818 44.7945 158.592C45.3511 157.174 45.5622 156.791 45.8885 156.753C46.1188 156.734 46.3107 156.772 46.3107 156.849C46.3107 156.925 45.8309 158.266 45.2552 159.818C44.6602 161.37 44.1996 162.731 44.1996 162.846C44.1996 162.942 44.5642 163.037 45.0057 163.037C45.7925 163.037 45.8309 162.999 46.3107 162.079C46.6178 161.447 46.9057 161.102 47.1168 161.102C47.3087 161.102 47.6734 160.796 47.9229 160.393C48.1916 159.991 48.537 159.282 48.6906 158.822C48.8633 158.343 48.9976 157.883 48.9976 157.807C48.9976 157.73 48.7673 157.672 48.5178 157.672C48.134 157.672 48.0572 157.596 48.134 157.289C48.2108 156.925 48.3835 156.906 50.2451 156.906C51.3391 156.906 52.2603 156.925 52.2603 156.944C52.2603 156.964 51.9532 157.864 51.5886 158.918C51.2239 159.972 50.9936 160.891 51.0704 160.968C51.128 161.064 51.3966 161.121 51.627 161.121C52.0684 161.121 52.0684 161.121 51.4926 162.271C51.0704 163.095 50.8209 163.401 50.5714 163.363C50.3795 163.325 50.2451 163.172 50.2643 163.018C50.2835 162.865 50.3603 162.539 50.4179 162.309C50.5138 161.888 50.4946 161.888 47.4623 161.888L47.1168 162.558C46.9249 162.942 46.637 163.229 46.4451 163.229C46.2531 163.229 46.0228 163.401 45.9269 163.612C45.7542 163.919 45.543 163.976 43.7198 163.976L43.3743 164.896C43.1824 165.394 42.8561 166.084 42.645 166.429C42.4531 166.774 41.9349 167.272 41.5127 167.54C41.0905 167.789 40.4571 168 40.1116 168C39.747 168 39.2288 167.808 38.8642 167.521C38.4611 167.234 38.1732 166.793 38.0581 166.333C37.9621 165.911 37.9621 165.375 38.0581 165.049C38.154 164.724 38.4611 164.225 38.7682 163.938C39.0561 163.651 39.5935 163.325 39.9773 163.229C40.342 163.114 41.2248 163.018 41.9349 163.018C42.9137 163.018 43.2592 162.961 43.3359 162.75C43.3743 162.578 43.4319 162.328 43.4319 162.175C43.4319 161.964 43.2016 161.869 42.6066 161.869C42.1076 161.869 41.6662 161.734 41.4551 161.543C41.2632 161.351 41.1096 160.93 41.1096 160.585C41.1096 160.24 41.3783 159.224 41.7046 158.343C42.1652 157.059 42.3763 156.714 42.6642 156.714ZM48.9401 160.01C48.7097 160.508 48.5562 160.968 48.6138 161.026C48.6522 161.083 48.9784 161.121 49.3239 161.121C49.7461 161.121 49.9956 161.006 50.0724 160.776C50.13 160.585 50.3987 159.838 50.6482 159.109C50.8977 158.362 51.1088 157.73 51.1088 157.711C51.1088 157.692 50.8017 157.672 50.4562 157.672C49.8613 157.672 49.7845 157.73 49.5926 158.381C49.4774 158.784 49.1895 159.512 48.9401 160.01ZM39.1328 164.781C38.9601 165.03 38.8066 165.471 38.8066 165.758C38.8194 166.116 38.9985 166.422 39.344 166.678C39.6318 166.889 40.0733 167.061 40.3036 167.061C40.5339 167.061 41.0137 166.812 41.3399 166.525C41.6854 166.237 42.1076 165.662 42.2996 165.241C42.4915 164.8 42.645 164.359 42.645 164.225C42.6642 164.053 42.2996 163.995 41.4551 163.995C40.8026 163.995 40.0733 164.091 39.843 164.168C39.6127 164.264 39.2864 164.551 39.1328 164.781Z"
         fill="#0045B2" />
      <path
         d="M108.973 62.061C108.762 62.061 108.57 61.946 108.532 61.8119C108.493 61.6395 108.666 61.582 109.107 61.6395C109.453 61.6778 110.7 61.8311 111.852 61.9844C113.003 62.1568 114.999 62.5209 116.266 62.8274C117.533 63.1148 118.895 63.4981 119.279 63.6705C119.682 63.8429 120.008 64.1112 120.008 64.2645C120.008 64.4178 119.951 64.5902 119.855 64.6285C119.778 64.686 118.646 64.3794 117.322 63.9579C115.997 63.5364 113.675 62.9424 112.14 62.6358C110.604 62.3101 109.184 62.061 108.973 62.061Z"
         fill="white" />
      <path fill-rule="evenodd" clip-rule="evenodd"
         d="M110.22 74.0364C111.525 74.0939 112.888 74.3046 114.059 74.6112C115.057 74.8794 117.014 75.6459 118.377 76.2973C119.74 76.9679 122.503 78.5391 124.518 79.8037C126.534 81.0875 128.721 82.4287 129.412 82.8119C130.103 83.176 131.332 83.7125 132.157 83.9807C132.982 84.2681 134.076 84.4789 134.633 84.4789C135.189 84.4789 135.957 84.3831 136.322 84.249C136.686 84.134 137.32 83.8083 137.723 83.54C138.126 83.2526 138.567 82.7544 138.701 82.3712C138.855 82.0072 139.028 81.1833 139.104 80.551C139.181 79.9187 139.2 78.999 139.124 78.4816C139.066 77.9643 138.855 77.4278 138.625 77.1979C138.414 76.9871 138.01 76.8147 137.703 76.8147C137.416 76.8147 137.032 76.9679 136.84 77.1595C136.648 77.332 136.494 77.6002 136.514 77.7344C136.514 77.8493 136.418 77.9643 136.322 77.9643C136.226 77.9643 136.091 77.8302 136.034 77.6769C135.976 77.5236 135.938 77.1787 135.938 76.9105C135.938 76.6422 136.034 76.259 136.13 76.0482C136.226 75.8375 136.59 75.5309 136.897 75.3776C137.204 75.2243 137.665 75.0902 137.895 75.0902C138.145 75.1094 138.682 75.2243 139.104 75.3776C139.527 75.5309 140.218 75.8949 140.621 76.1824C141.043 76.4889 141.619 77.1021 141.926 77.5811C142.233 78.0601 142.559 78.7882 142.674 79.2097C142.789 79.6313 142.885 80.7617 142.885 81.7006C142.885 83.0227 142.77 83.7316 142.425 84.7663C142.175 85.5136 141.657 86.5866 141.273 87.1614C140.889 87.7362 139.911 88.8667 139.066 89.6522C138.241 90.457 136.744 91.6449 135.746 92.3156C134.748 92.9862 133.232 93.8676 132.387 94.2891C131.543 94.7106 129.988 95.3429 128.933 95.707C127.877 96.0519 126.361 96.4734 125.574 96.6267C124.787 96.78 123.271 97.0099 122.215 97.144C121.006 97.2782 118.703 97.3356 115.978 97.259C112.274 97.1824 111.372 97.1057 109.644 96.6842C108.531 96.4159 106.842 95.9178 105.902 95.5729C104.942 95.2088 103.656 94.6148 103.023 94.2508C102.39 93.8867 101.181 92.8904 100.317 92.0473C99.1463 90.8977 98.5706 90.1504 98.014 89.0199C97.611 88.196 97.2271 87.5446 97.1695 87.5446C97.112 87.5446 96.8433 87.9086 96.5554 88.3685C96.2867 88.8092 95.4231 89.7864 94.6362 90.5336C93.8685 91.2809 92.717 92.2198 92.0836 92.6413C91.4503 93.0628 90.4523 93.676 89.8765 94.0017C89.3008 94.3274 88.0341 94.9022 87.0937 95.2663C86.1532 95.6495 84.3684 96.2243 83.1593 96.5501C81.9501 96.8566 79.9542 97.259 78.7451 97.4314C77.4784 97.6039 75.3097 97.738 73.6591 97.738C71.9318 97.738 70.0126 97.6039 68.8611 97.4314C67.8055 97.259 66.3469 96.9333 65.5984 96.7225C64.8499 96.4926 63.5257 95.9369 62.6236 95.4771C61.7216 95.0172 60.4165 94.1741 59.6872 93.5802C58.9771 93.0054 57.9791 91.9898 57.4417 91.3192C56.9235 90.6678 56.1559 89.4798 55.7528 88.6942C55.3306 87.9086 54.8508 86.5674 54.6589 85.7243C54.4286 84.6705 54.3518 83.7891 54.4286 82.946C54.4861 82.2563 54.7164 81.2216 54.9276 80.6468C55.1387 80.072 55.6377 79.1331 56.0407 78.5583C56.4437 77.9835 57.0771 77.2745 57.4417 76.9871C57.8064 76.6997 58.4973 76.3356 58.9771 76.2207C59.6488 76.0291 60.0135 76.0291 60.666 76.2015C61.1074 76.3356 61.6448 76.6231 61.8559 76.8721C62.0862 77.1021 62.2398 77.5619 62.2398 77.926C62.2398 78.29 62.0479 78.769 61.76 79.1139C61.4913 79.4205 61.2226 79.6504 61.1266 79.6121C61.0499 79.5546 61.0115 79.2481 61.0499 78.884C61.0882 78.5391 60.9923 78.1367 60.8579 78.0026C60.7236 77.8685 60.3206 77.7535 59.9943 77.7727C59.5529 77.7727 59.2074 77.9451 58.8811 78.29C58.6125 78.5966 58.363 79.1139 58.3054 79.4397C58.2478 79.7845 58.3054 80.436 58.4205 80.8767C58.5357 81.3366 58.862 81.988 59.1306 82.3521C59.4185 82.7161 59.9943 83.176 60.4165 83.3676C60.9731 83.6167 61.664 83.7125 62.9115 83.7125C63.9863 83.7125 65.2338 83.5592 66.2318 83.3293C67.0954 83.1185 68.65 82.6395 69.6672 82.2563C70.7035 81.8731 72.6803 81.0108 74.043 80.3594C75.4056 79.6887 77.3632 78.6541 78.3612 78.0409C79.3592 77.447 80.9713 76.5847 81.9118 76.1249C82.8522 75.665 84.33 75.1094 85.1744 74.8794C86.0189 74.6687 87.5351 74.4387 88.5331 74.3813C89.6462 74.3046 90.8553 74.3621 91.6038 74.4962C92.2947 74.6304 93.4079 75.0136 94.0796 75.3393C94.7513 75.6842 95.7301 76.374 96.2675 76.9105C96.7857 77.4278 97.4382 78.2517 97.7069 78.7307C97.9756 79.2097 98.2251 79.6313 98.2635 79.6887C98.2827 79.7462 98.7241 79.3247 99.2231 78.7499C99.7413 78.1942 100.663 77.332 101.296 76.853C101.929 76.374 103.138 75.665 103.983 75.2626C104.827 74.8603 106.113 74.4004 106.862 74.2471C107.802 74.0364 108.819 73.9789 110.22 74.0364ZM130.372 106.571C134.652 106.629 137.435 106.763 137.857 106.897C138.222 107.012 138.951 107.433 139.469 107.816C140.045 108.257 140.64 108.928 140.985 109.579C141.312 110.154 141.619 111.055 141.695 111.591C141.753 112.108 141.734 113.047 141.657 113.641C141.561 114.254 141.273 115.212 140.985 115.749C140.717 116.305 140.083 117.186 139.603 117.703C139.124 118.202 138.337 118.853 137.857 119.121C137.377 119.409 136.552 119.792 136.034 120.003C135.228 120.328 134.46 120.405 126.821 120.597L126.131 122.321C125.747 123.279 124.384 126.728 123.079 129.985C121.793 133.243 120.239 136.96 119.624 138.224C119.01 139.489 117.974 141.348 117.302 142.344C116.592 143.436 115.287 144.988 114.078 146.195C112.792 147.479 111.544 148.514 110.7 149.012C109.952 149.433 108.819 149.97 108.147 150.181C107.495 150.41 106.324 150.679 105.576 150.775C104.808 150.889 103.695 150.928 103.119 150.87C102.543 150.794 101.584 150.621 101.008 150.449C100.432 150.296 99.5686 149.951 99.0888 149.663C98.609 149.395 97.8413 148.82 97.3807 148.399C96.92 147.958 96.1907 147.096 95.7877 146.463C95.3847 145.831 94.8473 144.758 94.617 144.068C94.2907 143.072 94.1948 142.401 94.1948 140.715C94.2139 139.106 94.3099 138.243 94.6362 137.075C94.8857 136.232 95.3847 134.986 95.7685 134.296C96.1332 133.607 96.8241 132.572 97.2655 131.997C97.7069 131.422 98.6665 130.388 99.3958 129.698C100.125 129.008 101.334 128.05 102.064 127.571C102.812 127.092 103.964 126.402 104.654 126.057C105.345 125.712 106.67 125.157 107.629 124.812C108.589 124.467 110.047 124.007 110.892 123.777C111.736 123.566 113.502 123.26 114.826 123.087C116.151 122.915 117.552 122.8 118.646 122.896L117.36 125.962L115.767 126.115C114.884 126.191 113.157 126.479 111.948 126.747C110.738 127.015 109.049 127.514 108.205 127.858C107.361 128.184 106.017 128.855 105.23 129.353C104.443 129.851 103.215 130.733 102.505 131.327C101.776 131.901 100.758 132.917 100.221 133.568C99.6645 134.239 98.9928 135.254 98.7049 135.829C98.3978 136.404 98.014 137.439 97.8413 138.129C97.611 139.01 97.5342 139.891 97.5918 141.098C97.6493 142.459 97.7645 143.034 98.1675 143.877C98.4554 144.471 99.1079 145.352 99.7029 145.889C100.336 146.502 101.085 146.981 101.68 147.191C102.217 147.364 103.119 147.556 103.695 147.632C104.367 147.709 105.269 147.632 106.19 147.441C106.977 147.268 108.224 146.808 108.973 146.406C109.779 145.965 110.873 145.141 111.775 144.26C112.581 143.474 113.675 142.171 114.193 141.386C114.73 140.6 115.632 138.991 116.208 137.841C116.784 136.691 119.202 130.867 121.544 124.908C123.904 118.949 126.169 113.162 126.61 112.032C127.052 110.901 127.359 109.924 127.301 109.867C127.244 109.809 126.054 109.771 122.119 109.771L122.638 108.372C122.906 107.625 123.233 106.878 123.348 106.724C123.52 106.514 124.71 106.475 130.372 106.571ZM130.871 110.384C130.717 110.729 130.046 112.434 129.374 114.139C128.702 115.864 128.127 117.32 128.107 117.358C128.088 117.397 129.125 117.435 130.43 117.435C131.715 117.435 133.289 117.339 133.923 117.224C134.556 117.109 135.381 116.86 135.746 116.669C136.11 116.496 136.705 115.998 137.051 115.596C137.396 115.193 137.819 114.369 137.972 113.795C138.145 113.181 138.222 112.434 138.164 112.013C138.087 111.591 137.819 111.074 137.473 110.729C137.089 110.346 136.577 110.09 135.938 109.962C135.42 109.867 134.114 109.771 133.059 109.771H131.12L130.871 110.384ZM92.2372 109.943H93.7533C94.8665 109.943 95.2311 110.02 95.1736 110.192C95.1352 110.327 93.1008 115.27 90.6634 121.152C88.2068 127.054 85.731 133.07 85.1744 134.526C84.5987 135.983 84.1381 137.458 84.1381 137.822C84.1381 138.32 84.2532 138.588 84.5603 138.799C84.8866 139.01 85.6159 139.087 87.727 139.087C90.0301 139.087 90.4715 139.125 90.4715 139.355C90.4715 139.527 90.2604 140.121 89.6078 141.769H86.825C85.2896 141.769 83.7158 141.673 83.3128 141.558C82.8522 141.443 82.3724 141.098 81.3552 139.872L80.4915 140.524C80.0117 140.868 79.3016 141.29 78.8986 141.462C78.4188 141.654 77.5743 141.769 76.4036 141.769C75.3864 141.769 74.1965 141.635 73.6207 141.482C73.0066 141.29 72.2965 140.907 71.7975 140.447C71.3561 140.045 70.7611 139.24 70.5116 138.665C70.1086 137.803 70.0318 137.362 70.0318 135.906C70.0318 134.775 70.147 133.837 70.3965 133.128C70.5884 132.553 71.1066 131.48 71.5672 130.733C72.0086 130.004 72.9298 128.874 73.6016 128.242C74.2925 127.609 75.3864 126.843 76.0773 126.498C76.7491 126.172 77.7854 125.789 78.3804 125.655C78.9562 125.521 79.9925 125.463 80.6835 125.521C81.3936 125.559 82.2572 125.77 82.737 126.019C83.1784 126.249 83.8502 126.69 84.9057 127.571L85.1552 126.958C85.2896 126.613 86.9401 122.647 88.8209 118.144L92.2372 109.943ZM75.4632 130.388C74.8107 131.077 74.1389 132.016 73.7551 132.84C73.2177 133.952 73.1026 134.411 73.1026 135.523C73.1026 136.538 73.1985 137.017 73.4864 137.535C73.7167 137.899 74.1773 138.397 74.542 138.627C74.9066 138.876 75.5975 139.106 76.0773 139.163C76.5571 139.221 77.3056 139.163 77.8046 139.029C78.2844 138.876 79.2249 138.358 79.9158 137.86C81.1441 136.979 81.1633 136.96 82.1996 134.526C82.9481 132.725 83.236 131.806 83.2552 131.077C83.2552 130.349 83.1593 129.947 82.8714 129.545C82.6411 129.257 82.2188 128.836 81.931 128.625C81.5663 128.357 81.0481 128.223 80.1461 128.184C79.0329 128.127 78.7067 128.184 77.7087 128.702C77.0369 129.027 76.0965 129.755 75.4632 130.388ZM137.185 123.356H139.795L139.661 124.065C139.565 124.659 139.623 124.869 139.949 125.214C140.352 125.655 140.448 125.655 144.689 125.655C147.069 125.655 149.008 125.712 149.008 125.789C149.008 125.885 148.816 126.479 148.144 128.337H147.184C146.263 128.318 146.167 128.376 145.054 129.43C144.421 130.043 143.595 130.962 143.25 131.499C142.885 132.016 142.386 132.936 142.156 133.511C141.868 134.201 141.715 134.967 141.715 135.714C141.715 136.538 141.83 137.036 142.098 137.477C142.31 137.822 142.751 138.263 143.096 138.435C143.557 138.665 144.421 138.78 146.186 138.857C147.683 138.933 148.605 139.048 148.566 139.163C148.547 139.259 148.355 139.853 147.76 141.616L145.169 141.52C143.308 141.443 142.348 141.328 141.811 141.098C141.388 140.926 140.774 140.562 140.467 140.332C140.141 140.083 139.623 139.431 139.316 138.857C138.778 137.899 138.74 137.669 138.74 135.906C138.74 134.066 138.759 133.932 139.45 132.553C139.853 131.767 140.659 130.541 141.235 129.813C141.926 128.97 142.194 128.491 142.041 128.433C141.907 128.376 140.985 128.357 138.183 128.433L136.629 132.38L133.654 132.361L134.326 130.675C134.69 129.755 135.496 127.743 136.091 126.172L137.185 123.356ZM44.4102 125.195C45.2547 125.253 46.0224 125.463 46.8093 125.827C47.4426 126.134 48.2487 126.728 48.6133 127.13C48.978 127.533 49.477 128.299 49.7073 128.816C49.9376 129.353 50.1871 130.254 50.2639 130.828C50.3406 131.441 50.2831 132.438 50.1679 133.128C50.0336 133.817 49.7265 134.852 49.4578 135.427C49.1891 136.021 48.6325 136.998 48.1911 137.611C47.7497 138.243 46.8285 139.163 46.1375 139.681C45.4466 140.198 44.4102 140.792 43.8345 141.003C43.1244 141.271 42.1072 141.443 40.7637 141.52C39.1708 141.597 38.4991 141.558 37.597 141.29C36.6758 141.022 36.2536 140.754 35.4859 139.968C34.8525 139.316 34.4303 138.684 34.2576 138.109C34.1232 137.65 33.9697 136.826 33.9121 136.289C33.8546 135.772 33.9505 134.737 34.1041 133.99C34.2576 133.262 34.603 132.189 34.8717 131.595C35.1404 131.02 35.7354 130.024 36.2152 129.391C36.6758 128.778 37.6162 127.82 38.2879 127.322C38.9597 126.805 39.9001 126.191 40.3799 125.981C40.8597 125.77 41.6658 125.483 42.2031 125.348C42.7405 125.214 43.7001 125.138 44.4102 125.195ZM40.5526 129.161C39.9769 129.545 39.2667 130.196 38.9405 130.598C38.6334 130.982 38.1536 131.748 37.8657 132.265C37.597 132.802 37.2516 133.702 37.1172 134.277C36.9829 134.89 36.9253 135.733 37.0021 136.251C37.0788 136.864 37.2964 137.375 37.6546 137.784C38.0193 138.186 38.5566 138.512 39.1516 138.684C39.7657 138.857 40.495 138.895 41.2435 138.818C41.8769 138.761 42.8173 138.493 43.3547 138.243C43.8729 137.975 44.7365 137.305 45.2355 136.749C45.7537 136.193 46.387 135.254 46.6557 134.66C46.9244 134.086 47.1931 133.108 47.2507 132.457C47.3275 131.671 47.2507 131.058 47.0396 130.445C46.8668 129.985 46.4446 129.315 46.0992 128.97C45.7345 128.625 45.1204 128.28 44.6406 128.165C44.1991 128.05 43.7193 127.973 43.585 127.973C43.4698 127.993 42.9516 128.088 42.4718 128.223C41.992 128.337 41.1284 128.759 40.5526 129.161ZM62.6428 125.195C63.3529 125.253 64.3125 125.483 64.8499 125.732C65.3681 125.962 66.1742 126.536 66.6348 127.015C67.0954 127.475 67.652 128.261 67.8823 128.721C68.2469 129.468 68.3045 129.928 68.3045 131.786C68.3045 133.971 68.3045 134.009 67.5176 135.618C66.9802 136.749 66.3661 137.669 65.5024 138.569C64.5428 139.585 63.9095 140.064 61.0307 141.462H58.4397C55.9064 141.462 55.7912 141.462 54.7932 140.888C54.2175 140.581 53.5073 139.987 53.2003 139.546C52.8932 139.125 52.5093 138.358 52.3558 137.822C52.2023 137.305 52.0871 136.404 52.0871 135.81C52.0871 135.235 52.2215 134.201 52.3942 133.511C52.5477 132.84 53.0083 131.671 53.3922 130.924C53.8336 130.081 54.6013 129.104 55.4458 128.242C56.271 127.418 57.2498 126.671 58.0367 126.268C58.7276 125.923 59.764 125.521 60.3398 125.368C60.9731 125.214 61.8751 125.138 62.6428 125.195ZM59.3226 128.759C58.8811 128.989 58.1135 129.602 57.5953 130.1C57.0771 130.656 56.3862 131.652 55.9831 132.514C55.4266 133.626 55.2346 134.296 55.1771 135.235C55.1195 136.193 55.1963 136.672 55.4649 137.228C55.6569 137.63 56.1367 138.148 56.5013 138.378C57.0387 138.723 57.4801 138.78 58.8044 138.78C60.0903 138.78 60.6276 138.703 61.3377 138.358C61.8559 138.129 62.6812 137.515 63.1802 137.017C63.6984 136.519 64.3701 135.542 64.6964 134.852C65.0418 134.181 65.3681 133.281 65.4257 132.84C65.5025 132.419 65.4449 131.556 65.3105 130.924C65.1378 130.043 64.9267 129.621 64.3893 129.085C64.0055 128.702 63.3529 128.299 62.9307 128.184C62.5085 128.069 62.0287 127.973 61.8751 127.993C61.7216 127.993 61.261 128.088 60.8579 128.184C60.4741 128.261 59.7832 128.529 59.3226 128.759ZM161.483 125.176C162.327 125.253 163.114 125.463 163.882 125.827C164.592 126.172 165.359 126.747 165.858 127.322C166.3 127.839 166.799 128.644 166.971 129.104C167.125 129.583 167.298 130.503 167.355 131.116C167.432 131.882 167.355 132.744 167.144 133.607C166.971 134.354 166.511 135.561 166.127 136.289C165.724 137.056 164.918 138.129 164.246 138.78C163.574 139.451 162.576 140.198 161.847 140.562C161.175 140.907 160.139 141.271 159.563 141.386C158.988 141.482 157.855 141.577 157.068 141.577C156.281 141.577 155.168 141.443 154.612 141.29C153.998 141.098 153.307 140.715 152.788 140.255C152.347 139.853 151.79 139.087 151.56 138.569C151.349 138.071 151.1 137.209 151.023 136.672C150.965 136.155 151.004 135.12 151.119 134.373C151.234 133.626 151.618 132.419 152.002 131.595C152.366 130.809 153.038 129.698 153.479 129.142C153.921 128.567 154.765 127.743 155.341 127.322C155.917 126.881 156.78 126.326 157.26 126.096C157.74 125.866 158.604 125.54 159.179 125.387C159.851 125.195 160.676 125.118 161.483 125.176ZM158.028 128.874C157.663 129.104 156.953 129.698 156.454 130.196C155.955 130.713 155.303 131.595 154.996 132.17C154.688 132.764 154.324 133.702 154.189 134.277C154.055 134.89 153.998 135.733 154.074 136.251C154.151 136.864 154.369 137.375 154.727 137.784C155.092 138.186 155.629 138.512 156.224 138.684C156.838 138.857 157.567 138.895 158.316 138.818C158.949 138.761 159.89 138.493 160.427 138.243C160.945 137.975 161.809 137.305 162.308 136.749C162.826 136.193 163.459 135.293 163.709 134.756C163.977 134.239 164.227 133.281 164.304 132.649C164.381 131.92 164.323 131.173 164.15 130.541C163.997 130.004 163.632 129.353 163.306 129.008C162.96 128.663 162.346 128.337 161.809 128.203C161.31 128.069 160.792 127.973 160.657 127.973C160.542 127.993 160.043 128.088 159.563 128.223C159.083 128.357 158.393 128.644 158.028 128.874ZM182.018 125.54C182.594 125.578 183.458 125.808 183.937 126.038C184.417 126.287 185.166 126.862 186.432 128.146L187.814 127.188C188.582 126.67 189.599 126.096 190.079 125.942C190.559 125.789 191.537 125.655 192.286 125.636C193.15 125.617 193.898 125.732 194.397 125.942C194.819 126.115 195.414 126.498 195.702 126.785C196.009 127.054 196.431 127.629 196.643 128.05C196.969 128.682 197.026 129.066 196.95 130.158C196.873 131.212 196.623 132.074 195.798 134.086C195.203 135.523 194.685 136.921 194.608 137.209C194.551 137.496 194.57 137.956 194.685 138.205C194.819 138.531 195.107 138.761 195.587 138.876C195.99 138.991 197.372 139.067 198.658 139.067C200.423 139.067 201.018 139.144 200.999 139.316C200.999 139.451 200.769 140.025 199.963 141.654L197.852 141.712C196.681 141.75 195.184 141.673 194.493 141.558C193.802 141.443 192.977 141.194 192.67 140.983C192.344 140.792 191.921 140.351 191.71 140.006C191.48 139.585 191.346 139.029 191.346 138.397C191.365 137.688 191.691 136.634 192.631 134.239C193.361 132.438 193.917 130.733 193.917 130.349C193.917 129.985 193.821 129.525 193.725 129.295C193.61 129.085 193.265 128.797 192.958 128.625C192.631 128.472 192.017 128.337 191.557 128.337C191.077 128.337 190.348 128.529 189.791 128.816C189.254 129.066 188.352 129.775 187.757 130.388C187.162 131.001 186.432 131.978 186.125 132.553C185.837 133.147 184.801 135.427 182.095 141.654L180.617 141.712C179.811 141.731 179.139 141.692 179.139 141.616C179.139 141.539 179.466 140.658 179.888 139.642C180.291 138.646 181.25 136.327 181.999 134.469C182.959 132.112 183.362 130.886 183.362 130.311C183.362 129.679 183.227 129.372 182.824 128.951C182.536 128.644 181.999 128.337 181.634 128.261C181.212 128.165 180.579 128.223 179.907 128.414C179.331 128.567 178.506 128.97 178.084 129.315C177.662 129.64 176.99 130.311 176.568 130.809C176.165 131.288 175.57 132.17 175.243 132.744C174.917 133.338 173.9 135.58 171.328 141.654L169.812 141.731C168.411 141.788 168.296 141.769 168.411 141.443C168.468 141.252 169.946 137.669 174.821 125.847H177.604L177.354 126.517C177.239 126.881 177.182 127.245 177.258 127.341C177.354 127.418 177.604 127.303 177.834 127.092C178.084 126.862 178.487 126.556 178.755 126.402C179.024 126.23 179.619 125.962 180.099 125.789C180.636 125.578 181.346 125.502 182.018 125.54ZM30.8222 151.349C32.0889 151.349 32.8949 151.407 32.8949 151.541C32.8949 151.637 32.8566 151.848 32.799 152.02C32.7222 152.25 32.3 152.307 30.6878 152.307C28.9222 152.307 28.6151 152.346 28.2888 152.691C28.0585 152.921 27.905 153.323 27.905 153.744C27.905 154.147 28.1929 154.952 28.6343 155.795C29.0565 156.561 29.4404 157.519 29.5171 157.96C29.5939 158.381 29.5747 159.071 29.4595 159.531C29.3444 159.972 28.9605 160.661 28.6151 161.045C28.0969 161.6 27.8282 161.734 27.0413 161.83C26.2736 161.907 25.9858 161.83 25.5443 161.504C25.2565 161.294 24.9686 160.872 24.911 160.585C24.8534 160.297 24.911 159.665 25.0262 159.205C25.1797 158.63 25.5315 158.068 26.0817 157.519C26.6191 156.983 27.0605 156.714 27.406 156.714C27.6747 156.714 27.905 156.638 27.905 156.561C27.905 156.484 27.7131 156.025 27.4828 155.565C27.2524 155.086 27.0221 154.358 26.9838 153.936C26.9262 153.476 27.0029 152.921 27.1757 152.595C27.3484 152.269 27.7514 151.867 28.1161 151.675C28.6151 151.426 29.2676 151.349 30.8222 151.349ZM26.0817 158.822C25.9282 159.129 25.7938 159.627 25.7938 159.914C25.7938 160.202 25.8898 160.546 26.0241 160.681C26.1585 160.815 26.5231 160.93 26.8494 160.93C27.1565 160.93 27.6555 160.757 27.9434 160.546C28.2504 160.316 28.5575 159.857 28.6535 159.435C28.7686 158.975 28.7686 158.554 28.6343 158.247C28.5383 157.979 28.3464 157.691 28.2312 157.615C28.0969 157.538 27.8666 157.481 27.6939 157.481C27.5211 157.481 27.1565 157.634 26.8686 157.864C26.5999 158.075 26.2353 158.496 26.0817 158.822ZM125.536 151.349C126.725 151.349 127.704 151.388 127.704 151.445C127.704 151.483 127.608 151.694 127.512 151.924C127.34 152.25 127.129 152.288 125.44 152.288C123.866 152.288 123.501 152.346 123.098 152.652C122.714 152.94 122.618 153.189 122.638 153.764C122.657 154.223 122.964 155.066 123.463 155.986C124.115 157.212 124.25 157.653 124.25 158.535C124.25 159.205 124.115 159.857 123.866 160.355C123.655 160.776 123.194 161.275 122.849 161.485C122.522 161.696 121.908 161.868 121.505 161.868C121.121 161.868 120.661 161.811 120.469 161.734C120.296 161.658 120.047 161.351 119.893 161.064C119.759 160.776 119.644 160.278 119.644 159.972C119.644 159.646 119.778 159.071 119.931 158.669C120.104 158.266 120.43 157.749 120.661 157.519C120.891 157.27 121.294 157.002 121.563 156.906C121.831 156.81 122.196 156.695 122.369 156.618C122.695 156.523 122.676 156.427 122.235 155.507C121.966 154.932 121.755 154.147 121.755 153.687C121.755 153.246 121.831 152.71 121.947 152.499C122.043 152.269 122.426 151.943 122.753 151.733C123.29 151.407 123.732 151.349 125.536 151.349ZM120.987 158.573C120.776 158.86 120.603 159.397 120.603 159.78C120.603 160.144 120.699 160.546 120.833 160.681C120.968 160.815 121.332 160.93 121.659 160.91C121.966 160.91 122.369 160.796 122.522 160.681C122.695 160.546 122.983 160.221 123.156 159.972C123.328 159.703 123.482 159.186 123.482 158.822C123.482 158.42 123.348 157.998 123.156 157.806C122.964 157.634 122.638 157.481 122.426 157.481C122.215 157.481 121.889 157.615 121.697 157.768C121.505 157.921 121.179 158.285 120.987 158.573ZM61.9135 151.522C62.2206 151.522 62.6236 151.694 62.8347 151.924C63.065 152.135 63.2186 152.556 63.2186 152.921C63.2186 153.265 63.1034 153.84 62.9499 154.223C62.7964 154.587 62.3549 155.316 61.9711 155.852C61.261 156.791 61.261 156.81 61.664 157.098C61.8751 157.251 62.1054 157.634 62.1822 157.96C62.259 158.285 62.1822 158.918 61.9903 159.493C61.8176 160.048 61.3953 160.738 60.9731 161.179C60.3781 161.773 60.0903 161.907 59.4377 161.945C58.8811 161.964 58.5357 161.868 58.2478 161.6C57.9215 161.294 57.8256 160.987 57.8448 160.202C57.8448 159.493 58.1518 158.343 58.862 156.274C59.4377 154.664 60.0327 153.074 60.2054 152.729C60.3781 152.384 60.7236 151.982 60.9539 151.809C61.2034 151.656 61.6256 151.522 61.9135 151.522ZM60.2438 154.798C59.8791 155.795 59.6296 156.676 59.7064 156.753C59.7832 156.848 60.263 156.504 60.7428 155.986C61.2226 155.488 61.7984 154.702 62.0287 154.262C62.259 153.821 62.4317 153.208 62.3933 152.921C62.3741 152.556 62.2398 152.384 61.9519 152.346C61.7408 152.307 61.4145 152.441 61.2418 152.633C61.0882 152.806 60.6276 153.783 60.2438 154.798ZM58.9003 159.052C58.7468 159.454 58.6125 159.972 58.6125 160.202C58.6125 160.431 58.7084 160.738 58.8428 160.872C58.9771 161.006 59.2074 161.121 59.3226 161.121C59.4569 161.121 59.8791 160.834 60.263 160.489C60.6852 160.106 61.0115 159.569 61.1266 159.09C61.2418 158.669 61.2802 158.132 61.2226 157.902C61.1266 157.577 60.9731 157.462 60.5701 157.462C60.2438 157.462 59.8408 157.653 59.6105 157.902C59.3993 158.132 59.0731 158.65 58.9003 159.052ZM37.7122 155.929C37.9425 155.948 38.0768 156.063 38.0768 156.331C38.0768 156.657 38.1536 156.695 38.691 156.58C39.2092 156.484 39.4395 156.561 39.9385 157.021C40.2839 157.327 40.5718 157.768 40.5718 158.056C40.591 158.305 40.6102 158.784 40.591 159.109C40.591 159.416 40.3415 160.048 40.0536 160.489C39.7466 160.949 39.2284 161.428 38.8829 161.6C38.5566 161.754 37.9809 161.868 37.6354 161.868C37.3091 161.868 36.8677 161.715 36.695 161.543C36.3687 161.217 36.3495 161.236 36.1576 161.677C36.0425 161.945 35.5051 163.421 34.9293 164.953C34.0657 167.233 33.8162 167.732 33.4899 167.77C33.2596 167.789 33.0869 167.751 33.0869 167.674C33.0869 167.598 33.9121 165.279 34.9293 162.539C35.9465 159.818 36.9061 157.193 37.0596 156.753C37.2516 156.178 37.4435 155.929 37.7122 155.929ZM37.1364 159.109C36.791 159.933 36.7334 160.336 36.8677 160.527C36.9637 160.7 37.3475 160.853 37.7122 160.872C38.0768 160.91 38.5566 160.796 38.7869 160.642C39.0364 160.47 39.3627 160.048 39.5162 159.665C39.6698 159.301 39.8041 158.803 39.8041 158.573C39.8041 158.343 39.6698 157.998 39.4779 157.806C39.2859 157.634 38.9597 157.481 38.7486 157.481C38.5374 157.462 38.192 157.577 37.9809 157.73C37.7698 157.864 37.3859 158.496 37.1364 159.109ZM22.8191 156.618C23.1261 156.676 23.5484 156.868 23.7403 157.04C23.9322 157.232 24.1817 157.672 24.2969 158.036C24.4504 158.535 24.4312 158.918 24.2585 159.473C24.1241 159.914 23.8554 160.489 23.6443 160.776C23.4524 161.064 23.0302 161.428 22.7231 161.581C22.3968 161.754 21.8019 161.868 21.3796 161.868C20.8231 161.868 20.4776 161.754 20.1321 161.389C19.7675 161.025 19.6523 160.719 19.6523 160.048C19.6523 159.588 19.8059 158.879 20.017 158.477C20.2089 158.075 20.5928 157.577 20.8231 157.347C21.0726 157.117 21.4948 156.829 21.7635 156.714C22.0322 156.618 22.4928 156.561 22.8191 156.618ZM21.0534 158.439C20.8806 158.688 20.6695 159.148 20.5736 159.435C20.4776 159.742 20.4968 160.163 20.612 160.431C20.7655 160.834 20.9382 160.93 21.514 160.93C21.9746 160.93 22.3968 160.776 22.6655 160.546C22.915 160.336 23.1837 159.933 23.2989 159.665C23.3948 159.416 23.4908 158.975 23.4908 158.707C23.4908 158.458 23.318 158.075 23.1069 157.845C22.8958 157.634 22.6079 157.481 22.4736 157.481C22.3584 157.481 22.0514 157.596 21.8019 157.73C21.5716 157.864 21.2261 158.171 21.0534 158.439ZM33.2788 156.618C33.5475 156.676 33.9889 156.983 34.2768 157.289C34.6798 157.711 34.8142 158.056 34.8142 158.611C34.8142 159.052 34.699 159.665 34.5455 160.01C34.4111 160.355 34.0081 160.891 33.6626 161.198C33.202 161.639 32.8182 161.792 32.1656 161.849C31.4171 161.907 31.1676 161.849 30.6878 161.447C30.1888 161.025 30.1121 160.834 30.1121 160.029C30.1313 159.397 30.2848 158.822 30.6111 158.228C30.9565 157.653 31.3788 157.232 31.9545 156.944C32.4919 156.657 32.9717 156.542 33.2788 156.618ZM31.5131 158.42C31.3212 158.688 31.0909 159.224 31.0141 159.608C30.9182 160.125 30.9565 160.393 31.1676 160.623C31.3212 160.796 31.705 160.93 32.0313 160.93C32.3384 160.93 32.8374 160.757 33.1253 160.546C33.4323 160.316 33.7394 159.857 33.8354 159.435C33.9505 158.975 33.9505 158.554 33.8162 158.228C33.7202 157.979 33.5283 157.691 33.4131 157.615C33.2788 157.538 33.0869 157.481 32.9909 157.481C32.8758 157.481 32.5879 157.577 32.3384 157.711C32.0889 157.845 31.705 158.171 31.5131 158.42ZM55.7336 156.638C56.0023 156.676 56.4054 156.848 56.6357 157.002C56.8852 157.155 57.1539 157.596 57.269 157.998C57.3842 158.496 57.3842 158.956 57.2306 159.473C57.1155 159.914 56.8852 160.451 56.7124 160.7C56.5397 160.949 56.1367 161.313 55.8296 161.504C55.5033 161.715 54.8892 161.868 54.4286 161.868C53.8144 161.868 53.5073 161.754 53.1427 161.389C52.778 161.025 52.6629 160.719 52.6629 160.048C52.6629 159.588 52.8164 158.879 53.0275 158.477C53.2195 158.075 53.6033 157.577 53.8336 157.347C54.0831 157.117 54.5053 156.829 54.774 156.733C55.0427 156.618 55.4649 156.58 55.7336 156.638ZM53.6993 159.052C53.469 159.665 53.4498 159.991 53.6033 160.393C53.776 160.834 53.9296 160.93 54.5245 160.93C55.0427 160.93 55.369 160.796 55.6569 160.489C55.8872 160.259 56.1559 159.857 56.2902 159.627C56.4054 159.397 56.5013 158.975 56.5013 158.707C56.5013 158.458 56.3286 158.075 56.1175 157.845C55.9064 157.634 55.6185 157.481 55.4841 157.481C55.369 157.481 54.9659 157.653 54.6205 157.864C54.2175 158.094 53.8912 158.535 53.6993 159.052ZM117.187 156.523C117.283 156.523 117.628 156.638 117.955 156.791C118.3 156.944 118.703 157.289 118.818 157.557C118.953 157.826 119.068 158.343 119.068 158.707C119.068 159.09 118.953 159.665 118.799 160.01C118.665 160.355 118.262 160.891 117.916 161.198C117.456 161.639 117.072 161.792 116.419 161.849C115.69 161.907 115.421 161.849 114.961 161.466C114.5 161.083 114.423 160.872 114.404 160.048C114.404 159.378 114.538 158.86 114.884 158.228C115.21 157.653 115.632 157.232 116.208 156.944C116.669 156.714 117.11 156.523 117.187 156.523ZM115.805 158.362C115.594 158.669 115.364 159.167 115.287 159.473C115.229 159.799 115.287 160.259 115.402 160.489C115.556 160.815 115.786 160.93 116.323 160.93C116.842 160.93 117.168 160.796 117.475 160.489C117.705 160.259 117.993 159.799 118.108 159.473C118.223 159.167 118.262 158.669 118.204 158.381C118.147 158.094 117.935 157.768 117.724 157.653C117.513 157.557 117.283 157.481 117.187 157.481C117.11 157.481 116.861 157.577 116.63 157.653C116.4 157.749 116.016 158.075 115.805 158.362ZM65.5216 156.695C65.9439 156.695 66.4813 156.791 66.7116 156.906C67.0378 157.059 67.2106 157.059 67.3257 156.906C67.4409 156.791 67.6712 156.695 67.8631 156.695C68.055 156.695 68.1702 156.81 68.1318 156.944C68.0934 157.078 67.7863 157.979 67.4217 158.956C67.057 159.933 66.8075 160.776 66.8651 160.815C66.9227 160.872 67.4217 160.987 67.9782 161.064C68.8035 161.179 69.0338 161.16 69.149 160.91C69.2449 160.757 69.5712 159.799 69.9166 158.764C70.2429 157.73 70.5884 156.848 70.7035 156.791C70.7995 156.753 71.0106 156.753 71.1641 156.791C71.3753 156.868 71.3753 157.002 71.1449 157.711C71.0106 158.151 70.8955 158.592 70.8955 158.669C70.8955 158.745 71.3753 158.803 71.951 158.803C72.8339 158.803 73.045 158.745 73.2753 158.381C73.4288 158.151 73.6015 157.711 73.6591 157.423C73.7551 157.021 73.8894 156.887 74.2541 156.887C74.5228 156.887 74.7339 156.944 74.7339 156.983C74.7339 157.04 74.4268 157.883 74.0622 158.86C73.5248 160.278 73.4288 160.681 73.6207 160.872C73.7551 161.025 74.1581 161.121 74.4844 161.121C74.9834 161.121 75.1177 161.198 75.1177 161.485C75.1177 161.83 74.9834 161.868 74.0622 161.868C73.1793 161.868 72.949 161.811 72.7187 161.447C72.5076 161.121 72.4884 160.853 72.6227 160.336C72.7187 159.972 72.8147 159.608 72.8147 159.531C72.8147 159.454 72.3157 159.416 70.6268 159.473L70.1853 160.681C69.8399 161.6 69.648 161.868 69.3601 161.868C69.149 161.868 68.9762 161.792 68.9762 161.677C68.9762 161.549 68.8483 161.549 68.5924 161.677C68.3813 161.792 67.8823 161.888 67.4792 161.888C67.0954 161.888 66.5964 161.754 66.3853 161.619C66.059 161.37 65.9439 161.37 65.6176 161.619C65.4065 161.754 64.9075 161.888 64.5045 161.888C64.0055 161.888 63.66 161.734 63.3145 161.389C62.9499 161.025 62.8347 160.719 62.8347 160.048C62.8347 159.588 62.9883 158.879 63.161 158.496C63.3529 158.113 63.7943 157.557 64.1398 157.251C64.6004 156.848 64.9651 156.695 65.5216 156.695ZM64.1974 158.362C63.9863 158.669 63.7368 159.205 63.6792 159.569C63.564 160.125 63.6216 160.336 63.9479 160.681C64.1782 160.91 64.4853 161.102 64.6004 161.102C64.7348 161.102 65.0994 160.949 65.4257 160.757C65.8479 160.508 66.0974 160.125 66.3277 159.378C66.6156 158.458 66.6348 158.285 66.3853 157.902C66.2318 157.672 65.9439 157.481 65.7519 157.481C65.5792 157.481 65.2338 157.577 65.0035 157.653C64.7923 157.749 64.4277 158.075 64.1974 158.362ZM76.9986 156.695C77.1713 156.695 77.4016 156.733 77.4976 156.791C77.5935 156.848 77.3824 157.653 77.0369 158.573C76.6723 159.531 76.4612 160.393 76.5188 160.585C76.6147 160.796 76.845 160.91 77.2289 160.91C77.5935 160.91 77.9966 160.757 78.2461 160.489C78.4764 160.259 78.937 159.301 79.244 158.381C79.743 156.944 79.8774 156.695 80.242 156.695C80.4915 156.695 80.6835 156.753 80.6835 156.791C80.6835 156.848 80.4148 157.634 80.1077 158.515C79.7814 159.416 79.5319 160.316 79.5319 160.527C79.5319 160.872 79.6663 160.91 80.3956 160.91C80.8754 160.91 81.2592 161.006 81.2592 161.102C81.2592 161.217 81.2208 161.428 81.1633 161.581C81.0865 161.792 80.7986 161.888 80.242 161.888C79.8006 161.888 79.2441 161.754 78.9946 161.6C78.6107 161.332 78.5147 161.332 78.1309 161.6C77.9006 161.754 77.3824 161.888 76.9794 161.888C76.4228 161.888 76.1733 161.754 75.8854 161.351C75.6551 161.064 75.4632 160.719 75.444 160.585C75.4248 160.451 75.6935 159.531 76.039 158.535C76.4996 157.193 76.7491 156.695 76.9986 156.695ZM84.8098 156.714C85.0209 156.695 85.4239 156.868 85.7118 157.078C86.0957 157.347 86.2492 157.634 86.2492 158.036C86.2492 158.381 86.0573 158.822 85.8078 159.09C85.4623 159.493 85.136 159.608 83.9845 159.723C83.0825 159.818 82.6027 159.952 82.6027 160.106C82.6027 160.24 82.7754 160.508 82.9865 160.719C83.3128 161.045 83.6199 161.102 84.9057 161.102C85.7502 161.102 86.4411 161.16 86.4411 161.198C86.4411 161.255 86.4027 161.428 86.3452 161.581C86.2684 161.811 85.8653 161.868 84.4259 161.868C82.6603 161.868 82.5835 161.868 82.2188 161.351C81.9693 161.045 81.8158 160.527 81.835 160.106C81.835 159.703 81.9885 159.071 82.1996 158.669C82.3916 158.266 82.7754 157.768 83.0057 157.538C83.2552 157.308 83.6774 157.021 83.9461 156.925C84.2148 156.81 84.5987 156.714 84.8098 156.714ZM83.332 158.535C83.3512 158.726 83.6007 158.803 84.0805 158.803C84.4835 158.803 84.9249 158.745 85.0593 158.669C85.1936 158.592 85.2896 158.362 85.2512 158.132C85.2128 157.921 85.0209 157.73 84.8098 157.711C84.5987 157.691 84.1764 157.806 83.8694 157.96C83.5431 158.113 83.3128 158.381 83.332 158.535ZM101.353 156.695C102.236 156.695 102.985 156.772 103.023 156.848C103.062 156.925 102.831 157.768 102.505 158.707C102.179 159.684 101.968 160.585 102.044 160.776C102.14 161.025 102.39 161.102 102.946 161.102C103.369 161.102 103.714 161.16 103.714 161.198C103.714 161.255 103.676 161.428 103.618 161.581C103.541 161.792 103.234 161.888 102.505 161.888C101.948 161.888 101.392 161.773 101.257 161.639C101.123 161.504 101.027 161.179 101.008 160.91C101.008 160.661 101.238 159.876 101.488 159.186C101.756 158.515 101.91 157.883 101.833 157.806C101.756 157.711 101.507 157.653 101.257 157.653C100.912 157.653 100.778 157.845 100.547 158.573C100.394 159.071 100.01 159.914 99.7029 160.431C99.3958 160.968 98.9544 161.524 98.7049 161.658C98.4362 161.811 98.014 161.868 97.7069 161.811C97.3423 161.715 97.1503 161.524 97.0544 161.16C96.9968 160.872 97.016 160.412 97.112 160.144C97.2271 159.857 97.4766 159.646 97.7645 159.608C98.1675 159.531 98.2251 159.588 98.0908 159.895C97.9948 160.087 97.8988 160.451 97.8413 160.681C97.8029 160.91 97.8221 161.14 97.8988 161.198C97.9948 161.236 98.1867 161.179 98.3595 161.045C98.513 160.93 98.8009 160.604 98.9544 160.336C99.1271 160.087 99.4534 159.416 99.6645 158.86C100.068 157.864 100.068 157.845 99.6837 157.749C99.4726 157.711 99.2807 157.557 99.2615 157.423C99.2423 157.27 99.3383 157.059 99.4918 156.944C99.6453 156.791 100.394 156.695 101.353 156.695ZM126.361 156.695C126.572 156.695 126.745 156.772 126.745 156.848C126.745 156.925 126.534 157.634 126.265 158.42C125.996 159.224 125.785 160.106 125.785 160.393C125.785 160.796 125.9 160.949 126.207 161.006C126.457 161.045 126.86 160.968 127.129 160.834C127.512 160.642 127.743 160.182 128.222 158.65C128.702 157.174 128.933 156.695 129.182 156.695C129.374 156.695 129.585 156.753 129.662 156.848C129.719 156.925 129.508 157.787 129.182 158.764C128.76 159.952 128.626 160.604 128.76 160.738C128.856 160.853 129.201 160.949 129.489 160.949C129.815 160.968 130.218 160.796 130.449 160.546C130.679 160.316 131.12 159.397 131.447 158.477C131.946 157.04 132.08 156.791 132.502 156.733C132.848 156.676 132.944 156.714 132.867 156.925C132.79 157.059 132.502 157.941 132.195 158.879C131.639 160.566 131.639 160.566 132.023 160.853C132.234 161.006 132.579 161.121 132.79 161.102C133.001 161.083 133.232 161.083 133.308 161.083C133.404 161.102 133.193 161.639 132.886 162.252C132.406 163.21 132.214 163.401 131.831 163.401C131.351 163.401 131.351 163.401 131.639 162.827C131.792 162.52 131.927 162.175 131.927 162.06C131.927 161.964 131.811 161.888 131.677 161.888C131.562 161.888 131.312 161.754 131.159 161.6C130.89 161.332 130.833 161.332 130.43 161.581C130.199 161.754 129.681 161.868 129.278 161.868C128.894 161.868 128.414 161.734 128.222 161.581C127.935 161.332 127.839 161.332 127.455 161.6C127.224 161.754 126.687 161.888 126.265 161.868C125.804 161.868 125.363 161.734 125.152 161.543C124.96 161.351 124.806 160.949 124.806 160.623C124.825 160.316 124.941 159.627 125.094 159.09C125.248 158.573 125.516 157.826 125.689 157.423C125.881 156.925 126.092 156.695 126.361 156.695ZM136.917 156.714C137.185 156.714 137.569 156.81 137.78 156.963C137.991 157.098 138.222 157.442 138.298 157.73C138.394 158.056 138.356 158.439 138.183 158.764C138.049 159.052 137.761 159.358 137.569 159.454C137.358 159.531 136.667 159.665 135.995 159.742C135.036 159.837 134.805 159.933 134.805 160.202C134.805 160.393 134.997 160.661 135.228 160.834C135.516 161.025 136.13 161.121 137.051 161.121C138.279 161.121 138.452 161.16 138.394 161.447C138.356 161.734 138.106 161.792 136.821 161.83C135.976 161.868 135.093 161.849 134.844 161.792C134.613 161.734 134.287 161.428 134.134 161.102C133.98 160.796 133.846 160.336 133.846 160.106C133.846 159.876 134.057 159.243 134.306 158.707C134.556 158.19 135.017 157.596 135.324 157.366C135.611 157.155 135.995 156.925 136.149 156.868C136.302 156.791 136.648 156.733 136.917 156.714ZM135.477 158.611C135.535 158.726 135.899 158.822 136.283 158.822C136.725 158.822 137.108 158.707 137.243 158.535C137.435 158.305 137.435 158.171 137.243 157.941C137.128 157.787 136.878 157.653 136.705 157.653C136.533 157.653 136.168 157.826 135.88 158.036C135.611 158.266 135.42 158.515 135.477 158.611ZM141.043 156.695C141.196 156.695 141.35 156.81 141.369 156.925C141.408 157.098 141.523 157.098 141.849 156.925C142.098 156.81 142.54 156.695 142.866 156.695C143.269 156.695 143.557 156.868 143.826 157.232C144.037 157.519 144.21 157.883 144.21 158.036C144.21 158.209 144.037 158.86 143.845 159.473C143.499 160.546 143.499 160.642 143.787 160.872C143.96 161.006 144.401 161.121 144.728 161.121C145.265 161.121 145.342 161.179 145.265 161.485C145.188 161.811 145.016 161.868 144.114 161.868C143.192 161.868 143.02 161.811 142.77 161.389C142.501 160.968 142.521 160.796 142.885 159.627C143.116 158.918 143.25 158.19 143.173 157.998C143.116 157.806 142.866 157.653 142.578 157.653C142.31 157.653 141.926 157.749 141.715 157.845C141.503 157.96 141.12 158.458 140.87 158.956C140.621 159.454 140.275 160.316 140.102 160.872C139.872 161.639 139.699 161.868 139.412 161.868C139.2 161.868 139.028 161.754 139.028 161.581C139.028 161.428 139.354 160.374 139.757 159.243C140.16 158.113 140.563 157.078 140.64 156.944C140.717 156.81 140.889 156.695 141.043 156.695ZM147.108 156.695C147.299 156.695 147.472 156.81 147.472 156.944C147.472 157.078 147.242 157.883 146.954 158.707C146.685 159.55 146.513 160.393 146.57 160.585C146.647 160.796 146.896 160.93 147.223 160.93C147.53 160.93 147.952 160.796 148.182 160.642C148.489 160.431 148.796 159.78 149.2 158.515C149.641 157.136 149.852 156.695 150.102 156.695C150.293 156.695 150.485 156.733 150.543 156.791C150.601 156.848 150.37 157.73 150.025 158.764C149.679 159.799 149.449 160.7 149.487 160.776C149.545 160.853 149.967 160.91 150.447 160.91C150.927 160.91 151.311 161.006 151.311 161.102C151.311 161.217 151.272 161.428 151.215 161.581C151.138 161.792 150.85 161.888 150.293 161.888C149.852 161.888 149.295 161.754 149.046 161.6C148.662 161.332 148.566 161.332 148.182 161.6C147.952 161.754 147.434 161.888 147.031 161.888C146.474 161.888 146.225 161.754 145.918 161.351C145.611 160.949 145.534 160.661 145.63 160.106C145.687 159.703 145.975 158.784 146.244 158.036C146.609 157.021 146.82 156.695 147.108 156.695ZM153.921 156.695C154.074 156.695 154.209 156.81 154.228 156.925C154.266 157.098 154.381 157.098 154.708 156.925C154.957 156.81 155.303 156.695 155.475 156.695C155.667 156.695 156.051 156.868 156.876 157.462L157.625 157.04C158.239 156.695 158.469 156.638 158.911 156.791C159.199 156.906 159.583 157.232 159.736 157.519C160.024 157.998 160.005 158.132 159.563 159.397C159.141 160.585 159.122 160.776 159.371 160.93C159.525 161.025 159.947 161.102 160.273 161.102C160.772 161.102 160.907 161.198 160.907 161.485C160.907 161.83 160.772 161.868 159.89 161.868C159.218 161.868 158.776 161.773 158.546 161.543C158.354 161.351 158.201 161.083 158.201 160.91C158.22 160.757 158.393 160.106 158.623 159.473C158.853 158.86 158.988 158.19 158.911 157.998C158.834 157.787 158.604 157.672 158.258 157.672C157.932 157.672 157.567 157.883 157.279 158.19C157.03 158.477 156.55 159.416 156.205 160.24C155.706 161.504 155.514 161.792 155.13 161.849C154.784 161.907 154.688 161.849 154.784 161.658C154.842 161.524 155.13 160.7 155.437 159.857C155.744 158.994 155.917 158.19 155.859 157.998C155.763 157.787 155.514 157.653 155.149 157.653C154.746 157.653 154.439 157.826 154.132 158.19C153.902 158.477 153.422 159.435 153.076 160.297C152.597 161.543 152.385 161.868 152.078 161.868C151.867 161.868 151.695 161.792 151.695 161.677C151.695 161.581 152.04 160.527 152.481 159.339C152.923 158.151 153.364 157.078 153.46 156.944C153.575 156.81 153.767 156.695 153.921 156.695ZM164.265 156.714C164.726 156.714 165.167 156.848 165.359 157.04C165.686 157.366 165.705 157.366 165.801 157.04C165.858 156.848 166.069 156.695 166.281 156.695C166.492 156.695 166.664 156.81 166.664 156.944C166.664 157.078 166.377 157.979 166.031 158.956C165.494 160.489 165.455 160.757 165.705 160.93C165.858 161.025 166.281 161.102 166.607 161.102C167.106 161.102 167.221 161.179 167.183 161.447C167.144 161.715 166.914 161.792 166.185 161.83C165.532 161.868 165.129 161.792 164.937 161.6C164.688 161.351 164.592 161.332 164.265 161.581C164.054 161.734 163.536 161.868 163.114 161.868C162.519 161.888 162.231 161.773 161.866 161.389C161.483 160.987 161.387 160.7 161.387 159.991C161.406 159.435 161.578 158.803 161.828 158.324C162.077 157.902 162.538 157.366 162.884 157.136C163.267 156.848 163.766 156.714 164.265 156.714ZM162.538 158.803C162.385 159.129 162.25 159.646 162.25 159.952C162.25 160.374 162.385 160.623 162.73 160.815C162.999 160.987 163.383 161.064 163.594 161.006C163.805 160.968 164.189 160.661 164.457 160.336C164.764 159.991 164.975 159.435 165.052 158.86C165.11 158.247 165.071 157.864 164.899 157.711C164.764 157.557 164.457 157.462 164.246 157.462C164.016 157.462 163.613 157.634 163.325 157.845C163.056 158.075 162.692 158.496 162.538 158.803ZM96.8049 156.887L96.1332 158.803C95.7685 159.857 95.4614 160.815 95.4614 160.91C95.4614 161.025 95.6726 161.102 95.9412 161.102C96.2099 161.102 96.421 161.14 96.421 161.16C96.421 161.179 96.2099 161.696 95.9412 162.309C95.5958 163.114 95.3655 163.401 95.116 163.363C94.9241 163.325 94.7897 163.152 94.8089 162.922C94.8281 162.712 94.8857 162.405 94.9624 162.213C95.0584 161.907 94.9241 161.868 92.0068 161.868L91.623 162.539C91.3351 163.037 91.1048 163.21 90.7594 163.21C90.2987 163.21 90.2795 163.21 90.529 162.597C90.6634 162.252 90.8745 161.83 90.9705 161.639C91.0664 161.447 91.3543 161.198 91.6038 161.064C91.8533 160.93 92.218 160.604 92.4291 160.336C92.621 160.087 92.9473 159.397 93.523 157.749L93.0432 157.711C92.7937 157.691 92.5826 157.615 92.5826 157.557C92.5826 157.519 92.6402 157.347 92.6978 157.174C92.7745 156.963 93.1968 156.887 96.8049 156.887ZM93.523 159.627C93.216 160.336 93.024 160.968 93.1008 161.025C93.1968 161.083 93.5422 161.121 93.8685 161.121C94.4826 161.121 94.521 161.083 94.9816 159.627C95.2503 158.803 95.4614 158.036 95.4614 157.902C95.4614 157.768 95.2119 157.653 94.8857 157.653C94.489 157.666 94.2587 157.781 94.1948 157.998C94.1372 158.19 93.8301 158.918 93.523 159.627ZM108.071 156.887C108.877 156.887 109.472 156.983 109.472 157.078C109.472 157.193 109.203 157.998 108.877 158.86C108.531 159.723 108.32 160.585 108.397 160.776C108.474 161.025 108.723 161.102 109.28 161.102C109.894 161.102 110.028 161.179 109.99 161.447C109.952 161.715 109.721 161.792 108.934 161.83C108.186 161.868 107.86 161.792 107.629 161.543C107.399 161.313 107.341 161.025 107.437 160.585C107.514 160.106 107.476 159.952 107.265 159.952C107.111 159.952 106.65 160.374 106.267 160.891C105.883 161.409 105.384 161.888 105.153 161.945C104.923 162.003 104.635 161.926 104.424 161.734C104.232 161.543 104.079 161.121 104.098 160.776C104.098 160.431 104.136 160.029 104.194 159.857C104.251 159.703 104.463 159.569 104.674 159.569C104.885 159.569 105.096 159.665 105.153 159.761C105.211 159.876 105.153 160.01 105.058 160.048C104.942 160.106 104.866 160.316 104.866 160.527C104.866 160.757 104.942 160.968 105.058 161.006C105.153 161.064 105.576 160.719 106.689 159.358L106.247 159.09C105.96 158.899 105.806 158.611 105.806 158.151C105.787 157.653 105.883 157.423 106.228 157.193C106.535 156.983 107.13 156.887 108.071 156.887ZM106.555 158.247C106.574 158.458 106.727 158.669 106.881 158.707C107.034 158.764 107.341 158.803 107.553 158.803C107.764 158.803 108.013 158.65 108.128 158.42C108.224 158.209 108.32 157.921 108.32 157.749C108.32 157.577 108.128 157.481 107.783 157.481C107.495 157.481 107.092 157.577 106.9 157.672C106.689 157.787 106.535 158.036 106.555 158.247Z"
         fill="#0045B2" />
      <path
         d="M108.993 79.4205C109.415 79.2289 110.125 78.999 110.605 78.9223C111.085 78.8457 111.948 78.8265 112.524 78.884C113.1 78.9223 114.271 79.1714 115.115 79.4205C115.959 79.6504 117.341 80.1486 118.186 80.5127C119.03 80.8767 119.625 81.2216 119.529 81.2791C119.433 81.3366 118.646 81.1833 117.802 80.9342C116.957 80.6659 115.537 80.3211 114.635 80.1678C113.733 80.0145 112.409 79.8804 111.66 79.8804C110.912 79.8804 109.799 80.0145 109.165 80.1678C108.532 80.3211 107.976 80.4169 107.918 80.3594C107.86 80.3211 107.918 80.1678 108.033 80.0336C108.148 79.8995 108.59 79.6121 108.993 79.4205Z"
         fill="white" />
      <path
         d="M86.3268 83.5592C87.3823 82.9844 88.3228 82.4479 88.4187 82.3521C88.5339 82.2563 88.7258 82.1796 88.8601 82.1796C88.9945 82.1796 89.1096 82.2563 89.1096 82.3712C89.1096 82.467 88.7066 82.9077 88.1884 83.3293C87.6894 83.77 86.6914 84.4023 85.9429 84.7663C85.1944 85.1304 83.9661 85.6094 83.1985 85.8201C82.1813 86.1075 81.8166 86.1459 81.8166 85.9734C81.8166 85.8393 82.3924 85.4752 83.1025 85.1687C83.8318 84.8621 85.2712 84.134 86.3268 83.5592Z"
         fill="white" />
      <path
         d="M118.032 87.2955C116.574 86.8548 115.403 86.4141 115.422 86.3183C115.441 86.2225 116.075 86.2034 116.823 86.2608C117.572 86.3183 119.491 86.7398 121.065 87.1614C122.658 87.6021 124.078 88.0811 124.231 88.2344C124.481 88.4643 124.442 88.5026 123.847 88.5026C123.483 88.5026 122.619 88.4068 121.928 88.311C121.237 88.1961 119.491 87.7554 118.032 87.2955Z"
         fill="white" />
      <path
         d="M105.193 88.0044C104.674 87.5446 104.31 87.0656 104.367 86.9698L104.367 86.9697C104.444 86.874 104.521 86.7782 104.559 86.7782C104.617 86.7782 104.943 86.9123 105.289 87.0847C105.615 87.2572 106.67 88.0236 107.63 88.79C108.59 89.5565 109.799 90.457 110.317 90.7827C110.854 91.1085 111.795 91.5683 112.428 91.7791C113.061 92.009 113.714 92.3156 113.868 92.4689C114.117 92.6988 114.098 92.718 113.733 92.718C113.484 92.718 112.658 92.5263 111.91 92.2773C111.142 92.0473 109.856 91.4534 109.07 90.9552C108.283 90.4762 107.285 89.7864 106.862 89.4607C106.44 89.1158 105.692 88.4643 105.193 88.0044Z"
         fill="white" />
      <path
         d="M82.3924 89.7672C84.0237 89.2882 86.0581 88.6559 86.9025 88.3493C87.747 88.0428 88.4955 87.7745 88.5531 87.7554C88.6298 87.7554 88.6682 87.8512 88.649 87.9853C88.6298 88.1003 87.8813 88.5793 86.9793 89.02C86.0965 89.4607 84.4651 90.1313 83.352 90.4953C82.2388 90.8594 80.6843 91.3001 79.8974 91.4725C79.1105 91.645 77.6711 91.8174 76.7307 91.894C75.1953 91.9898 75.0418 91.9707 75.2913 91.7024C75.4448 91.5492 76.4428 91.2426 77.4984 91.0127C78.5539 90.8019 80.761 90.2271 82.3924 89.7672Z"
         fill="white" />
      <path
         d="M100.03 89.3265C99.8381 88.7709 99.7037 88.2152 99.7613 88.1194L99.7613 88.1194C99.8381 88.0236 99.9148 87.9278 99.9532 87.9278C100.011 87.9278 100.721 88.6176 101.546 89.4798C102.352 90.342 103.504 91.3959 104.08 91.8557C104.655 92.2964 105.672 92.967 106.344 93.3119C106.997 93.676 107.534 94.0592 107.534 94.155C107.534 94.2508 107.457 94.2316 107.381 94.0975C107.265 93.9059 107.169 93.9059 106.901 94.0975C106.575 94.3274 106.747 94.4232 108.34 95.0364C109.319 95.4196 110.01 95.7836 109.895 95.8603C109.76 95.9178 109.146 95.8411 108.551 95.6687C107.937 95.4962 106.843 95.0747 106.095 94.7298C105.346 94.4041 104.233 93.7909 103.6 93.3502C102.966 92.9287 101.988 92.0665 101.431 91.4534C100.817 90.7827 100.26 89.9205 100.03 89.3265Z"
         fill="white" />
      <path
         d="M64.9851 95.5729C64.4285 95.3813 64.0063 95.113 64.0639 95.0172C64.1406 94.9214 64.2366 94.8256 64.3134 94.8256C64.3901 94.8256 65.6184 95.0747 67.0386 95.4004C68.4589 95.707 70.6084 96.0519 71.7983 96.1669C73.3145 96.301 74.6195 96.301 76.2125 96.1477C77.4408 96.0327 79.3216 95.7836 80.3772 95.592C81.4328 95.4004 82.3348 95.2855 82.3924 95.343C82.45 95.4004 82.3156 95.5537 82.1045 95.707C81.8934 95.8603 81.2984 96.1094 80.761 96.2818C80.2429 96.4351 78.861 96.6842 77.6903 96.8375C76.5196 96.9908 74.7155 97.1249 73.6599 97.1249C72.6044 97.1249 70.9155 96.9908 69.9175 96.8375C68.9195 96.6842 67.6144 96.4159 67.0386 96.2435C66.4629 96.0711 65.5225 95.7645 64.9851 95.5729Z"
         fill="white" />
   </symbol>


   <symbol id="icon-arrow-down" fill="none">

   </symbol>
   <symbol id="icon-arrow-down" fill="none">

   </symbol>
   <symbol id="icon-arrow-down" fill="none">

   </symbol>
   <symbol id="icon-arrow-down" fill="none">

   </symbol>
   <symbol id="icon-arrow-down" fill="none">

   </symbol>
   <symbol id="icon-arrow-down" fill="none">

   </symbol>
   <symbol id="icon-arrow-down" fill="none">

   </symbol>
</svg>