<svg width="131" height="74" viewBox="0 0 131 74" fill="none" xmlns="http://www.w3.org/2000/svg">
   <mask id="mask0_2827_6898" style="mask-type:luminance" maskUnits="userSpaceOnUse" x="0" y="0" width="131"
      height="74">
      <path d="M131 0H0V74H131V0Z" fill="white" />
   </mask>
   <g mask="url(#mask0_2827_6898)">
      <path
         d="M130.475 32.4412C129.366 30.6298 126.905 30.328 124.104 30.6043C125.891 28.9422 126.788 27.4487 126.15 25.944C124.651 22.4091 118.08 23.7692 116.101 24.2668L116.443 25.6174L115.869 25.4576L112.151 38.9456L111.752 38.9976L111.592 37.8627C111.248 37.9106 106.276 38.5559 102.111 39.0958L103.228 35.5441L110.254 34.6656L109.862 31.5763L104.251 32.2759L105.224 29.1819L105.208 29.1762L114.457 27.5725L113.924 24.5L100.07 26.9025L100.603 29.9742L101.769 29.7713L98.6996 39.5383L96.6336 39.8058L99.2269 33.2663L96.3299 32.117L94.832 35.8939C91.2389 36.5417 88.0852 35.8796 87.0777 34.8405C86.823 34.5777 86.8344 34.4148 86.8618 34.2814C86.8707 34.259 88.1171 32.0036 99.6103 30.074L99.0944 26.999C89.5933 28.5964 84.4558 30.8048 83.8298 33.5666C83.5464 34.8213 83.9049 36.0425 84.8411 37.0089C85.7626 37.9593 87.263 38.6334 89.0647 38.9832L83.5063 43.0157L83.2668 41.63L80.9194 42.039C82.1651 39.258 84.3998 33.5267 82.9452 31.0172C82.721 30.6225 82.3975 30.2929 82.0077 30.0608C81.6174 29.8287 81.1735 29.7019 80.72 29.693C77.7014 29.5748 73.8032 33.6497 67.6996 41.2363C66.8857 42.2474 66.1827 43.1212 65.7579 43.5924L66.766 44.5037L62.2022 45.2975C63.9212 43.2298 65.1045 41.0358 65.7152 39.3474C66.4769 37.2341 66.0769 35.3109 64.6975 34.4475C62.8753 33.307 60.3276 34.2926 56.9351 37.4633L55.3382 35.7302C55.2585 35.7997 55.1786 35.8771 55.0908 35.9602L54.8513 34.4731L41.2518 36.6583L41.7453 39.7364L42.3736 39.6358C40.6841 43.6427 38.1212 50.5696 37.7651 51.54L40.6866 52.6198C41.8379 49.5002 44.9101 41.3465 46.0431 39.0463L53.1426 37.905C50.6675 40.5366 47.4643 44.6139 47.8435 47.7654C47.9928 49.0098 48.6635 49.9945 49.7821 50.6119C50.4208 50.9666 51.2192 51.1383 52.0975 51.1383C53.8612 51.1383 55.977 50.4466 57.9467 49.1527C59.2605 48.2796 60.4614 47.2474 61.522 46.0794L61.9444 48.5074L80.6226 45.2584L82.3835 47.6872L93.2978 39.7691L91.5089 44.2816L94.4034 45.4317L96.449 40.2739L96.7922 42.9295C97.3023 42.8632 107.651 41.5238 111.004 41.0861L111.135 42.2154C115.193 41.745 128.596 39.8777 130.675 35.6064C131.169 34.5849 131.1 33.4604 130.475 32.4412ZM56.2325 46.5498C54.0384 47.9875 51.9514 48.2502 51.2879 47.8845C51.0237 47.7391 50.963 47.6057 50.9374 47.3948C50.7522 45.8518 52.9534 42.487 56.2069 39.2204L57.9068 40.8761C60.999 37.6949 62.516 37.2054 62.9719 37.1367C62.9959 37.3531 62.9719 37.7604 62.7811 38.29C61.8509 40.8689 59.4653 44.4222 56.2325 46.5498ZM70.1248 43.1954C72.1207 40.7116 78.0383 33.359 80.3144 32.8406C80.5156 34.1768 79.3043 38.5 77.404 42.1851L78.0841 42.5357L69.4446 44.0381C69.6586 43.774 69.8859 43.4915 70.1273 43.1906L70.1248 43.1954ZM123.14 27.0246C122.552 28.114 119.491 30.3791 118.294 31.2624C118.004 31.4773 117.735 31.6777 117.486 31.863L117.318 31.9014L118.69 26.9256C120.856 26.5926 122.637 26.6963 123.145 27.0198L123.14 27.0246ZM115.516 38.4337L116.448 35.0553L116.489 35.2685C117.084 35.1535 117.778 34.9946 118.581 34.811C120.456 34.3812 122.788 33.8469 124.758 33.688C127.411 33.4747 127.808 34.0681 127.811 34.0738C127.838 34.1165 127.861 34.1617 127.879 34.2088C127.66 35.3445 122.52 37.2054 115.522 38.4289L115.516 38.4337Z"
         fill="#D5E1F4" />
      <path
         d="M37.7994 51.022L37.3539 47.9375L25.218 49.689C25.6443 48.4407 26.1633 47.0837 26.6623 45.837L26.8148 46.8561L35.8177 45.5064L35.3554 42.4227L27.5876 43.5879C27.8407 42.9866 28.0603 42.4762 28.2224 42.1032L40.1299 39.8949L39.5623 36.8296L23.9461 39.7256L24.5113 42.7908L24.5417 42.7853C23.6634 44.8898 22.4778 47.8617 21.7848 50.1842L19.5293 50.5109L31.8176 20.166L28.9298 18.9951L20.1815 40.5961C18.0841 40.9108 16.1416 41.2111 14.409 41.4851L17.9268 33.3154L15.0645 32.0822L10.7635 42.0712C7.80931 42.5545 6.03283 42.8652 6.00089 42.8699L6.53981 45.9409C6.56376 45.936 7.561 45.7619 9.29915 45.472L0 67.0681L2.86232 68.3012L12.9495 44.8722C14.6517 44.5983 16.6326 44.286 18.8218 43.9521L7.13463 72.8145L10.0233 73.9845L19.3903 50.8551L19.7895 53.6225L37.7994 51.022Z"
         fill="#D5E1F4" />
      <path
         d="M38.8022 66.0427C37.4291 66.0427 36.5242 65.4175 36.5242 64.3056C36.5242 63.1937 37.4291 62.573 38.8022 62.573C40.0504 62.573 40.9598 63.1312 41.049 64.0153H40.2153C40.1262 63.4884 39.5199 63.1713 38.8156 63.1713C37.9864 63.1713 37.3846 63.5688 37.3846 64.3056C37.3846 65.0335 37.9864 65.4354 38.8156 65.4354C39.5467 65.4354 40.1529 65.1317 40.2287 64.5824H41.0579C40.9821 65.4756 40.0593 66.0427 38.8022 66.0427ZM43.6913 66.0427C42.2514 66.0427 41.3598 65.422 41.3598 64.3056C41.3598 63.1892 42.2514 62.573 43.6913 62.573C45.1268 62.573 46.0184 63.1892 46.0184 64.3056C46.0184 65.422 45.1268 66.0427 43.6913 66.0427ZM42.2202 64.3056C42.2202 65.0335 42.8176 65.4354 43.6913 65.4354C44.5606 65.4354 45.158 65.0156 45.158 64.3056C45.158 63.5911 44.5606 63.1758 43.6913 63.1758C42.8176 63.1758 42.2202 63.5732 42.2202 64.3056ZM48.4615 66.0427C47.1598 66.0427 46.3217 65.5336 46.3217 64.7655H47.1464C47.1464 65.2835 47.6591 65.4398 48.4615 65.4398C49.1971 65.4398 49.6607 65.3059 49.6607 64.9174V64.9129C49.6607 64.6807 49.3888 64.5289 48.8226 64.5289H47.9177V64.0019H48.8226C49.2328 64.0019 49.5716 63.9126 49.5716 63.6224V63.6179C49.5716 63.3723 49.2818 63.1713 48.4704 63.1713C47.5744 63.1713 47.1776 63.4259 47.1776 63.8099H46.3574C46.3574 63.0954 47.1375 62.573 48.466 62.573C49.6919 62.573 50.4275 62.9659 50.4275 63.5197V63.5241C50.4275 63.9841 50.0218 64.2163 49.6028 64.2475C50.0218 64.2877 50.5077 64.5155 50.5077 65.0111V65.0156C50.5077 65.681 49.6964 66.0427 48.4615 66.0427ZM51.5625 66.5517H50.7511V65.3416H50.7868C51.4778 65.3416 51.5848 64.5289 51.5848 63.8814V62.6444H54.9238V65.3416H55.4186V66.5517H54.6073V65.9623H51.5625V66.5517ZM51.9815 65.3416H54.0723V63.2651H52.3961V63.7831C52.3961 64.4708 52.2758 65.0201 51.9815 65.3416ZM55.5153 65.9623L57.245 62.6444H58.3773L60.1203 65.9623H59.1708L58.8186 65.23H56.8125L56.4559 65.9623H55.5153ZM57.0845 64.6628H58.5467L57.8557 63.2339L57.82 63.1579H57.8111L57.7799 63.2339L57.0845 64.6628ZM63.8334 65.9623V64.5423H61.4124V65.9623H60.561V62.6444H61.4124V63.9171H63.8334V62.6444H64.6849V65.9623H63.8334ZM67.5998 66.0427C66.1598 66.0427 65.2682 65.422 65.2682 64.3056C65.2682 63.1892 66.1598 62.573 67.5998 62.573C69.0352 62.573 69.9268 63.1892 69.9268 64.3056C69.9268 65.422 69.0352 66.0427 67.5998 66.0427ZM66.1286 64.3056C66.1286 65.0335 66.726 65.4354 67.5998 65.4354C68.4691 65.4354 69.0664 65.0156 69.0664 64.3056C69.0664 63.5911 68.4691 63.1758 67.5998 63.1758C66.726 63.1758 66.1286 63.5732 66.1286 64.3056ZM72.4774 65.9623V62.6444H73.3289V63.9617H74.158L75.219 62.6444H76.231L74.8668 64.2565V64.2833L76.4182 65.9623H75.4107L74.158 64.5869H73.3289V65.9623H72.4774ZM78.6631 66.0427C77.2232 66.0427 76.3316 65.422 76.3316 64.3056C76.3316 63.1892 77.2232 62.573 78.6631 62.573C80.0986 62.573 80.9902 63.1892 80.9902 64.3056C80.9902 65.422 80.0986 66.0427 78.6631 66.0427ZM77.192 64.3056C77.192 65.0335 77.7893 65.4354 78.6631 65.4354C79.5324 65.4354 80.1298 65.0156 80.1298 64.3056C80.1298 63.5911 79.5324 63.1758 78.6631 63.1758C77.7893 63.1758 77.192 63.5732 77.192 64.3056ZM81.5742 65.9623V62.6444H82.5816L84.084 64.7387L84.1241 64.8057L84.1642 64.7387L85.6621 62.6444H86.674V65.9623H85.8672V63.6313L85.8716 63.5732L85.8449 63.6179L84.4896 65.4488H83.7585L82.4033 63.6179L82.3766 63.5732L82.381 63.6313V65.9623H81.5742ZM87.1186 65.9623L88.8482 62.6444H89.9806L91.7236 65.9623H90.7741L90.4219 65.23H88.4158L88.0592 65.9623H87.1186ZM88.6878 64.6628H90.15L89.459 63.2339L89.4233 63.1579H89.4144L89.3832 63.2339L88.6878 64.6628ZM95.4365 65.9623V64.5423H93.0158V65.9623H92.1643V62.6444H93.0158V63.9171H95.4365V62.6444H96.2879V65.9623H95.4365ZM97.6247 66.5517H96.8133V65.3416H96.849C97.54 65.3416 97.647 64.5289 97.647 63.8814V62.6444H100.986V65.3416H101.481V66.5517H100.669V65.9623H97.6247V66.5517ZM98.0437 65.3416H100.134V63.2651H98.4583V63.7831C98.4583 64.4708 98.3379 65.0201 98.0437 65.3416ZM104.047 66.0427C102.607 66.0427 101.716 65.422 101.716 64.3056C101.716 63.1892 102.607 62.573 104.047 62.573C105.483 62.573 106.374 63.1892 106.374 64.3056C106.374 65.422 105.483 66.0427 104.047 66.0427ZM102.576 64.3056C102.576 65.0335 103.174 65.4354 104.047 65.4354C104.917 65.4354 105.514 65.0156 105.514 64.3056C105.514 63.5911 104.917 63.1758 104.047 63.1758C103.174 63.1758 102.576 63.5732 102.576 64.3056ZM111.234 65.9623H110.422V63.5688L110.404 63.5911L107.854 65.9623H106.958V62.6444H107.765V65.0469L107.792 65.0156L110.329 62.6444H111.234V65.9623ZM108.082 61.5459H108.55C108.532 61.8317 108.652 62.0014 108.969 62.0014C109.294 62.0014 109.41 61.8317 109.392 61.5459H109.86C109.892 62.0818 109.62 62.3631 108.969 62.3631C108.322 62.3631 108.055 62.0818 108.082 61.5459Z"
         fill="#D5E1F4" />
   </g>
</svg>