<svg width="201" height="25" viewBox="0 0 201 25" fill="none" xmlns="http://www.w3.org/2000/svg">
<g clip-path="url(#clip0_3015_350)">
<path d="M5.36752 13.4859C4.11811 13.4859 3.10157 12.5023 3.10157 11.2931C3.10157 10.084 4.11811 9.1003 5.36752 9.1003C6.61705 9.1003 7.63346 10.084 7.63346 11.2931C7.63346 12.5023 6.61705 13.4859 5.36752 13.4859ZM5.36752 6.09894C2.4031 6.09894 0 8.42437 0 11.2931C0 14.1618 2.4031 16.4873 5.36752 16.4873C8.33181 16.4873 10.7349 14.1618 10.7349 11.2931C10.7349 8.42437 8.33181 6.09894 5.36752 6.09894Z" fill="white"/>
<path d="M9.21405 16.6013V16.5981H5.30969V19.4855H7.62568C7.87368 20.2203 7.69894 21.063 7.09617 21.6461C6.24373 22.4728 4.85345 22.4728 4.00101 21.6461C3.14677 20.8196 3.14677 19.4758 4.00101 18.6493L3.97432 18.6234H0.607676C0.0366029 20.3539 0.462826 22.3246 1.88146 23.6973C3.90774 25.6582 7.18945 25.6582 9.21572 23.6973C11.2403 21.7364 11.242 18.559 9.21572 16.5981L9.21405 16.6013Z" fill="white"/>
<path d="M196.307 2.13952L194.096 -0.000101089L191.886 2.13952L187.702 6.18672L189.913 8.32617L194.096 4.27898L198.278 8.32617L200.489 6.18672L196.307 2.13952Z" fill="white"/>
<path d="M15.3713 9.88245C15.7105 9.08682 16.3839 8.62184 17.2792 8.62184C18.0353 8.62184 18.8971 8.95459 19.1581 9.88245H15.3713ZM22.5197 10.5177C22.1763 7.7866 19.8686 6.09812 17.223 6.09812V6.09788C14.1648 6.09788 11.8945 8.36743 11.8945 11.3334C11.8945 14.287 14.146 16.5566 17.3171 16.5566C19.8313 16.5566 22.1205 15.1403 22.5197 12.659L19.2373 12.6585C19.0431 13.5245 18.2364 13.942 17.3356 13.942C16.1171 13.942 15.254 13.1916 15.1406 11.919H22.501C22.551 11.5676 22.5958 11.1236 22.5197 10.5177Z" fill="white"/>
<path d="M24.3337 16.3213H27.5232V9.28219H30.7881V16.3213H33.9777V6.33471H24.3337V16.3213Z" fill="white"/>
<path d="M39.3293 9.88245C39.6685 9.08682 40.342 8.62184 41.2373 8.62184C41.9933 8.62184 42.8551 8.95459 43.1162 9.88245H39.3293ZM46.478 10.5177C46.1343 7.7866 43.8268 6.09812 41.1811 6.09812V6.09788C38.1229 6.09788 35.8525 8.36743 35.8525 11.3334C35.8525 14.287 38.1041 16.5566 41.2751 16.5566C43.7894 16.5566 46.0785 15.1403 46.478 12.659L43.1953 12.6585C43.0011 13.5245 42.1944 13.942 41.2937 13.942C40.0751 13.942 39.212 13.1916 39.0986 11.919H46.4588C46.5088 11.5676 46.5537 11.1236 46.478 10.5177Z" fill="white"/>
<path d="M48.293 16.3213H51.4826V9.28219H54.9903V6.33471H48.293V16.3213Z" fill="white"/>
<path d="M61.52 13.615C60.3011 13.615 59.344 12.7254 59.344 11.3272C59.344 9.94726 60.2819 9.03939 61.52 9.04262C62.7581 9.03939 63.6973 9.94726 63.6973 11.3272C63.6973 12.7254 62.7581 13.615 61.52 13.615ZM63.6973 7.46254C63.0301 6.65127 62.0691 6.09788 60.7515 6.09788C58.1803 6.09788 56.1172 8.22241 56.1172 11.3272C56.1172 14.4139 58.1431 16.5566 60.7694 16.5566C62.0807 16.5566 63.034 16.0261 63.6973 15.2428V16.3205H66.8869V6.33391H63.6973V7.46254Z" fill="white"/>
<path d="M69.1377 16.3213H72.3273V2.33993H69.1377V16.3213Z" fill="white"/>
<path d="M83.6553 16.3477H86.8449V9.30856H89.7086V16.3477H92.8982V9.30856H95.7503V16.3477H98.9412V6.36108H83.6553V16.3477Z" fill="white"/>
<path d="M106.226 13.6414C105.006 13.6414 104.049 12.7518 104.049 11.3537C104.049 9.97376 104.987 9.06589 106.226 9.06912C107.464 9.06589 108.402 9.97376 108.402 11.3537C108.402 12.7518 107.464 13.6414 106.226 13.6414ZM108.402 7.48891C107.735 6.67776 106.775 6.12425 105.457 6.12425C102.887 6.12425 100.822 8.24878 100.822 11.3537C100.822 14.4404 102.848 16.583 105.476 16.583C106.786 16.583 107.74 16.0526 108.402 15.2693V16.347H111.592V6.3604H108.402V7.48891Z" fill="white"/>
<path d="M113.845 16.3486H117.034V9.30953H120.542V6.36206H113.845V16.3486Z" fill="white"/>
<path d="M132.001 6.3611H128.027L125.231 10.1679V2.36627H122.042V16.3477H125.231V12.3964L128.277 16.3477H132.288L128.177 11.1846L132.001 6.3611Z" fill="white"/>
<path d="M136.046 9.90988C136.384 9.11421 137.058 8.64933 137.954 8.64933C138.71 8.64933 139.572 8.982 139.832 9.90988H136.046ZM143.193 10.545C142.852 7.81405 140.543 6.12542 137.897 6.12542V6.12515C134.839 6.12515 132.569 8.39495 132.569 11.3607C132.569 14.3145 134.821 16.584 137.991 16.584C140.505 16.584 142.795 15.1677 143.193 12.6864L139.912 12.6859C139.718 13.552 138.911 13.9695 138.011 13.9695C136.791 13.9695 135.928 13.219 135.815 11.9464H143.175C143.226 11.5949 143.271 11.1509 143.193 10.545Z" fill="white"/>
<path d="M149.214 4.16295H146.025V6.36115H144.257V9.26618H146.025V16.3477H152.332V13.4425H149.214V9.26618H152.332V6.36115H149.214V4.16295Z" fill="white"/>
<path d="M155.795 1.51255C154.654 1.51255 153.804 2.2253 153.804 3.29129C153.804 4.35785 154.654 5.07031 155.795 5.07031C156.936 5.07031 157.787 4.35785 157.787 3.29129C157.787 2.2253 156.936 1.51255 155.795 1.51255Z" fill="white"/>
<path d="M154.199 16.3477H157.389V6.3611H154.199V16.3477Z" fill="white"/>
<path d="M159.643 16.3477H162.832V9.3086H166.098V16.3477H169.287V6.36112H159.643V16.3477Z" fill="white"/>
<path d="M176.566 13.5336C175.347 13.5336 174.389 12.6439 174.389 11.3002C174.389 9.97487 175.329 9.06686 176.566 9.07015C177.804 9.06686 178.742 9.97487 178.742 11.3002C178.742 12.6439 177.804 13.5336 176.566 13.5336ZM178.742 7.48567C178.075 6.67877 177.116 6.12522 175.797 6.12522C173.226 6.12522 171.162 8.24977 171.162 11.3002C171.162 14.3325 173.189 16.4752 175.816 16.4752C177.127 16.4752 178.079 15.9444 178.742 15.1654V17.6086H172.474V20.52L181.932 20.5244V6.36147H178.742V7.48567Z" fill="white"/>
</g>
<defs>
<clipPath id="clip0_3015_350">
<rect width="201" height="25" fill="white"/>
</clipPath>
</defs>
</svg>
