<svg width="302" height="101" viewBox="0 0 302 101" fill="none" xmlns="http://www.w3.org/2000/svg">
   <g clip-path="url(#clip0_1181_4588)">
      <rect width="302" height="101" fill="white" />
      <path d="M302 0H0V101H302V0Z" fill="white" />
      <path
         d="M235.008 42.0082C234.694 40.7208 233.921 39.5936 232.834 38.8397C231.399 37.7704 229.747 37.0317 227.995 36.6762C225.768 36.159 223.487 35.9131 221.202 35.9437C218.847 35.9012 216.496 36.1588 214.206 36.7103C212.488 37.0942 210.872 37.8436 209.468 38.9078C208.409 39.6831 207.662 40.8132 207.362 42.0933C207.103 44.0467 206.995 46.0173 207.039 47.9874V52.7231C206.986 54.7279 207.099 56.7336 207.379 58.7194C207.717 59.9728 208.479 61.0691 209.536 61.8198C210.969 62.8848 212.614 63.6284 214.358 64.0002C216.587 64.5067 218.866 64.7525 221.151 64.7327C223.495 64.7609 225.834 64.4977 228.113 63.9491C229.836 63.5778 231.454 62.8272 232.851 61.7516C233.906 60.9756 234.647 59.8449 234.94 58.5661C235.226 56.6096 235.34 54.6315 235.28 52.655V47.9874C235.347 45.9875 235.227 43.9857 234.923 42.0082M226.942 51.6329C226.963 52.6848 226.924 53.7371 226.823 54.7843C226.72 55.4295 226.417 56.0257 225.957 56.4878C225.425 57.0423 224.757 57.4475 224.021 57.6632C223.106 57.9655 222.147 58.1095 221.185 58.0891C220.248 58.0978 219.315 57.9657 218.417 57.6973C217.677 57.4755 217.001 57.0782 216.447 56.5389C216.006 56.063 215.706 55.4731 215.581 54.8354C215.463 53.7723 215.418 52.7023 215.445 51.6329V49.0947C215.418 48.0423 215.463 46.9893 215.581 45.9432C215.666 45.296 215.965 44.6961 216.43 44.2397C216.965 43.6927 217.632 43.2937 218.366 43.0814C219.283 42.794 220.241 42.656 221.202 42.6725C222.14 42.6531 223.074 42.7854 223.97 43.0643C224.719 43.2757 225.403 43.6742 225.957 44.2227C226.408 44.6939 226.714 45.2852 226.84 45.9262C226.941 46.9848 226.981 48.0485 226.959 49.1117L226.942 51.6329Z"
         fill="#0045B2" />
      <path
         d="M126.801 42.008C126.49 40.7194 125.716 39.5911 124.628 38.8395C123.186 37.7704 121.528 37.0319 119.771 36.6761C117.544 36.1589 115.264 35.913 112.978 35.9436C110.623 35.8981 108.272 36.1558 105.982 36.7102C104.26 37.0977 102.64 37.8467 101.227 38.9077C100.182 39.6897 99.4478 40.8187 99.1553 42.0932C98.879 44.045 98.7654 46.0165 98.8156 47.9873V52.723C98.7561 54.7284 98.8755 56.7352 99.1722 58.7193C99.5179 59.9828 100.3 61.0818 101.38 61.8196C102.826 62.885 104.481 63.6284 106.237 64.0001C108.465 64.508 110.744 64.7538 113.029 64.7326C115.368 64.7629 117.701 64.4996 119.975 63.949C121.701 63.5757 123.325 62.8255 124.729 61.7515C125.793 60.9805 126.541 59.8486 126.835 58.566C127.105 56.6078 127.212 54.6308 127.158 52.6549V47.9873C127.216 45.9875 127.097 43.9865 126.801 42.008ZM118.82 51.5987C118.844 52.6515 118.793 53.7046 118.667 54.7501C118.579 55.3962 118.28 55.995 117.818 56.4536C117.293 57.0081 116.631 57.4136 115.899 57.629C114.985 57.9313 114.026 58.0753 113.063 58.0549C112.126 58.0649 111.193 57.9328 110.295 57.6631C109.562 57.4494 108.895 57.0506 108.359 56.5047C107.88 56.0496 107.559 55.4527 107.442 54.8012C107.341 53.7369 107.302 52.6676 107.323 51.5987V49.0945C107.323 47.6125 107.323 46.5563 107.425 45.9431C107.551 45.3021 107.857 44.7108 108.308 44.2396C108.839 43.6875 109.508 43.2876 110.244 43.0812C112.063 42.5475 113.996 42.5475 115.814 43.0812C116.56 43.2881 117.24 43.6875 117.784 44.2396C118.255 44.6965 118.564 45.2943 118.667 45.9431C118.794 46.9999 118.845 48.0645 118.82 49.1286V51.5987Z"
         fill="#0045B2" />
      <path
         d="M94.2813 42.0082C93.9893 40.7248 93.2329 39.5957 92.1586 38.8397C90.7016 37.7756 89.0337 37.0378 87.2679 36.6763C85.0408 36.162 82.7604 35.9161 80.4753 35.9438C78.1314 35.901 75.7917 36.1587 73.5128 36.7104C71.7937 37.0907 70.1773 37.8404 68.775 38.9079C67.7117 39.6789 66.9634 40.8108 66.6693 42.0934C66.3754 44.0434 66.2617 46.0165 66.3296 47.9875V52.7232C66.2701 54.7286 66.3895 56.7353 66.6862 58.7195C67.0276 59.9804 67.8038 61.0791 68.8769 61.8198C70.3003 62.9051 71.939 63.6718 73.6826 64.0684C75.9113 64.5734 78.1905 64.8192 80.4753 64.8009C82.8251 64.831 85.1696 64.5678 87.4547 64.0173C89.1887 63.6508 90.8191 62.9 92.2265 61.8198C93.2857 61.0481 94.0283 59.9156 94.3152 58.6343C94.6095 56.6785 94.7288 54.7003 94.6718 52.7232V47.9875C94.7415 45.9863 94.6106 43.9832 94.2813 42.0082ZM86.2999 51.5989C86.2999 53.0809 86.2999 54.1371 86.198 54.7503C86.1024 55.3978 85.7983 55.996 85.332 56.4538C84.7999 57.0083 84.1325 57.4135 83.3961 57.6292C82.4871 57.9295 81.534 58.0735 80.5772 58.0551C79.6456 58.0662 78.7178 57.9341 77.8261 57.6633C77.0812 57.4535 76.4027 57.0545 75.8563 56.5049C75.3795 56.0527 75.0685 55.4526 74.9732 54.8014C74.8472 53.7388 74.7962 52.6687 74.8204 51.5989V49.0947C74.8075 48.0429 74.8472 46.9911 74.9393 45.9433C75.0551 45.306 75.3496 44.7151 75.7884 44.2398C76.3252 43.6952 76.9914 43.2965 77.7242 43.0814C78.6473 42.7929 79.6105 42.6548 80.5772 42.6726C81.5037 42.6526 82.4273 42.785 83.3112 43.0644C84.0606 43.2636 84.7417 43.6641 85.281 44.2227C85.7611 44.6771 86.0826 45.2744 86.198 45.9262C86.198 46.5395 86.2999 47.6297 86.2999 49.1118V51.5989Z"
         fill="#0045B2" />
      <path
         d="M239.491 64.3578H247.591V49.0605L258.052 64.3578H266.186V36.4717H258.052V51.9053L247.557 36.4717H239.491V64.3578Z"
         fill="#0045B2" />
      <path d="M202.794 36.4888H194.065V64.3749H202.794V36.4888Z" fill="#0045B2" />
      <path d="M167.659 64.3578H189.837V57.5098H176.388V36.4717H167.659V64.3578Z" fill="#0045B2" />
      <path
         d="M131.369 64.3578H138.433V43.0983L143.851 64.3578H150.236L155.687 42.6042V64.3578H162.751V36.4717H150.473L147.111 50.4744L143.681 36.4717H131.369V64.3578Z"
         fill="#0045B2" />
      <path
         d="M35.9668 42.4339H52.0993L35.9668 58.583V64.3578H62.8316V58.3786H46.6312L62.7297 42.2465V36.4717H35.9668V42.4339Z"
         fill="#0045B2" />
   </g>
   <defs>
      <clipPath id="clip0_1181_4588">
         <rect width="302" height="101" fill="white" />
      </clipPath>
   </defs>
</svg>