<svg width="410" height="410" viewBox="0 0 410 410" fill="none" xmlns="http://www.w3.org/2000/svg">
<rect width="410" height="410" fill="#F2F2F2"/>
<g clip-path="url(#clip0_1181_4586)">
<rect width="302" height="101" transform="translate(47 163)" fill="white"/>
<path d="M349 163H47V264H349V163Z" fill="white"/>
<path d="M282.008 205.008C281.694 203.721 280.921 202.594 279.834 201.84C278.399 200.77 276.747 200.032 274.995 199.676C272.768 199.159 270.487 198.913 268.202 198.944C265.847 198.901 263.496 199.159 261.206 199.71C259.488 200.094 257.872 200.844 256.468 201.908C255.409 202.683 254.662 203.813 254.362 205.093C254.103 207.047 253.995 209.017 254.039 210.987V215.723C253.986 217.728 254.099 219.734 254.379 221.719C254.717 222.973 255.479 224.069 256.536 224.82C257.969 225.885 259.614 226.628 261.358 227C263.587 227.507 265.866 227.753 268.151 227.733C270.495 227.761 272.834 227.498 275.113 226.949C276.836 226.578 278.454 225.827 279.851 224.752C280.906 223.976 281.647 222.845 281.94 221.566C282.226 219.61 282.34 217.632 282.28 215.655V210.987C282.347 208.988 282.227 206.986 281.923 205.008M273.942 214.633C273.963 215.685 273.924 216.737 273.823 217.784C273.72 218.43 273.417 219.026 272.957 219.488C272.425 220.042 271.757 220.448 271.021 220.663C270.106 220.965 269.147 221.109 268.185 221.089C267.248 221.098 266.315 220.966 265.417 220.697C264.677 220.476 264.001 220.078 263.447 219.539C263.006 219.063 262.706 218.473 262.581 217.835C262.463 216.772 262.418 215.702 262.445 214.633V212.095C262.418 211.042 262.463 209.989 262.581 208.943C262.666 208.296 262.965 207.696 263.43 207.24C263.965 206.693 264.632 206.294 265.366 206.081C266.283 205.794 267.241 205.656 268.202 205.673C269.14 205.653 270.074 205.785 270.97 206.064C271.719 206.276 272.403 206.674 272.957 207.223C273.408 207.694 273.714 208.285 273.84 208.926C273.941 209.985 273.981 211.048 273.959 212.112L273.942 214.633Z" fill="#0045B2"/>
<path d="M173.801 205.008C173.49 203.719 172.716 202.591 171.628 201.84C170.186 200.77 168.528 200.032 166.771 199.676C164.544 199.159 162.264 198.913 159.978 198.944C157.623 198.898 155.272 199.156 152.982 199.71C151.26 200.098 149.64 200.847 148.227 201.908C147.182 202.69 146.448 203.819 146.155 205.093C145.879 207.045 145.765 209.017 145.816 210.987V215.723C145.756 217.728 145.875 219.735 146.172 221.719C146.518 222.983 147.3 224.082 148.38 224.82C149.826 225.885 151.481 226.628 153.237 227C155.465 227.508 157.744 227.754 160.029 227.733C162.368 227.763 164.701 227.5 166.975 226.949C168.701 226.576 170.325 225.825 171.729 224.751C172.793 223.98 173.541 222.849 173.835 221.566C174.105 219.608 174.212 217.631 174.158 215.655V210.987C174.216 208.988 174.097 206.987 173.801 205.008ZM165.82 214.599C165.844 215.651 165.793 216.705 165.667 217.75C165.579 218.396 165.28 218.995 164.818 219.454C164.293 220.008 163.631 220.414 162.899 220.629C161.985 220.931 161.026 221.075 160.063 221.055C159.126 221.065 158.193 220.933 157.295 220.663C156.562 220.449 155.895 220.051 155.359 219.505C154.88 219.05 154.559 218.453 154.442 217.801C154.341 216.737 154.302 215.668 154.323 214.599V212.095C154.323 210.613 154.323 209.556 154.425 208.943C154.551 208.302 154.857 207.711 155.308 207.24C155.839 206.688 156.508 206.288 157.244 206.081C159.063 205.547 160.996 205.547 162.814 206.081C163.56 206.288 164.24 206.688 164.784 207.24C165.255 207.696 165.564 208.294 165.667 208.943C165.794 210 165.845 211.064 165.82 212.129V214.599Z" fill="#0045B2"/>
<path d="M141.281 205.008C140.989 203.725 140.233 202.596 139.159 201.84C137.702 200.776 136.034 200.038 134.268 199.676C132.041 199.162 129.76 198.916 127.475 198.944C125.131 198.901 122.792 199.159 120.513 199.71C118.794 200.091 117.177 200.84 115.775 201.908C114.712 202.679 113.963 203.811 113.669 205.093C113.375 207.043 113.262 209.016 113.33 210.987V215.723C113.27 217.729 113.389 219.735 113.686 221.719C114.028 222.98 114.804 224.079 115.877 224.82C117.3 225.905 118.939 226.672 120.683 227.068C122.911 227.573 125.191 227.819 127.475 227.801C129.825 227.831 132.17 227.568 134.455 227.017C136.189 226.651 137.819 225.9 139.226 224.82C140.286 224.048 141.028 222.916 141.315 221.634C141.609 219.679 141.729 217.7 141.672 215.723V210.987C141.741 208.986 141.611 206.983 141.281 205.008ZM133.3 214.599C133.3 216.081 133.3 217.137 133.198 217.75C133.102 218.398 132.798 218.996 132.332 219.454C131.8 220.008 131.133 220.413 130.396 220.629C129.487 220.93 128.534 221.074 127.577 221.055C126.646 221.066 125.718 220.934 124.826 220.663C124.081 220.453 123.403 220.055 122.856 219.505C122.38 219.053 122.068 218.453 121.973 217.801C121.847 216.739 121.796 215.669 121.82 214.599V212.095C121.808 211.043 121.847 209.991 121.939 208.943C122.055 208.306 122.35 207.715 122.788 207.24C123.325 206.695 123.991 206.297 124.724 206.081C125.647 205.793 126.611 205.655 127.577 205.673C128.504 205.653 129.427 205.785 130.311 206.064C131.061 206.264 131.742 206.664 132.281 207.223C132.761 207.677 133.083 208.274 133.198 208.926C133.198 209.539 133.3 210.63 133.3 212.112V214.599Z" fill="#0045B2"/>
<path d="M286.491 227.358H294.591V212.06L305.052 227.358H313.186V199.472H305.052V214.905L294.557 199.472H286.491V227.358Z" fill="#0045B2"/>
<path d="M249.794 199.489H241.065V227.375H249.794V199.489Z" fill="#0045B2"/>
<path d="M214.659 227.358H236.837V220.51H223.388V199.472H214.659V227.358Z" fill="#0045B2"/>
<path d="M178.369 227.358H185.433V206.098L190.851 227.358H197.236L202.687 205.604V227.358H209.751V199.472H197.473L194.111 213.474L190.681 199.472H178.369V227.358Z" fill="#0045B2"/>
<path d="M82.9668 205.434H99.0993L82.9668 221.583V227.358H109.832V221.379H93.6312L109.73 205.247V199.472H82.9668V205.434Z" fill="#0045B2"/>
</g>
<defs>
<clipPath id="clip0_1181_4586">
<rect width="302" height="101" fill="white" transform="translate(47 163)"/>
</clipPath>
</defs>
</svg>
