<svg width="410" height="410" viewBox="0 0 410 410" fill="none" xmlns="http://www.w3.org/2000/svg">
<rect width="410" height="410" fill="#F2F2F2"/>
<path d="M70.7996 185.217V193.261V196.478V202.913H72.3996V186.826V185.217H70.7996Z" fill="#0045B2"/>
<path d="M358.8 185.217V186.826V190.043V201.304V204.522V215.783V235.087V238.304V244.739V247.956V251.174L357.2 252.783V254.391H360.4V185.217H358.8Z" fill="#0045B2"/>
<path d="M64.3996 207.739L62.7996 209.348L61.1996 210.956L59.5996 212.565V214.174V215.783V220.609V223.826V225.435L61.1996 227.043V228.652L62.7996 230.261H64.3996L65.9996 231.869H67.5996H69.1996H75.5996H77.1996L78.7996 230.261H80.3996L81.9996 228.652V227.043L83.5996 225.435V223.826V222.217V219V215.783V214.174V212.565L81.9996 210.956L80.3996 209.348L78.7996 207.739H77.1996H75.5996H67.5996H65.9996H64.3996Z" fill="#0045B2"/>
<path d="M70.7996 236.696V243.13V247.956V251.174V252.783V254.391H73.9996V252.783L72.3996 251.174V238.304V236.696H70.7996Z" fill="#0045B2"/>
<path d="M360.4 182H358.8V183.609H360.4V182Z" fill="#0045B2" fill-opacity="0.1"/>
<path d="M67.6 204.522H66V206.13H67.6V204.522Z" fill="#0045B2" fill-opacity="0.1"/>
<path d="M59.6 210.957H58V212.565H59.6V210.957Z" fill="#0045B2" fill-opacity="0.1"/>
<path d="M82 228.652H83.6V230.261H82V231.87H80.4V230.261H82V228.652Z" fill="#0045B2" fill-opacity="0.1"/>
<path d="M69.2 233.478H67.6V235.087H69.2V233.478Z" fill="#0045B2" fill-opacity="0.1"/>
<path d="M72.4 233.478V235.087H74L75.6 233.478H72.4Z" fill="#0045B2" fill-opacity="0.1"/>
<path d="M90 251.174V252.783H197.2V251.174H90Z" fill="#0045B2" fill-opacity="0.1"/>
<path d="M200.4 251.174H198.8V252.783H200.4V251.174Z" fill="#0045B2" fill-opacity="0.1"/>
<path d="M216.4 251.174H214.8V252.783H216.4V251.174Z" fill="#0045B2" fill-opacity="0.1"/>
<path d="M221.2 251.174V252.783H226H245.2H248.4H250H254.8V251.174H221.2Z" fill="#0045B2" fill-opacity="0.1"/>
<path d="M259.6 251.174V252.783H266V251.174H259.6Z" fill="#0045B2" fill-opacity="0.1"/>
<path d="M270.8 251.174H269.2V252.783H270.8V251.174Z" fill="#0045B2" fill-opacity="0.1"/>
<path d="M272.4 251.174V252.783H275.6V251.174H272.4Z" fill="#0045B2" fill-opacity="0.1"/>
<path d="M278.8 251.174V252.783H285.2V251.174H278.8Z" fill="#0045B2" fill-opacity="0.1"/>
<path d="M288.4 251.174V252.783H293.2H294.8H296.4V251.174H288.4Z" fill="#0045B2" fill-opacity="0.1"/>
<path d="M299.6 251.174V252.783H306V251.174H299.6Z" fill="#0045B2" fill-opacity="0.1"/>
<path d="M310.8 251.174H309.2V252.783H310.8V251.174Z" fill="#0045B2" fill-opacity="0.1"/>
<path d="M312.4 251.174V252.783H315.6V251.174H312.4Z" fill="#0045B2" fill-opacity="0.1"/>
<path d="M352.4 251.174V252.783H355.6H357.2V251.174H352.4Z" fill="#0045B2" fill-opacity="0.1"/>
<path d="M72.3996 183.609V185.217H73.9996H357.2H358.8V183.609H72.3996Z" fill="#0045B2" fill-opacity="0.9"/>
<path d="M67.5996 206.13V207.739H75.5996V206.13H67.5996Z" fill="#0045B2" fill-opacity="0.9"/>
<path d="M73.9996 252.783V254.391H89.9996V252.783H73.9996Z" fill="#0045B2" fill-opacity="0.9"/>
<path d="M197.2 252.783V254.391H226V252.783H221.2H216.4H214.8H200.4H198.8H197.2Z" fill="#0045B2" fill-opacity="0.9"/>
<path d="M245.2 252.783V254.391H248.4V252.783H245.2Z" fill="#0045B2" fill-opacity="0.9"/>
<path d="M250 252.783V254.391H293.2V252.783H288.4H285.2H278.8H275.6H272.4H270.8H269.2H266H259.6H254.8H250Z" fill="#0045B2" fill-opacity="0.9"/>
<path d="M294.8 252.783V254.391H352.4V252.783H315.6H312.4H310.8H309.2H306H299.6H296.4H294.8Z" fill="#0045B2" fill-opacity="0.9"/>
<path d="M357.2 252.783H355.6V254.391H357.2V252.783Z" fill="#0045B2" fill-opacity="0.9"/>
<path d="M72.4 183.609H70.8V185.217H72.4V183.609Z" fill="#0045B2" fill-opacity="0.9"/>
<path d="M360.4 183.609H358.8V185.217H360.4V183.609Z" fill="#0045B2" fill-opacity="0.9"/>
<path d="M67.6 206.13H66V207.739H67.6V206.13Z" fill="#0045B2" fill-opacity="0.9"/>
<path d="M77.2 206.13H75.6V207.739H77.2V206.13Z" fill="#0045B2" fill-opacity="0.9"/>
<path d="M58 215.783V220.609H59.6V215.783H58Z" fill="#0045B2" fill-opacity="0.9"/>
<path d="M72.4 235.087H70.8V236.696H72.4V235.087Z" fill="#0045B2" fill-opacity="0.9"/>
<path d="M90 252.783V254.391H197.2V252.783H90Z" fill="#0045B2" fill-opacity="0.9"/>
<path d="M226 252.783V254.391H245.2V252.783H226Z" fill="#0045B2" fill-opacity="0.9"/>
<path d="M250 252.783H248.4V254.391H250V252.783Z" fill="#0045B2" fill-opacity="0.9"/>
<path d="M294.8 252.783H293.2V254.391H294.8V252.783Z" fill="#0045B2" fill-opacity="0.9"/>
<path d="M352.4 252.783V254.391H355.6V252.783H352.4Z" fill="#0045B2" fill-opacity="0.9"/>
<path d="M74 185.217H72.4V186.826H74V185.217Z" fill="#0045B2" fill-opacity="0.7"/>
<path d="M80.4 207.739H78.8V209.348H80.4V207.739Z" fill="#0045B2" fill-opacity="0.7"/>
<path d="M61.2 210.956H59.6V212.565H61.2V210.956Z" fill="#0045B2" fill-opacity="0.7"/>
<path d="M83.6 215.783V219H85.2V215.783H83.6Z" fill="#0045B2" fill-opacity="0.7"/>
<path d="M85.2 222.217H83.6V223.826H85.2V222.217Z" fill="#0045B2" fill-opacity="0.7"/>
<path d="M59.6 223.826H58V225.435H59.6V223.826Z" fill="#0045B2" fill-opacity="0.7"/>
<path d="M69.2 231.869H67.6V233.478H69.2V231.869Z" fill="#0045B2" fill-opacity="0.7"/>
<path d="M70.8 254.391V256H360.4V254.391H357.2H355.6H352.4H294.8H293.2H250H248.4H245.2H226H197.2H90H74H70.8Z" fill="#0045B2" fill-opacity="0.7"/>
<path d="M358.8 182L70.7996 183.609H72.3996H358.8V182Z" fill="#0045B2" fill-opacity="0.1"/>
<path d="M72.3996 202.913L70.7996 204.522H69.1996H67.5996V206.13H75.5996V204.522L73.9996 202.913H72.3996Z" fill="#0045B2" fill-opacity="0.1"/>
<path d="M62.7996 206.13H64.3996V207.739H62.7996V209.348H61.1996V210.957H59.5996V209.348H61.1996V207.739H62.7996V206.13Z" fill="#0045B2" fill-opacity="0.1"/>
<path d="M85.1996 225.435H83.5996V227.043H85.1996V225.435Z" fill="#0045B2" fill-opacity="0.1"/>
<path d="M59.5996 228.652H61.1996V230.261H62.7996V231.87H61.1996V230.261H59.5996V228.652Z" fill="#0045B2" fill-opacity="0.1"/>
<path d="M69.1996 233.478V235.087H70.7996H72.3996V233.478H69.1996Z" fill="#0045B2" fill-opacity="0.1"/>
<path d="M73.9996 251.174V252.783H89.9996V251.174H73.9996Z" fill="#0045B2" fill-opacity="0.1"/>
<path d="M198.8 251.174H197.2V252.783H198.8V251.174Z" fill="#0045B2" fill-opacity="0.1"/>
<path d="M200.4 251.174V252.783H214.8V251.174H200.4Z" fill="#0045B2" fill-opacity="0.1"/>
<path d="M216.4 251.174V252.783H221.2V251.174H216.4Z" fill="#0045B2" fill-opacity="0.1"/>
<path d="M254.8 251.174V252.783H259.6V251.174H254.8Z" fill="#0045B2" fill-opacity="0.1"/>
<path d="M266 251.174V252.783H269.2V251.174H266Z" fill="#0045B2" fill-opacity="0.1"/>
<path d="M272.4 251.174H270.8V252.783H272.4V251.174Z" fill="#0045B2" fill-opacity="0.1"/>
<path d="M275.6 251.174V252.783H278.8V251.174H275.6Z" fill="#0045B2" fill-opacity="0.1"/>
<path d="M285.2 251.174V252.783H288.4V251.174H285.2Z" fill="#0045B2" fill-opacity="0.1"/>
<path d="M296.4 251.174V252.783H299.6V251.174H296.4Z" fill="#0045B2" fill-opacity="0.1"/>
<path d="M306 251.174V252.783H309.2V251.174H306Z" fill="#0045B2" fill-opacity="0.1"/>
<path d="M312.4 251.174H310.8V252.783H312.4V251.174Z" fill="#0045B2" fill-opacity="0.1"/>
<path d="M315.6 251.174V252.783H352.4V251.174H315.6Z" fill="#0045B2" fill-opacity="0.1"/>
<path d="M69.1996 185.217V193.261H70.7996V185.217H69.1996Z" fill="#0045B2" fill-opacity="0.7"/>
<path d="M73.9996 185.217V186.826H357.2V185.217H73.9996Z" fill="#0045B2" fill-opacity="0.7"/>
<path d="M69.1996 196.478V202.913H70.7996V196.478H69.1996Z" fill="#0045B2" fill-opacity="0.7"/>
<path d="M65.9996 206.13H64.3996V207.739H65.9996V206.13Z" fill="#0045B2" fill-opacity="0.7"/>
<path d="M83.5996 210.956H81.9996V212.565H83.5996V210.956Z" fill="#0045B2" fill-opacity="0.7"/>
<path d="M85.1996 214.174H83.5996V215.783H85.1996V214.174Z" fill="#0045B2" fill-opacity="0.7"/>
<path d="M61.1996 227.043H59.5996V228.652H61.1996V227.043Z" fill="#0045B2" fill-opacity="0.7"/>
<path d="M64.3996 230.261H62.7996V231.869H64.3996V230.261Z" fill="#0045B2" fill-opacity="0.7"/>
<path d="M67.5996 231.869H65.9996V233.478H67.5996V231.869Z" fill="#0045B2" fill-opacity="0.7"/>
<path d="M77.1996 231.869H75.5996V233.478H77.1996V231.869Z" fill="#0045B2" fill-opacity="0.7"/>
<path d="M69.1996 235.087V243.13H70.7996V236.696V235.087H69.1996Z" fill="#0045B2" fill-opacity="0.7"/>
<path d="M69.1996 247.956V251.174H70.7996V247.956H69.1996Z" fill="#0045B2" fill-opacity="0.7"/>
<path d="M358.8 251.174H357.2V252.783H358.8V251.174Z" fill="#0045B2" fill-opacity="0.7"/>
<path d="M70.7996 252.783H69.1996V254.391H70.7996V252.783Z" fill="#0045B2" fill-opacity="0.7"/>
<path d="M358.8 185.217H357.2V186.826H358.8V185.217Z" fill="#0045B2" fill-opacity="0.8"/>
<path d="M62.8 207.739H64.4V209.348H62.8V210.956H61.2V209.348H62.8V207.739Z" fill="#0045B2" fill-opacity="0.8"/>
<path d="M82 209.348H80.4V210.956H82V209.348Z" fill="#0045B2" fill-opacity="0.8"/>
<path d="M59.6 214.174H58V215.783H59.6V214.174Z" fill="#0045B2" fill-opacity="0.8"/>
<path d="M83.6 219V222.217H85.2V219H83.6Z" fill="#0045B2" fill-opacity="0.8"/>
<path d="M58 220.609V223.826H59.6V220.609H58Z" fill="#0045B2" fill-opacity="0.8"/>
<path d="M69.2 231.869V233.478H72.4H75.6V231.869H69.2Z" fill="#0045B2" fill-opacity="0.8"/>
<path d="M70.8 183.609H69.2V185.217H70.8V183.609Z" fill="#0045B2" fill-opacity="0.5"/>
<path d="M360.4 185.217V254.391H362V185.217H360.4Z" fill="#0045B2" fill-opacity="0.5"/>
<path d="M72.4 186.826V202.913H74V186.826H72.4Z" fill="#0045B2" fill-opacity="0.5"/>
<path d="M357.2 190.043V201.304H358.8V190.043H357.2Z" fill="#0045B2" fill-opacity="0.5"/>
<path d="M357.2 204.522V215.783H358.8V204.522H357.2Z" fill="#0045B2" fill-opacity="0.5"/>
<path d="M59.6 212.565H58V214.174H59.6V212.565Z" fill="#0045B2" fill-opacity="0.5"/>
<path d="M83.6 227.043H82V228.652H83.6V227.043Z" fill="#0045B2" fill-opacity="0.5"/>
<path d="M74 235.087H72.4V236.696H74V235.087Z" fill="#0045B2" fill-opacity="0.5"/>
<path d="M357.2 235.087V238.304H358.8V235.087H357.2Z" fill="#0045B2" fill-opacity="0.5"/>
<path d="M72.4 238.304V251.174H74V238.304H72.4Z" fill="#0045B2" fill-opacity="0.5"/>
<path d="M357.2 244.739V247.956H358.8V244.739H357.2Z" fill="#0045B2" fill-opacity="0.5"/>
<path d="M362 183.609H360.4V185.217H362V183.609Z" fill="#0045B2" fill-opacity="0.4"/>
<path d="M362 254.391H360.4V256H362V254.391Z" fill="#0045B2" fill-opacity="0.4"/>
<path d="M357.2 186.826V190.044H358.8V186.826H357.2Z" fill="#0045B2" fill-opacity="0.6"/>
<path d="M69.2002 193.261V196.478H70.8002V193.261H69.2002Z" fill="#0045B2" fill-opacity="0.6"/>
<path d="M357.2 201.304V204.522H358.8V201.304H357.2Z" fill="#0045B2" fill-opacity="0.6"/>
<path d="M72.4002 202.913H70.8002V204.522H72.4002V202.913Z" fill="#0045B2" fill-opacity="0.6"/>
<path d="M78.8002 206.131H77.2002V207.739H78.8002V206.131Z" fill="#0045B2" fill-opacity="0.6"/>
<path d="M357.2 215.783V235.087H358.8V215.783H357.2Z" fill="#0045B2" fill-opacity="0.6"/>
<path d="M85.2002 223.826H83.6002V225.435H85.2002V223.826Z" fill="#0045B2" fill-opacity="0.6"/>
<path d="M80.4002 230.261H78.8002V231.87H80.4002V230.261Z" fill="#0045B2" fill-opacity="0.6"/>
<path d="M74.0002 236.696H72.4002V238.304H74.0002V236.696Z" fill="#0045B2" fill-opacity="0.6"/>
<path d="M357.2 238.304V244.739H358.8V238.304H357.2Z" fill="#0045B2" fill-opacity="0.6"/>
<path d="M69.2002 243.131V247.957H70.8002V243.131H69.2002Z" fill="#0045B2" fill-opacity="0.6"/>
<path d="M357.2 247.957V251.174H358.8V247.957H357.2Z" fill="#0045B2" fill-opacity="0.6"/>
<path d="M70.8002 251.174H69.2002V252.783H70.8002V251.174Z" fill="#0045B2" fill-opacity="0.6"/>
<path d="M74.0002 251.174H72.4002V252.783H74.0002V251.174Z" fill="#0045B2" fill-opacity="0.6"/>
<path d="M70.8002 254.391H69.2002V256H70.8002V254.391Z" fill="#0045B2" fill-opacity="0.6"/>
<path d="M70.8 202.913H69.2V204.522H70.8V202.913Z" fill="#0045B2" fill-opacity="0.2"/>
<path d="M59.6 225.435H58V227.044H59.6V225.435Z" fill="#0045B2" fill-opacity="0.2"/>
<path d="M66 231.87H64.4V233.478H66V231.87Z" fill="#0045B2" fill-opacity="0.2"/>
<path d="M78.8 231.87H77.2V233.478H78.8V231.87Z" fill="#0045B2" fill-opacity="0.2"/>
<path fill-rule="evenodd" clip-rule="evenodd" d="M93.2002 199.696H115.6V202.913H101.2L99.6002 204.522L98.0002 238.304H93.2002V199.696ZM122 199.696H146V202.913H130L126.8 206.13V214.174L128.4 215.783H142.8V220.609H130L126.8 223.826V231.869L130 235.087H146V238.304H122V199.696ZM157.2 199.696H171.6L173.2 201.304H174.8L176.4 202.913V204.522L178 206.13V231.869L176.4 233.478V235.087L174.8 236.696H173.2L171.6 238.304H158.8L157.2 236.696H155.6L152.4 233.478V228.652L150.8 227.043V210.956L152.4 209.348V206.13L154 204.522V202.913L157.2 199.696ZM158.8 209.348V212.565L157.2 214.174V225.435L158.8 227.043V228.652L162 231.869H168.4L171.6 228.652V209.348L168.4 206.13H162L158.8 209.348ZM187.6 199.696H192.4V231.869L195.6 235.087H206.8L208.4 233.478V199.696H214.8V233.478L216.4 235.087H219.6V247.956H214.8V246.348L213.2 239.913L187.6 238.304V199.696ZM224.4 199.696H250V202.913H245.2L230.8 204.522L229.2 206.13V212.565L232.4 215.783H246.8V220.609H232.4L229.2 223.826V231.869L232.4 235.087H250V238.304H224.4V199.696ZM256.4 199.696H261.2V214.174L262.8 215.783H277.2V199.696H283.6V238.304H277.2V222.217L275.6 220.609H262.8L261.2 222.217V238.304H256.4V199.696ZM288.4 202.913V199.696H315.6V202.913H312.4L306 204.522L304.4 236.696V238.304H299.6V236.696L298 204.522L288.4 202.913ZM320.4 199.696H342.8L346 202.913V204.522L347.6 206.13V215.783L346 217.391V219L342.8 222.217H328.4L325.2 225.435V238.304H320.4V199.696ZM326.8 215.783H339.6V214.174L341.2 212.565V207.739L339.6 206.13H336.4L334.8 204.522H328.4L326.8 206.13V215.783Z" fill="#0045B2"/>
<path fill-rule="evenodd" clip-rule="evenodd" d="M186 196.478H187.6V198.087H186V196.478ZM190.8 196.478H192.4V198.087H190.8V196.478ZM118.8 198.087H120.4V199.696H118.8V198.087ZM174.8 199.696H176.4V201.304H174.8V199.696ZM118.8 201.304H120.4V202.913H118.8V201.304ZM147.6 201.304H149.2V202.913H147.6V201.304ZM150.8 202.913H152.4V204.522H150.8V202.913ZM75.5996 204.522H77.1996V206.13H75.5996V204.522ZM101.2 206.13V204.522H115.6L101.2 206.13ZM245.2 204.522H246.8V206.13H245.2V204.522ZM296.4 204.522H298V206.13H296.4V204.522ZM306 204.522H307.6V206.13H306V204.522ZM78.7996 206.13H80.3996V207.739H78.7996V206.13ZM120.4 235.087L118.8 206.13H120.4V235.087ZM179.6 209.348L181.2 214.174H179.6V209.348ZM347.6 215.783H349.2V217.391H347.6V215.783ZM179.6 219H181.2L179.6 227.043V219ZM128.4 222.217H130V223.826H128.4V222.217ZM184.4 222.217H186V223.826H184.4V222.217ZM230.8 222.217H232.4V223.826H230.8V222.217ZM326.8 223.826H328.4V225.435H326.8V223.826ZM130 233.478V231.87L146 233.478H130ZM194 231.87H195.6V233.478H194V231.87ZM230.8 231.87H232.4V233.478H230.8V231.87ZM246.8 231.87H248.4V233.478H246.8V231.87ZM118.8 236.696H120.4V238.304H118.8V236.696ZM211.6 241.522L187.6 239.913H211.6V241.522ZM91.5996 198.087H117.2H115.6H107.6H102.8H93.1996H91.5996ZM120.4 198.087H146H144.4H139.6H131.6H125.2H122H120.4ZM208.4 198.087H214.8H213.2H211.6H208.4ZM277.2 198.087H283.6H282H280.4H278.8H277.2ZM320.4 198.087H338H322H320.4ZM91.5996 238.304V198.087V199.696V202.913V236.696V238.304ZM146 204.522H133.2H136.4H146ZM142.8 222.217H136.4H138H142.8ZM326.8 233.478V230.261V238.304V233.478ZM128.4 239.913H122H123.6H125.2H128.4ZM146 239.913H136.4H142.8H146ZM213.2 247.957V243.13V246.348V247.957Z" fill="#0045B2" fill-opacity="0.1"/>
<path d="M122 199.696V198.087H125.2V199.696H122V201.304H120.4V199.696H122Z" fill="#0045B2" fill-opacity="0.9"/>
<path d="M146 198.087H144.4V199.696H146V198.087Z" fill="#0045B2" fill-opacity="0.9"/>
<path d="M187.6 198.087V199.696H192.4V198.087H190.8H187.6Z" fill="#0045B2" fill-opacity="0.9"/>
<path d="M213.2 198.087H211.6V199.696H213.2V198.087Z" fill="#0045B2" fill-opacity="0.9"/>
<path d="M282 198.087H280.4V199.696H282V198.087Z" fill="#0045B2" fill-opacity="0.9"/>
<path d="M173.2 199.696H171.6V201.304H173.2V199.696Z" fill="#0045B2" fill-opacity="0.9"/>
<path d="M154 204.522H152.4V206.13H154V204.522Z" fill="#0045B2" fill-opacity="0.9"/>
<path d="M178 204.522H176.4V206.13H178V204.522Z" fill="#0045B2" fill-opacity="0.9"/>
<path d="M347.6 204.522H346V206.13H347.6V204.522Z" fill="#0045B2" fill-opacity="0.9"/>
<path d="M152.4 209.348H150.8V210.956H152.4V209.348Z" fill="#0045B2" fill-opacity="0.9"/>
<path d="M61.1996 225.435H59.5996V227.043H61.1996V225.435Z" fill="#0045B2" fill-opacity="0.9"/>
<path d="M65.9996 230.261H64.3996V231.87H65.9996V230.261Z" fill="#0045B2" fill-opacity="0.9"/>
<path d="M78.7996 230.261H77.1996V231.87H78.7996V230.261Z" fill="#0045B2" fill-opacity="0.9"/>
<path d="M130 233.478H128.4V235.087H130V233.478Z" fill="#0045B2" fill-opacity="0.9"/>
<path d="M142.8 233.478V235.087H146V233.478H142.8Z" fill="#0045B2" fill-opacity="0.9"/>
<path d="M208.4 233.478H206.8V235.087H208.4V233.478Z" fill="#0045B2" fill-opacity="0.9"/>
<path d="M216.4 233.478H214.8V235.087H216.4V233.478Z" fill="#0045B2" fill-opacity="0.9"/>
<path d="M93.2 199.696V198.087H102.8V199.696H93.2V202.913H91.6V199.696H93.2Z" fill="#0045B2" fill-opacity="0.9"/>
<path d="M107.6 198.087V199.696H115.6V198.087H107.6Z" fill="#0045B2" fill-opacity="0.9"/>
<path d="M125.2 198.087V199.696H131.6V198.087H125.2Z" fill="#0045B2" fill-opacity="0.9"/>
<path d="M139.6 198.087V199.696H144.4V198.087H139.6Z" fill="#0045B2" fill-opacity="0.9"/>
<path d="M160.4 198.087V199.696H170V198.087H160.4Z" fill="#0045B2" fill-opacity="0.9"/>
<path d="M208.4 198.087V199.696H211.6V198.087H208.4Z" fill="#0045B2" fill-opacity="0.9"/>
<path d="M214.8 198.087H213.2V199.696H214.8V198.087Z" fill="#0045B2" fill-opacity="0.9"/>
<path d="M226 198.087V199.696H250V198.087H226Z" fill="#0045B2" fill-opacity="0.9"/>
<path d="M256.4 198.087V199.696H261.2V198.087H256.4Z" fill="#0045B2" fill-opacity="0.9"/>
<path d="M280.4 198.087H278.8V199.696H280.4V198.087Z" fill="#0045B2" fill-opacity="0.9"/>
<path d="M283.6 198.087H282V199.696H283.6V198.087Z" fill="#0045B2" fill-opacity="0.9"/>
<path d="M288.4 198.087V199.696H315.6V198.087H288.4Z" fill="#0045B2" fill-opacity="0.9"/>
<path d="M322 198.087V199.696H338V198.087H322Z" fill="#0045B2" fill-opacity="0.9"/>
<path d="M120.4 201.304V202.913V206.13H122V201.304H120.4Z" fill="#0045B2" fill-opacity="0.9"/>
<path d="M107.6 202.913V204.522H115.6V202.913H107.6Z" fill="#0045B2" fill-opacity="0.9"/>
<path d="M136.4 202.913V204.522H146V202.913H136.4Z" fill="#0045B2" fill-opacity="0.9"/>
<path d="M245.2 202.913V204.522H246.8H248.4V202.913H245.2Z" fill="#0045B2" fill-opacity="0.9"/>
<path d="M152.4 207.739H150.8V209.348H152.4V207.739Z" fill="#0045B2" fill-opacity="0.9"/>
<path d="M230.8 207.739H229.2V209.348H230.8V207.739Z" fill="#0045B2" fill-opacity="0.9"/>
<path d="M178 210.956V220.609H179.6V219V214.174V210.956H178Z" fill="#0045B2" fill-opacity="0.9"/>
<path d="M230.8 212.565H229.2V214.174H230.8V212.565Z" fill="#0045B2" fill-opacity="0.9"/>
<path d="M128.4 214.174H126.8V215.783H128.4V214.174Z" fill="#0045B2" fill-opacity="0.9"/>
<path d="M142.8 219H144.4V220.609H142.8V222.217H138V220.609H142.8V219Z" fill="#0045B2" fill-opacity="0.9"/>
<path d="M83.6 225.435H82V227.043H83.6V225.435Z" fill="#0045B2" fill-opacity="0.9"/>
<path d="M229.2 225.435V228.652H230.8V225.435H229.2Z" fill="#0045B2" fill-opacity="0.9"/>
<path d="M152.4 228.652H150.8V230.261H152.4V228.652Z" fill="#0045B2" fill-opacity="0.9"/>
<path d="M229.2 231.87H230.8V233.478H232.4V235.087H230.8V233.478H229.2V231.87Z" fill="#0045B2" fill-opacity="0.9"/>
<path d="M130 233.478V235.087H142.8V233.478H130Z" fill="#0045B2" fill-opacity="0.9"/>
<path d="M195.6 233.478H194V235.087H195.6V233.478Z" fill="#0045B2" fill-opacity="0.9"/>
<path d="M325.2 233.478V238.304H326.8V233.478H325.2Z" fill="#0045B2" fill-opacity="0.9"/>
<path d="M93.2 236.696H91.6V238.304H93.2V236.696Z" fill="#0045B2" fill-opacity="0.9"/>
<path d="M120.4 236.696H122V238.304H123.6V239.913H122V238.304H120.4V236.696Z" fill="#0045B2" fill-opacity="0.9"/>
<path d="M125.2 238.304V239.913H128.4V238.304H125.2Z" fill="#0045B2" fill-opacity="0.9"/>
<path d="M142.8 238.304V239.913H146V238.304H142.8Z" fill="#0045B2" fill-opacity="0.9"/>
<path d="M187.6 238.304V239.913H211.6H213.2L187.6 238.304Z" fill="#0045B2" fill-opacity="0.9"/>
<path d="M226 238.304V239.913H248.4V238.304H226Z" fill="#0045B2" fill-opacity="0.9"/>
<path d="M214.8 246.348H213.2V247.956H214.8V246.348Z" fill="#0045B2" fill-opacity="0.9"/>
<path d="M117.2 198.087H115.6V199.696H117.2V198.087Z" fill="#0045B2" fill-opacity="0.7"/>
<path d="M122 198.087H120.4V199.696H122V198.087Z" fill="#0045B2" fill-opacity="0.7"/>
<path d="M160.4 198.087H158.8V199.696H160.4V198.087Z" fill="#0045B2" fill-opacity="0.7"/>
<path d="M171.6 198.087H170V199.696H171.6V198.087Z" fill="#0045B2" fill-opacity="0.7"/>
<path d="M341.2 198.087H339.6V199.696H341.2V198.087Z" fill="#0045B2" fill-opacity="0.7"/>
<path d="M187.6 199.696H186V201.304H187.6V199.696Z" fill="#0045B2" fill-opacity="0.7"/>
<path d="M176.4 201.304H174.8V202.913H176.4V201.304Z" fill="#0045B2" fill-opacity="0.7"/>
<path d="M154 202.913H152.4V204.522H154V202.913Z" fill="#0045B2" fill-opacity="0.7"/>
<path d="M186 202.913V212.565H187.6V202.913H186Z" fill="#0045B2" fill-opacity="0.7"/>
<path d="M312.4 202.913V204.522H315.6V202.913H312.4Z" fill="#0045B2" fill-opacity="0.7"/>
<path d="M126.8 206.13V214.174H128.4V206.13H126.8Z" fill="#0045B2" fill-opacity="0.7"/>
<path d="M152.4 206.13H150.8V207.739H152.4V206.13Z" fill="#0045B2" fill-opacity="0.7"/>
<path d="M179.6 207.739H178V209.348H179.6V207.739Z" fill="#0045B2" fill-opacity="0.7"/>
<path d="M144.4 215.783H142.8V217.391H144.4V215.783Z" fill="#0045B2" fill-opacity="0.7"/>
<path d="M186 219V222.217V223.826V238.304H187.6V219H186Z" fill="#0045B2" fill-opacity="0.7"/>
<path d="M238.8 220.609V222.217H246.8V220.609H238.8Z" fill="#0045B2" fill-opacity="0.7"/>
<path d="M264.4 220.609H262.8V222.217H264.4V220.609Z" fill="#0045B2" fill-opacity="0.7"/>
<path d="M275.6 220.609H274V222.217H275.6V220.609Z" fill="#0045B2" fill-opacity="0.7"/>
<path d="M330 222.217H328.4V223.826H330V222.217Z" fill="#0045B2" fill-opacity="0.7"/>
<path d="M336.4 222.217V223.826H339.6V222.217H336.4Z" fill="#0045B2" fill-opacity="0.7"/>
<path d="M126.8 223.826V231.87H128.4V223.826H126.8Z" fill="#0045B2" fill-opacity="0.7"/>
<path d="M62.8002 228.652H61.2002V230.261H62.8002V228.652Z" fill="#0045B2" fill-opacity="0.7"/>
<path d="M179.6 228.652H178V230.261H179.6V228.652Z" fill="#0045B2" fill-opacity="0.7"/>
<path d="M152.4 230.261H150.8V231.87H152.4V230.261Z" fill="#0045B2" fill-opacity="0.7"/>
<path d="M219.6 233.478H218V235.087H219.6V233.478Z" fill="#0045B2" fill-opacity="0.7"/>
<path d="M254.8 236.696H256.4V238.304H261.2V239.913H256.4V238.304H254.8V236.696Z" fill="#0045B2" fill-opacity="0.7"/>
<path d="M304.4 236.696H306V238.304H304.4V239.913H299.6V238.304H304.4V236.696Z" fill="#0045B2" fill-opacity="0.7"/>
<path d="M162 238.304H160.4V239.913H162V238.304Z" fill="#0045B2" fill-opacity="0.7"/>
<path d="M278.8 238.304V239.913H283.6V238.304H278.8Z" fill="#0045B2" fill-opacity="0.7"/>
<path d="M320.4 238.304V239.913H325.2V238.304H320.4Z" fill="#0045B2" fill-opacity="0.7"/>
<path d="M214.8 247.956V249.565H219.6V247.956H214.8Z" fill="#0045B2" fill-opacity="0.7"/>
<path d="M187.6 196.478V198.087H190.8V196.478H187.6Z" fill="#0045B2" fill-opacity="0.1"/>
<path d="M120.4 199.696H118.8V201.304H120.4V199.696Z" fill="#0045B2" fill-opacity="0.1"/>
<path d="M154 199.696H155.6V201.304H154V202.913H152.4V201.304H154V199.696Z" fill="#0045B2" fill-opacity="0.1"/>
<path d="M344.4 199.696H346V201.304H347.6V202.913H346V201.304H344.4V199.696Z" fill="#0045B2" fill-opacity="0.1"/>
<path d="M178 201.304H176.4V202.913H178V201.304Z" fill="#0045B2" fill-opacity="0.1"/>
<path d="M118.8 202.913V206.13H120.4V202.913H118.8Z" fill="#0045B2" fill-opacity="0.1"/>
<path d="M101.2 204.522H99.6004V206.13H101.2V204.522Z" fill="#0045B2" fill-opacity="0.1"/>
<path d="M130 204.522H128.4V206.13H130V204.522Z" fill="#0045B2" fill-opacity="0.1"/>
<path d="M179.6 204.522H178V206.13H179.6V204.522Z" fill="#0045B2" fill-opacity="0.1"/>
<path d="M232.4 204.522H230.8V206.13H232.4V204.522Z" fill="#0045B2" fill-opacity="0.1"/>
<path d="M349.2 204.522H347.6V206.13H349.2V204.522Z" fill="#0045B2" fill-opacity="0.1"/>
<path d="M80.4004 207.739H82.0004V209.348H83.6004V210.957H82.0004V209.348H80.4004V207.739Z" fill="#0045B2" fill-opacity="0.1"/>
<path d="M150.8 207.739H149.2V209.348H150.8V207.739Z" fill="#0045B2" fill-opacity="0.1"/>
<path d="M131.6 214.174H130V215.783H131.6V214.174Z" fill="#0045B2" fill-opacity="0.1"/>
<path d="M144.4 214.174H142.8V215.783H144.4V214.174Z" fill="#0045B2" fill-opacity="0.1"/>
<path d="M179.6 214.174V219H181.2V214.174H179.6Z" fill="#0045B2" fill-opacity="0.1"/>
<path d="M248.4 214.174H246.8V215.783H248.4V214.174Z" fill="#0045B2" fill-opacity="0.1"/>
<path d="M150.8 228.652H149.2V230.261H150.8V228.652Z" fill="#0045B2" fill-opacity="0.1"/>
<path d="M130 231.87H128.4V233.478H130V231.87Z" fill="#0045B2" fill-opacity="0.1"/>
<path d="M179.6 231.87H178V233.478H179.6V231.87Z" fill="#0045B2" fill-opacity="0.1"/>
<path d="M152.4 235.087H154V236.696H155.6V238.304H154V236.696H152.4V235.087Z" fill="#0045B2" fill-opacity="0.1"/>
<path d="M176.4 235.087H178V236.696H176.4V238.304H174.8V236.696H176.4V235.087Z" fill="#0045B2" fill-opacity="0.1"/>
<path d="M277.2 238.304H275.6V239.913H277.2V238.304Z" fill="#0045B2" fill-opacity="0.1"/>
<path d="M213.2 239.913H211.6V241.522H213.2V239.913Z" fill="#0045B2" fill-opacity="0.1"/>
<path d="M93.2004 198.087H91.6004V199.696H93.2004V198.087Z" fill="#0045B2" fill-opacity="0.7"/>
<path d="M147.6 198.087H146V199.696H147.6V198.087Z" fill="#0045B2" fill-opacity="0.7"/>
<path d="M187.6 198.087H186V199.696H187.6V198.087Z" fill="#0045B2" fill-opacity="0.7"/>
<path d="M256.4 198.087L254.8 236.696H256.4V199.696V198.087Z" fill="#0045B2" fill-opacity="0.7"/>
<path d="M157.2 199.696H155.6V201.304H157.2V199.696Z" fill="#0045B2" fill-opacity="0.7"/>
<path d="M262.8 199.696H261.2V201.304H262.8V199.696Z" fill="#0045B2" fill-opacity="0.7"/>
<path d="M286.8 199.696V202.913H288.4V199.696H286.8Z" fill="#0045B2" fill-opacity="0.7"/>
<path d="M315.6 199.696V202.913H317.2V199.696H315.6Z" fill="#0045B2" fill-opacity="0.7"/>
<path d="M344.4 199.696H342.8V201.304H344.4V199.696Z" fill="#0045B2" fill-opacity="0.7"/>
<path d="M187.6 201.304H186V202.913H187.6V201.304Z" fill="#0045B2" fill-opacity="0.7"/>
<path d="M117.2 202.913H115.6V204.522H117.2V202.913Z" fill="#0045B2" fill-opacity="0.7"/>
<path d="M147.6 202.913H146V204.522H147.6V202.913Z" fill="#0045B2" fill-opacity="0.7"/>
<path d="M178 202.913H176.4V204.522H178V202.913Z" fill="#0045B2" fill-opacity="0.7"/>
<path d="M306 204.522L304.4 236.696H306V206.13V204.522Z" fill="#0045B2" fill-opacity="0.7"/>
<path d="M347.6 207.739V212.565H349.2V207.739H347.6Z" fill="#0045B2" fill-opacity="0.7"/>
<path d="M186 212.565V219H187.6V212.565H186Z" fill="#0045B2" fill-opacity="0.7"/>
<path d="M242 214.174V215.783H245.2V214.174H242Z" fill="#0045B2" fill-opacity="0.7"/>
<path d="M262.8 214.174H261.2V215.783H262.8V214.174Z" fill="#0045B2" fill-opacity="0.7"/>
<path d="M144.4 220.609H142.8V222.217H144.4V220.609Z" fill="#0045B2" fill-opacity="0.7"/>
<path d="M232.4 220.609V222.217H238.8V220.609H232.4Z" fill="#0045B2" fill-opacity="0.7"/>
<path d="M264.4 220.609V222.217H274V220.609H264.4Z" fill="#0045B2" fill-opacity="0.7"/>
<path d="M82.0004 228.652H80.4004V230.261H82.0004V228.652Z" fill="#0045B2" fill-opacity="0.7"/>
<path d="M194 231.87H192.4V233.478H194V231.87Z" fill="#0045B2" fill-opacity="0.7"/>
<path d="M147.6 233.478H146V235.087H147.6V233.478Z" fill="#0045B2" fill-opacity="0.7"/>
<path d="M157.2 236.696H155.6V238.304H157.2V236.696Z" fill="#0045B2" fill-opacity="0.7"/>
<path d="M262.8 236.696H261.2V238.304H262.8V236.696Z" fill="#0045B2" fill-opacity="0.7"/>
<path d="M299.6 236.696H298V238.304H299.6V236.696Z" fill="#0045B2" fill-opacity="0.7"/>
<path d="M93.2004 238.304H91.6004V239.913H93.2004V238.304Z" fill="#0045B2" fill-opacity="0.7"/>
<path d="M122 238.304H120.4V239.913H122V238.304Z" fill="#0045B2" fill-opacity="0.7"/>
<path d="M147.6 238.304H146V239.913H147.6V238.304Z" fill="#0045B2" fill-opacity="0.7"/>
<path d="M160.4 238.304H158.8V239.913H160.4V238.304Z" fill="#0045B2" fill-opacity="0.7"/>
<path d="M171.6 238.304H170V239.913H171.6V238.304Z" fill="#0045B2" fill-opacity="0.7"/>
<path d="M278.8 238.304H277.2V239.913H278.8V238.304Z" fill="#0045B2" fill-opacity="0.7"/>
<path d="M102.8 198.087V199.696H107.6V198.087H102.8Z" fill="#0045B2" fill-opacity="0.8"/>
<path d="M131.6 198.087V199.696H139.6V198.087H131.6Z" fill="#0045B2" fill-opacity="0.8"/>
<path d="M226 198.087H224.4V199.696H226V198.087Z" fill="#0045B2" fill-opacity="0.8"/>
<path d="M278.8 198.087H277.2V199.696H278.8V198.087Z" fill="#0045B2" fill-opacity="0.8"/>
<path d="M322 198.087H320.4V199.696H322V198.087Z" fill="#0045B2" fill-opacity="0.8"/>
<path d="M339.6 198.087H338V199.696H339.6V198.087Z" fill="#0045B2" fill-opacity="0.8"/>
<path d="M115.6 199.696V202.913H117.2V199.696H115.6Z" fill="#0045B2" fill-opacity="0.8"/>
<path d="M146 199.696V202.913H147.6V201.304V199.696H146Z" fill="#0045B2" fill-opacity="0.8"/>
<path d="M155.6 201.304H154V202.913H155.6V201.304Z" fill="#0045B2" fill-opacity="0.8"/>
<path d="M346 201.304H344.4V202.913H346V201.304Z" fill="#0045B2" fill-opacity="0.8"/>
<path d="M91.5996 202.913V236.696H93.1996V202.913H91.5996Z" fill="#0045B2" fill-opacity="0.8"/>
<path d="M101.2 202.913V204.522H107.6V202.913H101.2Z" fill="#0045B2" fill-opacity="0.8"/>
<path d="M130 202.913V204.522H133.2H136.4V202.913H130Z" fill="#0045B2" fill-opacity="0.8"/>
<path d="M245.2 202.913L230.8 204.522H232.4H245.2V202.913Z" fill="#0045B2" fill-opacity="0.8"/>
<path d="M250 202.913H248.4V204.522H250V202.913Z" fill="#0045B2" fill-opacity="0.8"/>
<path d="M288.4 202.913V204.522H296.4H298L288.4 202.913Z" fill="#0045B2" fill-opacity="0.8"/>
<path d="M312.4 202.913L306 204.522H307.6H312.4V202.913Z" fill="#0045B2" fill-opacity="0.8"/>
<path d="M97.9996 238.304L99.5996 204.522V206.13V217.391V220.609V238.304H97.9996V239.913H93.1996V238.304H97.9996Z" fill="#0045B2" fill-opacity="0.8"/>
<path d="M120.4 206.13V235.087V236.696H122V206.13H120.4Z" fill="#0045B2" fill-opacity="0.8"/>
<path d="M230.8 206.13H229.2V207.739H230.8V206.13Z" fill="#0045B2" fill-opacity="0.8"/>
<path d="M179.6 209.348H178V210.956H179.6V209.348Z" fill="#0045B2" fill-opacity="0.8"/>
<path d="M229.2 209.348V212.565H230.8V209.348H229.2Z" fill="#0045B2" fill-opacity="0.8"/>
<path d="M144.4 217.391H142.8V219H144.4V217.391Z" fill="#0045B2" fill-opacity="0.8"/>
<path d="M130 220.609V222.217H136.4H138V220.609H130Z" fill="#0045B2" fill-opacity="0.8"/>
<path d="M178 220.609V228.652H179.6V227.043V220.609H178Z" fill="#0045B2" fill-opacity="0.8"/>
<path d="M330 222.217V223.826H336.4V222.217H330Z" fill="#0045B2" fill-opacity="0.8"/>
<path d="M230.8 223.826H229.2V225.435H230.8V223.826Z" fill="#0045B2" fill-opacity="0.8"/>
<path d="M325.2 225.435V233.478H326.8V230.261V225.435H325.2Z" fill="#0045B2" fill-opacity="0.8"/>
<path d="M229.2 228.652V231.87H230.8V228.652H229.2Z" fill="#0045B2" fill-opacity="0.8"/>
<path d="M128.4 231.87H126.8V233.478H128.4V231.87Z" fill="#0045B2" fill-opacity="0.8"/>
<path d="M195.6 233.478V235.087H206.8V233.478H195.6Z" fill="#0045B2" fill-opacity="0.8"/>
<path d="M218 233.478H216.4V235.087H218V233.478Z" fill="#0045B2" fill-opacity="0.8"/>
<path d="M232.4 233.478V235.087H250V233.478H248.4H246.8H232.4Z" fill="#0045B2" fill-opacity="0.8"/>
<path d="M146 235.087V238.304H147.6V235.087H146Z" fill="#0045B2" fill-opacity="0.8"/>
<path d="M125.2 238.304H123.6V239.913H125.2V238.304Z" fill="#0045B2" fill-opacity="0.8"/>
<path d="M128.4 238.304V239.913H136.4H142.8V238.304H128.4Z" fill="#0045B2" fill-opacity="0.8"/>
<path d="M162 238.304V239.913H168.4H170V238.304H162Z" fill="#0045B2" fill-opacity="0.8"/>
<path d="M226 238.304H224.4V239.913H226V238.304Z" fill="#0045B2" fill-opacity="0.8"/>
<path d="M250 238.304H248.4V239.913H250V238.304Z" fill="#0045B2" fill-opacity="0.8"/>
<path d="M213.2 239.913V241.522V243.13V246.348H214.8L213.2 239.913Z" fill="#0045B2" fill-opacity="0.8"/>
<path d="M194 198.087H192.4V199.696H194V198.087Z" fill="#0045B2" fill-opacity="0.5"/>
<path d="M208.4 198.087L206.8 210.956H208.4V199.696V198.087Z" fill="#0045B2" fill-opacity="0.5"/>
<path d="M224.4 198.087H222.8V199.696H224.4V198.087Z" fill="#0045B2" fill-opacity="0.5"/>
<path d="M262.8 198.087H261.2V199.696H262.8V198.087Z" fill="#0045B2" fill-opacity="0.5"/>
<path d="M320.4 198.087H318.8V199.696H320.4V198.087Z" fill="#0045B2" fill-opacity="0.5"/>
<path d="M342.8 198.087H341.2V199.696H342.8V198.087Z" fill="#0045B2" fill-opacity="0.5"/>
<path d="M250 199.696V202.913H251.6V199.696H250Z" fill="#0045B2" fill-opacity="0.5"/>
<path d="M285.2 199.696H283.6V201.304H285.2V199.696Z" fill="#0045B2" fill-opacity="0.5"/>
<path d="M222.8 201.304V236.696H224.4V201.304H222.8Z" fill="#0045B2" fill-opacity="0.5"/>
<path d="M288.4 202.913H286.8V204.522H288.4V202.913Z" fill="#0045B2" fill-opacity="0.5"/>
<path d="M320.4 202.913H318.8V204.522H320.4V202.913Z" fill="#0045B2" fill-opacity="0.5"/>
<path d="M318.8 206.13V236.696H320.4V206.13H318.8Z" fill="#0045B2" fill-opacity="0.5"/>
<path d="M206.8 212.565V223.826H208.4V212.565H206.8Z" fill="#0045B2" fill-opacity="0.5"/>
<path d="M234 214.174H232.4V215.783H234V214.174Z" fill="#0045B2" fill-opacity="0.5"/>
<path d="M264.4 214.174H262.8V215.783H264.4V214.174Z" fill="#0045B2" fill-opacity="0.5"/>
<path d="M269.2 214.174V215.783H277.2V214.174H275.6H269.2Z" fill="#0045B2" fill-opacity="0.5"/>
<path d="M192.4 219V231.87H194V219H192.4Z" fill="#0045B2" fill-opacity="0.5"/>
<path d="M179.6 230.261H178V231.87H179.6V230.261Z" fill="#0045B2" fill-opacity="0.5"/>
<path d="M216.4 231.87H214.8V233.478H216.4V231.87Z" fill="#0045B2" fill-opacity="0.5"/>
<path d="M250 235.087V238.304H251.6V235.087H250Z" fill="#0045B2" fill-opacity="0.5"/>
<path d="M285.2 236.696H283.6V238.304H285.2V236.696Z" fill="#0045B2" fill-opacity="0.5"/>
<path d="M256.4 238.304H254.8V239.913H256.4V238.304Z" fill="#0045B2" fill-opacity="0.5"/>
<path d="M299.6 238.304H298V239.913H299.6V238.304Z" fill="#0045B2" fill-opacity="0.5"/>
<path d="M306 238.304H304.4V239.913H306V238.304Z" fill="#0045B2" fill-opacity="0.5"/>
<path d="M320.4 238.304H318.8V239.913H320.4V238.304Z" fill="#0045B2" fill-opacity="0.5"/>
<path d="M219.6 243.13V247.956H221.2V243.13H219.6Z" fill="#0045B2" fill-opacity="0.5"/>
<path d="M214.8 198.087V199.696V231.87H216.4L214.8 198.087Z" fill="#0045B2" fill-opacity="0.4"/>
<path d="M251.6 198.087H250V199.696H251.6V198.087Z" fill="#0045B2" fill-opacity="0.4"/>
<path d="M285.2 198.087H283.6V199.696H285.2V198.087Z" fill="#0045B2" fill-opacity="0.4"/>
<path d="M277.2 199.696H275.6V201.304H277.2V199.696Z" fill="#0045B2" fill-opacity="0.4"/>
<path d="M283.6 201.304V236.696H285.2V201.304H283.6Z" fill="#0045B2" fill-opacity="0.4"/>
<path d="M251.6 202.913H250V204.522H251.6V202.913Z" fill="#0045B2" fill-opacity="0.4"/>
<path d="M317.2 202.913H315.6V204.522H317.2V202.913Z" fill="#0045B2" fill-opacity="0.4"/>
<path d="M349.2 206.13H347.6V207.739H349.2V206.13Z" fill="#0045B2" fill-opacity="0.4"/>
<path d="M208.4 210.956H206.8V212.565H208.4V210.956Z" fill="#0045B2" fill-opacity="0.4"/>
<path d="M149.2 212.565V225.435H150.8V212.565H149.2Z" fill="#0045B2" fill-opacity="0.4"/>
<path d="M349.2 214.174H347.6V215.783H349.2V214.174Z" fill="#0045B2" fill-opacity="0.4"/>
<path d="M347.6 217.391H346V219H347.6V217.391Z" fill="#0045B2" fill-opacity="0.4"/>
<path d="M248.4 220.609H246.8V222.217H248.4V220.609Z" fill="#0045B2" fill-opacity="0.4"/>
<path d="M206.8 223.826V233.478H208.4V230.261V223.826H206.8Z" fill="#0045B2" fill-opacity="0.4"/>
<path d="M277.2 225.435H275.6V227.043H277.2V225.435Z" fill="#0045B2" fill-opacity="0.4"/>
<path d="M251.6 233.478H250V235.087H251.6V233.478Z" fill="#0045B2" fill-opacity="0.4"/>
<path d="M219.6 235.087V243.13H221.2V235.087H219.6Z" fill="#0045B2" fill-opacity="0.4"/>
<path d="M275.6 235.087V238.304H277.2V235.087H275.6Z" fill="#0045B2" fill-opacity="0.4"/>
<path d="M224.4 238.304H222.8V239.913H224.4V238.304Z" fill="#0045B2" fill-opacity="0.4"/>
<path d="M251.6 238.304H250V239.913H251.6V238.304Z" fill="#0045B2" fill-opacity="0.4"/>
<path d="M262.8 238.304H261.2V239.913H262.8V238.304Z" fill="#0045B2" fill-opacity="0.4"/>
<path d="M285.2 238.304H283.6V239.913H285.2V238.304Z" fill="#0045B2" fill-opacity="0.4"/>
<path d="M288.4 198.087H286.8V199.696H288.4V198.087Z" fill="#0045B2" fill-opacity="0.6"/>
<path d="M317.2 198.087H315.6V199.696H317.2V198.087Z" fill="#0045B2" fill-opacity="0.6"/>
<path d="M174.8 199.696H173.2V201.304H174.8V199.696Z" fill="#0045B2" fill-opacity="0.6"/>
<path d="M192.4 199.696V219H194V199.696H192.4Z" fill="#0045B2" fill-opacity="0.6"/>
<path d="M224.4 199.696H222.8V201.304H224.4V199.696Z" fill="#0045B2" fill-opacity="0.6"/>
<path d="M318.8 199.696V202.913H320.4V199.696H318.8Z" fill="#0045B2" fill-opacity="0.6"/>
<path d="M261.2 201.304V214.174H262.8V201.304H261.2Z" fill="#0045B2" fill-opacity="0.6"/>
<path d="M347.6 202.913H346V204.522H347.6V202.913Z" fill="#0045B2" fill-opacity="0.6"/>
<path d="M298 204.522V206.13V236.696H299.6L298 204.522Z" fill="#0045B2" fill-opacity="0.6"/>
<path d="M320.4 204.522H318.8V206.13H320.4V204.522Z" fill="#0045B2" fill-opacity="0.6"/>
<path d="M179.6 206.13H178V207.739H179.6V206.13Z" fill="#0045B2" fill-opacity="0.6"/>
<path d="M349.2 212.565H347.6V214.174H349.2V212.565Z" fill="#0045B2" fill-opacity="0.6"/>
<path d="M232.4 214.174H230.8V215.783H232.4V214.174Z" fill="#0045B2" fill-opacity="0.6"/>
<path d="M234 214.174V215.783H242V214.174H234Z" fill="#0045B2" fill-opacity="0.6"/>
<path d="M245.2 214.174H246.8V215.783H248.4V220.609H246.8V215.783H245.2V214.174Z" fill="#0045B2" fill-opacity="0.6"/>
<path d="M264.4 214.174V215.783H269.2V214.174H264.4Z" fill="#0045B2" fill-opacity="0.6"/>
<path d="M261.2 222.217V236.696H262.8V222.217H261.2Z" fill="#0045B2" fill-opacity="0.6"/>
<path d="M341.2 222.217H339.6V223.826H341.2V222.217Z" fill="#0045B2" fill-opacity="0.6"/>
<path d="M178 233.478H176.4V235.087H178V233.478Z" fill="#0045B2" fill-opacity="0.6"/>
<path d="M174.8 236.696H173.2V238.304H174.8V236.696Z" fill="#0045B2" fill-opacity="0.6"/>
<path d="M224.4 236.696H222.8V238.304H224.4V236.696Z" fill="#0045B2" fill-opacity="0.6"/>
<path d="M320.4 236.696H318.8V238.304H320.4V236.696Z" fill="#0045B2" fill-opacity="0.6"/>
<path d="M99.6 238.304H98V239.913H99.6V238.304Z" fill="#0045B2" fill-opacity="0.6"/>
<path d="M187.6 238.304H186V239.913H187.6V238.304Z" fill="#0045B2" fill-opacity="0.6"/>
<path d="M326.8 238.304H325.2V239.913H326.8V238.304Z" fill="#0045B2" fill-opacity="0.6"/>
<path d="M214.8 247.956H213.2V249.565H214.8V247.956Z" fill="#0045B2" fill-opacity="0.6"/>
<path d="M158.8 198.087H157.2V199.696H158.8V198.087Z" fill="#0045B2" fill-opacity="0.2"/>
<path d="M173.2 198.087H171.6V199.696H173.2V198.087Z" fill="#0045B2" fill-opacity="0.2"/>
<path d="M277.2 198.087H275.6V199.696H277.2V198.087Z" fill="#0045B2" fill-opacity="0.2"/>
<path d="M275.6 201.304V214.174H277.2V212.565V210.956V204.522V201.304H275.6Z" fill="#0045B2" fill-opacity="0.2"/>
<path d="M152.4 204.522H150.8V206.13H152.4V204.522Z" fill="#0045B2" fill-opacity="0.2"/>
<path d="M149.2 209.348V212.565H150.8V210.956V209.348H149.2Z" fill="#0045B2" fill-opacity="0.2"/>
<path d="M85.1996 212.565H83.5996V214.174H85.1996V212.565Z" fill="#0045B2" fill-opacity="0.2"/>
<path d="M130 214.174H128.4V215.783H130V214.174Z" fill="#0045B2" fill-opacity="0.2"/>
<path d="M131.6 214.174V215.783H142.8V214.174H131.6Z" fill="#0045B2" fill-opacity="0.2"/>
<path d="M275.6 222.217V225.435H277.2V222.217H275.6Z" fill="#0045B2" fill-opacity="0.2"/>
<path d="M342.8 222.217H341.2V223.826H342.8V222.217Z" fill="#0045B2" fill-opacity="0.2"/>
<path d="M149.2 225.435V228.652H150.8V227.043V225.435H149.2Z" fill="#0045B2" fill-opacity="0.2"/>
<path d="M275.6 227.043V235.087H277.2V228.652V227.043H275.6Z" fill="#0045B2" fill-opacity="0.2"/>
<path d="M152.4 231.87H150.8V233.478H152.4V231.87Z" fill="#0045B2" fill-opacity="0.2"/>
<path d="M221.2 233.478H219.6V235.087H221.2V233.478Z" fill="#0045B2" fill-opacity="0.2"/>
<path d="M158.8 238.304H157.2V239.913H158.8V238.304Z" fill="#0045B2" fill-opacity="0.2"/>
<path d="M173.2 238.304H171.6V239.913H173.2V238.304Z" fill="#0045B2" fill-opacity="0.2"/>
<path d="M221.2 247.956H219.6V249.565H221.2V247.956Z" fill="#0045B2" fill-opacity="0.2"/>
<path d="M336.4 204.522H334.8V206.13H336.4V204.522Z" fill="#0045B2" fill-opacity="0.1"/>
<path d="M158.8 212.565H157.2V214.174H158.8V212.565Z" fill="#0045B2" fill-opacity="0.1"/>
<path d="M171.6 215.783V222.217H173.2V215.783H171.6Z" fill="#0045B2" fill-opacity="0.1"/>
<path d="M328.4 215.783V217.391H334.8V215.783H328.4Z" fill="#0045B2" fill-opacity="0.1"/>
<path d="M166.8 202.913H165.2V204.522H166.8V202.913Z" fill="#0045B2" fill-opacity="0.9"/>
<path d="M339.6 204.522H341.2V206.13H342.8V207.739H341.2V206.13H339.6V204.522Z" fill="#0045B2" fill-opacity="0.9"/>
<path d="M173.2 207.739H171.6V209.348H173.2V207.739Z" fill="#0045B2" fill-opacity="0.9"/>
<path d="M174.8 212.565H173.2V214.174H174.8V212.565Z" fill="#0045B2" fill-opacity="0.9"/>
<path d="M131.6 215.783H130V217.391H131.6V215.783Z" fill="#0045B2" fill-opacity="0.9"/>
<path d="M341.2 215.783H339.6V217.391H341.2V215.783Z" fill="#0045B2" fill-opacity="0.9"/>
<path d="M328.4 217.391H326.8V219H328.4V217.391Z" fill="#0045B2" fill-opacity="0.9"/>
<path d="M336.4 217.391H334.8V219H336.4V217.391Z" fill="#0045B2" fill-opacity="0.9"/>
<path d="M262.8 220.609H261.2V222.217H262.8V220.609Z" fill="#0045B2" fill-opacity="0.9"/>
<path d="M174.8 223.826H173.2V225.435H174.8V223.826Z" fill="#0045B2" fill-opacity="0.9"/>
<path d="M152.4 227.044H150.8V228.652H152.4V227.044Z" fill="#0045B2" fill-opacity="0.9"/>
<path d="M158.8 236.696H157.2V238.304H158.8V236.696Z" fill="#0045B2" fill-opacity="0.9"/>
<path d="M173.2 236.696H171.6V238.304H173.2V236.696Z" fill="#0045B2" fill-opacity="0.9"/>
<path d="M101.2 202.913H99.5996V204.522H101.2V202.913Z" fill="#0045B2" fill-opacity="0.9"/>
<path d="M130 202.913H128.4V204.522H130V202.913Z" fill="#0045B2" fill-opacity="0.9"/>
<path d="M165.2 202.913H163.6V204.522H165.2V202.913Z" fill="#0045B2" fill-opacity="0.9"/>
<path d="M336.4 202.913H334.8V204.522H336.4V202.913Z" fill="#0045B2" fill-opacity="0.9"/>
<path d="M162 204.522H160.4V206.13H162V204.522Z" fill="#0045B2" fill-opacity="0.9"/>
<path d="M170 204.522H168.4V206.13H170V204.522Z" fill="#0045B2" fill-opacity="0.9"/>
<path d="M230.8 204.522H229.2V206.13H230.8V204.522Z" fill="#0045B2" fill-opacity="0.9"/>
<path d="M326.8 204.522H325.2V206.13H326.8V204.522Z" fill="#0045B2" fill-opacity="0.9"/>
<path d="M157.2 210.957H155.6V212.565H157.2V210.957Z" fill="#0045B2" fill-opacity="0.9"/>
<path d="M174.8 214.174H173.2V215.783H174.8V214.174Z" fill="#0045B2" fill-opacity="0.9"/>
<path d="M326.8 215.783H325.2V217.391H326.8V215.783Z" fill="#0045B2" fill-opacity="0.9"/>
<path d="M328.4 217.391V219H334.8V217.391H328.4Z" fill="#0045B2" fill-opacity="0.9"/>
<path d="M130 220.609H128.4V222.217H130V220.609Z" fill="#0045B2" fill-opacity="0.9"/>
<path d="M174.8 222.217H173.2V223.826H174.8V222.217Z" fill="#0045B2" fill-opacity="0.9"/>
<path d="M230.8 222.217H229.2V223.826H230.8V222.217Z" fill="#0045B2" fill-opacity="0.9"/>
<path d="M326.8 223.826H325.2V225.435H326.8V223.826Z" fill="#0045B2" fill-opacity="0.9"/>
<path d="M157.2 225.435H155.6V227.044H157.2V225.435Z" fill="#0045B2" fill-opacity="0.9"/>
<path d="M158.8 228.652H157.2V230.261H158.8V228.652Z" fill="#0045B2" fill-opacity="0.9"/>
<path d="M173.2 228.652H171.6V230.261H173.2V228.652Z" fill="#0045B2" fill-opacity="0.9"/>
<path d="M170 231.87H168.4V233.478H170V231.87Z" fill="#0045B2" fill-opacity="0.9"/>
<path d="M178 231.87H176.4V233.478H178V231.87Z" fill="#0045B2" fill-opacity="0.9"/>
<path d="M328.4 202.913V204.522H331.6V202.913H328.4Z" fill="#0045B2" fill-opacity="0.7"/>
<path d="M160.4 206.13H158.8V207.739H160.4V206.13Z" fill="#0045B2" fill-opacity="0.7"/>
<path d="M171.6 206.13H170V207.739H171.6V206.13Z" fill="#0045B2" fill-opacity="0.7"/>
<path d="M173.2 209.348H171.6V210.957H173.2V209.348Z" fill="#0045B2" fill-opacity="0.7"/>
<path d="M155.6 214.174V225.435H157.2V214.174H155.6Z" fill="#0045B2" fill-opacity="0.7"/>
<path d="M232.4 220.609H230.8V222.217H232.4V220.609Z" fill="#0045B2" fill-opacity="0.7"/>
<path d="M173.2 227.044H171.6V228.652H173.2V227.044Z" fill="#0045B2" fill-opacity="0.7"/>
<path d="M160.4 230.261H158.8V231.87H160.4V230.261Z" fill="#0045B2" fill-opacity="0.7"/>
<path d="M171.6 230.261H170V231.87H171.6V230.261Z" fill="#0045B2" fill-opacity="0.7"/>
<path d="M152.4 233.478H154V235.087H155.6V236.696H154V235.087H152.4V233.478Z" fill="#0045B2" fill-opacity="0.7"/>
<path d="M176.4 235.087H174.8V236.696H176.4V235.087Z" fill="#0045B2" fill-opacity="0.7"/>
<path d="M163.6 204.522V206.13H166.8V204.522H165.2H163.6Z" fill="#0045B2" fill-opacity="0.1"/>
<path d="M328.4 204.522H326.8V206.13H328.4V204.522Z" fill="#0045B2" fill-opacity="0.1"/>
<path d="M160.4 206.13H162V207.739H160.4V209.348H158.8V207.739H160.4V206.13Z" fill="#0045B2" fill-opacity="0.1"/>
<path d="M170 206.13H168.4V207.739H170V206.13Z" fill="#0045B2" fill-opacity="0.1"/>
<path d="M158.8 210.957H157.2V212.565H158.8V210.957Z" fill="#0045B2" fill-opacity="0.1"/>
<path d="M171.6 212.565V215.783H173.2V214.174V212.565H171.6Z" fill="#0045B2" fill-opacity="0.1"/>
<path d="M328.4 215.783H326.8V217.391H328.4V215.783Z" fill="#0045B2" fill-opacity="0.1"/>
<path d="M336.4 215.783H334.8V217.391H336.4V215.783Z" fill="#0045B2" fill-opacity="0.1"/>
<path d="M173.2 222.217H171.6V223.826H173.2V222.217Z" fill="#0045B2" fill-opacity="0.1"/>
<path d="M163.6 231.87V233.478H166.8V231.87H163.6Z" fill="#0045B2" fill-opacity="0.1"/>
<path d="M342.8 207.739H341.2V209.348H342.8V207.739Z" fill="#0045B2" fill-opacity="0.7"/>
<path d="M342.8 210.956H341.2V212.565H342.8V210.956Z" fill="#0045B2" fill-opacity="0.7"/>
<path d="M328.4 202.913H326.8V204.522H328.4V202.913Z" fill="#0045B2" fill-opacity="0.8"/>
<path d="M331.6 202.913V204.522H334.8V202.913H331.6Z" fill="#0045B2" fill-opacity="0.8"/>
<path d="M128.4 204.522H126.8V206.13H128.4V204.522Z" fill="#0045B2" fill-opacity="0.8"/>
<path d="M325.2 206.13V215.783H326.8V206.13H325.2Z" fill="#0045B2" fill-opacity="0.8"/>
<path d="M158.8 207.739H157.2V209.348H158.8V207.739Z" fill="#0045B2" fill-opacity="0.8"/>
<path d="M157.2 212.565H155.6V214.174H157.2V212.565Z" fill="#0045B2" fill-opacity="0.8"/>
<path d="M342.8 212.565H341.2V214.174H342.8V212.565Z" fill="#0045B2" fill-opacity="0.8"/>
<path d="M173.2 215.783V222.217H174.8V215.783H173.2Z" fill="#0045B2" fill-opacity="0.8"/>
<path d="M347.6 215.783H346V217.391H347.6V215.783Z" fill="#0045B2" fill-opacity="0.8"/>
<path d="M277.2 220.609H275.6V222.217H277.2V220.609Z" fill="#0045B2" fill-opacity="0.8"/>
<path d="M128.4 222.217H126.8V223.826H128.4V222.217Z" fill="#0045B2" fill-opacity="0.8"/>
<path d="M328.4 222.217H326.8V223.826H328.4V222.217Z" fill="#0045B2" fill-opacity="0.8"/>
<path d="M162 231.87H160.4V233.478H162V231.87Z" fill="#0045B2" fill-opacity="0.8"/>
<path d="M168.4 204.522H166.8V206.13H168.4V204.522Z" fill="#0045B2" fill-opacity="0.5"/>
<path d="M344.4 220.609H342.8V222.217H344.4V220.609Z" fill="#0045B2" fill-opacity="0.5"/>
<path d="M173.2 225.435H171.6V227.043H173.2V225.435Z" fill="#0045B2" fill-opacity="0.5"/>
<path d="M168.4 231.87H166.8V233.478H168.4V231.87Z" fill="#0045B2" fill-opacity="0.5"/>
<path d="M163.6 204.522H162V206.13H163.6V204.522Z" fill="#0045B2" fill-opacity="0.4"/>
<path d="M341.2 206.13H339.6V207.739H341.2V206.13Z" fill="#0045B2" fill-opacity="0.4"/>
<path d="M158.8 209.348H157.2V210.957H158.8V209.348Z" fill="#0045B2" fill-opacity="0.4"/>
<path d="M173.2 210.957H171.6V212.565H173.2V210.957Z" fill="#0045B2" fill-opacity="0.4"/>
<path d="M158.8 227.043H157.2V228.652H158.8V227.043Z" fill="#0045B2" fill-opacity="0.4"/>
<path d="M339.6 204.522H338V206.13H339.6V204.522Z" fill="#0045B2" fill-opacity="0.6"/>
<path d="M342.8 209.348H341.2V210.957H342.8V209.348Z" fill="#0045B2" fill-opacity="0.6"/>
<path d="M339.6 214.174H341.2V215.783H339.6V217.391H338V215.783H339.6V214.174Z" fill="#0045B2" fill-opacity="0.6"/>
<path d="M346 219H344.4V220.609H346V219Z" fill="#0045B2" fill-opacity="0.6"/>
<path d="M338 204.522H336.4V206.13H338V204.522Z" fill="#0045B2" fill-opacity="0.2"/>
<path d="M171.6 207.739H170V209.348H171.6V207.739Z" fill="#0045B2" fill-opacity="0.2"/>
<path d="M338 215.783H336.4V217.391H338V215.783Z" fill="#0045B2" fill-opacity="0.2"/>
<path d="M173.2 223.826H171.6V225.435H173.2V223.826Z" fill="#0045B2" fill-opacity="0.2"/>
<path d="M163.6 231.87H162V233.478H163.6V231.87Z" fill="#0045B2" fill-opacity="0.2"/>
<path d="M158.8 225.435H157.2V227.044H158.8V225.435Z" fill="#0045B2" fill-opacity="0.1"/>
<path d="M341.2 212.565H339.6V214.174H341.2V212.565Z" fill="#0045B2" fill-opacity="0.1"/>
<path d="M158.8 228.652H160.4V230.261H162V231.87H160.4V230.261H158.8V228.652Z" fill="#0045B2" fill-opacity="0.1"/>
<path d="M170 228.652H171.6V230.261H170V231.87H168.4V230.261H170V228.652Z" fill="#0045B2" fill-opacity="0.1"/>
</svg>
