<svg width="410" height="410" viewBox="0 0 410 410" fill="none" xmlns="http://www.w3.org/2000/svg">
<rect width="410" height="410" fill="#F2F2F2"/>
<path fill-rule="evenodd" clip-rule="evenodd" d="M94.9139 170.111C96.3072 171.653 97.7779 173.04 98.2424 173.194C98.7068 173.349 103.971 178.514 120.923 195.859L121 201.872C121 205.11 120.768 207.962 120.381 208.193C120.071 208.347 114.653 203.414 108.383 197.169C102.113 190.925 96.7716 186.145 96.5394 186.608C96.3846 187.071 101.803 193.007 108.615 199.945C120.923 212.356 121 212.433 121 215.902C121 217.907 120.613 219.603 119.994 219.834C119.452 220.142 114.885 215.979 108.46 209.273C99.5583 199.945 97.7005 198.326 96.849 199.251C95.9976 200.099 96.075 200.407 97.0039 200.793C97.6231 201.024 103.274 206.42 121 224.382V239.646C121 247.972 120.768 254.987 120.381 255.141C120.071 255.372 114.808 250.516 108.615 244.349C102.422 238.258 97.1587 233.248 96.7716 233.248C96.462 233.248 96.2298 238.644 96.2298 257.145H108.615C120.458 257.145 121 257.223 121 258.687C121 259.612 120.381 260.383 119.22 260.615C118.291 260.846 111.789 260.923 91.9724 260.615L91.7402 215.131C91.6627 190.154 91.7402 169.109 92.0498 168.492C92.3594 167.644 93.0561 167.952 94.9139 170.111ZM126.573 168.954C127.348 169.802 128.199 171.036 128.354 171.807C128.586 172.501 129.36 173.194 130.134 173.349C130.908 173.426 136.482 178.514 153.434 195.859L153.511 199.945C153.511 202.103 153.279 204.107 152.892 204.262C152.582 204.493 147.319 199.636 141.126 193.469C134.933 187.379 129.438 182.368 128.896 182.368C128.431 182.368 127.967 183.062 127.967 183.91C127.967 184.835 128.509 185.452 129.283 185.452C130.057 185.452 135.708 190.694 153.511 209.35V225.924C153.511 236.177 153.202 242.653 152.737 242.884C152.273 243.115 146.777 237.796 140.429 231.166C131.992 222.301 128.663 219.294 128.354 220.142C128.044 220.759 128.044 221.992 128.431 222.84C128.741 223.688 128.896 224.691 128.818 225.153C128.663 225.616 129.128 225.461 129.825 224.999C130.908 224.151 132.611 225.616 153.589 247.509L153.511 251.21C153.511 253.214 153.202 254.987 152.737 255.218C152.273 255.45 146.932 250.439 140.739 244.04C134.546 237.719 129.205 232.477 128.741 232.477C128.276 232.477 128.044 236.948 128.354 256.76L186.409 256.837C218.301 256.837 263.739 256.914 287.271 256.991C329.458 257.145 330 257.145 330 258.687C330 259.689 329.381 260.383 328.22 260.615C327.291 260.846 281.079 260.923 124.483 260.615L124.251 215.131C124.174 190.154 124.329 169.186 124.638 168.569C125.025 167.721 125.412 167.798 126.573 168.954ZM61.0094 168.492C61.2417 168.492 62.7898 169.802 64.4928 171.421C66.1957 172.963 72.3109 179.284 88.7987 196.63L88.6439 208.81C88.5665 215.44 88.2568 221.376 88.0246 221.915C87.715 222.455 83.7672 219.063 77.1876 212.433C71.5368 206.729 66.5828 202.257 66.2731 202.566C65.9635 202.874 68.8276 206.497 72.7754 210.66C76.6457 214.823 81.832 220.142 84.1542 222.455C88.3342 226.541 88.489 226.849 88.489 230.781C88.489 233.787 88.1794 234.789 87.3279 234.789C86.7087 234.789 81.9094 230.241 76.6457 224.768C71.4594 219.217 66.7376 214.746 66.1957 214.746C65.7313 214.746 65.3442 215.054 65.4217 215.44C65.5765 215.825 70.7628 221.376 88.489 239.415V246.738C88.489 251.826 88.1794 254.216 87.4827 254.524C86.9409 254.833 82.3739 250.824 75.8716 244.349C67.5116 235.946 65.112 233.864 64.5702 234.789C64.1831 235.406 63.6413 240.263 63.4091 245.582C63.022 252.906 63.1768 255.45 63.8735 256.22C64.6476 256.914 67.9761 257.223 76.6457 257.145C87.9472 257.145 88.489 257.223 88.489 258.687C88.489 259.535 87.9472 260.383 87.3279 260.615C86.7087 260.846 80.5935 261 73.7816 261C62.7124 261 61.3191 260.846 60.932 259.612C60.6224 258.919 60.3128 238.336 60.0805 213.975C59.9257 189.615 60.0031 169.417 60.2354 169.109C60.4676 168.8 60.8546 168.492 61.0094 168.492ZM191.054 205.264C204.213 205.341 215.515 205.418 215.979 205.495C216.676 205.495 216.985 206.96 216.985 214.746H214.663C212.883 214.746 212.186 215.208 211.567 216.673C211.102 217.752 210.87 222.301 210.87 226.926C210.947 231.474 211.18 236.177 211.489 237.488C211.876 239.261 212.496 239.877 214.276 240.186C216.521 240.571 216.598 240.648 216.598 249.822H188.732L188.499 245.042C188.345 240.494 188.499 240.186 190.048 240.031C191.828 239.8 191.828 239.646 191.828 216.673H184.087L183.236 227.466C182.694 233.402 181.842 239.492 181.378 240.957C180.836 242.421 179.443 244.811 178.359 246.276C177.275 247.741 175.185 249.436 173.792 249.976C172.476 250.516 169.38 250.978 167.058 250.978C164.735 250.978 161.949 250.67 160.865 250.207C159.007 249.436 158.93 249.128 158.93 236.331L161.639 236.717C163.11 236.948 165.2 236.64 166.283 236.177C167.445 235.56 168.606 234.096 169.148 232.477C169.612 231.012 169.999 226.849 169.999 223.226C169.999 219.603 169.767 216.211 169.535 215.748C169.225 215.208 167.754 214.746 166.283 214.746C164.813 214.746 163.419 214.283 163.265 213.821C163.11 213.281 163.11 211.2 163.342 209.195C163.574 206.189 163.961 205.572 165.355 205.341C166.283 205.187 177.817 205.187 191.054 205.264ZM220.856 205.495H270.009L270.551 212.048C270.938 215.671 271.016 218.909 270.783 219.371C270.551 219.834 268.539 220.142 266.294 220.142C263.043 220.065 261.959 219.757 260.488 218.215C258.94 216.442 258.321 216.288 246.787 216.673L246.555 219.217C246.4 221.221 246.71 221.761 248.103 221.992C249.109 222.224 252.98 222.532 256.85 222.686C261.262 222.917 265.055 223.611 267.223 224.459C269.08 225.307 271.48 226.849 272.486 228.083C273.415 229.239 274.654 231.629 275.118 233.479C275.737 235.869 275.737 237.488 275.041 239.8C274.499 241.496 273.338 243.655 272.486 244.657C271.557 245.582 269.235 246.893 267.3 247.509C265.365 248.126 261.107 248.974 257.779 249.436C254.528 249.822 245.394 250.207 237.498 250.207C223.952 250.207 223.1 250.13 222.404 248.666C221.939 247.818 221.63 246.122 221.63 244.811C221.63 243.501 221.785 241.959 222.017 241.342C222.249 240.725 223.1 240.186 223.952 240.186C224.803 240.186 226.042 240.031 226.661 239.8C227.59 239.492 227.822 237.488 227.822 228.083C227.822 219.911 227.59 216.365 226.893 215.671C226.352 215.131 224.726 214.746 220.856 214.746V205.495ZM246.555 236.717C246.787 239.569 246.942 239.8 249.264 240.031C250.967 240.134 252.335 239.672 253.367 238.644C254.218 237.796 254.915 236.64 254.915 236.177C254.992 235.637 254.373 234.635 253.599 233.941C252.825 233.248 251.122 232.4 249.729 232.091C248.026 231.706 247.174 231.86 246.787 232.631C246.555 233.17 246.4 235.021 246.555 236.717ZM277.363 205.495H294.006C306.546 205.495 312.042 205.803 316.221 206.729C319.318 207.422 322.801 208.502 323.962 209.041C325.201 209.658 326.826 211.277 327.678 212.664C328.529 213.975 329.458 216.519 329.69 218.215C329.923 219.911 329.845 222.532 329.381 223.997C328.916 225.461 327.368 227.774 325.975 229.008C324.582 230.318 321.872 232.014 319.937 232.708C318.002 233.402 313.125 234.25 309.1 234.558C302.056 235.175 301.746 235.252 301.514 237.102C301.359 238.181 301.746 239.261 302.288 239.569C302.83 239.877 304.223 240.186 305.384 240.186C306.623 240.186 307.707 240.725 307.939 241.342C308.171 241.959 308.326 243.501 308.326 244.811C308.326 246.122 307.939 247.818 307.552 248.666C306.855 250.13 306.004 250.207 277.363 250.207V240.186L282.394 239.8L282.472 228.237C282.549 220.836 282.24 216.288 281.698 215.671C281.233 215.131 280.072 214.669 279.066 214.746C277.518 214.746 277.363 214.438 277.363 210.121V205.495ZM301.514 220.528C301.746 223.534 301.824 223.611 304.456 223.457C306.081 223.38 307.552 222.763 308.171 221.915C308.713 221.144 309.1 220.219 309.1 219.757C309.1 219.294 308.713 218.369 308.171 217.675C307.629 216.904 306.081 216.056 304.765 215.825C303.062 215.517 302.133 215.671 301.824 216.365C301.514 216.982 301.359 218.832 301.514 220.528Z" fill="#0045B2"/>
</svg>
