<svg width="410" height="410" viewBox="0 0 410 410" fill="none" xmlns="http://www.w3.org/2000/svg">
<rect width="410" height="410" fill="#F2F2F2"/>
<path fill-rule="evenodd" clip-rule="evenodd" d="M21 158V255.769H29.1431V165.286H117.787V158H21ZM117.788 181.502H44.9648V255.769H53.3397V255.769H117.787V255.769H117.788V181.502ZM117.787 255.769V239.552H69.3934V207.119H117.787V190.668H53.3397V255.769H117.787ZM135.236 181.267V255.769H156.176V197.719H369.292V181.267H135.236ZM244.121 202.184H259.244C263.199 202.184 266.223 203.124 268.317 205.475C269.947 207.589 270.876 210.41 270.876 213.935V232.502C270.876 236.262 269.947 239.083 268.317 241.433C266.458 244.253 263.897 245.428 260.175 245.428H244.121H233.186V255.769H217.598V202.184H244.121ZM244.121 232.502H255.289V213.935H244.121H233.186V232.502H244.121ZM201.312 202.184H172.462C167.809 202.184 164.552 203.359 162.458 206.179C160.597 208.53 159.666 212.055 159.666 216.52V241.433C159.666 245.663 160.597 249.189 162.69 251.774C164.784 254.359 168.042 255.769 172.462 255.769H201.312C205.733 255.769 209.223 254.359 211.317 251.774C213.178 249.424 214.341 245.898 214.341 241.433V216.52C214.341 212.29 213.411 208.765 211.317 206.179C208.99 203.359 205.733 202.184 201.312 202.184ZM196.892 241.433H176.883V216.52H196.892V241.433ZM345.794 255.769H390.001V181.267H372.318V240.963H348.819V201.949H330.672V240.493C330.672 244.958 332.068 248.719 334.394 251.539C336.721 254.359 340.677 255.769 345.794 255.769ZM289.027 255.769H327.415V240.963H291.585V216.991H327.415V202.184H289.027C279.022 202.184 274.135 205.71 274.135 216.286V240.728C274.135 250.364 279.254 255.769 289.027 255.769ZM138.726 158.235V166.461H138.959L141.983 158.235H145.939L141.751 166.931C143.612 167.636 144.31 169.281 144.775 171.631C145.008 172.571 145.183 173.453 145.357 174.334C145.531 175.215 145.706 176.097 145.939 177.037H142.449C141.983 175.627 141.751 174.217 141.518 172.806C141.053 170.691 140.587 169.281 139.191 169.281H138.959V176.802H135.469V158.235H138.726ZM146.637 167.401C146.637 172.571 148.265 177.037 152.453 177.037C155.943 177.037 158.503 174.217 158.503 167.166C158.503 162.935 157.106 158 152.686 158C148.731 158 146.637 162.23 146.637 167.401ZM154.78 167.401C154.78 171.161 154.315 173.982 152.686 173.982C151.057 173.982 150.359 171.161 150.359 167.401C150.359 164.111 151.057 161.055 152.686 161.055C154.315 161.055 154.78 164.111 154.78 167.401ZM164.318 158.235V165.756H168.041V158.235H171.531V176.802H168.041V169.046H164.318V176.802H160.596V158.235H164.318ZM180.837 177.037C182.001 177.037 183.164 176.802 183.629 176.567L183.164 173.276C183.079 173.276 182.931 173.308 182.744 173.348C182.42 173.417 181.978 173.511 181.535 173.511C179.209 173.511 177.58 171.866 177.58 167.401C177.58 162.935 179.441 161.055 181.535 161.055C182.233 161.055 182.699 161.29 183.164 161.525L183.862 158.47C183.396 158.235 182.466 158 181.303 158C177.813 158 173.857 160.82 173.857 167.871C173.857 173.041 176.184 177.037 180.837 177.037ZM188.981 172.571L188.283 176.802H184.793L188.748 158.235H193.169L196.659 176.802H193.169L192.471 172.571H188.981ZM192.006 169.751L191.308 165.756C191.191 165.168 191.075 164.404 190.959 163.641L190.959 163.64L190.958 163.639C190.842 162.876 190.726 162.113 190.61 161.525C190.493 162.113 190.377 162.877 190.261 163.641L190.261 163.641L190.261 163.642C190.144 164.405 190.028 165.169 189.912 165.756L189.446 169.751H192.006ZM209.456 176.802V158.235H199.917V166.461C199.917 169.986 199.684 172.101 198.521 173.277C198.288 173.747 197.823 173.982 197.357 173.982L198.055 177.037C198.986 177.037 199.917 176.567 200.615 176.097C202.941 174.452 203.174 170.456 203.174 166.226V161.29H205.966V176.802H209.456Z" fill="#0045B2"/>
</svg>
