<svg width="410" height="410" viewBox="0 0 410 410" fill="none" xmlns="http://www.w3.org/2000/svg">
<rect width="410" height="410" fill="#F2F2F2"/>
<mask id="mask0_1180_3346" style="mask-type:luminance" maskUnits="userSpaceOnUse" x="69" y="174" width="262" height="76">
<path d="M331 174H69V249.357H331V174Z" fill="white"/>
</mask>
<g mask="url(#mask0_1180_3346)">
<path d="M262.847 216.834C266.303 216.875 269.685 215.835 272.52 213.859L277.934 220.968C276.542 221.953 275.047 222.783 273.474 223.442C269.951 224.883 266.173 225.604 262.367 225.563C257.66 225.624 253.013 224.493 248.86 222.275C244.934 220.172 241.658 217.03 239.394 213.192C237.132 209.203 235.942 204.695 235.942 200.108C235.942 195.522 237.132 191.014 239.394 187.024C241.693 183.19 244.99 180.053 248.934 177.948C253.087 175.731 257.734 174.602 262.441 174.667C266.234 174.625 269.996 175.344 273.507 176.781C274.965 177.397 276.356 178.159 277.661 179.055L271.92 185.897C269.204 184.199 266.057 183.315 262.854 183.35C259.789 183.305 256.761 184.044 254.06 185.497C251.53 186.878 249.436 188.938 248.015 191.446C246.588 194.106 245.841 197.079 245.841 200.098C245.841 203.118 246.588 206.09 248.015 208.751C249.436 211.258 251.53 213.318 254.06 214.7C256.759 216.147 259.784 216.882 262.847 216.834Z" fill="#0045B2"/>
<path fill-rule="evenodd" clip-rule="evenodd" d="M193.26 183.61C191.469 180.88 188.904 178.746 185.894 177.481C182.36 176.003 178.556 175.281 174.727 175.36H157.44V224.849H167.24V210.785H174.727C178.561 210.867 182.369 210.145 185.907 208.664C188.916 207.396 191.477 205.258 193.26 202.522C194.939 199.659 195.823 196.399 195.823 193.079C195.823 189.76 194.939 186.5 193.26 183.636V183.61ZM185.96 193.099C185.96 196.074 184.974 198.388 183.034 199.975C181.094 201.562 178.134 202.396 174.294 202.396H167.24V183.77H174.294C178.134 183.77 181.074 184.59 183.034 186.191C184.994 187.791 185.96 190.092 185.96 193.073V193.099Z" fill="#0045B2"/>
<path d="M210.193 216.507V203.823H230.567V195.62H210.193V183.703H233.56V175.361H200.394V224.85H234.534V216.507H210.193Z" fill="#0045B2"/>
<path fill-rule="evenodd" clip-rule="evenodd" d="M327.174 187.031C324.881 183.19 321.582 180.049 317.633 177.948C313.421 175.791 308.756 174.667 304.023 174.667C299.291 174.667 294.627 175.791 290.414 177.948C286.462 180.057 283.165 183.21 280.88 187.064C278.614 191.034 277.421 195.526 277.421 200.098C277.421 204.67 278.614 209.163 280.88 213.132C283.162 216.99 286.461 220.145 290.414 222.255C294.627 224.412 299.291 225.537 304.023 225.537C308.756 225.537 313.421 224.412 317.633 222.255C321.577 220.158 324.876 217.024 327.174 213.192C329.445 209.212 330.641 204.708 330.641 200.125C330.641 195.542 329.445 191.038 327.174 187.057V187.031ZM320.767 200.128C320.807 203.142 320.055 206.113 318.587 208.744C317.183 211.263 315.105 213.342 312.587 214.746C309.946 216.156 306.997 216.894 304.004 216.894C301.01 216.894 298.062 216.156 295.421 214.746C292.905 213.338 290.829 211.261 289.421 208.744C287.994 206.095 287.247 203.134 287.247 200.125C287.247 197.116 287.994 194.154 289.421 191.505C290.829 188.989 292.905 186.912 295.421 185.504C298.064 184.098 301.011 183.363 304.004 183.363C306.997 183.363 309.944 184.098 312.587 185.504C315.105 186.908 317.183 188.986 318.587 191.505C320.056 194.139 320.807 197.113 320.767 200.128Z" fill="#0045B2"/>
<path d="M160.58 240.314H165.694L165.707 237.787H157.44V249.064H160.58V240.314Z" fill="#0045B2"/>
<path fill-rule="evenodd" clip-rule="evenodd" d="M185.267 246.87H180.5L179.614 249.057H176.36L181.34 237.78H184.48L189.474 249.057H186.14L185.267 246.87ZM184.334 244.516L182.887 240.908L181.434 244.536L184.334 244.516Z" fill="#0045B2"/>
<path fill-rule="evenodd" clip-rule="evenodd" d="M210.821 239.769C210.394 239.118 209.787 238.605 209.073 238.294H209.08C208.238 237.934 207.328 237.759 206.413 237.78H201.26V249.084H204.44V246.143H206.406C207.322 246.164 208.231 245.989 209.073 245.629C209.787 245.318 210.394 244.805 210.821 244.154C211.247 243.502 211.474 242.74 211.474 241.962C211.474 241.183 211.247 240.421 210.821 239.769ZM208.089 242.653C208.003 242.863 207.869 243.051 207.7 243.202C207.273 243.517 206.748 243.668 206.22 243.629H204.446V240.328H206.22C206.749 240.29 207.274 240.444 207.7 240.761C207.869 240.916 208.001 241.106 208.088 241.319C208.174 241.531 208.212 241.759 208.2 241.988C208.214 242.215 208.176 242.442 208.089 242.653Z" fill="#0045B2"/>
<path fill-rule="evenodd" clip-rule="evenodd" d="M231.593 246.87H226.826L225.94 249.057H222.687L227.666 237.78H230.806L235.8 249.057H232.467L231.593 246.87ZM230.66 244.536L229.207 240.928L227.76 244.536H230.66Z" fill="#0045B2"/>
<path d="M259.588 249.064V237.787H256.4V242.021H252.048V237.787H248.86V249.064H252.048V244.662H256.4V249.064H259.588Z" fill="#0045B2"/>
<path d="M282.673 240.314H279.226V249.064H276.086V240.314H272.619V237.787H282.673V240.314Z" fill="#0045B2"/>
<path d="M298.293 237.787H295.154V249.064H298.168L302.807 242.455V249.064H305.947V237.787H302.954L298.293 244.409V237.787Z" fill="#0045B2"/>
<path fill-rule="evenodd" clip-rule="evenodd" d="M326.954 237.78V249.057H323.807V246.223H322.06L320.207 249.057H316.873L319.16 245.756C318.452 245.46 317.851 244.958 317.433 244.316C317.038 243.625 316.829 242.844 316.829 242.048C316.829 241.253 317.038 240.471 317.433 239.781C317.856 239.122 318.466 238.606 319.186 238.3C320.028 237.94 320.938 237.762 321.853 237.78H326.954ZM320.059 242.021C320.043 242.259 320.078 242.497 320.159 242.72C320.243 242.943 320.373 243.146 320.539 243.315C320.924 243.633 321.415 243.791 321.913 243.755H323.813V240.294H321.947C320.693 240.294 320.059 240.868 320.059 242.021Z" fill="#0045B2"/>
<path fill-rule="evenodd" clip-rule="evenodd" d="M142.187 220.555L142.727 225.096H129.627C127.384 231.113 123.558 236.412 118.553 240.434C113.08 244.749 106.1 247.49 97.4867 248.51L92.9467 249.05V235.966C86.932 233.719 81.6349 229.89 77.6133 224.883C73.3 219.408 70.56 212.425 69.54 203.809L69 199.268H82.0933C84.3329 193.249 88.1593 187.949 93.1666 183.93C98.6401 179.615 105.62 176.874 114.233 175.847L118.773 175.307V188.398C124.79 190.638 130.089 194.466 134.107 199.475C138.42 204.956 141.167 211.932 142.187 220.555ZM101.087 239.667C105.614 238.754 109.876 236.828 113.553 234.032L113.52 234.066C116.544 231.647 119.003 228.597 120.727 225.13H106.36V216.994H133.333C132.42 212.465 130.495 208.201 127.7 204.523C125.284 201.488 122.236 199.016 118.767 197.281V211.639H110.64V184.677C106.112 185.589 101.85 187.515 98.1733 190.312C95.1479 192.729 92.6881 195.779 90.9667 199.248H105.327V207.391H78.3667C79.2718 211.921 81.196 216.185 83.9933 219.861C86.4149 222.882 89.4657 225.337 92.9334 227.057V212.699H101.087V239.667Z" fill="#0045B2"/>
</g>
</svg>
