<svg width="410" height="410" viewBox="0 0 410 410" fill="none" xmlns="http://www.w3.org/2000/svg">
<rect width="410" height="410" fill="#F2F2F2"/>
<path d="M86.2352 220.527H79.686V200.807L65.3096 220.527H59V190.473H65.6291V210.193L80.0853 190.473H86.2352V220.527ZM91.0274 190.552H97.7363V202.384H111.154V190.552H117.863V220.527H111.154V208.458H97.7363V220.527H91.0274V190.552ZM129.284 220.527H122.655V190.473H143.261V196.468H129.284V220.527ZM175.449 205.539C175.449 196.389 168.74 190.158 159.475 190H159.315C150.05 190.079 143.341 196.389 143.341 205.461C143.341 214.611 150.05 220.842 159.315 220.921H159.475C168.74 220.921 175.449 214.611 175.449 205.539ZM159.395 214.926C154.044 214.926 150.29 211.298 150.29 205.539C150.29 199.702 154.044 196.153 159.395 196.153C164.746 196.153 168.5 199.781 168.5 205.539C168.5 211.298 164.746 214.926 159.395 214.926ZM245.334 196.626H235.51V190.552H261.787V196.626H252.043V220.527H245.334V196.626ZM265.86 190.552H279.518C286.786 190.552 291.178 194.812 291.178 200.964C291.178 207.906 285.747 211.534 278.879 211.534H272.569V220.527H265.86V190.552ZM279.038 205.618C282.393 205.618 284.31 203.646 284.31 200.964C284.31 198.046 282.233 196.389 278.879 196.389H272.489V205.539H279.038V205.618ZM351 220.527L340.218 205.145L350.521 190.473H342.853L336.384 199.702L329.915 190.473H322.008L332.391 205.303L321.608 220.527H329.276L336.224 210.667L343.093 220.527H351ZM314.101 220.527H320.889L307.871 190.316H301.721L288.702 220.527H295.491L298.367 213.585H311.225L314.101 220.527ZM300.763 207.748L304.836 198.361L308.909 207.748H300.763ZM194.377 214.926C189.026 214.926 185.272 211.298 185.272 205.539C185.272 199.702 189.026 196.153 194.377 196.153C197.173 196.153 199.489 196.941 201.486 198.598L205.639 194.496C202.844 191.814 199.09 190.079 194.457 190.079H194.298C185.033 190.158 178.324 196.468 178.324 205.539C178.324 214.69 185.033 220.921 194.298 221H194.457C199.01 220.921 202.764 219.186 205.639 216.583L201.486 212.481C199.489 214.137 197.173 214.926 194.377 214.926ZM222.252 214.926C216.9 214.926 213.147 211.298 213.147 205.539C213.147 199.702 216.9 196.153 222.252 196.153C225.047 196.153 227.363 196.941 229.36 198.598L233.513 194.496C230.718 191.814 226.964 190.079 222.332 190.079H222.172C212.907 190.158 206.198 196.468 206.198 205.539C206.198 214.69 212.907 220.921 222.172 221H222.332C226.884 220.921 230.638 219.186 233.513 216.583L229.36 212.481C227.363 214.137 225.047 214.926 222.252 214.926Z" fill="#0045B2"/>
</svg>
