<svg width="410" height="410" viewBox="0 0 410 410" fill="none" xmlns="http://www.w3.org/2000/svg">
<rect width="410" height="410" fill="#F2F2F2"/>
<path d="M100.927 211.992C98.8941 212.032 96.9109 211.364 95.3171 210.1C93.7234 208.837 92.6183 207.059 92.1916 205.069V205.008C92.0461 204.105 91.9687 203.194 91.96 202.28V194.02H97.9149V202.28C97.9202 202.851 97.9658 203.42 98.0512 203.985C98.2569 204.578 98.642 205.092 99.153 205.456C99.664 205.82 100.276 206.015 100.903 206.015C101.53 206.015 102.141 205.82 102.652 205.456C103.163 205.092 103.548 204.578 103.754 203.985C103.847 203.414 103.899 202.837 103.911 202.259V194.007H109.893V202.266C109.885 203.18 109.81 204.091 109.668 204.994V205.062C109.244 207.055 108.139 208.837 106.543 210.102C104.948 211.366 102.961 212.035 100.927 211.992Z" fill="#0045B2"/>
<path d="M100.907 220.953C96.8585 220.954 92.9216 219.627 89.6985 217.175C86.4774 214.758 84.26 211.237 83.471 207.286V207.224C83.15 205.194 82.9792 203.142 82.96 201.086V186H88.9218V201.113C88.9417 202.815 89.0829 204.513 89.3442 206.194C90.3117 211.2 95.2719 214.965 100.886 214.965C106.501 214.965 111.454 211.2 112.421 206.201C112.686 204.518 112.827 202.817 112.844 201.113V178H118.826V201.113C118.807 203.169 118.636 205.221 118.315 207.252V207.313C117.53 211.262 115.317 214.783 112.101 217.202C108.88 219.644 104.948 220.962 100.907 220.953Z" fill="#0045B2"/>
<path d="M100.913 229.935C94.8311 229.939 88.9152 227.948 84.0703 224.268C79.2752 220.665 75.9739 215.421 74.7972 209.536V209.475C74.2969 206.339 74.0305 203.17 74 199.995V178H79.9822V199.995C80.0047 202.824 80.2324 205.649 80.6636 208.445C82.367 217.311 91.0542 223.947 100.9 223.947C110.745 223.947 119.419 217.284 121.122 208.445C121.548 205.646 121.775 202.82 121.803 199.988V186H127.786V199.995C127.755 203.168 127.491 206.334 126.995 209.468V209.536C125.817 215.42 122.516 220.664 117.722 224.268C112.888 227.944 106.984 229.934 100.913 229.935ZM147.797 222.972C148.304 222.695 148.875 222.554 149.453 222.563C149.906 222.556 150.355 222.646 150.77 222.829C151.185 223.011 151.556 223.281 151.858 223.62L152.968 222.583C152.549 222.097 152.022 221.716 151.428 221.472C150.781 221.202 150.085 221.07 149.384 221.083C148.527 221.069 147.68 221.276 146.925 221.683C146.209 222.063 145.611 222.631 145.194 223.327C144.776 224.052 144.555 224.876 144.555 225.714C144.555 226.552 144.776 227.375 145.194 228.101C145.604 228.798 146.198 229.37 146.911 229.751C147.668 230.152 148.514 230.356 149.371 230.345C150.071 230.354 150.766 230.224 151.415 229.963C152.011 229.717 152.541 229.334 152.962 228.844L151.885 227.821C151.585 228.162 151.214 228.433 150.799 228.617C150.384 228.801 149.934 228.892 149.48 228.885C148.902 228.894 148.332 228.753 147.824 228.476C147.347 228.215 146.951 227.828 146.679 227.357C146.411 226.856 146.271 226.296 146.271 225.727C146.271 225.159 146.411 224.599 146.679 224.097C146.943 223.627 147.329 223.238 147.797 222.972ZM156.784 222.645H159.755V230.208H161.41V222.645H164.388V221.233H156.784V222.645ZM174.901 221.615C174.253 221.347 173.557 221.217 172.857 221.233H169.164V230.208H170.833V227.616H172.877C173.578 227.636 174.275 227.506 174.921 227.235C175.466 227.006 175.929 226.618 176.25 226.123C176.554 225.606 176.715 225.018 176.715 224.418C176.715 223.818 176.554 223.229 176.25 222.713C175.92 222.22 175.45 221.838 174.901 221.615ZM174.444 225.748C173.962 226.089 173.378 226.252 172.789 226.212H170.84V222.645H172.789C173.377 222.602 173.962 222.763 174.444 223.102C174.623 223.272 174.766 223.478 174.863 223.705C174.96 223.932 175.011 224.177 175.011 224.425C175.011 224.672 174.96 224.917 174.863 225.144C174.766 225.372 174.623 225.577 174.444 225.748ZM184.31 221.219L180.263 230.194H181.987L182.873 228.148H187.37L188.269 230.194H190.013L185.925 221.219H184.31ZM183.438 226.812L185.121 222.883L186.818 226.812H183.438ZM201.978 221.233H200.029L197.91 224.234L195.791 221.233H193.863L196.909 225.605L193.658 230.208H195.58L197.91 226.941L200.247 230.208H202.223L198.959 225.543L201.978 221.233ZM213.397 221.703C212.629 221.311 211.779 221.106 210.917 221.106C210.055 221.106 209.205 221.311 208.437 221.703C207.718 222.082 207.119 222.654 206.706 223.354C206.291 224.073 206.073 224.89 206.073 225.72C206.073 226.551 206.291 227.368 206.706 228.087C207.121 228.787 207.72 229.361 208.437 229.744C209.205 230.137 210.055 230.342 210.917 230.342C211.779 230.342 212.629 230.137 213.397 229.744C214.114 229.363 214.713 228.792 215.128 228.094C215.546 227.368 215.767 226.545 215.767 225.707C215.767 224.869 215.546 224.046 215.128 223.32C214.711 222.632 214.112 222.072 213.397 221.703ZM213.663 227.344C213.401 227.817 213.012 228.207 212.539 228.469C212.041 228.739 211.483 228.88 210.917 228.88C210.351 228.88 209.793 228.739 209.295 228.469C208.819 228.213 208.425 227.828 208.158 227.357C207.885 226.86 207.742 226.302 207.742 225.734C207.742 225.167 207.885 224.608 208.158 224.111C208.419 223.637 208.809 223.247 209.282 222.986C209.78 222.716 210.337 222.574 210.903 222.574C211.47 222.574 212.027 222.716 212.525 222.986C212.998 223.247 213.388 223.637 213.649 224.111C213.922 224.608 214.065 225.167 214.065 225.734C214.065 226.302 213.922 226.86 213.649 227.357L213.663 227.344ZM226.554 225.543C226.95 225.382 227.29 225.109 227.535 224.759C227.767 224.395 227.886 223.97 227.876 223.538C227.889 223.205 227.818 222.874 227.669 222.576C227.52 222.278 227.298 222.022 227.024 221.833C226.317 221.393 225.491 221.183 224.66 221.233H220.64V230.208H224.905C225.801 230.258 226.689 230.019 227.44 229.526C227.909 229.144 228.214 228.597 228.293 227.997C228.371 227.397 228.217 226.79 227.862 226.3C227.518 225.915 227.059 225.65 226.554 225.543ZM222.289 222.515H224.51C224.946 222.486 225.379 222.601 225.743 222.842C225.884 222.957 225.996 223.103 226.069 223.269C226.143 223.435 226.176 223.616 226.166 223.797C226.177 223.978 226.144 224.158 226.071 224.323C225.997 224.488 225.885 224.633 225.743 224.745C225.377 224.981 224.945 225.093 224.51 225.066H222.275L222.289 222.515ZM224.857 228.926H222.289V226.287H224.857C226.036 226.287 226.629 226.723 226.629 227.596C226.629 228.469 226.029 228.926 224.851 228.926H224.857ZM236.093 221.219L232.005 230.208H233.722L234.614 228.162H239.104L240.004 230.208H241.755L237.667 221.233L236.093 221.219ZM235.214 226.812L236.897 222.883L238.593 226.812H235.214ZM252.752 224.936H248.098V221.233H246.429V230.208H248.098V226.362H252.752V230.208H254.421V221.233H252.752V224.936ZM262.12 227.61V221.233H260.478V230.208H262.025L266.856 223.852V230.208H268.505V221.233H266.951L262.12 227.61ZM276.224 222.631V224.963H280.571V226.334H276.224V228.81H280.599V230.208H274.555V221.233H280.599V222.631H276.224ZM175.637 187.296C173.479 186.114 171.051 185.513 168.592 185.55C166.425 185.533 164.281 185.999 162.316 186.914C160.445 187.763 158.808 189.055 157.547 190.679C156.298 192.305 155.453 194.206 155.081 196.223H151.606V185.993H145.623V211.971H151.606V201.393H155.012C155.325 203.464 156.143 205.426 157.393 207.105C158.643 208.785 160.287 210.13 162.18 211.023C164.18 211.955 166.365 212.421 168.571 212.387C171.031 212.424 173.458 211.823 175.616 210.641C177.663 209.529 179.366 207.878 180.542 205.867C181.709 203.76 182.321 201.391 182.321 198.982C182.321 196.573 181.709 194.204 180.542 192.097C179.376 190.079 177.679 188.418 175.637 187.296ZM175.248 203.323C174.63 204.535 173.686 205.55 172.523 206.256C171.335 206.935 169.991 207.293 168.622 207.293C167.254 207.293 165.91 206.935 164.722 206.256C163.559 205.55 162.615 204.535 161.996 203.323C161.337 201.971 160.995 200.486 160.995 198.982C160.995 197.478 161.337 195.993 161.996 194.641C162.615 193.429 163.559 192.414 164.722 191.708C165.91 191.029 167.254 190.672 168.622 190.672C169.991 190.672 171.335 191.029 172.523 191.708C173.686 192.414 174.63 193.429 175.248 194.641C175.907 195.993 176.25 197.478 176.25 198.982C176.25 200.486 175.907 201.971 175.248 203.323ZM194.585 190.89H206.965L206.999 185.993H188.644V211.971H194.626L194.585 190.89ZM224.796 212.414C227.332 212.455 229.837 211.854 232.08 210.668C234.176 209.566 235.934 207.916 237.169 205.894C238.39 203.805 239.033 201.429 239.033 199.009C239.033 196.59 238.39 194.213 237.169 192.124C235.934 190.102 234.176 188.453 232.08 187.35C229.819 186.202 227.32 185.604 224.786 185.604C222.251 185.604 219.752 186.202 217.492 187.35C215.391 188.446 213.631 190.097 212.402 192.124C211.197 194.218 210.563 196.593 210.563 199.009C210.563 201.426 211.197 203.8 212.402 205.894C213.631 207.922 215.391 209.573 217.492 210.668C219.742 211.854 222.254 212.454 224.796 212.414ZM217.696 194.675C218.373 193.438 219.383 192.417 220.613 191.729C221.891 191.035 223.322 190.672 224.776 190.672C226.23 190.672 227.661 191.035 228.939 191.729C230.164 192.422 231.173 193.442 231.855 194.675C232.549 196.005 232.911 197.482 232.911 198.982C232.911 200.482 232.549 201.96 231.855 203.289C231.173 204.522 230.164 205.542 228.939 206.235C227.661 206.929 226.23 207.292 224.776 207.292C223.322 207.292 221.891 206.929 220.613 206.235C219.383 205.547 218.373 204.526 217.696 203.289C216.998 201.961 216.633 200.483 216.633 198.982C216.633 197.481 216.998 196.003 217.696 194.675ZM266.317 200.411C267.214 198.898 267.687 197.171 267.687 195.412C267.687 193.653 267.214 191.926 266.317 190.413C265.359 188.954 263.995 187.809 262.393 187.119C260.496 186.312 258.45 185.919 256.39 185.966H245.134V211.944H251.151V204.81H256.39C258.448 204.856 260.493 204.47 262.393 203.678C263.995 203.002 265.361 201.865 266.317 200.411ZM260.185 198.74C258.986 199.598 257.527 200.013 256.056 199.913H251.151V190.89H256.056C257.527 190.79 258.986 191.205 260.185 192.063C260.663 192.476 261.039 192.993 261.284 193.575C261.529 194.157 261.635 194.788 261.596 195.419C261.626 196.039 261.514 196.658 261.27 197.228C261.026 197.799 260.655 198.307 260.185 198.713V198.74ZM298.654 211.971V185.993H293.006L280.592 202.914V185.993H274.61V211.971H280.299L292.706 195.084V211.971H298.654ZM316.799 185.993C314.754 185.944 312.724 186.345 310.85 187.166C309.248 187.876 307.891 189.046 306.953 190.529C306.046 192.111 305.571 193.905 305.577 195.73C305.583 197.555 306.069 199.346 306.987 200.922C307.968 202.401 309.385 203.535 311.041 204.169L305.59 211.998H311.947L316.553 205.096H322.052V211.998H328V185.993H316.799ZM322.072 200.315H316.799C315.413 200.417 314.041 199.98 312.969 199.095C312.52 198.637 312.171 198.089 311.947 197.488C311.723 196.886 311.628 196.244 311.668 195.603C311.623 194.952 311.722 194.299 311.957 193.691C312.193 193.083 312.559 192.534 313.031 192.084C314.149 191.218 315.545 190.793 316.955 190.89H322.079L322.072 200.315Z" fill="#0045B2"/>
</svg>
