<svg width="410" height="410" viewBox="0 0 410 410" fill="none" xmlns="http://www.w3.org/2000/svg">
<rect width="410" height="410" fill="#F2F2F2"/>
<path fill-rule="evenodd" clip-rule="evenodd" d="M310.027 196.473C310.027 189.863 304.426 184.544 293.063 184.544C280.969 184.544 274.749 191.327 274.749 199.71H285.856C285.856 195.357 288.273 193.087 292.901 193.087C297.284 193.087 299.149 194.666 299.149 197.165C299.149 199.662 297.769 201.364 294.361 201.364L288.078 201.369V208.533L294.197 208.529C298.095 208.529 299.719 210.222 299.719 212.962C299.719 215.541 298.014 217.992 293.063 217.992C287.706 217.992 285.271 215.253 285.271 210.739H274.193C274.193 220.975 281.376 226.456 293.063 226.456C304.587 226.456 311 221.619 311 213.882C311 209.852 308.89 206.95 304.832 205.258C308.321 203.405 310.026 200.019 310.026 196.472L310.027 196.473ZM256.444 225.367H267.842V185.634H256.444V189.98C253.507 186.32 249.637 184.817 245.428 184.817C234.716 184.817 226.185 193.089 226.185 205.5C226.185 217.911 234.716 226.183 245.428 226.183C249.637 226.183 253.507 224.679 256.444 221.02V225.367ZM257.237 205.5C257.237 211.785 252.544 216.386 246.922 216.386C241.382 216.386 236.607 211.785 236.607 205.5C236.607 199.215 241.382 194.614 246.923 194.614C252.544 194.614 257.237 199.215 257.237 205.5ZM206.961 195.168H223.524V185.633H195.569V225.367H206.962L206.961 195.168ZM189.942 205.5C189.942 193.626 180.342 184 168.5 184C156.657 184 147.058 193.626 147.058 205.5C147.058 217.374 156.658 227 168.5 227C180.343 227 189.942 217.374 189.942 205.5ZM180.708 207.557C174.135 209.121 169.557 214.728 168.5 223.758C167.443 214.728 162.865 209.121 156.292 207.557C155.162 200.489 161.386 194.307 168.5 194.297C175.614 194.307 181.838 200.489 180.708 207.557ZM110.414 205.5C110.414 199.05 114.757 193.797 120.999 193.797C125.795 193.797 129.776 196.428 130.771 200.328H141.628C141.065 191.28 132.822 184 121.25 184C109.127 184 100 192.852 100 205.503C100 218.156 109.127 227 121.25 227C133.025 227 141.347 219.754 141.628 209.855H130.771C129.924 214.38 126.157 217.202 121 217.202C115.3 217.202 110.414 212.116 110.414 205.5Z" fill="#0045B2"/>
</svg>
