<svg width="410" height="410" viewBox="0 0 410 410" fill="none" xmlns="http://www.w3.org/2000/svg">
<rect width="410" height="410" fill="#F2F2F2"/>
<path d="M65.1795 239.493V202.502H72.6864V217.077H87.5354V202.502H95.0424V239.493H87.5354V224.225H72.6864V239.493H65.1795ZM100.256 202.502H122.942V209.649H107.747V216.896H120.005V224.043H107.763V232.296H122.942V239.493H100.256V202.502ZM136.9 209.649H135.25V220.709H135.993C139.54 220.709 143.368 219.256 143.368 215.129C143.368 211.498 140.266 209.649 136.95 209.649H136.9ZM127.71 239.493V202.502H136.9C144.358 202.502 150.809 207.272 150.809 215.179C150.809 223.234 143.912 227.939 136.504 227.939H135.201V239.493H127.71ZM162.143 209.649V239.493H154.653V202.502H173.742V209.649H162.143ZM180.87 221.055C180.863 222.663 181.174 224.256 181.785 225.743C182.396 227.229 183.294 228.581 184.429 229.719C185.564 230.857 186.912 231.76 188.396 232.375C189.881 232.99 191.472 233.306 193.079 233.303C194.69 233.305 196.285 232.986 197.772 232.366C199.259 231.745 200.608 230.835 201.741 229.688C204.011 227.389 205.285 224.288 205.288 221.055C205.304 217.886 204.126 214.827 201.988 212.488C200.858 211.278 199.487 210.317 197.965 209.666C196.442 209.015 194.8 208.689 193.145 208.708C191.487 208.689 189.842 209.014 188.317 209.665C186.792 210.316 185.418 211.277 184.285 212.488C182.152 214.83 180.975 217.887 180.985 221.055M173.495 221.055C173.465 218.364 174.014 215.698 175.104 213.237C176.195 210.776 177.801 208.579 179.814 206.794C183.46 203.502 188.169 201.633 193.079 201.528C198.016 201.578 202.768 203.413 206.459 206.694C208.472 208.48 210.078 210.677 211.169 213.138C212.259 215.599 212.808 218.265 212.778 220.956C212.792 223.58 212.263 226.179 211.224 228.588C210.185 230.997 208.658 233.164 206.74 234.954C203.04 238.436 198.158 240.383 193.079 240.401C188 240.383 183.117 238.436 179.418 234.954C177.498 233.166 175.97 230.998 174.931 228.589C173.891 226.179 173.363 223.58 173.379 220.956M223.354 209.583V239.493H215.847V202.502H236.487V209.649L223.354 209.583ZM252.293 221.633L249.191 215.146L246.057 221.633H252.293ZM255.444 228.467H242.905L237.593 239.493H229.525L249.323 199.663L268.924 239.493H260.675L255.444 228.467ZM279.384 209.468H277.734V220.527H278.477C282.024 220.527 285.835 219.091 285.835 214.948C285.835 211.316 282.75 209.468 279.434 209.468H279.384ZM270.194 239.493V202.386H279.401C286.842 202.386 293.309 207.173 293.309 215.063C293.309 223.102 286.429 227.741 278.988 227.741C278.559 227.741 278.13 227.741 277.701 227.741V239.493H270.194ZM310.848 221.732L307.746 215.245L304.611 221.732H310.848ZM313.999 228.566H301.443L296.147 239.493H288.079L307.878 199.663L327.528 239.493H319.279L313.999 228.566ZM328.699 239.493V202.502H336.206V217.077H351.055V202.502H358.562V239.493H351.055V224.225H336.206V239.493H328.699ZM370.689 239.493V209.633H363V202.502H385.967V209.649H378.196V239.493H370.689ZM35.0195 212.092V203.426C37.6524 202.17 40.5336 201.521 43.4505 201.528C48.1663 201.55 52.7079 203.314 56.2041 206.48C58.1674 208.33 59.7164 210.575 60.7487 213.067C61.7811 215.56 62.2734 218.243 62.1932 220.94C62.2753 223.608 61.8097 226.265 60.825 228.747C59.8403 231.228 58.3574 233.481 56.4681 235.367C53.0427 238.643 48.486 240.47 43.7474 240.467C40.7168 240.489 37.7248 239.787 35.0195 238.42L35.0195 229.82C37.4371 231.92 40.4987 233.131 43.6979 233.254C46.256 233.206 48.716 232.26 50.6488 230.583C52.5816 228.906 53.8645 226.603 54.2737 224.076H39.2597V217.077H54.2737C53.7081 214.636 52.3172 212.464 50.3361 210.93C48.355 209.396 45.9052 208.594 43.401 208.659C40.2765 208.715 37.2865 209.94 35.0195 212.092Z" fill="#0045B2"/>
<path d="M43.632 190.633C42.6196 191.182 41.4833 191.46 40.3322 191.442C39.6033 191.468 38.8772 191.339 38.2019 191.063C37.5266 190.788 36.9177 190.371 36.4153 189.842C35.913 189.313 35.5288 188.683 35.2882 187.994C35.0476 187.306 34.956 186.573 35.0196 185.846C34.9833 185.092 35.1023 184.338 35.3692 183.632C35.6361 182.926 36.0452 182.281 36.5712 181.74C37.0972 181.198 37.7288 180.77 38.4268 180.483C39.1249 180.195 39.8745 180.055 40.6292 180.069C41.5927 180.042 42.5488 180.245 43.4175 180.663V182.066C42.5764 181.594 41.6267 181.349 40.6622 181.357C40.1043 181.368 39.5547 181.494 39.0472 181.726C38.5397 181.958 38.0849 182.292 37.711 182.706C37.337 183.12 37.0517 183.607 36.8726 184.135C36.6935 184.664 36.6244 185.224 36.6695 185.78C36.6063 186.336 36.6619 186.899 36.8327 187.431C37.0034 187.964 37.2853 188.454 37.6598 188.869C38.0342 189.284 38.4926 189.615 39.0045 189.84C39.5165 190.064 40.0703 190.177 40.6292 190.171C41.557 190.161 42.4664 189.911 43.269 189.445L43.632 190.633Z" fill="#0045B2"/>
<path d="M49.357 181.456H46.1562V180.168H54.3562L53.8942 181.456H50.8419V191.277H49.357V181.456Z" fill="#0045B2"/>
<path d="M57.5732 180.168H59.8501C60.6896 180.12 61.5267 180.297 62.2754 180.68C62.8067 180.985 63.2425 181.433 63.5339 181.972C63.8253 182.512 63.9609 183.121 63.9253 183.734C63.95 184.391 63.7779 185.041 63.431 185.599C63.0842 186.158 62.5783 186.601 61.9784 186.87C61.2749 187.147 60.5235 187.281 59.7676 187.266H59.1406V191.277H57.6392L57.5732 180.168ZM59.7676 186.044C60.2857 186.059 60.8001 185.952 61.269 185.731C61.623 185.54 61.9123 185.248 62.1003 184.893C62.2883 184.537 62.3665 184.134 62.3249 183.734C62.3668 183.347 62.3047 182.957 62.1452 182.603C61.9856 182.249 61.7344 181.944 61.4175 181.72C60.9085 181.46 60.3362 181.352 59.7676 181.406H59.0086V186.044H59.7676Z" fill="#0045B2"/>
<path d="M70.8889 180.069H71.9943L76.2675 191.277H74.6176L73.6112 188.322H69.305L68.249 191.244H66.6816L70.8889 180.069ZM73.1327 187.134L72.0933 184.229C71.7798 183.288 71.6148 182.776 71.4663 182.38L70.8229 184.245L69.7834 187.134H73.1327Z" fill="#0045B2"/>
<path d="M82.5031 185.698L78.8569 180.168H80.5892L83.4435 184.559L86.4463 180.168H88.1292L84.318 185.648L88.0302 191.277H86.3308L83.3775 186.804L80.2758 191.277H78.6094L82.5031 185.698Z" fill="#0045B2"/>
<path d="M91.1162 185.764C91.1162 184.319 91.6898 182.934 92.7109 181.912C93.732 180.891 95.1168 180.317 96.5608 180.317C98.0048 180.317 99.3897 180.891 100.411 181.912C101.432 182.934 102.005 184.319 102.005 185.764C102.005 187.209 101.432 188.594 100.411 189.616C99.3897 190.637 98.0048 191.211 96.5608 191.211C95.1168 191.211 93.732 190.637 92.7109 189.616C91.6898 188.594 91.1162 187.209 91.1162 185.764ZM100.422 185.764C100.483 185.219 100.429 184.667 100.263 184.144C100.097 183.621 99.8219 183.14 99.4567 182.73C99.0915 182.321 98.644 181.994 98.1435 181.77C97.643 181.546 97.1009 181.43 96.5526 181.43C96.0043 181.43 95.4621 181.546 94.9617 181.77C94.4612 181.994 94.0137 182.321 93.6485 182.73C93.2832 183.14 93.0085 183.621 92.8422 184.144C92.6759 184.667 92.6219 185.219 92.6836 185.764C92.6219 186.309 92.6759 186.861 92.8422 187.384C93.0085 187.906 93.2832 188.388 93.6485 188.797C94.0137 189.206 94.4612 189.534 94.9617 189.758C95.4621 189.982 96.0043 190.098 96.5526 190.098C97.1009 190.098 97.643 189.982 98.1435 189.758C98.644 189.534 99.0915 189.206 99.4567 188.797C99.8219 188.388 100.097 187.906 100.263 187.384C100.429 186.861 100.483 186.309 100.422 185.764Z" fill="#0045B2"/>
<path d="M106.047 180.168H108.835C111.178 180.168 112.234 181.489 112.234 182.991C112.254 183.482 112.131 183.969 111.879 184.391C111.627 184.813 111.257 185.153 110.815 185.368C111.429 185.495 111.978 185.835 112.367 186.327C112.756 186.818 112.96 187.431 112.943 188.058C112.943 189.874 111.64 191.244 109.149 191.244H106.047V180.168ZM108.67 185.021C110.023 185.021 110.749 184.328 110.749 183.222C110.749 182.116 110.139 181.423 108.703 181.423H107.614V185.021H108.67ZM109.066 189.973C110.518 189.973 111.426 189.412 111.426 188.042C111.426 186.672 110.568 186.243 109.264 186.243H107.614V189.973H109.066Z" fill="#0045B2"/>
<path d="M119.989 180.069H121.111L125.401 191.211H123.751L122.711 188.322H118.422L117.366 191.244H115.864L119.989 180.069ZM122.249 187.068L121.21 184.163C120.88 183.222 120.715 182.71 120.583 182.314C120.467 182.71 120.286 183.238 119.939 184.179L118.9 187.068H122.249Z" fill="#0045B2"/>
<path d="M129.657 187.745C130.102 186.92 130.383 186.457 130.845 186.21C130.241 186.036 129.717 185.658 129.362 185.14C129.007 184.622 128.843 183.996 128.898 183.371C128.895 182.908 128.99 182.45 129.176 182.026C129.363 181.602 129.636 181.223 129.978 180.911C130.32 180.6 130.724 180.364 131.163 180.219C131.602 180.074 132.067 180.023 132.527 180.069H135.547V191.277H134.012V186.672H132.362C132.033 186.672 131.62 187.035 131.142 188.026L129.492 191.327H127.842L129.657 187.745ZM132.676 185.45H134.012V181.406H132.692C132.399 181.365 132.101 181.389 131.817 181.475C131.534 181.562 131.273 181.71 131.053 181.908C130.833 182.106 130.659 182.35 130.543 182.623C130.427 182.895 130.373 183.19 130.383 183.486C130.383 184.856 131.356 185.45 132.626 185.45" fill="#0045B2"/>
<path d="M148.598 180.069H149.703L153.993 191.211H152.343L151.32 188.322H147.014L145.958 191.244H144.391L148.598 180.069ZM150.842 187.134L149.802 184.229C149.489 183.288 149.324 182.776 149.175 182.38L148.532 184.245L147.492 187.134H150.842Z" fill="#0045B2"/>
<path d="M157.425 180.168H158.91V185.021H159.999C161.648 185.021 161.863 182.743 162.589 181.208C162.735 180.863 162.981 180.569 163.296 180.366C163.611 180.163 163.98 180.06 164.354 180.069C164.635 180.063 164.914 180.108 165.179 180.201V181.555C164.994 181.488 164.799 181.454 164.602 181.456C164.431 181.449 164.262 181.494 164.118 181.586C163.973 181.677 163.86 181.81 163.793 181.967C163.249 182.974 163.001 184.922 161.813 185.615C162.358 185.797 162.754 186.358 163.232 187.266L165.361 191.277H163.711L161.813 187.662C161.302 186.672 160.889 186.325 160.543 186.325H158.893V191.277H157.408L157.425 180.168Z" fill="#0045B2"/>
<path d="M168.99 180.168H170.459V190.006H175.722V180.168H177.207V190.006H178.56V194.381H177.091V191.277H168.99V180.168Z" fill="#0045B2"/>
<path d="M182.206 180.168H183.674V186.886C183.674 187.662 183.674 188.207 183.674 188.801C184.037 188.256 184.516 187.563 185.176 186.721L190.126 180.119H191.561V191.277H190.109V184.311C190.109 183.503 190.109 182.991 190.109 182.463C189.73 183.007 189.268 183.668 188.657 184.476L183.509 191.277H182.239L182.206 180.168Z" fill="#0045B2"/>
<path d="M195.586 185.764C195.546 185.022 195.656 184.28 195.912 183.583C196.168 182.885 196.563 182.247 197.073 181.708C197.583 181.168 198.198 180.739 198.88 180.445C199.562 180.151 200.297 180 201.039 180C201.782 180 202.516 180.151 203.198 180.445C203.88 180.739 204.495 181.168 205.006 181.708C205.516 182.247 205.911 182.885 206.167 183.583C206.422 184.28 206.533 185.022 206.492 185.764C206.533 186.506 206.422 187.248 206.167 187.945C205.911 188.643 205.516 189.28 205.006 189.82C204.495 190.359 203.88 190.789 203.198 191.083C202.516 191.376 201.782 191.528 201.039 191.528C200.297 191.528 199.562 191.376 198.88 191.083C198.198 190.789 197.583 190.359 197.073 189.82C196.563 189.28 196.168 188.643 195.912 187.945C195.656 187.248 195.546 186.506 195.586 185.764ZM204.908 185.764C204.97 185.219 204.916 184.667 204.75 184.144C204.583 183.621 204.309 183.14 203.943 182.73C203.578 182.321 203.131 181.994 202.63 181.77C202.13 181.546 201.588 181.43 201.039 181.43C200.491 181.43 199.949 181.546 199.448 181.77C198.948 181.994 198.5 182.321 198.135 182.73C197.77 183.14 197.495 183.621 197.329 184.144C197.163 184.667 197.109 185.219 197.17 185.764C197.109 186.309 197.163 186.861 197.329 187.384C197.495 187.907 197.77 188.388 198.135 188.797C198.5 189.207 198.948 189.534 199.448 189.758C199.949 189.982 200.491 190.098 201.039 190.098C201.588 190.098 202.13 189.982 202.63 189.758C203.131 189.534 203.578 189.207 203.943 188.797C204.309 188.388 204.583 187.907 204.75 187.384C204.916 186.861 204.97 186.309 204.908 185.764Z" fill="#0045B2"/>
<path d="M210.568 180.168H212.053V184.955H217.861V180.168H219.346V191.277H217.861V186.243H212.053V191.277H210.568V180.168Z" fill="#0045B2"/>
<path d="M223.932 180.168H229.525L229.079 181.456H225.433V184.972H229.046V186.259H225.433V190.006H229.591V191.277H223.932V180.168Z" fill="#0045B2"/>
<path d="M233.749 180.168H236.009C236.849 180.119 237.686 180.295 238.435 180.68C238.966 180.985 239.402 181.433 239.693 181.972C239.985 182.512 240.12 183.121 240.084 183.734C240.109 184.391 239.937 185.041 239.59 185.599C239.243 186.158 238.738 186.601 238.138 186.87C237.415 187.159 236.639 187.294 235.861 187.266H235.217V191.277H233.732L233.749 180.168ZM235.976 186.044C236.495 186.064 237.01 185.956 237.478 185.731C237.832 185.54 238.121 185.248 238.309 184.893C238.497 184.537 238.575 184.134 238.534 183.734C238.561 183.347 238.485 182.96 238.314 182.612C238.143 182.264 237.883 181.967 237.56 181.753C237.053 181.485 236.482 181.365 235.91 181.406H235.151V186.044H235.976Z" fill="#0045B2"/>
<path d="M244.011 180.168H245.512V184.955H251.32V180.168H252.788V191.277H251.32V186.243H245.512V191.277H244.011V180.168Z" fill="#0045B2"/>
<path d="M260.427 180.069H261.533L265.839 191.211H264.189L263.15 188.322H258.843L257.754 191.277H256.104L260.427 180.069ZM262.704 187.134L261.665 184.229L261.054 182.38C260.939 182.776 260.741 183.304 260.411 184.245L259.371 187.134H262.704Z" fill="#0045B2"/>
<path d="M270.096 187.745C270.335 187.133 270.741 186.601 271.267 186.21C270.662 186.036 270.136 185.659 269.778 185.141C269.421 184.623 269.253 183.998 269.304 183.37C269.301 182.906 269.397 182.446 269.584 182.021C269.771 181.597 270.045 181.216 270.389 180.904C270.734 180.593 271.139 180.357 271.581 180.213C272.022 180.069 272.489 180.02 272.95 180.069H275.969V191.277H274.485V186.672H272.835C272.488 186.672 272.092 187.035 271.614 188.025L269.964 191.327H268.231L270.096 187.745ZM273.115 185.45H274.501V181.406H273.165C272.878 181.378 272.59 181.411 272.317 181.503C272.045 181.596 271.796 181.746 271.586 181.943C271.377 182.14 271.212 182.38 271.103 182.646C270.994 182.912 270.943 183.198 270.954 183.486C270.954 184.856 271.927 185.45 273.198 185.45" fill="#0045B2"/>
<path d="M285.984 180.168H287.469V185.021H288.558C290.208 185.021 290.423 182.743 291.165 181.208C291.308 180.864 291.551 180.571 291.863 180.368C292.175 180.165 292.542 180.061 292.914 180.069C293.195 180.062 293.474 180.107 293.739 180.201V181.555C293.56 181.486 293.37 181.452 293.178 181.456C293.005 181.448 292.833 181.492 292.686 181.584C292.539 181.675 292.423 181.809 292.353 181.967C291.808 182.974 291.561 184.922 290.39 185.615C290.918 185.797 291.33 186.358 291.792 187.266L293.937 191.261H292.287L290.373 187.662C289.862 186.672 289.449 186.325 289.119 186.325H287.469V191.277H285.984V180.168Z" fill="#0045B2"/>
<path d="M297.038 185.764C297.038 184.319 297.612 182.934 298.633 181.912C299.654 180.891 301.039 180.317 302.483 180.317C303.927 180.317 305.312 180.891 306.333 181.912C307.354 182.934 307.927 184.319 307.927 185.764C307.927 187.209 307.354 188.594 306.333 189.616C305.312 190.637 303.927 191.211 302.483 191.211C301.039 191.211 299.654 190.637 298.633 189.616C297.612 188.594 297.038 187.209 297.038 185.764ZM306.343 185.764C306.405 185.219 306.351 184.667 306.185 184.144C306.019 183.621 305.744 183.14 305.379 182.73C305.013 182.321 304.566 181.994 304.065 181.77C303.565 181.546 303.023 181.43 302.474 181.43C301.926 181.43 301.384 181.546 300.884 181.77C300.383 181.994 299.936 182.321 299.57 182.73C299.205 183.14 298.93 183.621 298.764 184.144C298.598 184.667 298.544 185.219 298.605 185.764C298.544 186.309 298.598 186.861 298.764 187.384C298.93 187.906 299.205 188.388 299.57 188.797C299.936 189.206 300.383 189.534 300.884 189.758C301.384 189.982 301.926 190.098 302.474 190.098C303.023 190.098 303.565 189.982 304.065 189.758C304.566 189.534 305.013 189.206 305.379 188.797C305.744 188.388 306.019 187.906 306.185 187.384C306.351 186.861 306.405 186.309 306.343 185.764Z" fill="#0045B2"/>
<path d="M312.003 180.168H313.389L316.408 184.691C316.853 185.368 317.134 185.781 317.414 186.243C317.662 185.797 317.959 185.302 318.388 184.592L321.209 180.135H322.578V191.277H321.11V184.427C321.11 183.899 321.11 183.222 321.11 182.661C320.879 183.09 320.516 183.668 320.318 183.981L317.761 188.058H317.018L314.214 183.899C313.942 183.513 313.694 183.11 313.471 182.694C313.471 183.189 313.471 183.915 313.471 184.344V191.277H311.97L312.003 180.168Z" fill="#0045B2"/>
<path d="M327.215 180.168H335.53V191.277H334.045V181.456H328.683V191.277H327.215V180.168Z" fill="#0045B2"/>
<path d="M343.152 180.069H344.258L348.498 191.277H346.848L345.874 188.322H341.585L340.529 191.244H338.879L343.152 180.069ZM345.396 187.068L344.357 184.163L343.746 182.314C343.631 182.71 343.433 183.238 343.103 184.179L342.063 187.068H345.396Z" fill="#0045B2"/>
<path d="M351.979 180.168H353.481V184.955H359.288V180.168H360.757V191.277H359.288V186.243H353.481V191.277H351.979V180.168Z" fill="#0045B2"/>
<path d="M365.359 180.168H366.844V186.886C366.844 187.662 366.844 188.207 366.844 188.801C367.207 188.256 367.669 187.563 368.329 186.721L373.279 180.119H374.731V191.277H373.246V184.311C373.246 183.503 373.246 182.991 373.246 182.463C372.883 183.007 372.404 183.668 371.81 184.476L366.646 191.277H365.376L365.359 180.168Z" fill="#0045B2"/>
<path d="M380.111 187.745C380.349 187.133 380.755 186.601 381.282 186.21C380.683 186.03 380.165 185.65 379.813 185.133C379.462 184.616 379.299 183.994 379.352 183.371C379.349 182.908 379.444 182.45 379.63 182.026C379.816 181.602 380.089 181.223 380.432 180.911C380.774 180.6 381.178 180.364 381.617 180.219C382.056 180.074 382.521 180.023 382.981 180.069H386.001V191.277H384.516V186.672H382.866C382.536 186.672 382.123 187.035 381.645 188.026L379.995 191.327H378.263L380.111 187.745ZM383.146 185.45H384.532V181.406H383.146C382.854 181.365 382.556 181.388 382.273 181.475C381.991 181.562 381.731 181.71 381.512 181.908C381.293 182.107 381.121 182.351 381.007 182.624C380.893 182.896 380.84 183.191 380.853 183.486C380.853 184.856 381.826 185.45 383.097 185.45" fill="#0045B2"/>
</svg>
