<svg width="410" height="410" viewBox="0 0 410 410" fill="none" xmlns="http://www.w3.org/2000/svg">
<rect width="410" height="410" fill="#F2F2F2"/>
<path d="M137.255 208.054H152.56V222.218L161.03 208.054H177.812L164.805 226.711L178.189 247.395H160.594L152.56 232.446V247.395H137.255V208.054Z" fill="#0045B2"/>
<path d="M133.393 246.169C130.996 247.461 127.717 248.584 123.12 248.584C110.658 248.584 101.812 240.325 101.812 227.731C101.812 213.457 113.174 206.887 122.902 206.887C126.013 206.887 130.332 207.673 133.393 209.859V223.626C131.045 220.654 127.608 219.461 124.923 219.461C119.237 219.461 116.513 223.338 116.513 228.118C116.513 233.118 120.059 235.981 124.874 235.981C128.262 235.981 131.214 234.41 133.393 232.383V246.169Z" fill="#0045B2"/>
<path d="M81.2956 237.705V231.801H83.1481C84.6242 231.801 86.9819 232.079 86.9819 234.723C86.9819 237.476 84.5646 237.705 83.1481 237.705H81.2956ZM66 207.806V247.148H88.6163C99.2262 247.148 101.525 240.17 101.525 236.184C101.525 230.847 97.9683 226.97 93.0447 226.125V226.016C96.2148 225.062 99.7116 222.249 99.7116 217.816C99.7116 214.774 98.5626 207.806 87.5762 207.806H66ZM81.2956 222.756V217.249H82.7221C85.3968 217.249 86.1102 218.661 86.1102 220.002C86.1102 221.344 85.3968 222.756 82.7221 222.756H81.2956Z" fill="#0045B2"/>
<path d="M267.63 213.069L263.262 213.238L262.866 212.165L258.656 211.866L258.637 211.081L254.128 211.011L254.871 212.641L256.883 212.88L256.636 212.353L258.458 213.576L261.479 214.262L263.491 214.331L268.553 213.655L267.63 213.069Z" fill="#0045B2"/>
<path d="M256.491 209.254L254.43 208.975C254.43 208.975 254.49 208.26 253.688 207.862C252.884 207.465 253.073 207.833 253.073 207.833L252.29 207.256L250.843 207.007L250.725 205.924L248.842 205.824L248.882 205.288L247.417 205.109L246.791 204.542L246.991 203.926L246.623 203.369L244.871 202.534L243.404 201.948L242.434 200.825L241.285 199.821L239.799 198.36L236.093 197.058L232.576 194.454L231.15 193.847L229.644 193.102L226.444 191.372L221.739 188.738L211.317 183.659L208.345 182.337C206.661 181.602 206.384 181.214 206.344 180.995C204.818 180.638 204.313 180.369 203.521 179.564C202.708 179.594 200.915 178.55 200.42 178.073C200.42 178.043 197.349 177.149 197.151 176.97C197.141 176.781 189.186 173.968 188.215 173.729C187.522 173.67 185.6 173.312 185.333 173.183C185.006 173.183 183.787 172.795 183.292 172.745C181.637 172.557 180.052 172.298 178.348 172.268C177.13 172.258 176.436 172.268 175.367 172C174.99 172.239 172.494 171.791 171.612 172.447C170.611 172.487 168.333 172.994 167.699 173.302C166.342 173.362 164.024 174.853 163.241 175.24C162.855 175.429 162.439 175.628 162.022 175.827C164.509 176.711 167.342 177.755 167.342 177.864C167.54 178.043 170.602 178.938 170.611 178.958C171.107 179.445 172.9 180.479 173.712 180.449C174.505 181.254 175.02 181.522 176.545 181.88C176.585 182.099 176.852 182.486 178.537 183.222L181.508 184.544L191.93 189.623L196.636 192.257L199.835 193.986L201.341 194.732L202.768 195.338L203.937 196.203L206.235 197.098L211.416 198.787L217.667 201.233L219.995 202.038L222.343 202.773L223.452 202.564L224.671 202.982L226.018 204.194L227.395 203.737L228.326 203.906L229.07 204.88L229.555 205.457L230.734 205.815L231.903 205.964L233.29 205.705L234.914 205.845L235.489 206.819L237.758 207.216L239.381 207.345L241.017 207.475L242.265 208.061L243.414 209.313L245.048 209.651L249.279 210.268L253.112 209.801L255.608 209.92L256.491 209.254Z" fill="#0045B2"/>
<path d="M222.159 215.472L226.667 215.541L226.696 216.317L230.897 216.625L231.303 217.708L235.662 217.529L236.603 218.116L231.531 218.792L229.52 218.722L226.488 218.046L224.665 216.804L224.913 217.341L222.902 217.112L222.159 215.472Z" fill="#0045B2"/>
<path d="M222.632 213.616C222.632 213.616 222.691 212.901 221.889 212.503C221.086 212.096 221.265 212.473 221.265 212.473L220.482 211.897L219.036 211.648L218.917 210.565L217.045 210.476L217.094 209.939L215.618 209.76L214.994 209.203L215.192 208.587L214.816 208.03L213.062 207.185L211.596 206.599L210.625 205.496L209.466 204.482L207.98 203.021L204.275 201.719L200.759 199.124L199.332 198.518L197.816 197.773L194.626 196.043L189.911 193.399L179.499 188.32L176.527 186.998C174.843 186.262 174.566 185.875 174.526 185.656C173.001 185.298 172.495 185.03 171.693 184.225C170.89 184.265 169.087 183.221 168.592 182.734C168.592 182.704 165.531 181.81 165.333 181.631C165.323 181.452 157.368 178.629 156.397 178.39C155.694 178.341 153.782 177.973 153.515 177.854C153.188 177.863 151.969 177.476 151.474 177.416C149.819 177.227 148.234 176.969 146.53 176.939C145.312 176.919 144.628 176.939 143.549 176.681C143.162 176.919 140.676 176.462 139.784 177.128C138.794 177.168 136.515 177.675 135.881 177.983C134.524 178.032 132.206 179.533 131.413 179.921C130.73 180.259 129.947 180.597 129.303 180.994C129.006 181.233 124.647 183.4 124.36 183.668C124.419 183.817 120.09 186.402 119.684 186.779C119.506 186.978 118.347 187.445 118.059 187.724C117.762 188.012 116.603 189.056 116.207 189.244C116.038 189.602 114.939 190 114.76 190.368C114.503 190.735 113.185 191.371 112.977 191.62C112.938 191.65 112.214 192.246 111.63 192.733C111.392 193.051 111.145 193.379 110.907 193.707C110.62 193.817 109.46 194.483 109.163 194.711C109.193 195.407 109.243 196.51 108.153 196.301L106.875 197.057C107.033 197.047 106.201 198.279 105.518 199.134C105.111 199.631 103.239 200.317 102.873 200.824C102.12 201.868 101.159 202.832 100.416 203.856V203.935H100.505C100.515 204.074 101.228 204.054 101.327 204.333C101.476 204.74 101.03 205.098 100.921 205.456L101.01 205.446V205.526C101.585 205.506 102.149 204.899 102.615 204.651C103.001 204.512 103.398 204.343 103.784 204.193C104.477 203.786 105.161 203.379 105.855 202.961C111.016 200.158 116.167 197.345 121.328 194.532C123.795 193.2 125.767 191.958 128.481 190.447C129.135 190.089 131.611 188.409 133.494 188.29C135.861 188.141 138.704 188.747 139.467 189.065C140.2 189.324 141.993 190.238 142.895 190.457C143.172 190.566 143.687 190.934 143.806 190.934C143.895 191.063 145.599 191.332 146.501 191.65C146.808 191.849 147.105 192.027 147.412 192.206C148.888 192.644 152.573 193.509 153.911 193.926C155.04 194.274 155.714 194.91 156.279 195.029C157.051 195.566 157.22 195.288 158.161 195.755C159.587 195.904 160.469 196.411 160.518 196.461C160.964 196.639 161.261 196.828 161.707 197.007C162.074 197.057 162.777 197.604 163.055 197.743C163.391 197.813 165.71 198.518 165.947 198.637C166.334 198.598 167.978 199.313 168.186 199.492C168.652 199.711 169.177 199.83 169.702 199.939L174.437 201.798L179.608 203.488L185.859 205.933L188.197 206.738L190.545 207.464L191.645 207.255L192.863 207.672L194.21 208.885L195.587 208.428L196.519 208.597L197.261 209.571L197.737 210.157L198.916 210.505L200.085 210.654L201.472 210.396L203.097 210.525L203.671 211.509L205.939 211.897L207.574 212.026L209.209 212.155L210.457 212.732L211.596 213.974L213.231 214.302L217.471 214.928L221.305 214.461L223.801 214.58L224.693 213.905L222.632 213.616Z" fill="#0045B2"/>
<path d="M190.949 245.803C190.216 246.191 189.235 246.519 187.918 246.519C185.778 246.519 184.47 245.773 183.44 244.809C182.023 243.447 181.479 241.927 181.479 240.108C181.479 237.891 182.4 236.281 183.44 235.307C184.668 234.144 186.204 233.687 187.938 233.687C188.8 233.687 189.83 233.836 190.949 234.442V237.235C189.83 235.943 188.433 235.853 187.987 235.853C185.53 235.853 183.935 237.891 183.935 240.147C183.935 242.871 186.026 244.342 188.086 244.342C189.216 244.342 190.236 243.845 190.949 243V245.803Z" fill="#0045B2"/>
<path d="M197.932 246.234H195.534V236.026H192.78V233.968H200.686V236.026H197.932V246.234Z" fill="#0045B2"/>
<path d="M203.104 233.968V246.244H205.502V241.701H207.047C208.454 241.701 209.465 241.294 210.148 240.618C211.089 239.684 211.158 238.352 211.158 237.875C211.158 236.99 210.901 235.797 209.91 234.913C209.009 234.117 208.058 233.978 206.681 233.978H203.104V233.968ZM205.502 236.026H206.324C206.899 236.026 207.523 236.056 208.018 236.414C208.375 236.672 208.702 237.129 208.702 237.805C208.702 238.342 208.484 238.889 208.048 239.236C207.533 239.634 206.938 239.634 206.483 239.634H205.512V236.026H205.502Z" fill="#0045B2"/>
<path d="M221.392 246.236H223.958L218.796 233.702H216.993L211.684 246.236H214.279L215.369 243.662H220.312L221.392 246.236ZM216.122 241.714L217.885 237.31L219.619 241.714H216.122Z" fill="#0045B2"/>
<path d="M229.413 239.763L225.758 233.968H228.621L230.77 237.765L233.029 233.968H235.902L232.128 239.763L236.318 246.234H233.455L230.77 241.741L227.947 246.234H225.074L229.413 239.763Z" fill="#0045B2"/>
<path d="M244.954 233.694C241.1 233.694 238.415 236.377 238.415 240.115C238.415 243.852 241.1 246.526 244.954 246.526C248.807 246.526 251.492 243.852 251.492 240.115C251.492 236.377 248.807 233.694 244.954 233.694ZM244.954 244.349C242.567 244.349 240.871 242.59 240.871 240.115C240.871 237.63 242.567 235.86 244.954 235.86C247.342 235.86 249.035 237.63 249.035 240.115C249.035 242.59 247.342 244.349 244.954 244.349Z" fill="#0045B2"/>
<path d="M257.008 240.896H257.889C258.404 240.896 259.009 240.896 259.524 241.135C260.306 241.483 260.424 242.149 260.424 242.536C260.424 243.014 260.256 243.6 259.662 243.948C259.127 244.256 258.464 244.286 258.028 244.286H257.008V240.896ZM254.62 233.968V246.244H258.73C259.801 246.244 260.921 246.065 261.841 245.25C262.683 244.494 262.882 243.491 262.882 242.765C262.882 242.119 262.733 241.165 261.999 240.459C261.694 240.171 261.207 239.823 260.405 239.694C260.742 239.505 261.783 238.859 261.783 237.278C261.783 236.245 261.357 235.29 260.642 234.734C259.653 233.968 258.325 233.968 257.652 233.968H254.62ZM257.008 235.917H257.71C258.681 235.917 259.543 236.344 259.543 237.457C259.543 239.028 258.057 239.067 257.691 239.067H257.008V235.917Z" fill="#0045B2"/>
<path d="M271.967 233.694C268.114 233.694 265.43 236.377 265.43 240.115C265.43 243.852 268.104 246.526 271.967 246.526C275.832 246.526 278.506 243.852 278.506 240.115C278.506 236.377 275.822 233.694 271.967 233.694ZM271.967 244.349C269.581 244.349 267.886 242.59 267.886 240.115C267.886 237.63 269.581 235.86 271.967 235.86C274.355 235.86 276.05 237.63 276.05 240.115C276.04 242.59 274.355 244.349 271.967 244.349Z" fill="#0045B2"/>
<path d="M285.384 230.042C285.771 231.075 286.8 231.115 287.037 231.115C287.274 231.115 288.305 231.075 288.692 230.042L290.345 230.708C289.871 231.95 288.731 232.765 287.037 232.765C285.343 232.765 284.214 231.96 283.727 230.708L285.384 230.042ZM284.015 233.968V242.208L290.782 233.679H292.437V246.234H290.037V237.954L283.273 246.472H281.618V233.958H284.015V233.968Z" fill="#0045B2"/>
<path d="M302.518 233.968V239.296C302.518 240.996 302.31 241.92 302.073 242.516C301.694 243.441 301.01 244.216 300.129 244.176V248.997H302.329V246.234H309.859V248.997H312.068V244.176H310.779V233.968H302.518ZM304.836 236.026H308.403V244.176H303.459C303.805 243.848 304.162 243.401 304.419 242.725C304.648 242.139 304.836 241.194 304.836 239.296V236.026Z" fill="#0045B2"/>
<path d="M320.526 233.694C316.672 233.694 313.988 236.377 313.988 240.115C313.988 243.852 316.672 246.526 320.526 246.526C324.39 246.526 327.065 243.852 327.065 240.115C327.065 236.377 324.379 233.694 320.526 233.694ZM320.526 244.349C318.137 244.349 316.443 242.59 316.443 240.115C316.443 237.63 318.137 235.86 320.526 235.86C322.923 235.86 324.608 237.63 324.608 240.115C324.608 242.59 322.912 244.349 320.526 244.349Z" fill="#0045B2"/>
<path d="M329.567 246.235L331.836 233.741H333.5L336.819 241.762L340.285 233.741H341.949L344 246.235H341.573L340.474 238.671L337.116 246.394H336.451L333.233 238.671L331.995 246.235H329.567Z" fill="#0045B2"/>
</svg>
