<svg width="410" height="410" viewBox="0 0 410 410" fill="none" xmlns="http://www.w3.org/2000/svg">
<rect width="410" height="410" fill="#F2F2F2"/>
<path d="M109.906 182H85.1734C75.1495 182 67 190.143 67 200.151V224.861C67 234.866 75.1495 243.011 85.1734 243.011H109.906C119.922 243.011 128.074 234.866 128.074 224.861V200.151C128.074 190.143 119.922 182 109.906 182Z" fill="#0045B2"/>
<path d="M100.012 223.722C98.4924 225.946 96.5085 227.119 94.2716 227.119C91.6675 227.119 89.6981 225.953 88.2471 223.544C86.7272 221.021 85.9554 217.24 85.9554 212.305C85.9554 207.78 86.7725 204.184 88.3818 201.616C89.8943 199.205 91.7883 198.08 94.3436 198.08C96.618 198.08 98.3938 199.025 99.9381 201.059C101.593 203.242 102.99 206.849 103.993 211.483C102.736 217.751 101.505 221.54 100.012 223.722ZM116.818 220.004L116.796 220.276C116.709 221.335 116.045 222.406 114.942 222.406C114.1 222.406 113.422 222.094 112.869 221.454C112.205 220.689 111.607 219.773 111.003 218.108C112.716 212.302 117.999 193.703 117.999 193.703H107.972C107.972 193.703 107.046 198.064 106.21 202.032C106.169 201.936 106.126 201.839 106.082 201.748C105.247 199.966 103.913 197.982 102.43 196.587C99.8466 194.161 96.8093 192.98 93.1414 192.98C88.0793 192.98 83.7964 194.851 80.4117 198.541C77.0428 202.21 75.2646 206.916 75.2646 212.149C75.2646 217.979 76.9547 222.767 80.2857 226.375C83.7623 230.145 87.9171 231.9 93.3608 231.9C96.5317 231.9 99.5591 230.958 102.365 229.104C104.179 227.909 105.834 226.253 107.396 224.101C108.053 226.225 108.715 227.676 109.505 228.761C110.786 230.515 112.704 231.521 114.766 231.521C116.913 231.521 118.869 230.421 119.874 228.655C120.763 227.086 121.126 225.142 121.126 221.945V220.004H116.818Z" fill="white"/>
<path d="M148.103 200.494L149.207 195.497C149.386 194.688 150.016 193.454 151.668 193.454C153.32 193.454 153.949 194.688 154.129 195.497L155.233 200.494H148.103ZM158.648 194.586C157.957 191.468 155.987 189.292 151.668 189.292C147.605 189.292 145.378 191.468 144.685 194.586L141.549 208.7H144.901C145.667 208.7 146.428 208.089 146.591 207.344L147.225 204.473H156.11L156.745 207.344C156.91 208.089 157.669 208.7 158.434 208.7H161.787L158.648 194.586Z" fill="#0045B2"/>
<path d="M170.052 194.004H177.531V208.699H182.162V189.749H168.198C166.671 189.749 165.421 190.997 165.421 192.525V202.101C165.421 203.382 164.828 204.196 163.801 204.402L162.853 204.628L163.712 208.699H164.594C167.761 208.699 170.052 206.345 170.052 202.338V194.004Z" fill="#0045B2"/>
<path d="M222.401 204.515H220.715V193.936H222.401C225.572 193.936 227.069 195.939 227.069 199.223C227.069 202.511 225.572 204.515 222.401 204.515ZM214.397 204.515C211.228 204.515 209.728 202.511 209.728 199.223C209.728 195.939 211.228 193.936 214.397 193.936H216.083V204.515H214.397ZM222.401 189.749H220.715V187.547H217.473C216.709 187.547 216.083 188.168 216.083 188.932V189.749H214.397C208.674 189.749 205.097 193.647 205.097 199.223C205.097 204.802 208.674 208.699 214.397 208.699H216.083V210.996H219.325C220.091 210.996 220.715 210.372 220.715 209.611V208.699H222.401C228.125 208.699 231.701 204.802 231.701 199.223C231.701 193.647 228.125 189.749 222.401 189.749Z" fill="#0045B2"/>
<path d="M196.53 204.446H189.884V198.81H196.53C197.659 198.81 198.978 199.82 198.978 201.627C198.978 203.433 197.659 204.446 196.53 204.446ZM196.53 194.554H189.884V189.751H185.254V207.312C185.254 208.075 185.879 208.699 186.643 208.699H196.53C200.568 208.699 203.606 205.661 203.606 201.627C203.606 197.595 201.056 194.554 196.53 194.554Z" fill="#0045B2"/>
<path d="M238.427 200.494L239.527 195.497C239.71 194.688 240.339 193.454 241.991 193.454C243.643 193.454 244.27 194.688 244.453 195.497L245.553 200.494H238.427ZM248.972 194.586C248.279 191.468 246.311 189.292 241.991 189.292C237.931 189.292 235.702 191.468 235.007 194.586L231.87 208.7H235.224C235.989 208.7 236.752 208.089 236.913 207.344L237.548 204.473H246.434L247.067 207.344C247.232 208.089 247.992 208.7 248.756 208.7H252.107L248.972 194.586Z" fill="#0045B2"/>
<path d="M271.555 231.358H263.016V227.62H271.555C272.173 227.695 273.012 228.3 273.012 229.489C273.012 230.666 272.173 231.358 271.555 231.358ZM271.185 220.271C271.799 220.271 272.642 220.961 272.642 222.14C272.642 223.327 271.799 223.931 271.185 224.007H263.016V220.271H271.185ZM275.815 225.458C276.632 224.655 277.157 223.561 277.157 222.045C277.157 218.685 274.554 216.338 271.189 216.338H259.868C259.105 216.338 258.479 216.96 258.479 217.724V233.901C258.479 234.664 259.105 235.288 259.868 235.288L271.904 235.29C275.45 235.29 277.806 232.755 277.806 229.398C277.806 227.706 277.002 226.382 275.815 225.458Z" fill="#0045B2"/>
<path d="M240.503 225.813C240.503 222.415 242.316 219.817 245.507 219.817H246.534C249.724 219.817 251.537 222.415 251.537 225.813C251.537 229.213 249.724 231.812 246.534 231.812H245.507C242.316 231.812 240.503 229.213 240.503 225.813ZM245.228 215.902C239.503 215.902 235.502 219.975 235.502 225.813C235.502 231.648 239.503 235.725 245.228 235.725H246.812C252.54 235.725 256.539 231.648 256.539 225.813C256.539 219.975 252.54 215.902 246.812 215.902H245.228Z" fill="#0045B2"/>
<path d="M158.808 216.338L159.419 219.205C159.58 219.969 160.34 220.591 161.103 220.591H165.42V235.288H170.052V220.591H174.234C174.997 220.591 175.754 219.969 175.915 219.205L176.526 216.338H158.808Z" fill="#0045B2"/>
<path d="M314.795 216.338V223.863H305.786V216.338H301.154V235.288H305.786V227.927H314.795V235.288H319.427V216.338H314.795Z" fill="#0045B2"/>
<path d="M202.16 227.084L203.262 222.085C203.441 221.279 204.069 220.043 205.722 220.043C207.375 220.043 208.004 221.279 208.184 222.089L209.287 227.084H202.16ZM212.703 221.176C212.009 218.058 210.045 215.883 205.722 215.883C201.665 215.883 199.436 218.058 198.744 221.176L195.606 235.288H198.96C199.725 235.288 200.485 234.68 200.65 233.935L201.283 231.061H210.166L210.799 233.935C210.962 234.68 211.725 235.288 212.49 235.288H215.842L212.703 221.176Z" fill="#0045B2"/>
<path d="M285.423 227.084L286.528 222.085C286.71 221.279 287.336 220.043 288.987 220.043C290.639 220.043 291.269 221.279 291.451 222.089L292.552 227.084H285.423ZM295.971 221.176C295.276 218.058 293.311 215.883 288.987 215.883C284.926 215.883 282.701 218.058 282.006 221.176L278.871 235.288H282.225C282.99 235.288 283.749 234.68 283.912 233.935L284.547 231.061H293.432L294.068 233.935C294.232 234.68 294.992 235.288 295.753 235.288H299.111L295.971 221.176Z" fill="#0045B2"/>
<path d="M160.248 235.236V235.29H151.202C145.724 235.29 141.898 231.394 141.898 225.813C141.898 220.234 145.724 216.337 151.202 216.337H158.064L157.392 219.241C157.222 219.986 156.455 220.591 155.692 220.591H151.202C148.274 220.591 146.529 222.774 146.529 225.813C146.529 228.851 148.274 231.035 151.202 231.035H157.888C158.652 231.035 159.419 231.642 159.59 232.387L160.248 235.236Z" fill="#0045B2"/>
<path d="M188.937 226.228H182.294V220.597H188.937C190.068 220.597 191.388 221.605 191.388 223.412C191.388 225.218 190.068 226.228 188.937 226.228ZM188.937 216.337L179.052 216.339C178.286 216.339 177.662 216.965 177.662 217.727V235.29H182.294V230.483H188.937C193.469 230.483 196.017 227.443 196.017 223.412C196.017 219.38 192.974 216.337 188.937 216.337Z" fill="#0045B2"/>
<path d="M358.685 231.287H348.709V227.65H359.554V223.994H348.709V220.337H358.685C359.506 220.337 360.156 219.978 360.382 218.985L361 216.338H345.468C344.704 216.338 344.078 216.96 344.078 217.725V233.901C344.078 234.664 344.704 235.29 345.468 235.29H361L360.382 232.643C360.156 231.65 359.506 231.287 358.685 231.287Z" fill="#0045B2"/>
<path d="M322.604 235.288V216.338H327.235V228.841L335.259 217.455C335.711 216.841 336.703 216.338 337.471 216.338H340.904V235.288H336.272V222.786L328.247 234.17C327.798 234.786 326.802 235.288 326.038 235.288H322.604Z" fill="#0045B2"/>
<path d="M229.81 225.712L236.272 216.338H232.02C231.099 216.338 230.454 216.617 229.886 217.508L226.441 222.909H225.826L222.379 217.508C221.814 216.617 221.169 216.338 220.244 216.338H215.854L222.456 225.913L215.993 235.288H220.244C221.169 235.288 221.814 235.012 222.379 234.119L225.826 228.716H226.441L229.886 234.119C230.454 235.012 231.099 235.288 232.02 235.288H236.411L229.81 225.712Z" fill="#0045B2"/>
<path d="M142.276 249.752C142.276 247.302 143.925 245.083 146.774 245.083C147.932 245.083 148.682 245.341 149.351 245.778L148.751 246.688C148.232 246.336 147.592 246.104 146.748 246.104C144.649 246.104 143.571 247.82 143.571 249.725C143.571 251.658 144.607 253.443 146.774 253.443C147.756 253.443 148.451 253.116 148.968 252.68L149.514 253.551C149.051 253.986 148.028 254.477 146.748 254.477C143.871 254.477 142.276 252.204 142.276 249.752Z" fill="#0045B2"/>
<path d="M151.244 245.246H156.028V246.281H152.471V249.017H155.591V250.038H152.471V253.279H156.123V254.314H151.244V245.246Z" fill="#0045B2"/>
<path d="M160.429 249.725C161.942 249.725 162.567 249.113 162.567 247.942C162.567 246.935 161.996 246.254 160.469 246.254H159.406V249.725H160.429ZM158.166 245.246H160.579C162.446 245.246 163.836 246.131 163.836 247.915C163.836 249.725 162.567 250.732 160.429 250.732H159.406V254.314H158.166V245.246Z" fill="#0045B2"/>
<path d="M168.142 253.319C169.64 253.319 170.336 252.856 170.336 251.767C170.336 250.72 169.777 250.08 168.223 250.08H166.915V253.319H168.142ZM168.087 249.112C169.396 249.112 169.967 248.635 169.967 247.616C169.967 246.661 169.327 246.239 168.115 246.239H166.915V249.112H168.087ZM165.688 245.246H168.21C169.9 245.246 171.222 245.858 171.222 247.506C171.222 248.595 170.595 249.263 169.6 249.522V249.548C170.704 249.74 171.617 250.515 171.617 251.767C171.617 253.619 170.214 254.314 168.169 254.314H165.688V245.246Z" fill="#0045B2"/>
<path d="M173.564 245.246H174.709V251.305C174.709 251.985 174.669 252.408 174.654 252.571H174.682C174.832 252.326 175.105 251.849 175.554 251.195L179.615 245.246H180.842V254.314H179.711V247.86C179.711 247.397 179.751 246.988 179.751 246.826H179.724C179.574 247.084 179.288 247.588 178.989 248.037L174.709 254.314H173.564V245.246Z" fill="#0045B2"/>
<path d="M182.818 249.752C182.818 247.302 184.467 245.083 187.316 245.083C188.474 245.083 189.224 245.341 189.892 245.778L189.292 246.688C188.774 246.336 188.134 246.104 187.289 246.104C185.19 246.104 184.113 247.82 184.113 249.725C184.113 251.658 185.149 253.443 187.316 253.443C188.297 253.443 188.992 253.116 189.51 252.68L190.055 253.551C189.592 253.986 188.57 254.477 187.289 254.477C184.412 254.477 182.818 252.204 182.818 249.752Z" fill="#0045B2"/>
<path d="M197.29 253.306C198.817 253.306 199.443 252.679 199.443 251.549C199.443 250.556 198.858 249.875 197.345 249.875H196.009V253.306H197.29ZM194.769 245.247H199.907V246.281H196.009V248.868H197.453C199.307 248.868 200.697 249.74 200.697 251.509C200.697 253.319 199.429 254.314 197.29 254.314H194.769V245.247Z" fill="#0045B2"/>
<path d="M202.29 254.259L202.455 253.319C202.564 253.346 202.714 253.36 202.89 253.36C203.639 253.36 204.076 252.911 204.499 251.945L204.73 251.427L201.991 245.246H203.176L205.329 250.107L207.471 245.246H208.656L205.508 252.394C204.88 253.809 204.13 254.341 202.89 254.341C202.631 254.341 202.414 254.314 202.29 254.259Z" fill="#0045B2"/>
<path d="M214.909 253.279V246.281H212.006L211.639 250.12C211.475 251.862 211.121 252.761 210.63 253.279H214.909ZM208.545 253.279H209.268C209.975 252.679 210.248 251.849 210.426 249.915L210.875 245.246H216.15V253.279H217.077L216.79 256.273H215.945L215.85 254.313H209.744L209.554 256.273H208.709L208.545 253.279Z" fill="#0045B2"/>
<path d="M218.588 254.259L218.751 253.319C218.86 253.346 219.01 253.36 219.188 253.36C219.937 253.36 220.373 252.911 220.795 251.945L221.027 251.427L218.288 245.246H219.473L221.627 250.107L223.767 245.246H224.952L221.804 252.394C221.177 253.809 220.428 254.341 219.188 254.341C218.929 254.341 218.71 254.314 218.588 254.259Z" fill="#0045B2"/>
<path d="M237.273 254.313H226.506V245.246H227.745V253.279H231.425V245.246H232.653V253.279H236.333V245.246H237.573V253.279H238.513L238.213 256.273H237.367L237.273 254.313Z" fill="#0045B2"/>
<path d="M240.405 245.246H245.189V246.281H241.631V249.017H244.752V250.038H241.631V253.279H245.284V254.314H240.405V245.246Z" fill="#0045B2"/>
<path d="M247.328 245.246H252.207V246.268H248.568V254.314H247.328V245.246Z" fill="#0045B2"/>
<path d="M260.656 249.793C260.656 247.82 259.579 246.104 257.48 246.104C255.382 246.104 254.251 247.794 254.251 249.766C254.251 251.741 255.355 253.456 257.453 253.456C259.551 253.456 260.656 251.768 260.656 249.793ZM252.956 249.793C252.956 247.302 254.605 245.083 257.453 245.083C260.288 245.083 261.964 247.275 261.964 249.766C261.964 252.244 260.315 254.477 257.48 254.477C254.633 254.477 252.956 252.271 252.956 249.793Z" fill="#0045B2"/>
<path d="M269.363 253.319C270.862 253.319 271.557 252.856 271.557 251.767C271.557 250.72 270.999 250.08 269.444 250.08H268.136V253.319H269.363ZM269.308 249.112C270.617 249.112 271.189 248.635 271.189 247.616C271.189 246.661 270.548 246.239 269.335 246.239H268.136V249.112H269.308ZM266.91 245.246H269.431C271.122 245.246 272.443 245.858 272.443 247.506C272.443 248.595 271.815 249.263 270.822 249.522V249.548C271.925 249.74 272.838 250.515 272.838 251.767C272.838 253.619 271.434 254.314 269.39 254.314H266.91V245.246Z" fill="#0045B2"/>
<path d="M277.771 245.246H279.011V249.031H283.93V245.246H285.171V254.314H283.93V250.065H279.011V254.314H277.771V245.246Z" fill="#0045B2"/>
<path d="M292.365 251.155L291.289 248.228C291.003 247.466 290.88 247.043 290.744 246.661H290.717C290.593 247.07 290.443 247.533 290.185 248.228L289.095 251.155H292.365ZM290.185 245.246H291.371L294.873 254.314H293.538L292.747 252.177H288.714L287.936 254.314H286.709L290.185 245.246Z" fill="#0045B2"/>
<path d="M295.486 249.752C295.486 247.302 297.135 245.083 299.985 245.083C301.142 245.083 301.892 245.341 302.56 245.778L301.96 246.688C301.442 246.336 300.801 246.104 299.956 246.104C297.858 246.104 296.78 247.82 296.78 249.725C296.78 251.658 297.817 253.443 299.985 253.443C300.965 253.443 301.66 253.116 302.178 252.68L302.723 253.551C302.26 253.986 301.238 254.477 299.956 254.477C297.08 254.477 295.486 252.204 295.486 249.752Z" fill="#0045B2"/>
<path d="M306.103 246.281H303.541V245.246H309.905V246.281H307.343V254.314H306.103V246.281Z" fill="#0045B2"/>
<path d="M318.352 249.793C318.352 247.82 317.276 246.104 315.177 246.104C313.078 246.104 311.946 247.794 311.946 249.766C311.946 251.741 313.051 253.456 315.151 253.456C317.248 253.456 318.352 251.768 318.352 249.793ZM310.652 249.793C310.652 247.302 312.302 245.083 315.151 245.083C317.985 245.083 319.66 247.275 319.66 249.766C319.66 252.244 318.012 254.477 315.177 254.477C312.328 254.477 310.652 252.271 310.652 249.793Z" fill="#0045B2"/>
<path d="M325.766 249.248V246.254H324.54C323.217 246.254 322.59 246.744 322.59 247.71C322.59 248.677 323.176 249.248 324.458 249.248H325.766ZM320.777 253.292H320.914C321.527 253.292 321.894 252.585 322.685 251.441C323.08 250.855 323.503 250.283 323.803 250.092V250.065C322.413 249.971 321.335 249.208 321.335 247.724C321.335 246.159 322.481 245.246 324.417 245.246H326.992V254.314H325.766V250.215H325.398C324.811 250.229 324.443 250.978 323.653 252.135C322.576 253.728 322.14 254.314 321.282 254.314H320.805L320.777 253.292Z" fill="#0045B2"/>
<path d="M340.308 254.313H329.541V245.246H330.782V253.279H334.462V245.246H335.688V253.279H339.368V245.246H340.609V253.279H341.548L341.249 256.273H340.404L340.308 254.313Z" fill="#0045B2"/>
<path d="M343.439 245.246H348.223V246.281H344.666V249.017H347.788V250.038H344.666V253.279H348.32V254.314H343.439V245.246Z" fill="#0045B2"/>
<path d="M351.043 245.246H352.202L354.369 251.305C354.628 252.039 354.778 252.489 354.927 252.952H354.954C355.077 252.517 355.242 252.026 355.5 251.305L357.681 245.246H358.852L360.079 254.314H358.839L358.09 248.623C358.007 247.969 357.967 247.601 357.94 247.343H357.912C357.831 247.642 357.722 248.024 357.517 248.608L355.486 254.314H354.286L352.216 248.608C352.011 248.024 351.888 247.642 351.793 247.343H351.766C351.738 247.656 351.697 248.037 351.629 248.65L350.935 254.314H349.789L351.043 245.246Z" fill="#0045B2"/>
</svg>
