<svg width="410" height="410" viewBox="0 0 410 410" fill="none" xmlns="http://www.w3.org/2000/svg">
<rect width="410" height="410" fill="#F2F2F2"/>
<path d="M170.912 197.923H165.821V215.771H163.05V197.923H157.895V195.796H170.912V197.923Z" fill="#0045B2"/>
<path d="M182.447 209.585C182.447 211.518 181.996 213.129 181.159 214.288C180.321 215.448 179.096 216.028 177.55 216.028C176.841 216.028 176.196 215.899 175.617 215.577C175.037 215.319 174.585 214.868 174.199 214.353V221.441H171.428V200.951H173.941L174.134 202.626C174.521 201.982 175.037 201.531 175.552 201.144C176.132 200.822 176.776 200.629 177.55 200.629C179.096 200.629 180.321 201.273 181.159 202.562C181.996 203.85 182.447 205.59 182.447 207.716V209.585ZM179.676 207.781C179.676 206.299 179.419 205.139 178.968 204.237C178.516 203.335 177.743 202.884 176.841 202.884C176.261 202.884 175.745 203.077 175.294 203.399C174.908 203.721 174.521 204.172 174.263 204.817V212.227C174.521 212.806 174.843 213.193 175.23 213.515C175.681 213.837 176.196 213.966 176.776 213.966C177.743 213.966 178.452 213.58 178.903 212.742C179.354 211.969 179.612 210.874 179.612 209.585V207.781H179.676Z" fill="#0045B2"/>
<path d="M192.694 215.77C192.565 215.448 192.501 215.126 192.436 214.804C192.372 214.482 192.307 214.16 192.307 213.837C191.921 214.482 191.405 215.062 190.761 215.448C190.116 215.899 189.472 216.093 188.699 216.093C187.474 216.093 186.443 215.706 185.734 214.933C185.025 214.16 184.703 213.064 184.703 211.776C184.703 210.358 185.154 209.263 186.121 208.425C187.087 207.587 188.441 207.201 190.181 207.201H192.243V205.654C192.243 204.752 192.05 204.044 191.663 203.528C191.276 203.013 190.696 202.755 189.923 202.755C189.279 202.755 188.699 203.013 188.312 203.464C187.925 203.915 187.732 204.495 187.732 205.139H185.09L185.025 205.075C184.961 203.915 185.412 202.884 186.379 201.982C187.345 201.08 188.57 200.629 190.116 200.629C191.598 200.629 192.758 201.08 193.661 201.917C194.563 202.755 195.014 203.979 195.014 205.59V212.484C195.014 213.064 195.078 213.644 195.143 214.16C195.207 214.675 195.336 215.191 195.465 215.706H192.694V215.77ZM189.343 213.966C189.987 213.966 190.567 213.773 191.147 213.386C191.663 213 192.05 212.549 192.307 211.969V208.941H190.181C189.343 208.941 188.699 209.198 188.183 209.778C187.732 210.294 187.474 211.002 187.474 211.776C187.474 212.42 187.603 213 187.925 213.386C188.312 213.773 188.763 213.966 189.343 213.966Z" fill="#0045B2"/>
<path d="M208.803 215.771H206.032V209.456H201.07V215.771H198.299V200.951H201.07V207.33H206.032V200.951H208.803V215.771Z" fill="#0045B2"/>
<path d="M217.183 213.966C217.892 213.966 218.471 213.709 218.923 213.193C219.374 212.678 219.631 211.969 219.631 211.067H222.145V211.131C222.209 212.549 221.694 213.709 220.727 214.675C219.76 215.642 218.536 216.093 217.118 216.093C215.249 216.093 213.832 215.448 212.865 214.224C211.898 213 211.383 211.389 211.383 209.456V207.394C211.383 205.461 211.898 203.85 212.865 202.626C213.832 201.337 215.249 200.758 217.118 200.758C218.6 200.758 219.825 201.273 220.791 202.24C221.758 203.206 222.209 204.559 222.145 206.106L222.08 206.17H219.696C219.696 205.203 219.438 204.366 218.987 203.721C218.536 203.077 217.956 202.819 217.183 202.819C216.152 202.819 215.378 203.27 214.927 204.108C214.476 204.946 214.283 206.041 214.283 207.394V209.456C214.283 210.809 214.476 211.904 214.927 212.742C215.378 213.515 216.152 213.966 217.183 213.966Z" fill="#0045B2"/>
<path d="M238.189 195.796V215.771H235.418V197.923H229.876V204.946C229.876 208.747 229.425 211.518 228.587 213.193C227.749 214.869 226.332 215.771 224.463 215.771H223.754V213.644H224.205C225.301 213.644 226.009 213 226.461 211.711C226.847 210.423 227.105 208.168 227.105 204.946V195.796H238.189Z" fill="#0045B2"/>
<path d="M249.467 200.951H252.239V215.771H249.467V205.719H249.403L244.505 215.771H241.734V200.951H244.505V211.003H244.634L249.467 200.951Z" fill="#0045B2"/>
<path d="M255.01 208.554C255.01 206.17 255.396 204.237 256.17 202.819C256.943 201.402 258.103 200.693 259.585 200.693C259.907 200.693 260.165 200.693 260.423 200.758C260.681 200.822 260.938 200.886 261.196 201.015V194.379H263.967V201.015C264.225 200.886 264.483 200.822 264.805 200.758C265.127 200.693 265.385 200.629 265.707 200.629C267.189 200.629 268.285 201.337 269.123 202.755C269.896 204.172 270.347 206.105 270.347 208.489V208.747C270.347 210.938 269.96 212.678 269.123 214.031C268.349 215.319 267.189 216.028 265.772 216.028C265.449 216.028 265.127 216.028 264.805 215.964C264.547 215.899 264.225 215.835 263.967 215.706V221.441H261.196V215.706C260.938 215.835 260.681 215.899 260.423 215.964C260.165 216.028 259.843 216.028 259.585 216.028C258.103 216.028 257.008 215.384 256.234 214.031C255.461 212.742 255.01 210.938 255.01 208.747V208.554ZM267.576 208.554C267.576 206.879 267.383 205.461 266.932 204.43C266.481 203.399 265.836 202.819 264.998 202.819C264.805 202.819 264.612 202.819 264.483 202.884C264.29 202.884 264.161 202.948 264.032 203.013V213.902C264.161 213.966 264.29 213.966 264.483 214.031C264.676 214.031 264.805 214.031 265.063 214.031C265.965 214.031 266.609 213.58 266.996 212.613C267.383 211.711 267.641 210.422 267.641 208.876V208.554H267.576ZM257.781 208.812C257.781 210.358 257.974 211.647 258.361 212.549C258.747 213.451 259.392 213.966 260.294 213.966C260.487 213.966 260.616 213.966 260.81 213.966C261.003 213.966 261.132 213.902 261.261 213.902V202.948C261.132 202.948 261.003 202.884 260.81 202.884C260.681 202.884 260.487 202.819 260.359 202.819C259.456 202.819 258.812 203.335 258.425 204.43C258.039 205.461 257.845 206.879 257.845 208.618V208.812H257.781Z" fill="#0045B2"/>
<path d="M282.59 203.077H278.53V215.771H275.695V203.077H271.699V200.951H282.59V203.077Z" fill="#0045B2"/>
<path d="M295.738 197.923H290.583V215.771H287.812V197.923H282.721V195.796H295.738V197.923Z" fill="#0045B2"/>
<path d="M301.796 216.093C300.056 216.093 298.638 215.448 297.543 214.288C296.512 213.064 295.932 211.518 295.932 209.585V207.394C295.932 205.461 296.447 203.85 297.478 202.626C298.509 201.337 299.863 200.758 301.409 200.758C303.085 200.758 304.374 201.337 305.276 202.497C306.178 203.657 306.629 205.203 306.629 207.136V209.069H298.638V209.649C298.638 210.938 298.896 211.969 299.476 212.807C300.056 213.644 300.829 214.095 301.86 214.095C302.634 214.095 303.278 213.966 303.858 213.709C304.438 213.451 304.954 213.129 305.405 212.678L306.307 214.417C305.856 214.933 305.211 215.384 304.438 215.706C303.665 215.899 302.763 216.093 301.796 216.093ZM301.474 202.755C300.636 202.755 299.992 203.142 299.54 203.915C299.025 204.688 298.767 205.719 298.703 206.879H303.923V206.299C303.923 205.268 303.729 204.366 303.278 203.721C302.891 203.142 302.247 202.755 301.474 202.755Z" fill="#0045B2"/>
<path d="M313.589 206.364H313.718L316.038 200.951H319.195L315.264 208.297L319.324 215.771H316.167L313.718 210.165H313.653L311.205 215.771H308.047L312.107 208.297L308.176 200.951H311.333L313.589 206.364Z" fill="#0045B2"/>
<path d="M331.953 215.771H329.182V209.456H324.22V215.771H321.449V200.951H324.22V207.33H329.182V200.951H331.953V215.771Z" fill="#0045B2"/>
<path d="M342.973 200.951H345.744V215.771H342.973V205.719H342.909L338.011 215.771H335.24V200.951H338.011V211.003H338.076L342.973 200.951Z" fill="#0045B2"/>
<path d="M353.349 209.521H351.931V215.771H349.16V200.951H351.931V207.137H353.284L356.7 200.951H360.115L355.54 207.91L360.502 215.771H356.893L353.349 209.521Z" fill="#0045B2"/>
<path d="M369.911 215.77C369.782 215.448 369.717 215.126 369.653 214.804C369.589 214.482 369.524 214.16 369.524 213.837C369.137 214.482 368.622 215.062 367.978 215.448C367.333 215.899 366.689 216.093 365.915 216.093C364.691 216.093 363.66 215.706 362.951 214.933C362.242 214.16 361.92 213.064 361.92 211.776C361.92 210.358 362.371 209.263 363.338 208.425C364.304 207.587 365.658 207.201 367.398 207.201H369.46V205.654C369.46 204.752 369.266 204.044 368.88 203.528C368.493 203.013 367.913 202.755 367.14 202.755C366.495 202.755 365.915 203.013 365.529 203.464C365.142 203.915 364.949 204.495 364.949 205.139H362.307L362.242 205.075C362.178 203.915 362.629 202.884 363.595 201.982C364.562 201.08 365.786 200.629 367.333 200.629C368.815 200.629 369.975 201.08 370.877 201.917C371.78 202.755 372.231 203.979 372.231 205.59V212.484C372.231 213.064 372.295 213.644 372.36 214.16C372.424 214.675 372.553 215.191 372.682 215.706H369.911V215.77ZM366.56 213.966C367.204 213.966 367.784 213.773 368.364 213.386C368.88 213 369.266 212.549 369.524 211.969V208.941H367.398C366.56 208.941 365.915 209.198 365.4 209.778C364.949 210.294 364.691 211.002 364.691 211.776C364.691 212.42 364.82 213 365.142 213.386C365.464 213.773 365.915 213.966 366.56 213.966Z" fill="#0045B2"/>
<path d="M159.119 222.343H160.15V233.619H165.628V222.343H166.594V233.619H167.626L167.497 237.42H166.594V234.456H159.119V222.343Z" fill="#0045B2"/>
<path d="M172.201 234.65C171.234 234.65 170.461 234.263 169.816 233.554C169.172 232.846 168.914 231.879 168.914 230.784V229.302C168.914 228.142 169.236 227.24 169.816 226.467C170.461 225.693 171.17 225.307 172.072 225.307C173.038 225.307 173.747 225.629 174.263 226.338C174.778 226.982 175.036 227.884 175.036 229.044V230.01H169.881V230.784C169.881 231.686 170.074 232.395 170.525 232.974C170.912 233.554 171.492 233.812 172.201 233.812C172.716 233.812 173.103 233.748 173.489 233.554C173.876 233.361 174.134 233.103 174.392 232.846L174.778 233.554C174.521 233.876 174.134 234.199 173.747 234.392C173.361 234.521 172.845 234.65 172.201 234.65ZM172.072 226.145C171.427 226.145 170.912 226.402 170.525 226.982C170.138 227.562 169.881 228.271 169.881 229.108H174.069V228.722C174.069 227.949 173.876 227.369 173.554 226.853C173.167 226.402 172.716 226.145 172.072 226.145Z" fill="#0045B2"/>
<path d="M182.64 234.456H181.673V230.332H177.871V234.456H176.84V225.436H177.871V229.495H181.673V225.436H182.64V234.456Z" fill="#0045B2"/>
<path d="M190.438 226.338H187.796V234.456H186.765V226.338H184.252V225.436H190.438V226.338Z" fill="#0045B2"/>
<path d="M198.106 230.784C198.106 231.943 197.849 232.91 197.333 233.619C196.818 234.327 196.109 234.65 195.207 234.65C194.691 234.65 194.24 234.521 193.853 234.327C193.467 234.134 193.144 233.812 192.887 233.425V237.936H191.984V225.436H192.822L192.951 226.66C193.209 226.209 193.531 225.887 193.918 225.629C194.304 225.371 194.755 225.242 195.271 225.242C196.173 225.242 196.882 225.629 197.398 226.402C197.913 227.175 198.171 228.206 198.171 229.495V230.784H198.106ZM197.075 229.559C197.075 228.593 196.882 227.755 196.56 227.175C196.173 226.531 195.658 226.273 194.949 226.273C194.433 226.273 194.047 226.402 193.724 226.724C193.402 227.047 193.144 227.433 192.951 227.884V232.459C193.144 232.91 193.402 233.297 193.724 233.554C194.047 233.812 194.433 233.941 194.949 233.941C195.658 233.941 196.173 233.683 196.56 233.103C196.946 232.523 197.075 231.815 197.075 230.913V229.559Z" fill="#0045B2"/>
<path d="M210.544 230.977C210.544 232.201 210.222 233.103 209.642 233.747C209.062 234.392 208.159 234.714 207.128 234.714C206.033 234.714 205.131 234.327 204.486 233.554C203.842 232.781 203.52 231.621 203.52 230.204V226.853C203.52 225.371 203.842 224.276 204.486 223.503C205.131 222.729 206.033 222.278 207.128 222.278C208.224 222.278 209.062 222.6 209.642 223.18C210.222 223.825 210.544 224.727 210.544 225.887V225.951H209.642C209.642 224.985 209.384 224.276 208.997 223.825C208.61 223.374 207.966 223.116 207.128 223.116C206.291 223.116 205.646 223.438 205.195 224.082C204.744 224.727 204.486 225.629 204.486 226.789V230.204C204.486 231.428 204.744 232.33 205.195 232.974C205.646 233.619 206.291 233.941 207.128 233.941C207.966 233.941 208.546 233.747 208.997 233.296C209.384 232.845 209.642 232.137 209.642 231.106H210.544V230.977Z" fill="#0045B2"/>
<path d="M218.405 234.456H217.374V226.338H213.572V234.456H212.541V225.436H218.405V234.456Z" fill="#0045B2"/>
<path d="M223.626 234.65C222.66 234.65 221.886 234.263 221.242 233.554C220.598 232.846 220.34 231.879 220.34 230.784V229.302C220.34 228.142 220.662 227.24 221.242 226.467C221.886 225.693 222.595 225.307 223.498 225.307C224.464 225.307 225.173 225.629 225.689 226.338C226.204 226.982 226.462 227.884 226.462 229.044V230.01H221.306V230.784C221.306 231.686 221.5 232.395 221.951 232.974C222.338 233.554 222.918 233.812 223.626 233.812C224.142 233.812 224.529 233.748 224.915 233.554C225.302 233.361 225.56 233.103 225.817 232.846L226.204 233.554C225.946 233.876 225.56 234.199 225.173 234.392C224.722 234.521 224.206 234.65 223.626 234.65ZM223.498 226.145C222.853 226.145 222.338 226.402 221.951 226.982C221.564 227.562 221.306 228.271 221.306 229.108H225.495V228.722C225.495 227.949 225.302 227.369 224.98 226.853C224.593 226.402 224.078 226.145 223.498 226.145Z" fill="#0045B2"/>
<path d="M228.266 225.436H229.232V233.619H233.034V225.436H234.065V233.619H234.903L234.774 237.162H233.872V234.456H228.266V225.436Z" fill="#0045B2"/>
<path d="M241.411 225.436H242.378V234.456H241.411V227.369H241.347L237.609 234.456H236.578V225.436H237.609V232.523V232.588L241.411 225.436Z" fill="#0045B2"/>
<path d="M249.403 234.456C249.339 234.134 249.339 233.876 249.275 233.683C249.275 233.49 249.21 233.296 249.21 233.103C248.952 233.554 248.566 233.941 248.179 234.198C247.728 234.521 247.277 234.649 246.697 234.649C245.924 234.649 245.408 234.392 244.957 233.941C244.57 233.49 244.377 232.845 244.377 232.072C244.377 231.234 244.699 230.59 245.279 230.075C245.859 229.559 246.632 229.302 247.664 229.302H249.21V228.206C249.21 227.562 249.081 227.046 248.695 226.724C248.372 226.338 247.921 226.209 247.341 226.209C246.826 226.209 246.375 226.402 245.988 226.724C245.666 227.046 245.472 227.497 245.472 228.013H244.57V227.948C244.57 227.24 244.828 226.66 245.344 226.144C245.859 225.629 246.568 225.371 247.406 225.371C248.244 225.371 248.888 225.629 249.403 226.144C249.919 226.66 250.177 227.369 250.177 228.335V232.781C250.177 233.103 250.177 233.425 250.241 233.683C250.241 234.005 250.306 234.263 250.37 234.585H249.403V234.456ZM246.89 233.747C247.47 233.747 247.921 233.619 248.372 233.296C248.823 232.974 249.081 232.588 249.275 232.072V230.139H247.664C246.955 230.139 246.439 230.332 246.052 230.719C245.666 231.106 245.472 231.557 245.472 232.137C245.472 232.652 245.601 233.039 245.859 233.296C246.052 233.619 246.375 233.747 246.89 233.747Z" fill="#0045B2"/>
<path d="M258.425 225.436V234.456H257.394V226.338H254.429V229.43C254.429 231.235 254.236 232.459 253.914 233.296C253.527 234.07 252.947 234.456 252.109 234.456H251.787V233.554H252.045C252.56 233.554 252.883 233.232 253.14 232.652C253.334 232.072 253.463 230.977 253.463 229.43V225.436H258.425Z" fill="#0045B2"/>
<path d="M261.84 228.722H263.902C264.74 228.722 265.448 228.979 265.9 229.495C266.415 230.01 266.608 230.719 266.608 231.557C266.608 232.394 266.351 233.103 265.9 233.619C265.384 234.134 264.74 234.392 263.902 234.392H260.873V225.371H261.904V228.722H261.84ZM261.84 229.559V233.619H263.902C264.482 233.619 264.933 233.425 265.191 233.039C265.448 232.652 265.642 232.201 265.642 231.621C265.642 231.041 265.513 230.59 265.191 230.204C264.933 229.817 264.482 229.624 263.902 229.624H261.84V229.559Z" fill="#0045B2"/>
<path d="M274.341 234.456H273.374V230.332H269.572V234.456H268.541V225.436H269.572V229.495H273.374V225.436H274.341V234.456Z" fill="#0045B2"/>
<path d="M277.758 228.722H279.82C280.658 228.722 281.366 228.979 281.818 229.495C282.333 230.01 282.526 230.719 282.526 231.557C282.526 232.394 282.269 233.103 281.818 233.619C281.302 234.134 280.658 234.392 279.82 234.392H276.791V225.371H277.822V228.722H277.758ZM277.758 229.559V233.619H279.82C280.4 233.619 280.851 233.425 281.109 233.039C281.431 232.652 281.56 232.201 281.56 231.621C281.56 231.041 281.431 230.59 281.109 230.204C280.851 229.817 280.4 229.624 279.82 229.624H277.758V229.559ZM285.169 234.456H284.137V225.436H285.104V234.456H285.169Z" fill="#0045B2"/>
<path d="M290.001 229.108L291.87 225.436H293.095L290.581 229.881L293.159 234.456H291.999L290.001 230.655L288.068 234.456H286.908L289.486 229.881L286.973 225.436H288.133L290.001 229.108Z" fill="#0045B2"/>
<path d="M304.372 223.18H301.021V234.456H299.99V223.18H296.639V222.343H304.372V223.18Z" fill="#0045B2"/>
<path d="M307.982 234.65C307.015 234.65 306.242 234.263 305.598 233.554C304.953 232.846 304.695 231.879 304.695 230.784V229.302C304.695 228.142 305.018 227.24 305.598 226.467C306.242 225.693 306.951 225.307 307.853 225.307C308.82 225.307 309.529 225.629 310.044 226.338C310.56 226.982 310.817 227.884 310.817 229.044V230.01H305.662V230.784C305.662 231.686 305.855 232.395 306.306 232.974C306.693 233.554 307.273 233.812 307.982 233.812C308.497 233.812 308.884 233.748 309.271 233.554C309.657 233.361 309.915 233.103 310.173 232.846L310.56 233.554C310.302 233.876 309.915 234.199 309.529 234.392C309.077 234.521 308.562 234.65 307.982 234.65ZM307.853 226.145C307.209 226.145 306.693 226.402 306.306 226.982C305.92 227.562 305.662 228.271 305.662 229.108H309.851V228.722C309.851 227.949 309.657 227.369 309.335 226.853C308.949 226.402 308.433 226.145 307.853 226.145Z" fill="#0045B2"/>
<path d="M314.941 229.108L316.874 225.436H318.034L315.521 229.881L318.099 234.456H316.939L315.005 230.655L313.008 234.456H311.848L314.425 229.881L311.912 225.436H313.137L314.941 229.108Z" fill="#0045B2"/>
<path d="M325.573 234.456H324.542V230.332H320.74V234.456H319.773V225.436H320.74V229.495H324.542V225.436H325.573V234.456Z" fill="#0045B2"/>
<path d="M327.443 229.302C327.443 228.142 327.766 227.175 328.346 226.402C328.926 225.629 329.763 225.242 330.794 225.242C331.825 225.242 332.599 225.629 333.243 226.402C333.823 227.175 334.145 228.142 334.145 229.302V230.655C334.145 231.815 333.823 232.781 333.243 233.554C332.663 234.327 331.825 234.65 330.794 234.65C329.763 234.65 328.99 234.263 328.346 233.554C327.766 232.781 327.443 231.815 327.443 230.655V229.302ZM328.474 230.655C328.474 231.557 328.668 232.33 329.054 232.91C329.441 233.49 330.021 233.812 330.794 233.812C331.503 233.812 332.083 233.49 332.47 232.91C332.857 232.33 333.05 231.557 333.05 230.655V229.302C333.05 228.4 332.857 227.691 332.47 227.047C332.083 226.467 331.503 226.144 330.73 226.144C330.021 226.144 329.441 226.467 328.99 227.047C328.603 227.626 328.41 228.4 328.41 229.302V230.655H328.474Z" fill="#0045B2"/>
<path d="M341.684 225.436V234.456H340.653V226.338H337.689V229.43C337.689 231.235 337.496 232.459 337.173 233.296C336.787 234.07 336.207 234.456 335.369 234.456H335.047V233.554H335.305C335.82 233.554 336.142 233.232 336.4 232.652C336.594 232.072 336.722 230.977 336.722 229.43V225.436H341.684Z" fill="#0045B2"/>
<path d="M343.617 229.302C343.617 228.142 343.939 227.175 344.519 226.402C345.099 225.629 345.937 225.242 346.968 225.242C347.999 225.242 348.773 225.629 349.417 226.402C349.997 227.175 350.319 228.142 350.319 229.302V230.655C350.319 231.815 349.997 232.781 349.417 233.554C348.837 234.327 347.999 234.65 346.968 234.65C345.937 234.65 345.164 234.263 344.519 233.554C343.939 232.781 343.617 231.815 343.617 230.655V229.302ZM344.648 230.655C344.648 231.557 344.842 232.33 345.228 232.91C345.615 233.49 346.195 233.812 346.968 233.812C347.677 233.812 348.257 233.49 348.644 232.91C349.03 232.33 349.224 231.557 349.224 230.655V229.302C349.224 228.4 349.03 227.691 348.644 227.047C348.257 226.467 347.677 226.144 346.904 226.144C346.195 226.144 345.615 226.467 345.164 227.047C344.777 227.626 344.584 228.4 344.584 229.302V230.655H344.648Z" fill="#0045B2"/>
<path d="M356.829 226.338H353.156V234.456H352.125V225.436H356.829V226.338Z" fill="#0045B2"/>
<path d="M363.079 225.436H364.046V234.456H363.079V227.369H363.015L359.277 234.456H358.246V225.436H359.277V232.523V232.588L363.079 225.436Z" fill="#0045B2"/>
<path d="M371.263 225.436H372.294V234.456H371.263V227.369H371.198L367.461 234.456H366.43V225.436H367.461V232.523H367.525L371.263 225.436ZM371.392 221.892C371.456 222.536 371.263 223.052 370.876 223.438C370.49 223.825 369.974 224.018 369.33 224.018C368.685 224.018 368.17 223.825 367.783 223.438C367.396 223.052 367.203 222.536 367.267 221.892V221.827H368.041C368.041 222.278 368.17 222.601 368.363 222.858C368.556 223.116 368.879 223.245 369.33 223.245C369.781 223.245 370.038 223.116 370.296 222.858C370.49 222.601 370.618 222.278 370.618 221.827H371.392V221.892Z" fill="#0045B2"/>
<path d="M97.7694 195.474H116.264H133.793C126.704 176.531 108.402 163 87.0074 163C65.5481 163.064 47.2464 176.531 40.1577 195.474H94.1606L86.1052 223.503C85.6541 225.436 87.5874 225.436 87.5874 225.436H101.249C101.314 225.436 101.314 225.436 101.378 225.436H102.667L108.918 205.461C109.369 203.528 107.436 203.528 107.436 203.528H97.8338C95.9005 203.528 96.3516 201.595 96.3516 201.595L97.7694 195.474ZM48.0197 203.528H38.5466H37.9022C37.3222 206.621 37 209.778 37 213C37 240.577 59.3616 263 87.0074 263C114.589 263 137.015 240.642 137.015 213C137.015 209.778 136.693 206.621 136.113 203.528H135.726H126.511C124.577 203.528 124.126 205.461 124.126 205.461L116.522 231.428C116.071 233.361 117.489 233.876 117.489 233.876H102.216H101.765H70.5101C68.5769 233.876 69.0924 231.879 69.0924 231.879L77.2122 203.593H76.4389H67.1591C65.2258 203.593 64.7748 205.526 64.7748 205.526L57.1705 231.492C56.7194 233.425 58.0727 233.941 58.0727 233.941H43.3154C41.3821 233.941 41.8332 232.137 41.8332 232.137L49.5663 205.526C50.0174 203.528 48.0197 203.528 48.0197 203.528Z" fill="#0045B2"/>
<mask id="mask0_1181_4526" style="mask-type:luminance" maskUnits="userSpaceOnUse" x="37" y="163" width="101" height="100">
<path d="M97.7694 195.474H116.264H133.793C126.704 176.531 108.402 163 87.0074 163C65.5481 163.064 47.2464 176.531 40.1577 195.474H94.1606L86.1052 223.503C85.6541 225.436 87.5874 225.436 87.5874 225.436H101.249C101.314 225.436 101.314 225.436 101.378 225.436H102.667L108.918 205.461C109.369 203.528 107.436 203.528 107.436 203.528H97.8338C95.9005 203.528 96.3516 201.595 96.3516 201.595L97.7694 195.474ZM48.0197 203.528H38.5466H37.9022C37.3222 206.621 37 209.778 37 213C37 240.577 59.3616 263 87.0074 263C114.589 263 137.015 240.642 137.015 213C137.015 209.778 136.693 206.621 136.113 203.528H135.726H126.511C124.577 203.528 124.126 205.461 124.126 205.461L116.522 231.428C116.071 233.361 117.489 233.876 117.489 233.876H102.216H101.765H70.5101C68.5769 233.876 69.0924 231.879 69.0924 231.879L77.2122 203.593H76.4389H67.1591C65.2258 203.593 64.7748 205.526 64.7748 205.526L57.1705 231.492C56.7194 233.425 58.0727 233.941 58.0727 233.941H43.3154C41.3821 233.941 41.8332 232.137 41.8332 232.137L49.5663 205.526C50.0174 203.528 48.0197 203.528 48.0197 203.528Z" fill="white"/>
</mask>
<g mask="url(#mask0_1181_4526)">
<path d="M136.95 163.064H37V263H136.95V163.064Z" fill="#0045B2"/>
</g>
</svg>
