<svg width="336" height="100" viewBox="0 0 336 100" fill="none" xmlns="http://www.w3.org/2000/svg">
<path d="M133.912 34.9227H128.821V52.7706H126.05V34.9227H120.895V32.7964H133.912V34.9227Z" fill="#0045B2"/>
<path d="M145.447 46.5848C145.447 48.5178 144.996 50.1287 144.159 51.2885C143.321 52.4482 142.096 53.0281 140.55 53.0281C139.841 53.0281 139.196 52.8993 138.617 52.5771C138.037 52.3194 137.585 51.8684 137.199 51.3529V58.4405H134.428V37.9508H136.941L137.134 39.6261C137.521 38.9818 138.037 38.5307 138.552 38.1441C139.132 37.822 139.776 37.6287 140.55 37.6287C142.096 37.6287 143.321 38.273 144.159 39.5617C144.996 40.8503 145.447 42.59 145.447 44.7163V46.5848ZM142.676 44.7807C142.676 43.2988 142.419 42.139 141.968 41.2369C141.516 40.3348 140.743 39.8838 139.841 39.8838C139.261 39.8838 138.745 40.0771 138.294 40.3993C137.908 40.7214 137.521 41.1725 137.263 41.8168V49.2266C137.521 49.8065 137.843 50.1931 138.23 50.5153C138.681 50.8374 139.196 50.9663 139.776 50.9663C140.743 50.9663 141.452 50.5797 141.903 49.7421C142.354 48.9689 142.612 47.8735 142.612 46.5848V44.7807H142.676Z" fill="#0045B2"/>
<path d="M155.694 52.7704C155.565 52.4482 155.501 52.1261 155.436 51.8039C155.372 51.4818 155.307 51.1596 155.307 50.8374C154.921 51.4818 154.405 52.0617 153.761 52.4482C153.116 52.8993 152.472 53.0926 151.699 53.0926C150.474 53.0926 149.443 52.706 148.734 51.9328C148.025 51.1596 147.703 50.0642 147.703 48.7756C147.703 47.358 148.154 46.2627 149.121 45.4251C150.087 44.5874 151.441 44.2008 153.181 44.2008H155.243V42.6544C155.243 41.7524 155.05 41.0436 154.663 40.5281C154.276 40.0127 153.696 39.755 152.923 39.755C152.279 39.755 151.699 40.0127 151.312 40.4637C150.925 40.9147 150.732 41.4946 150.732 42.139H148.09L148.025 42.0745C147.961 40.9147 148.412 39.8838 149.379 38.9818C150.345 38.0797 151.57 37.6287 153.116 37.6287C154.598 37.6287 155.758 38.0797 156.661 38.9173C157.563 39.755 158.014 40.9792 158.014 42.59V49.4843C158.014 50.0642 158.078 50.6441 158.143 51.1596C158.207 51.6751 158.336 52.1905 158.465 52.706H155.694V52.7704ZM152.343 50.9663C152.987 50.9663 153.567 50.773 154.147 50.3864C154.663 49.9998 155.05 49.5488 155.307 48.9689V45.9405H153.181C152.343 45.9405 151.699 46.1982 151.183 46.7781C150.732 47.2936 150.474 48.0024 150.474 48.7756C150.474 49.4199 150.603 49.9998 150.925 50.3864C151.312 50.773 151.763 50.9663 152.343 50.9663Z" fill="#0045B2"/>
<path d="M171.803 52.7708H169.032V46.4563H164.07V52.7708H161.299V37.9512H164.07V44.33H169.032V37.9512H171.803V52.7708Z" fill="#0045B2"/>
<path d="M180.183 50.9663C180.892 50.9663 181.471 50.7086 181.923 50.1931C182.374 49.6777 182.631 48.9689 182.631 48.0668H185.145V48.1313C185.209 49.5488 184.694 50.7086 183.727 51.6751C182.76 52.6416 181.536 53.0926 180.118 53.0926C178.249 53.0926 176.832 52.4483 175.865 51.2241C174.898 49.9998 174.383 48.389 174.383 46.456V44.3942C174.383 42.4612 174.898 40.8504 175.865 39.6261C176.832 38.3375 178.249 37.7576 180.118 37.7576C181.6 37.7576 182.825 38.273 183.791 39.2395C184.758 40.206 185.209 41.5591 185.145 43.1055L185.08 43.1699H182.696C182.696 42.2034 182.438 41.3658 181.987 40.7215C181.536 40.0772 180.956 39.8194 180.183 39.8194C179.152 39.8194 178.378 40.2705 177.927 41.1081C177.476 41.9457 177.283 43.0411 177.283 44.3942V46.456C177.283 47.8091 177.476 48.9045 177.927 49.7421C178.378 50.5153 179.152 50.9663 180.183 50.9663Z" fill="#0045B2"/>
<path d="M201.189 32.7964V52.7706H198.418V34.9227H192.876V41.9459C192.876 45.7474 192.425 48.518 191.587 50.1933C190.749 51.8686 189.332 52.7706 187.463 52.7706H186.754V50.6443H187.205C188.301 50.6443 189.009 50 189.461 48.7113C189.847 47.4227 190.105 45.1675 190.105 41.9459V32.7964H201.189Z" fill="#0045B2"/>
<path d="M212.467 37.9512H215.239V52.7708H212.467V42.7192H212.403L207.505 52.7708H204.734V37.9512H207.505V48.0027H207.634L212.467 37.9512Z" fill="#0045B2"/>
<path d="M218.01 45.5539C218.01 43.1699 218.396 41.2369 219.17 39.8194C219.943 38.4019 221.103 37.6931 222.585 37.6931C222.907 37.6931 223.165 37.6931 223.423 37.7575C223.681 37.822 223.938 37.8864 224.196 38.0153V31.3787H226.967V38.0153C227.225 37.8864 227.483 37.822 227.805 37.7575C228.127 37.6931 228.385 37.6287 228.707 37.6287C230.189 37.6287 231.285 38.3374 232.123 39.755C232.896 41.1725 233.347 43.1055 233.347 45.4895V45.7472C233.347 47.9379 232.96 49.6776 232.123 51.0307C231.349 52.3194 230.189 53.0281 228.772 53.0281C228.449 53.0281 228.127 53.0281 227.805 52.9637C227.547 52.8993 227.225 52.8348 226.967 52.706V58.4405H224.196V52.706C223.938 52.8348 223.681 52.8993 223.423 52.9637C223.165 53.0281 222.843 53.0281 222.585 53.0281C221.103 53.0281 220.008 52.3838 219.234 51.0307C218.461 49.7421 218.01 47.9379 218.01 45.7472V45.5539ZM230.576 45.5539C230.576 43.8787 230.383 42.4611 229.932 41.4302C229.481 40.3993 228.836 39.8194 227.998 39.8194C227.805 39.8194 227.612 39.8194 227.483 39.8838C227.29 39.8838 227.161 39.9482 227.032 40.0127V50.9019C227.161 50.9663 227.29 50.9663 227.483 51.0307C227.676 51.0307 227.805 51.0307 228.063 51.0307C228.965 51.0307 229.609 50.5797 229.996 49.6132C230.383 48.7111 230.641 47.4225 230.641 45.8761V45.5539H230.576ZM220.781 45.8116C220.781 47.358 220.974 48.6467 221.361 49.5488C221.747 50.4508 222.392 50.9663 223.294 50.9663C223.487 50.9663 223.616 50.9663 223.81 50.9663C224.003 50.9663 224.132 50.9019 224.261 50.9019V39.9482C224.132 39.9482 224.003 39.8838 223.81 39.8838C223.681 39.8838 223.487 39.8194 223.359 39.8194C222.456 39.8194 221.812 40.3348 221.425 41.4302C221.039 42.4611 220.845 43.8787 220.845 45.6184V45.8116H220.781Z" fill="#0045B2"/>
<path d="M245.59 40.0775H241.53V52.7708H238.695V40.0775H234.699V37.9512H245.59V40.0775Z" fill="#0045B2"/>
<path d="M258.738 34.9227H253.583V52.7706H250.812V34.9227H245.721V32.7964H258.738V34.9227Z" fill="#0045B2"/>
<path d="M264.796 53.0926C263.056 53.0926 261.638 52.4483 260.543 51.2885C259.512 50.0643 258.932 48.5179 258.932 46.5849V44.3942C258.932 42.4612 259.447 40.8504 260.478 39.6261C261.509 38.3375 262.863 37.7576 264.409 37.7576C266.085 37.7576 267.374 38.3375 268.276 39.4973C269.178 40.6571 269.629 42.2034 269.629 44.1364V46.0694H261.638V46.6493C261.638 47.938 261.896 48.9689 262.476 49.8065C263.056 50.6442 263.829 51.0952 264.86 51.0952C265.634 51.0952 266.278 50.9663 266.858 50.7086C267.438 50.4509 267.954 50.1287 268.405 49.6777L269.307 51.4174C268.856 51.9328 268.211 52.3839 267.438 52.706C266.665 52.8993 265.763 53.0926 264.796 53.0926ZM264.474 39.755C263.636 39.755 262.992 40.1416 262.54 40.9148C262.025 41.688 261.767 42.7189 261.703 43.8787H266.923V43.2988C266.923 42.2679 266.729 41.3658 266.278 40.7215C265.891 40.1416 265.247 39.755 264.474 39.755Z" fill="#0045B2"/>
<path d="M276.589 43.3635H276.718L279.038 37.9512H282.195L278.264 45.2965L282.324 52.7708H279.167L276.718 47.1651H276.653L274.205 52.7708H271.047L275.107 45.2965L271.176 37.9512H274.333L276.589 43.3635Z" fill="#0045B2"/>
<path d="M294.953 52.7708H292.182V46.4563H287.22V52.7708H284.449V37.9512H287.22V44.33H292.182V37.9512H294.953V52.7708Z" fill="#0045B2"/>
<path d="M305.973 37.9512H308.744V52.7708H305.973V42.7192H305.909L301.011 52.7708H298.24V37.9512H301.011V48.0027H301.076L305.973 37.9512Z" fill="#0045B2"/>
<path d="M316.349 46.5208H314.931V52.7708H312.16V37.9512H314.931V44.1367H316.284L319.7 37.9512H323.115L318.54 44.9099L323.502 52.7708H319.893L316.349 46.5208Z" fill="#0045B2"/>
<path d="M332.911 52.7704C332.782 52.4482 332.717 52.1261 332.653 51.8039C332.589 51.4818 332.524 51.1596 332.524 50.8374C332.137 51.4818 331.622 52.0617 330.978 52.4482C330.333 52.8993 329.689 53.0926 328.915 53.0926C327.691 53.0926 326.66 52.706 325.951 51.9328C325.242 51.1596 324.92 50.0642 324.92 48.7756C324.92 47.358 325.371 46.2627 326.338 45.4251C327.304 44.5874 328.658 44.2008 330.398 44.2008H332.46V42.6544C332.46 41.7524 332.266 41.0436 331.88 40.5281C331.493 40.0127 330.913 39.755 330.14 39.755C329.495 39.755 328.915 40.0127 328.529 40.4637C328.142 40.9147 327.949 41.4946 327.949 42.139H325.307L325.242 42.0745C325.178 40.9147 325.629 39.8838 326.595 38.9818C327.562 38.0797 328.786 37.6287 330.333 37.6287C331.815 37.6287 332.975 38.0797 333.877 38.9173C334.78 39.755 335.231 40.9792 335.231 42.59V49.4843C335.231 50.0642 335.295 50.6441 335.36 51.1596C335.424 51.6751 335.553 52.1905 335.682 52.706H332.911V52.7704ZM329.56 50.9663C330.204 50.9663 330.784 50.773 331.364 50.3864C331.88 49.9998 332.266 49.5488 332.524 48.9689V45.9405H330.398C329.56 45.9405 328.915 46.1982 328.4 46.7781C327.949 47.2936 327.691 48.0024 327.691 48.7756C327.691 49.4199 327.82 49.9998 328.142 50.3864C328.464 50.773 328.915 50.9663 329.56 50.9663Z" fill="#0045B2"/>
<path d="M122.119 59.3428H123.15V70.6185H128.628V59.3428H129.594V70.6185H130.626L130.497 74.4201H129.594V71.4562H122.119V59.3428Z" fill="#0045B2"/>
<path d="M135.201 71.6497C134.234 71.6497 133.461 71.2631 132.816 70.5543C132.172 69.8455 131.914 68.879 131.914 67.7837V66.3017C131.914 65.1419 132.236 64.2399 132.816 63.4667C133.461 62.6935 134.17 62.3069 135.072 62.3069C136.038 62.3069 136.747 62.629 137.263 63.3378C137.778 63.9821 138.036 64.8842 138.036 66.044V67.0105H132.881V67.7837C132.881 68.6858 133.074 69.3945 133.525 69.9744C133.912 70.5543 134.492 70.812 135.201 70.812C135.716 70.812 136.103 70.7476 136.489 70.5543C136.876 70.361 137.134 70.1033 137.392 69.8455L137.778 70.5543C137.521 70.8765 137.134 71.1986 136.747 71.3919C136.361 71.5208 135.845 71.6497 135.201 71.6497ZM135.072 63.1445C134.427 63.1445 133.912 63.4022 133.525 63.9821C133.138 64.562 132.881 65.2708 132.881 66.1084H137.069V65.7218C137.069 64.9486 136.876 64.3687 136.554 63.8533C136.167 63.4022 135.716 63.1445 135.072 63.1445Z" fill="#0045B2"/>
<path d="M145.64 71.4562H144.673V67.3325H140.871V71.4562H139.84V62.4355H140.871V66.4948H144.673V62.4355H145.64V71.4562Z" fill="#0045B2"/>
<path d="M153.438 63.3376H150.796V71.4562H149.765V63.3376H147.252V62.4355H153.438V63.3376Z" fill="#0045B2"/>
<path d="M161.106 67.7837C161.106 68.9435 160.849 69.91 160.333 70.6187C159.818 71.3275 159.109 71.6497 158.207 71.6497C157.691 71.6497 157.24 71.5208 156.853 71.3275C156.467 71.1342 156.144 70.812 155.887 70.4254V74.9357H154.984V62.4357H155.822L155.951 63.66C156.209 63.2089 156.531 62.8868 156.918 62.629C157.304 62.3713 157.755 62.2424 158.271 62.2424C159.173 62.2424 159.882 62.629 160.398 63.4022C160.913 64.1754 161.171 65.2064 161.171 66.495V67.7837H161.106ZM160.075 66.5594C160.075 65.5929 159.882 64.7553 159.56 64.1754C159.173 63.5311 158.658 63.2734 157.949 63.2734C157.433 63.2734 157.047 63.4022 156.724 63.7244C156.402 64.0466 156.144 64.4332 155.951 64.8842V69.4589C156.144 69.91 156.402 70.2966 156.724 70.5543C157.047 70.812 157.433 70.9409 157.949 70.9409C158.658 70.9409 159.173 70.6832 159.56 70.1033C159.946 69.5234 160.075 68.8146 160.075 67.9125V66.5594Z" fill="#0045B2"/>
<path d="M173.544 67.9768C173.544 69.201 173.222 70.1031 172.642 70.7474C172.062 71.3917 171.159 71.7139 170.128 71.7139C169.033 71.7139 168.131 71.3273 167.486 70.5541C166.842 69.7809 166.52 68.6211 166.52 67.2036V63.8531C166.52 62.3711 166.842 61.2757 167.486 60.5025C168.131 59.7294 169.033 59.2783 170.128 59.2783C171.224 59.2783 172.062 59.6005 172.642 60.1804C173.222 60.8247 173.544 61.7268 173.544 62.8866V62.951H172.642C172.642 61.9845 172.384 61.2757 171.997 60.8247C171.61 60.3737 170.966 60.116 170.128 60.116C169.291 60.116 168.646 60.4381 168.195 61.0824C167.744 61.7268 167.486 62.6288 167.486 63.7886V67.2036C167.486 68.4278 167.744 69.3299 168.195 69.9742C168.646 70.6185 169.291 70.9407 170.128 70.9407C170.966 70.9407 171.546 70.7474 171.997 70.2964C172.384 69.8453 172.642 69.1366 172.642 68.1056H173.544V67.9768Z" fill="#0045B2"/>
<path d="M181.405 71.4562H180.374V63.3376H176.572V71.4562H175.541V62.4355H181.405V71.4562Z" fill="#0045B2"/>
<path d="M186.626 71.6497C185.66 71.6497 184.886 71.2631 184.242 70.5543C183.598 69.8455 183.34 68.879 183.34 67.7837V66.3017C183.34 65.1419 183.662 64.2399 184.242 63.4667C184.886 62.6935 185.595 62.3069 186.498 62.3069C187.464 62.3069 188.173 62.629 188.689 63.3378C189.204 63.9821 189.462 64.8842 189.462 66.044V67.0105H184.306V67.7837C184.306 68.6858 184.5 69.3945 184.951 69.9744C185.338 70.5543 185.918 70.812 186.626 70.812C187.142 70.812 187.529 70.7476 187.915 70.5543C188.302 70.361 188.56 70.1033 188.817 69.8455L189.204 70.5543C188.946 70.8765 188.56 71.1986 188.173 71.3919C187.722 71.5208 187.206 71.6497 186.626 71.6497ZM186.498 63.1445C185.853 63.1445 185.338 63.4022 184.951 63.9821C184.564 64.562 184.306 65.2708 184.306 66.1084H188.495V65.7218C188.495 64.9486 188.302 64.3687 187.98 63.8533C187.593 63.4022 187.078 63.1445 186.498 63.1445Z" fill="#0045B2"/>
<path d="M191.266 62.4355H192.232V70.6185H196.034V62.4355H197.065V70.6185H197.903L197.774 74.1623H196.872V71.4562H191.266V62.4355Z" fill="#0045B2"/>
<path d="M204.411 62.4355H205.378V71.4562H204.411V64.3685H204.347L200.609 71.4562H199.578V62.4355H200.609V69.5232V69.5876L204.411 62.4355Z" fill="#0045B2"/>
<path d="M212.403 71.4561C212.339 71.134 212.339 70.8762 212.275 70.683C212.275 70.4897 212.21 70.2964 212.21 70.1031C211.952 70.5541 211.566 70.9407 211.179 71.1984C210.728 71.5206 210.277 71.6494 209.697 71.6494C208.924 71.6494 208.408 71.3917 207.957 70.9407C207.57 70.4896 207.377 69.8453 207.377 69.0721C207.377 68.2345 207.699 67.5902 208.279 67.0747C208.859 66.5592 209.632 66.3015 210.664 66.3015H212.21V65.2061C212.21 64.5618 212.081 64.0464 211.695 63.7242C211.372 63.3376 210.921 63.2087 210.341 63.2087C209.826 63.2087 209.375 63.402 208.988 63.7242C208.666 64.0464 208.472 64.4974 208.472 65.0128H207.57V64.9484C207.57 64.2397 207.828 63.6598 208.344 63.1443C208.859 62.6288 209.568 62.3711 210.406 62.3711C211.244 62.3711 211.888 62.6288 212.403 63.1443C212.919 63.6598 213.177 64.3685 213.177 65.335V69.7809C213.177 70.1031 213.177 70.4252 213.241 70.683C213.241 71.0051 213.306 71.2628 213.37 71.585H212.403V71.4561ZM209.89 70.7474C210.47 70.7474 210.921 70.6185 211.372 70.2963C211.823 69.9742 212.081 69.5876 212.275 69.0721V67.1391H210.664C209.955 67.1391 209.439 67.3324 209.052 67.719C208.666 68.1056 208.472 68.5567 208.472 69.1366C208.472 69.652 208.601 70.0386 208.859 70.2963C209.052 70.6185 209.375 70.7474 209.89 70.7474Z" fill="#0045B2"/>
<path d="M221.425 62.4355V71.4562H220.394V63.3376H217.429V66.4304C217.429 68.2345 217.236 69.4587 216.914 70.2964C216.527 71.0696 215.947 71.4562 215.109 71.4562H214.787V70.5541H215.045C215.56 70.5541 215.883 70.2319 216.14 69.652C216.334 69.0721 216.463 67.9768 216.463 66.4304V62.4355H221.425Z" fill="#0045B2"/>
<path d="M224.84 65.7216H226.902C227.74 65.7216 228.448 65.9793 228.9 66.4948C229.415 67.0103 229.608 67.719 229.608 68.5567C229.608 69.3943 229.351 70.103 228.9 70.6185C228.384 71.134 227.74 71.3917 226.902 71.3917H223.873V62.3711H224.904V65.7216H224.84ZM224.84 66.5592V70.6185H226.902C227.482 70.6185 227.933 70.4252 228.191 70.0386C228.448 69.652 228.642 69.201 228.642 68.6211C228.642 68.0412 228.513 67.5902 228.191 67.2036C227.933 66.817 227.482 66.6237 226.902 66.6237H224.84V66.5592Z" fill="#0045B2"/>
<path d="M237.341 71.4562H236.374V67.3325H232.572V71.4562H231.541V62.4355H232.572V66.4948H236.374V62.4355H237.341V71.4562Z" fill="#0045B2"/>
<path d="M240.758 65.7216H242.82C243.658 65.7216 244.366 65.9793 244.818 66.4948C245.333 67.0103 245.526 67.719 245.526 68.5567C245.526 69.3943 245.269 70.103 244.818 70.6185C244.302 71.134 243.658 71.3917 242.82 71.3917H239.791V62.3711H240.822V65.7216H240.758ZM240.758 66.5592V70.6185H242.82C243.4 70.6185 243.851 70.4252 244.109 70.0386C244.431 69.652 244.56 69.201 244.56 68.6211C244.56 68.0412 244.431 67.5902 244.109 67.2036C243.851 66.817 243.4 66.6237 242.82 66.6237H240.758V66.5592ZM248.169 71.4561H247.137V62.4355H248.104V71.4561H248.169Z" fill="#0045B2"/>
<path d="M253.001 66.1082L254.87 62.4355H256.095L253.581 66.8814L256.159 71.4562H254.999L253.001 67.6546L251.068 71.4562H249.908L252.486 66.8814L249.973 62.4355H251.133L253.001 66.1082Z" fill="#0045B2"/>
<path d="M267.372 60.1804H264.021V71.4562H262.99V60.1804H259.639V59.3428H267.372V60.1804Z" fill="#0045B2"/>
<path d="M270.982 71.6497C270.015 71.6497 269.242 71.2631 268.598 70.5543C267.953 69.8455 267.695 68.879 267.695 67.7837V66.3017C267.695 65.1419 268.018 64.2399 268.598 63.4667C269.242 62.6935 269.951 62.3069 270.853 62.3069C271.82 62.3069 272.529 62.629 273.044 63.3378C273.56 63.9821 273.817 64.8842 273.817 66.044V67.0105H268.662V67.7837C268.662 68.6858 268.855 69.3945 269.306 69.9744C269.693 70.5543 270.273 70.812 270.982 70.812C271.497 70.812 271.884 70.7476 272.271 70.5543C272.657 70.361 272.915 70.1033 273.173 69.8455L273.56 70.5543C273.302 70.8765 272.915 71.1986 272.529 71.3919C272.077 71.5208 271.562 71.6497 270.982 71.6497ZM270.853 63.1445C270.209 63.1445 269.693 63.4022 269.306 63.9821C268.92 64.562 268.662 65.2708 268.662 66.1084H272.851V65.7218C272.851 64.9486 272.657 64.3687 272.335 63.8533C271.949 63.4022 271.433 63.1445 270.853 63.1445Z" fill="#0045B2"/>
<path d="M277.941 66.1082L279.874 62.4355H281.034L278.521 66.8814L281.099 71.4562H279.939L278.005 67.6546L276.008 71.4562H274.848L277.425 66.8814L274.912 62.4355H276.137L277.941 66.1082Z" fill="#0045B2"/>
<path d="M288.573 71.4562H287.542V67.3325H283.74V71.4562H282.773V62.4355H283.74V66.4948H287.542V62.4355H288.573V71.4562Z" fill="#0045B2"/>
<path d="M290.443 66.3017C290.443 65.1419 290.766 64.1754 291.346 63.4022C291.926 62.629 292.763 62.2424 293.794 62.2424C294.825 62.2424 295.599 62.629 296.243 63.4022C296.823 64.1754 297.145 65.1419 297.145 66.3017V67.6548C297.145 68.8146 296.823 69.7811 296.243 70.5543C295.663 71.3275 294.825 71.6497 293.794 71.6497C292.763 71.6497 291.99 71.2631 291.346 70.5543C290.766 69.7811 290.443 68.8146 290.443 67.6548V66.3017ZM291.474 67.6548C291.474 68.5569 291.668 69.3301 292.054 69.91C292.441 70.4899 293.021 70.812 293.794 70.812C294.503 70.812 295.083 70.4899 295.47 69.91C295.857 69.3301 296.05 68.5569 296.05 67.6548V66.3017C296.05 65.3997 295.857 64.6909 295.47 64.0466C295.083 63.4667 294.503 63.1445 293.73 63.1445C293.021 63.1445 292.441 63.4667 291.99 64.0466C291.603 64.6265 291.41 65.3997 291.41 66.3017V67.6548H291.474Z" fill="#0045B2"/>
<path d="M304.684 62.4355V71.4562H303.653V63.3376H300.689V66.4304C300.689 68.2345 300.496 69.4587 300.173 70.2964C299.787 71.0696 299.207 71.4562 298.369 71.4562H298.047V70.5541H298.305C298.82 70.5541 299.142 70.2319 299.4 69.652C299.594 69.0721 299.722 67.9768 299.722 66.4304V62.4355H304.684Z" fill="#0045B2"/>
<path d="M306.617 66.3017C306.617 65.1419 306.939 64.1754 307.519 63.4022C308.099 62.629 308.937 62.2424 309.968 62.2424C310.999 62.2424 311.773 62.629 312.417 63.4022C312.997 64.1754 313.319 65.1419 313.319 66.3017V67.6548C313.319 68.8146 312.997 69.7811 312.417 70.5543C311.837 71.3275 310.999 71.6497 309.968 71.6497C308.937 71.6497 308.164 71.2631 307.519 70.5543C306.939 69.7811 306.617 68.8146 306.617 67.6548V66.3017ZM307.648 67.6548C307.648 68.5569 307.842 69.3301 308.228 69.91C308.615 70.4899 309.195 70.812 309.968 70.812C310.677 70.812 311.257 70.4899 311.644 69.91C312.03 69.3301 312.224 68.5569 312.224 67.6548V66.3017C312.224 65.3997 312.03 64.6909 311.644 64.0466C311.257 63.4667 310.677 63.1445 309.904 63.1445C309.195 63.1445 308.615 63.4667 308.164 64.0466C307.777 64.6265 307.584 65.3997 307.584 66.3017V67.6548H307.648Z" fill="#0045B2"/>
<path d="M319.829 63.3376H316.156V71.4562H315.125V62.4355H319.829V63.3376Z" fill="#0045B2"/>
<path d="M326.079 62.4355H327.046V71.4562H326.079V64.3685H326.015L322.277 71.4562H321.246V62.4355H322.277V69.5232V69.5876L326.079 62.4355Z" fill="#0045B2"/>
<path d="M334.263 62.4356H335.294V71.4563H334.263V64.3686H334.198L330.461 71.4563H329.43V62.4356H330.461V69.5233H330.525L334.263 62.4356ZM334.392 58.8918C334.456 59.5362 334.263 60.0516 333.876 60.4382C333.49 60.8248 332.974 61.0181 332.33 61.0181C331.685 61.0181 331.17 60.8248 330.783 60.4382C330.396 60.0516 330.203 59.5362 330.267 58.8918V58.8274H331.041C331.041 59.2784 331.17 59.6006 331.363 59.8583C331.556 60.1161 331.879 60.2449 332.33 60.2449C332.781 60.2449 333.038 60.1161 333.296 59.8583C333.49 59.6006 333.618 59.2784 333.618 58.8274H334.392V58.8918Z" fill="#0045B2"/>
<path d="M60.7694 32.4742H79.2644H96.7928C89.7041 13.5309 71.4024 0 50.0074 0C28.5481 0.064433 10.2464 13.5309 3.15769 32.4742H57.1606L49.1052 60.5026C48.6541 62.4356 50.5874 62.4356 50.5874 62.4356H64.2493C64.3137 62.4356 64.3137 62.4356 64.3781 62.4356H65.667L71.9179 42.4613C72.369 40.5284 70.4357 40.5284 70.4357 40.5284H60.8338C58.9005 40.5284 59.3516 38.5954 59.3516 38.5954L60.7694 32.4742ZM11.0197 40.5284H1.54662H0.902196C0.322213 43.6211 0 46.7784 0 50C0 77.5773 22.3616 100 50.0074 100C77.5889 100 100.015 77.6418 100.015 50C100.015 46.7784 99.6927 43.6211 99.1127 40.5284H98.726H89.5107C87.5775 40.5284 87.1264 42.4613 87.1264 42.4613L79.5221 68.4278C79.071 70.3608 80.4888 70.8763 80.4888 70.8763H65.2159H64.7648H33.5101C31.5769 70.8763 32.0924 68.8789 32.0924 68.8789L40.2122 40.5928H39.4389H30.1591C28.2258 40.5928 27.7748 42.5258 27.7748 42.5258L20.1705 68.4923C19.7194 70.4253 21.0727 70.9407 21.0727 70.9407H6.31537C4.3821 70.9407 4.83319 69.1366 4.83319 69.1366L12.5663 42.5258C13.0174 40.5284 11.0197 40.5284 11.0197 40.5284Z" fill="#0045B2"/>
<mask id="mask0_1181_4529" style="mask-type:luminance" maskUnits="userSpaceOnUse" x="0" y="0" width="101" height="100">
<path d="M60.7694 32.4742H79.2644H96.7928C89.7041 13.5309 71.4024 0 50.0074 0C28.5481 0.064433 10.2464 13.5309 3.15769 32.4742H57.1606L49.1052 60.5026C48.6541 62.4356 50.5874 62.4356 50.5874 62.4356H64.2493C64.3137 62.4356 64.3137 62.4356 64.3781 62.4356H65.667L71.9179 42.4613C72.369 40.5284 70.4357 40.5284 70.4357 40.5284H60.8338C58.9005 40.5284 59.3516 38.5954 59.3516 38.5954L60.7694 32.4742ZM11.0197 40.5284H1.54662H0.902196C0.322213 43.6211 0 46.7784 0 50C0 77.5773 22.3616 100 50.0074 100C77.5889 100 100.015 77.6418 100.015 50C100.015 46.7784 99.6927 43.6211 99.1127 40.5284H98.726H89.5107C87.5775 40.5284 87.1264 42.4613 87.1264 42.4613L79.5221 68.4278C79.071 70.3608 80.4888 70.8763 80.4888 70.8763H65.2159H64.7648H33.5101C31.5769 70.8763 32.0924 68.8789 32.0924 68.8789L40.2122 40.5928H39.4389H30.1591C28.2258 40.5928 27.7748 42.5258 27.7748 42.5258L20.1705 68.4923C19.7194 70.4253 21.0727 70.9407 21.0727 70.9407H6.31537C4.3821 70.9407 4.83319 69.1366 4.83319 69.1366L12.5663 42.5258C13.0174 40.5284 11.0197 40.5284 11.0197 40.5284Z" fill="white"/>
</mask>
<g mask="url(#mask0_1181_4529)">
<path d="M99.9504 0.0644531H0V100H99.9504V0.0644531Z" fill="#0045B2"/>
</g>
</svg>
