<svg width="410" height="410" viewBox="0 0 410 410" fill="none" xmlns="http://www.w3.org/2000/svg">
<rect width="410" height="410" fill="#F2F2F2"/>
<path d="M151.018 161.091L149 161.244V175.522V189.763H155.283H161.565V182.338C161.565 178.264 161.718 174.913 161.87 174.913C162.022 174.913 170.285 178.264 180.223 182.338L198.272 189.763L200.975 188.659C210.342 184.737 234.787 174.913 235.092 174.913C235.282 174.913 235.435 183.785 235.435 197.188V219.463H241.717H248V190.334V161.205H241.565H235.13L216.777 168.821C206.687 173.009 198.348 176.436 198.272 176.436C198.195 176.436 189.971 173.009 179.957 168.783L161.756 161.167L157.377 161.053C154.978 160.977 152.084 160.977 151.018 161.091Z" fill="#0045B2"/>
<path d="M149 223.613V244.937L152.541 248.021C154.445 249.696 157.834 252.285 160.004 253.77C180.49 267.478 206.572 269.268 228.771 258.492C235.092 255.446 241.489 251.029 246.401 246.345L248 244.822V238.425V232.028H241.717H235.435V235.684C235.435 239.872 235.777 239.339 230.485 243.033C213.578 254.722 191.494 256.169 172.874 246.84C169.904 245.355 164.84 242.081 162.974 240.443L161.565 239.187V220.758V202.328H155.283H149V223.613Z" fill="#0045B2"/>
<path d="M192.027 207.279V212.229L187.953 212.267C185.668 212.305 183.498 212.343 183.079 212.381C182.355 212.419 182.317 212.724 182.203 218.587L182.127 224.794H187.077H192.027V229.934V235.075H198.31H204.592V229.934V224.794H209.542H214.492L214.416 218.587L214.302 212.419L209.466 212.305L204.592 212.19V207.279V202.329H198.31H192.027V207.279Z" fill="#0045B2"/>
</svg>
