<svg width="99" height="105" viewBox="0 0 99 105" fill="none" xmlns="http://www.w3.org/2000/svg">
<path d="M2.01808 0.0912132L0 0.243519V14.5224V28.7631H6.28269H12.5654V21.3381C12.5654 17.2639 12.7177 13.9131 12.87 13.9131C13.0223 13.9131 21.285 17.2639 31.2231 21.3381L49.2715 28.7631L51.975 27.6589C61.3419 23.737 85.7873 13.9131 86.0919 13.9131C86.2823 13.9131 86.4346 22.7851 86.4346 36.1881V58.4631H92.7173H99V29.3343V0.205444H92.565H86.13L67.7769 7.82083C57.6865 12.0093 49.3477 15.4362 49.2715 15.4362C49.1954 15.4362 40.9708 12.0093 30.9565 7.78275L12.7558 0.167366L8.37692 0.0531349C5.97808 -0.0230179 3.08423 -0.0230179 2.01808 0.0912132Z" fill="#0045B2"/>
<path d="M0 62.6135V83.9366L3.54115 87.0208C5.445 88.6962 8.83385 91.2854 11.0042 92.7704C31.4896 106.478 57.5723 108.268 79.7711 97.4919C86.0919 94.4458 92.4888 90.0289 97.4008 85.3454L99 83.8223V77.4254V71.0285H92.7173H86.4346V74.6839C86.4346 78.8723 86.7773 78.3392 81.4846 82.0327C64.5785 93.7223 42.4938 95.1692 23.8742 85.8404C20.9042 84.3554 15.84 81.0808 13.9742 79.4435L12.5654 78.1869V59.7577V41.3285H6.28269H0V62.6135Z" fill="#0045B2"/>
<path d="M43.027 46.2786V51.2286L38.9527 51.2666C36.6681 51.3047 34.4977 51.3428 34.0789 51.3809C33.3554 51.4189 33.3173 51.7236 33.2031 57.5874L33.127 63.7939H38.077H43.027V68.9343V74.0747H49.3096H55.5923V68.9343V63.7939H60.5423H65.4923L65.4162 57.5874L65.302 51.4189L60.4662 51.3047L55.5923 51.1905V46.2786V41.3286H49.3096H43.027V46.2786Z" fill="#0045B2"/>
</svg>
