<svg width="410" height="410" viewBox="0 0 410 410" fill="none" xmlns="http://www.w3.org/2000/svg">
<rect width="410" height="410" fill="#F2F2F2"/>
<path fill-rule="evenodd" clip-rule="evenodd" d="M197.852 121C198.485 121 199.521 121.077 200.155 121.192C200.788 121.307 202.343 121.632 203.609 121.939C204.876 122.226 206.68 122.801 207.64 123.203C208.599 123.606 210.116 124.411 211.037 125.005C211.958 125.579 213.378 126.595 215.605 128.453L216.046 127.955C216.276 127.687 217.293 126.901 218.291 126.231C219.289 125.579 220.806 124.717 221.65 124.353C222.495 123.989 223.876 123.51 224.721 123.28C225.584 123.05 227.177 122.82 228.367 122.763C229.653 122.686 231.112 122.744 232.11 122.878C233.012 123.012 234.432 123.338 235.276 123.606C236.121 123.874 237.637 124.506 238.635 125.024C239.633 125.541 241.015 126.384 241.706 126.901C242.397 127.4 243.644 128.568 244.489 129.45C245.333 130.35 246.485 131.845 247.041 132.784C247.598 133.723 248.308 135.16 248.615 135.984C248.941 136.788 249.325 138.264 249.498 139.241C249.709 140.467 249.786 141.617 249.709 143.016C249.651 144.127 249.421 145.717 249.21 146.56C248.98 147.403 248.423 148.879 247.963 149.818C247.502 150.756 246.581 152.27 245.909 153.171C245.256 154.071 244.086 155.393 243.356 156.141C242.608 156.888 241.264 158.037 240.362 158.727C239.46 159.398 238.079 160.356 237.292 160.854C236.505 161.333 235.219 162.061 234.432 162.483C233.664 162.885 232.954 163.364 232.877 163.517C232.782 163.671 232.417 165.012 232.052 166.487C231.668 167.963 231.189 170.109 230.977 171.277C230.766 172.446 230.44 174.458 230.267 175.78C230.114 177.102 229.922 179.976 229.864 182.199C229.788 184.69 229.845 187.104 229.979 188.522C230.095 189.786 230.171 190.84 230.152 190.859C230.114 190.898 228.463 190.63 226.448 190.266C224.433 189.901 221.074 189.384 218.963 189.116C216.852 188.848 213.493 188.541 211.478 188.407C209.309 188.273 206.085 188.234 203.513 188.292C201.134 188.349 198.12 188.541 196.796 188.694C195.472 188.867 193.399 189.173 192.19 189.384C190.981 189.614 188.985 190.036 187.776 190.342C186.567 190.649 184.398 191.3 182.978 191.798C181.558 192.277 179.255 193.197 177.892 193.829C176.529 194.462 175.282 195.017 175.147 195.094C174.994 195.171 175.167 194.5 175.57 193.408C175.934 192.411 176.395 190.687 176.606 189.576C176.836 188.464 177.067 186.702 177.143 185.648C177.22 184.517 177.182 182.87 177.028 181.624C176.913 180.455 176.683 178.865 176.51 178.079C176.357 177.294 176.049 176.048 175.838 175.301C175.627 174.554 175.147 173.098 174.764 172.044C174.38 170.99 173.42 168.844 171.175 164.38L168.776 163.172C167.451 162.502 165.379 161.295 164.169 160.49C162.634 159.494 161.348 158.421 159.947 157.022C158.834 155.911 157.644 154.512 157.318 153.937C156.972 153.362 156.454 152.328 156.186 151.638C155.783 150.661 155.648 149.971 155.571 148.476C155.514 147.346 155.571 146.12 155.706 145.506C155.84 144.932 156.32 143.686 156.8 142.728C157.26 141.789 158.162 140.371 158.796 139.624C159.429 138.858 160.523 137.746 161.252 137.152C161.962 136.578 163.018 135.773 163.594 135.39C164.169 135.006 165.436 134.278 166.377 133.78C167.317 133.282 169.006 132.573 170.119 132.209C171.232 131.845 172.787 131.385 173.574 131.213C174.361 131.04 176.184 130.868 180.195 130.695L180.867 129.641C181.231 129.067 182.133 127.974 182.882 127.208C183.63 126.461 185.012 125.33 185.953 124.717C186.893 124.085 188.467 123.261 189.407 122.878C190.348 122.495 191.96 121.996 192.958 121.786C193.956 121.575 195.222 121.307 195.741 121.211C196.278 121.115 197.218 121.019 197.852 121V121ZM192.958 124.353C192.171 124.526 190.827 124.909 189.983 125.215C189.139 125.541 187.929 126.078 187.296 126.422C186.663 126.786 185.646 127.534 185.012 128.089C184.398 128.664 183.745 129.392 183.554 129.699C183.362 130.025 183.112 130.504 182.997 130.81C182.805 131.289 182.863 131.423 183.861 132.535C184.456 133.186 185.3 134.24 185.722 134.872C186.145 135.505 186.72 136.501 186.97 137.076C187.219 137.651 187.488 138.647 187.546 139.279C187.603 139.969 187.546 140.735 187.392 141.195C187.258 141.617 186.835 142.383 186.452 142.881C186.068 143.38 185.569 143.935 185.338 144.089C185.089 144.223 184.859 144.338 184.82 144.318C184.763 144.28 184.59 143.609 184.436 142.824C184.264 142.038 183.861 140.85 183.554 140.199C183.227 139.528 182.575 138.551 182.076 138.015C181.538 137.44 180.636 136.788 179.907 136.424C179.197 136.06 178.026 135.696 177.22 135.543C176.318 135.39 175.167 135.351 174.149 135.428C173.247 135.485 171.866 135.715 171.079 135.945C170.292 136.156 168.91 136.673 168.008 137.095C167.106 137.516 165.858 138.245 165.225 138.704C164.592 139.164 163.536 140.084 162.884 140.755C162.25 141.406 161.406 142.441 161.041 143.016C160.677 143.59 160.197 144.606 159.966 145.276C159.736 145.928 159.506 146.924 159.448 147.48C159.371 148.016 159.429 149.089 159.563 149.818C159.679 150.565 160.062 151.772 160.408 152.5C160.753 153.247 161.463 154.397 161.982 155.087C162.5 155.757 163.805 157.099 164.88 158.057C165.954 158.995 167.432 160.126 168.142 160.567C168.852 160.988 169.927 161.544 170.503 161.774C171.079 162.023 172.249 162.425 173.094 162.674C173.938 162.943 175.8 163.307 177.22 163.517C178.64 163.728 180.214 163.901 180.732 163.901C181.231 163.901 181.634 163.977 181.634 164.092C181.634 164.207 181.404 164.341 181.097 164.399C180.809 164.475 179.312 164.495 177.758 164.456C176.184 164.418 174.917 164.437 174.917 164.533C174.917 164.609 175.435 165.472 176.069 166.449C176.721 167.407 177.738 169.246 178.372 170.511C178.986 171.776 179.754 173.538 180.061 174.439C180.368 175.339 180.867 177.102 181.155 178.367C181.538 180.034 181.711 181.452 181.807 183.502C181.903 185.897 181.961 186.299 182.21 186.203C182.364 186.146 183.323 185.782 184.321 185.418C185.319 185.054 187.181 184.46 188.448 184.096C189.714 183.732 191.921 183.176 193.342 182.87C194.762 182.582 197.065 182.161 198.428 181.969C200.404 181.701 202.093 181.624 206.488 181.624C210.768 181.624 212.591 181.701 214.357 181.969C215.624 182.161 217.735 182.525 219.059 182.774C220.383 183.042 222.226 183.464 223.185 183.732C224.145 183.981 224.951 184.153 225.009 184.096C225.066 184.038 225.162 182.889 225.239 181.567C225.335 180.225 225.527 177.964 225.7 176.547C225.853 175.129 226.218 172.964 226.486 171.756C226.755 170.549 227.273 168.691 227.638 167.637C228.003 166.583 228.617 165.069 228.981 164.284L229.634 162.847C228.348 163.096 227.465 163.249 226.832 163.345C226.199 163.441 224.183 163.517 222.36 163.517C220.345 163.517 218.848 163.441 218.522 163.307C218.061 163.115 218.253 163.038 220.403 162.732C221.727 162.54 223.838 162.157 225.105 161.87C226.371 161.601 228.578 160.988 229.999 160.528C231.419 160.049 233.357 159.302 234.317 158.842C235.276 158.401 236.562 157.693 237.196 157.29C237.829 156.888 238.942 155.987 239.672 155.297C240.382 154.608 241.341 153.516 241.802 152.883C242.243 152.251 242.877 151.216 243.184 150.584C243.51 149.952 243.932 148.917 244.162 148.285C244.374 147.652 244.661 146.618 244.796 145.985C244.93 145.353 245.045 143.763 245.045 142.441C245.026 140.85 244.93 139.586 244.7 138.704C244.527 137.976 244.047 136.673 243.644 135.83C243.241 134.987 242.55 133.818 242.128 133.244C241.687 132.669 240.785 131.73 240.132 131.174C239.46 130.619 238.366 129.871 237.676 129.526C236.985 129.162 235.833 128.683 235.085 128.473C234.336 128.243 233.012 127.994 232.11 127.917C231.208 127.84 229.653 127.84 228.655 127.917C227.657 127.994 226.064 128.281 225.105 128.549C224.145 128.818 222.61 129.411 221.65 129.891C220.69 130.35 219.366 131.155 218.675 131.653L217.409 132.573C217.197 134.796 216.948 136.309 216.737 137.363C216.526 138.417 216.104 139.892 215.816 140.62C215.528 141.368 214.933 142.517 214.491 143.207C214.069 143.897 213.11 145.027 212.361 145.755C211.613 146.464 210.787 147.154 210.519 147.288C210.25 147.403 210 147.48 209.962 147.422C209.904 147.365 210.212 146.464 210.634 145.411C211.056 144.357 211.613 142.805 211.862 141.962C212.112 141.119 212.457 139.701 212.611 138.8C212.764 137.9 212.956 136.482 213.014 135.639C213.09 134.796 213.052 133.512 212.937 132.765C212.802 131.998 212.438 130.849 212.054 130.082C211.709 129.354 210.998 128.319 210.48 127.802C209.981 127.285 209.214 126.633 208.791 126.346C208.369 126.058 207.505 125.579 206.872 125.311C206.239 125.024 205.068 124.621 204.281 124.411C203.494 124.2 202.112 123.951 201.21 123.855C200.308 123.759 199.022 123.682 198.332 123.682C197.641 123.702 196.489 123.778 195.741 123.874C194.992 123.951 193.745 124.161 192.958 124.353ZM139.968 227.514H147.952C154.209 227.514 155.917 227.571 155.898 227.763C155.898 227.878 155.648 228.606 154.804 230.675L142.194 230.771L141.772 231.767C141.542 232.323 140.41 235.14 139.239 238.014C138.068 240.869 137.109 243.321 137.109 243.417C137.109 243.532 138.222 243.609 140.083 243.609C142.828 243.609 143.058 243.628 142.962 243.953C142.924 244.126 142.674 244.797 141.945 246.578L135.707 246.77L133.635 251.848C132.483 254.645 130.948 258.132 130.219 259.608C129.489 261.083 128.453 262.942 127.935 263.727C127.416 264.513 126.303 265.892 125.478 266.774C124.634 267.655 123.444 268.747 122.81 269.207C122.177 269.648 121.083 270.28 120.373 270.606C119.644 270.932 118.53 271.334 117.878 271.487C117.206 271.641 115.901 271.775 114.942 271.775C114.001 271.775 112.792 271.66 112.255 271.526C111.736 271.372 110.873 271.066 110.335 270.797C109.817 270.548 108.819 269.82 108.128 269.169C107.399 268.498 106.631 267.521 106.267 266.87C105.94 266.256 105.518 265.222 105.326 264.589C105.115 263.842 105 262.788 105 261.62C105 260.527 105.134 259.301 105.345 258.554C105.518 257.864 105.902 256.791 106.19 256.159C106.478 255.526 107.092 254.453 107.553 253.764C108.013 253.074 109.088 251.809 109.932 250.966C110.796 250.104 112.216 248.935 113.118 248.341C114.02 247.766 115.402 246.981 116.189 246.617C116.976 246.253 118.319 245.735 119.164 245.467C120.008 245.18 121.429 244.777 122.331 244.586C123.233 244.375 124.979 244.068 126.227 243.896C127.455 243.743 129.604 243.609 130.967 243.609C132.79 243.609 133.481 243.551 133.539 243.379C133.577 243.245 134.863 240.026 136.398 236.232C137.934 232.438 139.373 228.932 139.584 228.433L139.968 227.514ZM123.962 247.326C123.117 247.498 121.64 247.901 120.699 248.226C119.74 248.552 118.108 249.261 117.072 249.797C116.036 250.334 114.481 251.349 113.636 252.039C112.773 252.71 111.602 253.879 111.026 254.626C110.451 255.354 109.702 256.561 109.357 257.308C109.011 258.036 108.627 259.205 108.493 259.895C108.339 260.642 108.301 261.62 108.378 262.386C108.455 263.095 108.742 264.11 109.03 264.743C109.357 265.413 109.932 266.218 110.47 266.716C110.969 267.176 111.794 267.751 112.293 267.981C113.061 268.345 113.521 268.402 115.133 268.383C116.669 268.383 117.283 268.287 118.3 267.904C118.972 267.655 120.008 267.138 120.603 266.755C121.179 266.371 122.215 265.471 122.906 264.743C123.597 264.015 124.614 262.75 125.171 261.907C125.728 261.064 126.822 259.071 127.608 257.5C128.376 255.91 129.72 252.901 130.564 250.794C131.428 248.686 132.119 246.885 132.119 246.808C132.119 246.732 131.351 246.674 130.43 246.693C129.508 246.713 128.011 246.789 127.129 246.866C126.227 246.943 124.806 247.153 123.962 247.326ZM147.664 277.714C147.875 277.714 148.048 277.81 148.048 277.944C148.048 278.078 147.837 278.768 147.568 279.477C147.3 280.186 147.088 280.991 147.088 281.259C147.088 281.578 147.248 281.815 147.568 281.968C147.971 282.179 148.125 282.16 148.566 281.796C148.931 281.527 149.315 280.818 149.795 279.592C150.351 278.174 150.562 277.791 150.888 277.753C151.119 277.734 151.311 277.772 151.311 277.849C151.311 277.925 150.831 279.266 150.255 280.818C149.66 282.37 149.2 283.731 149.2 283.846C149.2 283.942 149.564 284.037 150.006 284.037C150.793 284.037 150.831 283.999 151.311 283.079C151.618 282.447 151.906 282.102 152.117 282.102C152.309 282.102 152.673 281.796 152.923 281.393C153.192 280.991 153.537 280.282 153.691 279.822C153.863 279.343 153.998 278.883 153.998 278.807C153.998 278.73 153.767 278.672 153.518 278.672C153.134 278.672 153.057 278.596 153.134 278.289C153.211 277.925 153.383 277.906 155.245 277.906C156.339 277.906 157.26 277.925 157.26 277.944C157.26 277.964 156.953 278.864 156.589 279.918C156.224 280.972 155.994 281.891 156.07 281.968C156.128 282.064 156.397 282.121 156.627 282.121C157.068 282.121 157.068 282.121 156.493 283.271C156.07 284.095 155.821 284.401 155.571 284.363C155.379 284.325 155.245 284.172 155.264 284.018C155.284 283.865 155.36 283.539 155.418 283.309C155.514 282.888 155.495 282.888 152.462 282.888L152.117 283.558C151.925 283.942 151.637 284.229 151.445 284.229C151.253 284.229 151.023 284.401 150.927 284.612C150.754 284.919 150.543 284.976 148.72 284.976L148.374 285.896C148.182 286.394 147.856 287.084 147.645 287.429C147.453 287.774 146.935 288.272 146.513 288.54C146.09 288.789 145.457 289 145.112 289C144.747 289 144.229 288.808 143.864 288.521C143.461 288.234 143.173 287.793 143.058 287.333C142.962 286.911 142.962 286.375 143.058 286.049C143.154 285.724 143.461 285.225 143.768 284.938C144.056 284.651 144.593 284.325 144.977 284.229C145.342 284.114 146.225 284.018 146.935 284.018C147.914 284.018 148.259 283.961 148.336 283.75C148.374 283.578 148.432 283.328 148.432 283.175C148.432 282.964 148.202 282.869 147.607 282.869C147.108 282.869 146.666 282.734 146.455 282.543C146.263 282.351 146.11 281.93 146.11 281.585C146.11 281.24 146.378 280.224 146.705 279.343C147.165 278.059 147.376 277.714 147.664 277.714ZM153.94 281.01C153.71 281.508 153.556 281.968 153.614 282.026C153.652 282.083 153.978 282.121 154.324 282.121C154.746 282.121 154.996 282.006 155.072 281.776C155.13 281.585 155.399 280.838 155.648 280.109C155.898 279.362 156.109 278.73 156.109 278.711C156.109 278.692 155.802 278.672 155.456 278.672C154.861 278.672 154.785 278.73 154.593 279.381C154.477 279.784 154.19 280.512 153.94 281.01ZM144.133 285.781C143.96 286.03 143.807 286.471 143.807 286.758C143.819 287.116 143.999 287.422 144.344 287.678C144.632 287.889 145.073 288.061 145.304 288.061C145.534 288.061 146.014 287.812 146.34 287.525C146.685 287.237 147.108 286.662 147.3 286.241C147.491 285.8 147.645 285.359 147.645 285.225C147.664 285.053 147.3 284.995 146.455 284.995C145.803 284.995 145.073 285.091 144.843 285.168C144.613 285.264 144.286 285.551 144.133 285.781Z" fill="#0045B2"/>
<path d="M213.973 183.061C213.762 183.061 213.57 182.946 213.532 182.812C213.493 182.639 213.666 182.582 214.107 182.639C214.453 182.678 215.7 182.831 216.852 182.984C218.003 183.157 219.999 183.521 221.266 183.827C222.533 184.115 223.895 184.498 224.279 184.67C224.682 184.843 225.008 185.111 225.008 185.264C225.008 185.418 224.951 185.59 224.855 185.629C224.778 185.686 223.646 185.379 222.322 184.958C220.997 184.536 218.675 183.942 217.14 183.636C215.604 183.31 214.184 183.061 213.973 183.061Z" fill="white"/>
<path fill-rule="evenodd" clip-rule="evenodd" d="M215.22 195.036C216.525 195.094 217.888 195.305 219.059 195.611C220.057 195.879 222.014 196.646 223.377 197.297C224.74 197.968 227.503 199.539 229.518 200.804C231.534 202.087 233.721 203.429 234.412 203.812C235.103 204.176 236.332 204.712 237.157 204.981C237.982 205.268 239.076 205.479 239.633 205.479C240.189 205.479 240.957 205.383 241.322 205.249C241.686 205.134 242.32 204.808 242.723 204.54C243.126 204.253 243.567 203.754 243.701 203.371C243.855 203.007 244.028 202.183 244.104 201.551C244.181 200.919 244.2 199.999 244.124 199.482C244.066 198.964 243.855 198.428 243.625 198.198C243.414 197.987 243.01 197.815 242.703 197.815C242.416 197.815 242.032 197.968 241.84 198.16C241.648 198.332 241.494 198.6 241.514 198.734C241.514 198.849 241.418 198.964 241.322 198.964C241.226 198.964 241.091 198.83 241.034 198.677C240.976 198.524 240.938 198.179 240.938 197.91C240.938 197.642 241.034 197.259 241.13 197.048C241.226 196.837 241.59 196.531 241.897 196.378C242.204 196.224 242.665 196.09 242.895 196.09C243.145 196.109 243.682 196.224 244.104 196.378C244.527 196.531 245.218 196.895 245.621 197.182C246.043 197.489 246.619 198.102 246.926 198.581C247.233 199.06 247.559 199.788 247.674 200.21C247.789 200.631 247.885 201.762 247.885 202.701C247.885 204.023 247.77 204.732 247.425 205.766C247.175 206.514 246.657 207.587 246.273 208.161C245.889 208.736 244.911 209.867 244.066 210.652C243.241 211.457 241.744 212.645 240.746 213.316C239.748 213.986 238.232 214.868 237.387 215.289C236.543 215.711 234.988 216.343 233.933 216.707C232.877 217.052 231.361 217.473 230.574 217.627C229.787 217.78 228.271 218.01 227.215 218.144C226.006 218.278 223.703 218.336 220.978 218.259C217.274 218.182 216.372 218.106 214.644 217.684C213.531 217.416 211.842 216.918 210.902 216.573C209.942 216.209 208.656 215.615 208.023 215.251C207.39 214.887 206.181 213.89 205.317 213.047C204.146 211.898 203.571 211.15 203.014 210.02C202.611 209.196 202.227 208.545 202.17 208.545C202.112 208.545 201.843 208.909 201.555 209.368C201.287 209.809 200.423 210.786 199.636 211.534C198.868 212.281 197.717 213.22 197.084 213.641C196.45 214.063 195.452 214.676 194.877 215.002C194.301 215.327 193.034 215.902 192.094 216.266C191.153 216.65 189.368 217.224 188.159 217.55C186.95 217.857 184.954 218.259 183.745 218.431C182.478 218.604 180.31 218.738 178.659 218.738C176.932 218.738 175.013 218.604 173.861 218.431C172.806 218.259 171.347 217.933 170.598 217.723C169.85 217.493 168.526 216.937 167.624 216.477C166.722 216.017 165.417 215.174 164.687 214.58C163.977 214.005 162.979 212.99 162.442 212.319C161.924 211.668 161.156 210.48 160.753 209.694C160.331 208.909 159.851 207.567 159.659 206.724C159.429 205.67 159.352 204.789 159.429 203.946C159.486 203.256 159.716 202.222 159.928 201.647C160.139 201.072 160.638 200.133 161.041 199.558C161.444 198.983 162.077 198.275 162.442 197.987C162.806 197.7 163.497 197.336 163.977 197.221C164.649 197.029 165.013 197.029 165.666 197.202C166.107 197.336 166.645 197.623 166.856 197.872C167.086 198.102 167.24 198.562 167.24 198.926C167.24 199.29 167.048 199.769 166.76 200.114C166.491 200.42 166.223 200.65 166.127 200.612C166.05 200.555 166.011 200.248 166.05 199.884C166.088 199.539 165.992 199.137 165.858 199.003C165.724 198.868 165.321 198.754 164.994 198.773C164.553 198.773 164.207 198.945 163.881 199.29C163.612 199.597 163.363 200.114 163.305 200.44C163.248 200.785 163.305 201.436 163.421 201.877C163.536 202.337 163.862 202.988 164.131 203.352C164.419 203.716 164.994 204.176 165.417 204.368C165.973 204.617 166.664 204.712 167.912 204.712C168.986 204.712 170.234 204.559 171.232 204.329C172.095 204.118 173.65 203.639 174.667 203.256C175.704 202.873 177.68 202.011 179.043 201.359C180.406 200.689 182.363 199.654 183.361 199.041C184.359 198.447 185.971 197.585 186.912 197.125C187.852 196.665 189.33 196.109 190.174 195.879C191.019 195.669 192.535 195.439 193.533 195.381C194.646 195.305 195.855 195.362 196.604 195.496C197.295 195.63 198.408 196.014 199.08 196.339C199.751 196.684 200.73 197.374 201.268 197.91C201.786 198.428 202.438 199.252 202.707 199.731C202.976 200.21 203.225 200.631 203.263 200.689C203.283 200.746 203.724 200.325 204.223 199.75C204.741 199.194 205.663 198.332 206.296 197.853C206.929 197.374 208.138 196.665 208.983 196.263C209.827 195.86 211.113 195.4 211.862 195.247C212.802 195.036 213.819 194.979 215.22 195.036ZM235.372 227.571C239.652 227.629 242.435 227.763 242.857 227.897C243.222 228.012 243.951 228.433 244.469 228.816C245.045 229.257 245.64 229.928 245.985 230.579C246.312 231.154 246.619 232.055 246.695 232.591C246.753 233.108 246.734 234.047 246.657 234.641C246.561 235.254 246.273 236.212 245.985 236.749C245.717 237.305 245.083 238.186 244.603 238.703C244.124 239.202 243.337 239.853 242.857 240.121C242.377 240.409 241.552 240.792 241.034 241.003C240.228 241.328 239.46 241.405 231.821 241.597L231.131 243.321C230.747 244.279 229.384 247.728 228.079 250.985C226.793 254.243 225.239 257.96 224.624 259.224C224.01 260.489 222.974 262.348 222.302 263.344C221.592 264.436 220.287 265.988 219.078 267.195C217.792 268.479 216.544 269.514 215.7 270.012C214.952 270.433 213.819 270.97 213.147 271.181C212.495 271.41 211.324 271.679 210.576 271.775C209.808 271.889 208.695 271.928 208.119 271.87C207.543 271.794 206.584 271.621 206.008 271.449C205.432 271.296 204.569 270.951 204.089 270.663C203.609 270.395 202.841 269.82 202.381 269.399C201.92 268.958 201.191 268.096 200.788 267.463C200.385 266.831 199.847 265.758 199.617 265.068C199.291 264.072 199.195 263.401 199.195 261.715C199.214 260.106 199.31 259.243 199.636 258.075C199.886 257.232 200.385 255.986 200.769 255.296C201.133 254.607 201.824 253.572 202.266 252.997C202.707 252.422 203.667 251.388 204.396 250.698C205.125 250.008 206.334 249.05 207.064 248.571C207.812 248.092 208.964 247.402 209.654 247.057C210.345 246.712 211.67 246.157 212.629 245.812C213.589 245.467 215.047 245.007 215.892 244.777C216.736 244.566 218.502 244.26 219.826 244.087C221.151 243.915 222.552 243.8 223.646 243.896L222.36 246.962L220.767 247.115C219.884 247.191 218.157 247.479 216.948 247.747C215.738 248.015 214.049 248.514 213.205 248.858C212.361 249.184 211.017 249.855 210.23 250.353C209.443 250.851 208.215 251.733 207.505 252.327C206.776 252.901 205.758 253.917 205.221 254.568C204.665 255.239 203.993 256.254 203.705 256.829C203.398 257.404 203.014 258.439 202.841 259.129C202.611 260.01 202.534 260.891 202.592 262.098C202.649 263.459 202.764 264.034 203.168 264.877C203.455 265.471 204.108 266.352 204.703 266.889C205.336 267.502 206.085 267.981 206.68 268.191C207.217 268.364 208.119 268.556 208.695 268.632C209.367 268.709 210.269 268.632 211.19 268.441C211.977 268.268 213.224 267.808 213.973 267.406C214.779 266.965 215.873 266.141 216.775 265.26C217.581 264.474 218.675 263.171 219.193 262.386C219.73 261.6 220.632 259.991 221.208 258.841C221.784 257.691 224.202 251.867 226.544 245.908C228.904 239.949 231.169 234.162 231.61 233.032C232.052 231.901 232.359 230.924 232.301 230.867C232.244 230.809 231.054 230.771 227.119 230.771L227.638 229.372C227.906 228.625 228.233 227.878 228.348 227.724C228.52 227.514 229.71 227.475 235.372 227.571ZM235.871 231.384C235.717 231.729 235.046 233.434 234.374 235.139C233.702 236.864 233.127 238.32 233.107 238.358C233.088 238.397 234.125 238.435 235.43 238.435C236.715 238.435 238.289 238.339 238.923 238.224C239.556 238.109 240.381 237.86 240.746 237.669C241.11 237.496 241.705 236.998 242.051 236.596C242.396 236.193 242.819 235.369 242.972 234.795C243.145 234.181 243.222 233.434 243.164 233.013C243.087 232.591 242.819 232.074 242.473 231.729C242.089 231.346 241.577 231.09 240.938 230.962C240.42 230.867 239.114 230.771 238.059 230.771H236.12L235.871 231.384ZM197.237 230.943H198.753C199.866 230.943 200.231 231.02 200.174 231.192C200.135 231.327 198.101 236.27 195.663 242.152C193.207 248.054 190.731 254.07 190.174 255.526C189.599 256.983 189.138 258.458 189.138 258.822C189.138 259.32 189.253 259.588 189.56 259.799C189.887 260.01 190.616 260.087 192.727 260.087C195.03 260.087 195.471 260.125 195.471 260.355C195.471 260.527 195.26 261.121 194.608 262.769H191.825C190.29 262.769 188.716 262.673 188.313 262.558C187.852 262.443 187.372 262.098 186.355 260.872L185.492 261.524C185.012 261.868 184.302 262.29 183.899 262.462C183.419 262.654 182.574 262.769 181.404 262.769C180.386 262.769 179.197 262.635 178.621 262.482C178.007 262.29 177.296 261.907 176.797 261.447C176.356 261.045 175.761 260.24 175.512 259.665C175.109 258.803 175.032 258.362 175.032 256.906C175.032 255.775 175.147 254.837 175.396 254.128C175.588 253.553 176.107 252.48 176.567 251.733C177.009 251.004 177.93 249.874 178.602 249.242C179.292 248.609 180.386 247.843 181.077 247.498C181.749 247.172 182.785 246.789 183.38 246.655C183.956 246.521 184.993 246.463 185.683 246.521C186.394 246.559 187.257 246.77 187.737 247.019C188.178 247.249 188.85 247.69 189.906 248.571L190.155 247.958C190.29 247.613 191.94 243.647 193.821 239.144L197.237 230.943ZM180.463 251.388C179.811 252.077 179.139 253.016 178.755 253.84C178.218 254.952 178.103 255.411 178.103 256.523C178.103 257.538 178.199 258.017 178.486 258.535C178.717 258.899 179.177 259.397 179.542 259.627C179.907 259.876 180.598 260.106 181.077 260.163C181.557 260.221 182.306 260.163 182.805 260.029C183.284 259.876 184.225 259.358 184.916 258.86C186.144 257.979 186.163 257.96 187.2 255.526C187.948 253.725 188.236 252.806 188.255 252.077C188.255 251.349 188.159 250.947 187.871 250.545C187.641 250.257 187.219 249.836 186.931 249.625C186.566 249.357 186.048 249.223 185.146 249.184C184.033 249.127 183.707 249.184 182.709 249.702C182.037 250.027 181.097 250.755 180.463 251.388ZM242.185 244.356H244.795L244.661 245.065C244.565 245.659 244.623 245.869 244.949 246.214C245.352 246.655 245.448 246.655 249.689 246.655C252.069 246.655 254.008 246.712 254.008 246.789C254.008 246.885 253.816 247.479 253.144 249.337H252.184C251.263 249.318 251.167 249.376 250.054 250.43C249.421 251.043 248.595 251.962 248.25 252.499C247.885 253.016 247.386 253.936 247.156 254.511C246.868 255.201 246.715 255.967 246.715 256.714C246.715 257.538 246.83 258.036 247.098 258.477C247.31 258.822 247.751 259.263 248.096 259.435C248.557 259.665 249.421 259.78 251.186 259.857C252.683 259.933 253.605 260.048 253.566 260.163C253.547 260.259 253.355 260.853 252.76 262.616L250.169 262.52C248.308 262.443 247.348 262.328 246.811 262.098C246.388 261.926 245.774 261.562 245.467 261.332C245.141 261.083 244.623 260.431 244.316 259.857C243.778 258.899 243.74 258.669 243.74 256.906C243.74 255.066 243.759 254.932 244.45 253.553C244.853 252.767 245.659 251.541 246.235 250.813C246.926 249.97 247.194 249.491 247.041 249.433C246.907 249.376 245.985 249.357 243.183 249.433L241.629 253.38L238.654 253.361L239.326 251.675C239.69 250.755 240.496 248.743 241.091 247.172L242.185 244.356ZM149.41 246.195C150.255 246.253 151.022 246.463 151.809 246.827C152.443 247.134 153.249 247.728 153.613 248.13C153.978 248.533 154.477 249.299 154.707 249.816C154.938 250.353 155.187 251.254 155.264 251.828C155.341 252.441 155.283 253.438 155.168 254.128C155.034 254.817 154.726 255.852 154.458 256.427C154.189 257.021 153.633 257.998 153.191 258.611C152.75 259.243 151.828 260.163 151.138 260.681C150.447 261.198 149.41 261.792 148.834 262.003C148.124 262.271 147.107 262.443 145.764 262.52C144.171 262.597 143.499 262.558 142.597 262.29C141.676 262.022 141.254 261.754 140.486 260.968C139.853 260.316 139.43 259.684 139.258 259.109C139.123 258.65 138.97 257.826 138.912 257.289C138.855 256.772 138.951 255.737 139.104 254.99C139.258 254.262 139.603 253.189 139.872 252.595C140.14 252.02 140.735 251.024 141.215 250.391C141.676 249.778 142.616 248.82 143.288 248.322C143.96 247.805 144.9 247.191 145.38 246.981C145.86 246.77 146.666 246.483 147.203 246.348C147.741 246.214 148.7 246.138 149.41 246.195ZM145.553 250.161C144.977 250.545 144.267 251.196 143.94 251.598C143.633 251.982 143.154 252.748 142.866 253.265C142.597 253.802 142.252 254.702 142.117 255.277C141.983 255.89 141.925 256.733 142.002 257.251C142.079 257.864 142.296 258.375 142.655 258.784C143.019 259.186 143.557 259.512 144.152 259.684C144.766 259.857 145.495 259.895 146.244 259.818C146.877 259.761 147.817 259.493 148.355 259.243C148.873 258.975 149.737 258.305 150.236 257.749C150.754 257.193 151.387 256.254 151.656 255.66C151.924 255.086 152.193 254.108 152.251 253.457C152.327 252.671 152.251 252.058 152.04 251.445C151.867 250.985 151.445 250.315 151.099 249.97C150.735 249.625 150.12 249.28 149.641 249.165C149.199 249.05 148.719 248.973 148.585 248.973C148.47 248.993 147.952 249.088 147.472 249.223C146.992 249.337 146.128 249.759 145.553 250.161ZM167.643 246.195C168.353 246.253 169.313 246.483 169.85 246.732C170.368 246.962 171.174 247.536 171.635 248.015C172.095 248.475 172.652 249.261 172.882 249.721C173.247 250.468 173.305 250.928 173.305 252.786C173.305 254.971 173.305 255.009 172.518 256.618C171.98 257.749 171.366 258.669 170.502 259.569C169.543 260.585 168.91 261.064 166.031 262.462H163.44C160.906 262.462 160.791 262.462 159.793 261.888C159.217 261.581 158.507 260.987 158.2 260.546C157.893 260.125 157.509 259.358 157.356 258.822C157.202 258.305 157.087 257.404 157.087 256.81C157.087 256.235 157.221 255.201 157.394 254.511C157.548 253.84 158.008 252.671 158.392 251.924C158.834 251.081 159.601 250.104 160.446 249.242C161.271 248.418 162.25 247.671 163.037 247.268C163.728 246.923 164.764 246.521 165.34 246.368C165.973 246.214 166.875 246.138 167.643 246.195ZM164.323 249.759C163.881 249.989 163.113 250.602 162.595 251.1C162.077 251.656 161.386 252.652 160.983 253.514C160.427 254.626 160.235 255.296 160.177 256.235C160.119 257.193 160.196 257.672 160.465 258.228C160.657 258.63 161.137 259.148 161.501 259.378C162.039 259.723 162.48 259.78 163.804 259.78C165.09 259.78 165.628 259.703 166.338 259.358C166.856 259.129 167.681 258.515 168.18 258.017C168.698 257.519 169.37 256.542 169.696 255.852C170.042 255.181 170.368 254.281 170.426 253.84C170.502 253.419 170.445 252.556 170.311 251.924C170.138 251.043 169.927 250.621 169.389 250.085C169.005 249.702 168.353 249.299 167.931 249.184C167.508 249.069 167.029 248.973 166.875 248.993C166.722 248.993 166.261 249.088 165.858 249.184C165.474 249.261 164.783 249.529 164.323 249.759ZM266.483 246.176C267.327 246.253 268.114 246.463 268.882 246.827C269.592 247.172 270.359 247.747 270.858 248.322C271.3 248.839 271.799 249.644 271.971 250.104C272.125 250.583 272.298 251.503 272.355 252.116C272.432 252.882 272.355 253.744 272.144 254.607C271.971 255.354 271.511 256.561 271.127 257.289C270.724 258.056 269.918 259.129 269.246 259.78C268.574 260.451 267.576 261.198 266.847 261.562C266.175 261.907 265.139 262.271 264.563 262.386C263.988 262.482 262.855 262.577 262.068 262.577C261.281 262.577 260.168 262.443 259.612 262.29C258.998 262.098 258.307 261.715 257.788 261.255C257.347 260.853 256.79 260.087 256.56 259.569C256.349 259.071 256.1 258.209 256.023 257.672C255.965 257.155 256.004 256.12 256.119 255.373C256.234 254.626 256.618 253.419 257.002 252.595C257.366 251.809 258.038 250.698 258.479 250.142C258.921 249.567 259.765 248.743 260.341 248.322C260.917 247.881 261.78 247.326 262.26 247.096C262.74 246.866 263.604 246.54 264.179 246.387C264.851 246.195 265.676 246.118 266.483 246.176ZM263.028 249.874C262.663 250.104 261.953 250.698 261.454 251.196C260.955 251.713 260.303 252.595 259.996 253.17C259.688 253.764 259.324 254.702 259.189 255.277C259.055 255.89 258.998 256.733 259.074 257.251C259.151 257.864 259.369 258.375 259.727 258.784C260.092 259.186 260.629 259.512 261.224 259.684C261.838 259.857 262.567 259.895 263.316 259.818C263.949 259.761 264.89 259.493 265.427 259.243C265.945 258.975 266.809 258.305 267.308 257.749C267.826 257.193 268.459 256.293 268.709 255.756C268.977 255.239 269.227 254.281 269.304 253.649C269.381 252.92 269.323 252.173 269.15 251.541C268.997 251.004 268.632 250.353 268.306 250.008C267.96 249.663 267.346 249.337 266.809 249.203C266.31 249.069 265.792 248.973 265.657 248.973C265.542 248.993 265.043 249.088 264.563 249.223C264.083 249.357 263.393 249.644 263.028 249.874ZM287.018 246.54C287.594 246.578 288.458 246.808 288.937 247.038C289.417 247.287 290.166 247.862 291.432 249.146L292.814 248.188C293.582 247.67 294.599 247.096 295.079 246.942C295.559 246.789 296.537 246.655 297.286 246.636C298.15 246.617 298.898 246.732 299.397 246.942C299.819 247.115 300.414 247.498 300.702 247.785C301.009 248.054 301.431 248.629 301.643 249.05C301.969 249.682 302.026 250.066 301.95 251.158C301.873 252.212 301.623 253.074 300.798 255.086C300.203 256.523 299.685 257.921 299.608 258.209C299.551 258.496 299.57 258.956 299.685 259.205C299.819 259.531 300.107 259.761 300.587 259.876C300.99 259.991 302.372 260.067 303.658 260.067C305.423 260.067 306.018 260.144 305.999 260.316C305.999 260.451 305.769 261.025 304.963 262.654L302.852 262.712C301.681 262.75 300.184 262.673 299.493 262.558C298.802 262.443 297.977 262.194 297.67 261.983C297.344 261.792 296.921 261.351 296.71 261.006C296.48 260.585 296.346 260.029 296.346 259.397C296.365 258.688 296.691 257.634 297.631 255.239C298.361 253.438 298.917 251.733 298.917 251.349C298.917 250.985 298.821 250.525 298.725 250.295C298.61 250.085 298.265 249.797 297.958 249.625C297.631 249.472 297.017 249.337 296.557 249.337C296.077 249.337 295.348 249.529 294.791 249.816C294.254 250.066 293.352 250.775 292.757 251.388C292.162 252.001 291.432 252.978 291.125 253.553C290.837 254.147 289.801 256.427 287.095 262.654L285.617 262.712C284.811 262.731 284.139 262.692 284.139 262.616C284.139 262.539 284.466 261.658 284.888 260.642C285.291 259.646 286.25 257.327 286.999 255.469C287.959 253.112 288.362 251.886 288.362 251.311C288.362 250.679 288.227 250.372 287.824 249.951C287.536 249.644 286.999 249.337 286.634 249.261C286.212 249.165 285.579 249.223 284.907 249.414C284.331 249.567 283.506 249.97 283.084 250.315C282.662 250.64 281.99 251.311 281.568 251.809C281.165 252.288 280.57 253.17 280.243 253.744C279.917 254.338 278.9 256.58 276.328 262.654L274.812 262.731C273.411 262.788 273.296 262.769 273.411 262.443C273.468 262.252 274.946 258.669 279.821 246.847H282.604L282.354 247.517C282.239 247.881 282.182 248.245 282.258 248.341C282.354 248.418 282.604 248.303 282.834 248.092C283.084 247.862 283.487 247.556 283.755 247.402C284.024 247.23 284.619 246.962 285.099 246.789C285.636 246.578 286.346 246.502 287.018 246.54ZM135.822 272.349C137.089 272.349 137.895 272.407 137.895 272.541C137.895 272.637 137.857 272.848 137.799 273.02C137.722 273.25 137.3 273.307 135.688 273.307C133.922 273.307 133.615 273.346 133.289 273.691C133.059 273.921 132.905 274.323 132.905 274.744C132.905 275.147 133.193 275.952 133.634 276.795C134.057 277.561 134.44 278.519 134.517 278.96C134.594 279.381 134.575 280.071 134.46 280.531C134.344 280.972 133.961 281.661 133.615 282.045C133.097 282.6 132.828 282.734 132.041 282.83C131.274 282.907 130.986 282.83 130.544 282.504C130.256 282.294 129.969 281.872 129.911 281.585C129.853 281.297 129.911 280.665 130.026 280.205C130.18 279.63 130.532 279.068 131.082 278.519C131.619 277.983 132.061 277.714 132.406 277.714C132.675 277.714 132.905 277.638 132.905 277.561C132.905 277.484 132.713 277.025 132.483 276.565C132.252 276.086 132.022 275.358 131.984 274.936C131.926 274.476 132.003 273.921 132.176 273.595C132.348 273.269 132.751 272.867 133.116 272.675C133.615 272.426 134.268 272.349 135.822 272.349ZM131.082 279.822C130.928 280.129 130.794 280.627 130.794 280.914C130.794 281.202 130.89 281.546 131.024 281.681C131.158 281.815 131.523 281.93 131.849 281.93C132.156 281.93 132.655 281.757 132.943 281.546C133.25 281.316 133.558 280.857 133.653 280.435C133.769 279.975 133.769 279.554 133.634 279.247C133.538 278.979 133.346 278.691 133.231 278.615C133.097 278.538 132.867 278.481 132.694 278.481C132.521 278.481 132.156 278.634 131.869 278.864C131.6 279.075 131.235 279.496 131.082 279.822ZM230.536 272.349C231.725 272.349 232.704 272.388 232.704 272.445C232.704 272.483 232.608 272.694 232.512 272.924C232.34 273.25 232.129 273.288 230.44 273.288C228.866 273.288 228.501 273.346 228.098 273.652C227.714 273.94 227.618 274.189 227.638 274.764C227.657 275.223 227.964 276.066 228.463 276.986C229.115 278.212 229.25 278.653 229.25 279.535C229.25 280.205 229.115 280.857 228.866 281.355C228.655 281.776 228.194 282.275 227.849 282.485C227.522 282.696 226.908 282.868 226.505 282.868C226.121 282.868 225.661 282.811 225.469 282.734C225.296 282.658 225.047 282.351 224.893 282.064C224.759 281.776 224.644 281.278 224.644 280.972C224.644 280.646 224.778 280.071 224.931 279.669C225.104 279.266 225.43 278.749 225.661 278.519C225.891 278.27 226.294 278.002 226.563 277.906C226.831 277.81 227.196 277.695 227.369 277.618C227.695 277.523 227.676 277.427 227.235 276.507C226.966 275.932 226.755 275.147 226.755 274.687C226.755 274.246 226.831 273.71 226.947 273.499C227.043 273.269 227.426 272.943 227.753 272.733C228.29 272.407 228.732 272.349 230.536 272.349ZM225.987 279.573C225.776 279.86 225.603 280.397 225.603 280.78C225.603 281.144 225.699 281.546 225.833 281.681C225.968 281.815 226.332 281.93 226.659 281.91C226.966 281.91 227.369 281.796 227.522 281.681C227.695 281.546 227.983 281.221 228.156 280.972C228.328 280.703 228.482 280.186 228.482 279.822C228.482 279.42 228.348 278.998 228.156 278.806C227.964 278.634 227.638 278.481 227.426 278.481C227.215 278.481 226.889 278.615 226.697 278.768C226.505 278.921 226.179 279.285 225.987 279.573ZM166.914 272.522C167.221 272.522 167.624 272.694 167.835 272.924C168.065 273.135 168.219 273.556 168.219 273.921C168.219 274.265 168.103 274.84 167.95 275.223C167.796 275.587 167.355 276.316 166.971 276.852C166.261 277.791 166.261 277.81 166.664 278.098C166.875 278.251 167.105 278.634 167.182 278.96C167.259 279.285 167.182 279.918 166.99 280.493C166.818 281.048 166.395 281.738 165.973 282.179C165.378 282.773 165.09 282.907 164.438 282.945C163.881 282.964 163.536 282.868 163.248 282.6C162.922 282.294 162.826 281.987 162.845 281.202C162.845 280.493 163.152 279.343 163.862 277.274C164.438 275.664 165.033 274.074 165.205 273.729C165.378 273.384 165.724 272.982 165.954 272.809C166.203 272.656 166.626 272.522 166.914 272.522ZM165.244 275.798C164.879 276.795 164.63 277.676 164.706 277.753C164.783 277.848 165.263 277.504 165.743 276.986C166.223 276.488 166.798 275.702 167.029 275.262C167.259 274.821 167.432 274.208 167.393 273.921C167.374 273.556 167.24 273.384 166.952 273.346C166.741 273.307 166.415 273.441 166.242 273.633C166.088 273.806 165.628 274.783 165.244 275.798ZM163.9 280.052C163.747 280.454 163.612 280.972 163.612 281.202C163.612 281.431 163.708 281.738 163.843 281.872C163.977 282.006 164.207 282.121 164.323 282.121C164.457 282.121 164.879 281.834 165.263 281.489C165.685 281.106 166.011 280.569 166.127 280.09C166.242 279.669 166.28 279.132 166.223 278.902C166.127 278.577 165.973 278.462 165.57 278.462C165.244 278.462 164.841 278.653 164.61 278.902C164.399 279.132 164.073 279.65 163.9 280.052ZM142.712 276.929C142.942 276.948 143.077 277.063 143.077 277.331C143.077 277.657 143.154 277.695 143.691 277.58C144.209 277.484 144.439 277.561 144.938 278.021C145.284 278.327 145.572 278.768 145.572 279.056C145.591 279.305 145.61 279.784 145.591 280.109C145.591 280.416 145.342 281.048 145.054 281.489C144.747 281.949 144.228 282.428 143.883 282.6C143.557 282.754 142.981 282.868 142.635 282.868C142.309 282.868 141.868 282.715 141.695 282.543C141.369 282.217 141.35 282.236 141.158 282.677C141.042 282.945 140.505 284.421 139.929 285.953C139.066 288.233 138.816 288.732 138.49 288.77C138.26 288.789 138.087 288.751 138.087 288.674C138.087 288.598 138.912 286.279 139.929 283.539C140.947 280.818 141.906 278.193 142.06 277.753C142.252 277.178 142.443 276.929 142.712 276.929ZM142.136 280.109C141.791 280.933 141.733 281.336 141.868 281.527C141.964 281.7 142.348 281.853 142.712 281.872C143.077 281.91 143.557 281.796 143.787 281.642C144.036 281.47 144.363 281.048 144.516 280.665C144.67 280.301 144.804 279.803 144.804 279.573C144.804 279.343 144.67 278.998 144.478 278.806C144.286 278.634 143.96 278.481 143.749 278.481C143.537 278.462 143.192 278.577 142.981 278.73C142.77 278.864 142.386 279.496 142.136 280.109ZM127.819 277.618C128.126 277.676 128.548 277.868 128.74 278.04C128.932 278.232 129.182 278.672 129.297 279.036C129.45 279.535 129.431 279.918 129.258 280.473C129.124 280.914 128.855 281.489 128.644 281.776C128.452 282.064 128.03 282.428 127.723 282.581C127.397 282.754 126.802 282.868 126.38 282.868C125.823 282.868 125.478 282.754 125.132 282.389C124.767 282.025 124.652 281.719 124.652 281.048C124.652 280.588 124.806 279.879 125.017 279.477C125.209 279.075 125.593 278.577 125.823 278.347C126.073 278.117 126.495 277.829 126.763 277.714C127.032 277.618 127.493 277.561 127.819 277.618ZM126.053 279.439C125.881 279.688 125.67 280.148 125.574 280.435C125.478 280.742 125.497 281.163 125.612 281.431C125.765 281.834 125.938 281.93 126.514 281.93C126.975 281.93 127.397 281.776 127.666 281.546C127.915 281.336 128.184 280.933 128.299 280.665C128.395 280.416 128.491 279.975 128.491 279.707C128.491 279.458 128.318 279.075 128.107 278.845C127.896 278.634 127.608 278.481 127.474 278.481C127.358 278.481 127.051 278.596 126.802 278.73C126.572 278.864 126.226 279.171 126.053 279.439ZM138.279 277.618C138.547 277.676 138.989 277.983 139.277 278.289C139.68 278.711 139.814 279.056 139.814 279.611C139.814 280.052 139.699 280.665 139.545 281.01C139.411 281.355 139.008 281.891 138.663 282.198C138.202 282.639 137.818 282.792 137.166 282.849C136.417 282.907 136.168 282.849 135.688 282.447C135.189 282.025 135.112 281.834 135.112 281.029C135.131 280.397 135.285 279.822 135.611 279.228C135.957 278.653 136.379 278.232 136.955 277.944C137.492 277.657 137.972 277.542 138.279 277.618ZM136.513 279.42C136.321 279.688 136.091 280.224 136.014 280.608C135.918 281.125 135.957 281.393 136.168 281.623C136.321 281.796 136.705 281.93 137.031 281.93C137.338 281.93 137.837 281.757 138.125 281.546C138.432 281.316 138.739 280.857 138.835 280.435C138.951 279.975 138.951 279.554 138.816 279.228C138.72 278.979 138.528 278.691 138.413 278.615C138.279 278.538 138.087 278.481 137.991 278.481C137.876 278.481 137.588 278.577 137.338 278.711C137.089 278.845 136.705 279.171 136.513 279.42ZM160.734 277.638C161.002 277.676 161.405 277.848 161.636 278.002C161.885 278.155 162.154 278.596 162.269 278.998C162.384 279.496 162.384 279.956 162.231 280.473C162.115 280.914 161.885 281.451 161.712 281.7C161.54 281.949 161.137 282.313 160.83 282.504C160.503 282.715 159.889 282.868 159.429 282.868C158.814 282.868 158.507 282.754 158.143 282.389C157.778 282.025 157.663 281.719 157.663 281.048C157.663 280.588 157.816 279.879 158.028 279.477C158.219 279.075 158.603 278.577 158.834 278.347C159.083 278.117 159.505 277.829 159.774 277.733C160.043 277.618 160.465 277.58 160.734 277.638ZM158.699 280.052C158.469 280.665 158.45 280.991 158.603 281.393C158.776 281.834 158.93 281.93 159.525 281.93C160.043 281.93 160.369 281.796 160.657 281.489C160.887 281.259 161.156 280.857 161.29 280.627C161.405 280.397 161.501 279.975 161.501 279.707C161.501 279.458 161.329 279.075 161.117 278.845C160.906 278.634 160.618 278.481 160.484 278.481C160.369 278.481 159.966 278.653 159.62 278.864C159.217 279.094 158.891 279.535 158.699 280.052ZM222.187 277.523C222.283 277.523 222.628 277.638 222.955 277.791C223.3 277.944 223.703 278.289 223.818 278.557C223.953 278.826 224.068 279.343 224.068 279.707C224.068 280.09 223.953 280.665 223.799 281.01C223.665 281.355 223.262 281.891 222.916 282.198C222.456 282.639 222.072 282.792 221.419 282.849C220.69 282.907 220.421 282.849 219.961 282.466C219.5 282.083 219.423 281.872 219.404 281.048C219.404 280.378 219.538 279.86 219.884 279.228C220.21 278.653 220.632 278.232 221.208 277.944C221.669 277.714 222.11 277.523 222.187 277.523ZM220.805 279.362C220.594 279.669 220.364 280.167 220.287 280.473C220.229 280.799 220.287 281.259 220.402 281.489C220.556 281.815 220.786 281.93 221.323 281.93C221.842 281.93 222.168 281.796 222.475 281.489C222.705 281.259 222.993 280.799 223.108 280.473C223.223 280.167 223.262 279.669 223.204 279.381C223.147 279.094 222.935 278.768 222.724 278.653C222.513 278.557 222.283 278.481 222.187 278.481C222.11 278.481 221.861 278.577 221.63 278.653C221.4 278.749 221.016 279.075 220.805 279.362ZM170.522 277.695C170.944 277.695 171.481 277.791 171.712 277.906C172.038 278.059 172.211 278.059 172.326 277.906C172.441 277.791 172.671 277.695 172.863 277.695C173.055 277.695 173.17 277.81 173.132 277.944C173.093 278.078 172.786 278.979 172.422 279.956C172.057 280.933 171.808 281.776 171.865 281.815C171.923 281.872 172.422 281.987 172.978 282.064C173.804 282.179 174.034 282.16 174.149 281.91C174.245 281.757 174.571 280.799 174.917 279.764C175.243 278.73 175.588 277.848 175.704 277.791C175.799 277.753 176.011 277.753 176.164 277.791C176.375 277.868 176.375 278.002 176.145 278.711C176.011 279.151 175.895 279.592 175.895 279.669C175.895 279.745 176.375 279.803 176.951 279.803C177.834 279.803 178.045 279.745 178.275 279.381C178.429 279.151 178.602 278.711 178.659 278.423C178.755 278.021 178.889 277.887 179.254 277.887C179.523 277.887 179.734 277.944 179.734 277.983C179.734 278.04 179.427 278.883 179.062 279.86C178.525 281.278 178.429 281.681 178.621 281.872C178.755 282.025 179.158 282.121 179.484 282.121C179.983 282.121 180.118 282.198 180.118 282.485C180.118 282.83 179.983 282.868 179.062 282.868C178.179 282.868 177.949 282.811 177.719 282.447C177.508 282.121 177.488 281.853 177.623 281.336C177.719 280.972 177.815 280.608 177.815 280.531C177.815 280.454 177.316 280.416 175.627 280.473L175.185 281.681C174.84 282.6 174.648 282.868 174.36 282.868C174.149 282.868 173.976 282.792 173.976 282.677C173.976 282.549 173.848 282.549 173.592 282.677C173.381 282.792 172.882 282.888 172.479 282.888C172.095 282.888 171.596 282.754 171.385 282.619C171.059 282.37 170.944 282.37 170.618 282.619C170.406 282.754 169.907 282.888 169.504 282.888C169.005 282.888 168.66 282.734 168.315 282.389C167.95 282.025 167.835 281.719 167.835 281.048C167.835 280.588 167.988 279.879 168.161 279.496C168.353 279.113 168.794 278.557 169.14 278.251C169.6 277.848 169.965 277.695 170.522 277.695ZM169.197 279.362C168.986 279.669 168.737 280.205 168.679 280.569C168.564 281.125 168.622 281.336 168.948 281.681C169.178 281.91 169.485 282.102 169.6 282.102C169.735 282.102 170.099 281.949 170.426 281.757C170.848 281.508 171.097 281.125 171.328 280.378C171.616 279.458 171.635 279.285 171.385 278.902C171.232 278.672 170.944 278.481 170.752 278.481C170.579 278.481 170.234 278.577 170.003 278.653C169.792 278.749 169.428 279.075 169.197 279.362ZM181.999 277.695C182.171 277.695 182.402 277.733 182.498 277.791C182.594 277.848 182.382 278.653 182.037 279.573C181.672 280.531 181.461 281.393 181.519 281.585C181.615 281.796 181.845 281.91 182.229 281.91C182.594 281.91 182.997 281.757 183.246 281.489C183.476 281.259 183.937 280.301 184.244 279.381C184.743 277.944 184.877 277.695 185.242 277.695C185.492 277.695 185.683 277.753 185.683 277.791C185.683 277.848 185.415 278.634 185.108 279.515C184.781 280.416 184.532 281.316 184.532 281.527C184.532 281.872 184.666 281.91 185.396 281.91C185.875 281.91 186.259 282.006 186.259 282.102C186.259 282.217 186.221 282.428 186.163 282.581C186.086 282.792 185.799 282.888 185.242 282.888C184.801 282.888 184.244 282.754 183.995 282.6C183.611 282.332 183.515 282.332 183.131 282.6C182.901 282.754 182.382 282.888 181.979 282.888C181.423 282.888 181.173 282.754 180.885 282.351C180.655 282.064 180.463 281.719 180.444 281.585C180.425 281.451 180.693 280.531 181.039 279.535C181.5 278.193 181.749 277.695 181.999 277.695ZM189.81 277.714C190.021 277.695 190.424 277.868 190.712 278.078C191.096 278.347 191.249 278.634 191.249 279.036C191.249 279.381 191.057 279.822 190.808 280.09C190.462 280.493 190.136 280.608 188.985 280.723C188.082 280.818 187.603 280.952 187.603 281.106C187.603 281.24 187.775 281.508 187.987 281.719C188.313 282.045 188.62 282.102 189.906 282.102C190.75 282.102 191.441 282.16 191.441 282.198C191.441 282.255 191.403 282.428 191.345 282.581C191.268 282.811 190.865 282.868 189.426 282.868C187.66 282.868 187.583 282.868 187.219 282.351C186.969 282.045 186.816 281.527 186.835 281.106C186.835 280.703 186.989 280.071 187.2 279.669C187.392 279.266 187.775 278.768 188.006 278.538C188.255 278.308 188.677 278.021 188.946 277.925C189.215 277.81 189.599 277.714 189.81 277.714ZM188.332 279.535C188.351 279.726 188.601 279.803 189.08 279.803C189.484 279.803 189.925 279.745 190.059 279.669C190.194 279.592 190.29 279.362 190.251 279.132C190.213 278.921 190.021 278.73 189.81 278.711C189.599 278.691 189.176 278.806 188.869 278.96C188.543 279.113 188.313 279.381 188.332 279.535ZM206.353 277.695C207.236 277.695 207.985 277.772 208.023 277.848C208.062 277.925 207.831 278.768 207.505 279.707C207.179 280.684 206.968 281.585 207.044 281.776C207.14 282.025 207.39 282.102 207.946 282.102C208.369 282.102 208.714 282.16 208.714 282.198C208.714 282.255 208.676 282.428 208.618 282.581C208.541 282.792 208.234 282.888 207.505 282.888C206.948 282.888 206.392 282.773 206.257 282.639C206.123 282.504 206.027 282.179 206.008 281.91C206.008 281.661 206.238 280.876 206.488 280.186C206.756 279.515 206.91 278.883 206.833 278.806C206.756 278.711 206.507 278.653 206.257 278.653C205.912 278.653 205.778 278.845 205.547 279.573C205.394 280.071 205.01 280.914 204.703 281.431C204.396 281.968 203.954 282.524 203.705 282.658C203.436 282.811 203.014 282.868 202.707 282.811C202.342 282.715 202.15 282.524 202.054 282.16C201.997 281.872 202.016 281.412 202.112 281.144C202.227 280.857 202.477 280.646 202.764 280.608C203.168 280.531 203.225 280.588 203.091 280.895C202.995 281.087 202.899 281.451 202.841 281.681C202.803 281.91 202.822 282.14 202.899 282.198C202.995 282.236 203.187 282.179 203.359 282.045C203.513 281.93 203.801 281.604 203.954 281.336C204.127 281.087 204.453 280.416 204.665 279.86C205.068 278.864 205.068 278.845 204.684 278.749C204.473 278.711 204.281 278.557 204.261 278.423C204.242 278.27 204.338 278.059 204.492 277.944C204.645 277.791 205.394 277.695 206.353 277.695ZM231.361 277.695C231.572 277.695 231.745 277.772 231.745 277.848C231.745 277.925 231.534 278.634 231.265 279.42C230.996 280.224 230.785 281.106 230.785 281.393C230.785 281.796 230.9 281.949 231.207 282.006C231.457 282.045 231.86 281.968 232.129 281.834C232.512 281.642 232.743 281.182 233.222 279.65C233.702 278.174 233.933 277.695 234.182 277.695C234.374 277.695 234.585 277.753 234.662 277.848C234.719 277.925 234.508 278.787 234.182 279.764C233.76 280.952 233.626 281.604 233.76 281.738C233.856 281.853 234.201 281.949 234.489 281.949C234.815 281.968 235.218 281.796 235.449 281.546C235.679 281.316 236.12 280.397 236.447 279.477C236.946 278.04 237.08 277.791 237.502 277.733C237.848 277.676 237.944 277.714 237.867 277.925C237.79 278.059 237.502 278.941 237.195 279.879C236.639 281.566 236.639 281.566 237.023 281.853C237.234 282.006 237.579 282.121 237.79 282.102C238.001 282.083 238.232 282.083 238.308 282.083C238.404 282.102 238.193 282.639 237.886 283.252C237.406 284.21 237.214 284.401 236.831 284.401C236.351 284.401 236.351 284.401 236.639 283.827C236.792 283.52 236.927 283.175 236.927 283.06C236.927 282.964 236.811 282.888 236.677 282.888C236.562 282.888 236.312 282.754 236.159 282.6C235.89 282.332 235.833 282.332 235.43 282.581C235.199 282.754 234.681 282.868 234.278 282.868C233.894 282.868 233.414 282.734 233.222 282.581C232.935 282.332 232.839 282.332 232.455 282.6C232.224 282.754 231.687 282.888 231.265 282.868C230.804 282.868 230.363 282.734 230.152 282.543C229.96 282.351 229.806 281.949 229.806 281.623C229.825 281.316 229.941 280.627 230.094 280.09C230.248 279.573 230.516 278.826 230.689 278.423C230.881 277.925 231.092 277.695 231.361 277.695ZM241.917 277.714C242.185 277.714 242.569 277.81 242.78 277.963C242.991 278.098 243.222 278.442 243.298 278.73C243.394 279.056 243.356 279.439 243.183 279.764C243.049 280.052 242.761 280.358 242.569 280.454C242.358 280.531 241.667 280.665 240.995 280.742C240.036 280.837 239.805 280.933 239.805 281.202C239.805 281.393 239.997 281.661 240.228 281.834C240.516 282.025 241.13 282.121 242.051 282.121C243.279 282.121 243.452 282.16 243.394 282.447C243.356 282.734 243.106 282.792 241.821 282.83C240.976 282.868 240.093 282.849 239.844 282.792C239.613 282.734 239.287 282.428 239.134 282.102C238.98 281.796 238.846 281.336 238.846 281.106C238.846 280.876 239.057 280.243 239.306 279.707C239.556 279.19 240.017 278.596 240.324 278.366C240.611 278.155 240.995 277.925 241.149 277.868C241.302 277.791 241.648 277.733 241.917 277.714ZM240.477 279.611C240.535 279.726 240.899 279.822 241.283 279.822C241.725 279.822 242.108 279.707 242.243 279.535C242.435 279.305 242.435 279.171 242.243 278.941C242.128 278.787 241.878 278.653 241.705 278.653C241.533 278.653 241.168 278.826 240.88 279.036C240.611 279.266 240.42 279.515 240.477 279.611ZM246.043 277.695C246.196 277.695 246.35 277.81 246.369 277.925C246.408 278.098 246.523 278.098 246.849 277.925C247.098 277.81 247.54 277.695 247.866 277.695C248.269 277.695 248.557 277.868 248.826 278.232C249.037 278.519 249.21 278.883 249.21 279.036C249.21 279.209 249.037 279.86 248.845 280.473C248.499 281.546 248.499 281.642 248.787 281.872C248.96 282.006 249.401 282.121 249.728 282.121C250.265 282.121 250.342 282.179 250.265 282.485C250.188 282.811 250.016 282.868 249.114 282.868C248.192 282.868 248.02 282.811 247.77 282.389C247.501 281.968 247.521 281.796 247.885 280.627C248.116 279.918 248.25 279.19 248.173 278.998C248.116 278.806 247.866 278.653 247.578 278.653C247.31 278.653 246.926 278.749 246.715 278.845C246.503 278.96 246.12 279.458 245.87 279.956C245.621 280.454 245.275 281.316 245.102 281.872C244.872 282.639 244.699 282.868 244.412 282.868C244.2 282.868 244.028 282.754 244.028 282.581C244.028 282.428 244.354 281.374 244.757 280.243C245.16 279.113 245.563 278.078 245.64 277.944C245.717 277.81 245.889 277.695 246.043 277.695ZM252.108 277.695C252.299 277.695 252.472 277.81 252.472 277.944C252.472 278.078 252.242 278.883 251.954 279.707C251.685 280.55 251.513 281.393 251.57 281.585C251.647 281.796 251.896 281.93 252.223 281.93C252.53 281.93 252.952 281.796 253.182 281.642C253.489 281.431 253.796 280.78 254.2 279.515C254.641 278.136 254.852 277.695 255.102 277.695C255.293 277.695 255.485 277.733 255.543 277.791C255.601 277.848 255.37 278.73 255.025 279.764C254.679 280.799 254.449 281.7 254.487 281.776C254.545 281.853 254.967 281.91 255.447 281.91C255.927 281.91 256.311 282.006 256.311 282.102C256.311 282.217 256.272 282.428 256.215 282.581C256.138 282.792 255.85 282.888 255.293 282.888C254.852 282.888 254.295 282.754 254.046 282.6C253.662 282.332 253.566 282.332 253.182 282.6C252.952 282.754 252.434 282.888 252.031 282.888C251.474 282.888 251.225 282.754 250.918 282.351C250.611 281.949 250.534 281.661 250.63 281.106C250.687 280.703 250.975 279.784 251.244 279.036C251.609 278.021 251.82 277.695 252.108 277.695ZM258.921 277.695C259.074 277.695 259.209 277.81 259.228 277.925C259.266 278.098 259.381 278.098 259.708 277.925C259.957 277.81 260.303 277.695 260.475 277.695C260.667 277.695 261.051 277.868 261.876 278.462L262.625 278.04C263.239 277.695 263.469 277.638 263.911 277.791C264.199 277.906 264.583 278.232 264.736 278.519C265.024 278.998 265.005 279.132 264.563 280.397C264.141 281.585 264.122 281.776 264.371 281.93C264.525 282.025 264.947 282.102 265.273 282.102C265.772 282.102 265.907 282.198 265.907 282.485C265.907 282.83 265.772 282.868 264.89 282.868C264.218 282.868 263.776 282.773 263.546 282.543C263.354 282.351 263.201 282.083 263.201 281.91C263.22 281.757 263.393 281.106 263.623 280.473C263.853 279.86 263.988 279.19 263.911 278.998C263.834 278.787 263.604 278.672 263.258 278.672C262.932 278.672 262.567 278.883 262.279 279.19C262.03 279.477 261.55 280.416 261.205 281.24C260.706 282.504 260.514 282.792 260.13 282.849C259.784 282.907 259.688 282.849 259.784 282.658C259.842 282.524 260.13 281.7 260.437 280.857C260.744 279.994 260.917 279.19 260.859 278.998C260.763 278.787 260.514 278.653 260.149 278.653C259.746 278.653 259.439 278.826 259.132 279.19C258.902 279.477 258.422 280.435 258.076 281.297C257.597 282.543 257.385 282.868 257.078 282.868C256.867 282.868 256.695 282.792 256.695 282.677C256.695 282.581 257.04 281.527 257.481 280.339C257.923 279.151 258.364 278.078 258.46 277.944C258.575 277.81 258.767 277.695 258.921 277.695ZM269.265 277.714C269.726 277.714 270.167 277.848 270.359 278.04C270.686 278.366 270.705 278.366 270.801 278.04C270.858 277.848 271.069 277.695 271.281 277.695C271.492 277.695 271.664 277.81 271.664 277.944C271.664 278.078 271.377 278.979 271.031 279.956C270.494 281.489 270.455 281.757 270.705 281.93C270.858 282.025 271.281 282.102 271.607 282.102C272.106 282.102 272.221 282.179 272.183 282.447C272.144 282.715 271.914 282.792 271.185 282.83C270.532 282.868 270.129 282.792 269.937 282.6C269.688 282.351 269.592 282.332 269.265 282.581C269.054 282.734 268.536 282.868 268.114 282.868C267.519 282.888 267.231 282.773 266.866 282.389C266.483 281.987 266.387 281.7 266.387 280.991C266.406 280.435 266.578 279.803 266.828 279.324C267.077 278.902 267.538 278.366 267.884 278.136C268.267 277.848 268.766 277.714 269.265 277.714ZM267.538 279.803C267.385 280.129 267.25 280.646 267.25 280.952C267.25 281.374 267.385 281.623 267.73 281.815C267.999 281.987 268.383 282.064 268.594 282.006C268.805 281.968 269.189 281.661 269.457 281.336C269.764 280.991 269.975 280.435 270.052 279.86C270.11 279.247 270.071 278.864 269.899 278.711C269.764 278.557 269.457 278.462 269.246 278.462C269.016 278.462 268.613 278.634 268.325 278.845C268.056 279.075 267.692 279.496 267.538 279.803ZM201.805 277.887L201.133 279.803C200.769 280.857 200.461 281.815 200.461 281.91C200.461 282.025 200.673 282.102 200.941 282.102C201.21 282.102 201.421 282.14 201.421 282.16C201.421 282.179 201.21 282.696 200.941 283.309C200.596 284.114 200.365 284.401 200.116 284.363C199.924 284.325 199.79 284.152 199.809 283.922C199.828 283.712 199.886 283.405 199.962 283.213C200.058 282.907 199.924 282.868 197.007 282.868L196.623 283.539C196.335 284.037 196.105 284.21 195.759 284.21C195.299 284.21 195.28 284.21 195.529 283.597C195.663 283.252 195.875 282.83 195.97 282.639C196.066 282.447 196.354 282.198 196.604 282.064C196.853 281.93 197.218 281.604 197.429 281.336C197.621 281.087 197.947 280.397 198.523 278.749L198.043 278.711C197.794 278.691 197.583 278.615 197.583 278.557C197.583 278.519 197.64 278.347 197.698 278.174C197.775 277.963 198.197 277.887 201.805 277.887ZM198.523 280.627C198.216 281.336 198.024 281.968 198.101 282.025C198.197 282.083 198.542 282.121 198.868 282.121C199.483 282.121 199.521 282.083 199.982 280.627C200.25 279.803 200.461 279.036 200.461 278.902C200.461 278.768 200.212 278.653 199.886 278.653C199.489 278.666 199.259 278.781 199.195 278.998C199.137 279.19 198.83 279.918 198.523 280.627ZM213.071 277.887C213.877 277.887 214.472 277.983 214.472 278.078C214.472 278.193 214.203 278.998 213.877 279.86C213.531 280.723 213.32 281.585 213.397 281.776C213.474 282.025 213.723 282.102 214.28 282.102C214.894 282.102 215.028 282.179 214.99 282.447C214.952 282.715 214.721 282.792 213.934 282.83C213.186 282.868 212.86 282.792 212.629 282.543C212.399 282.313 212.341 282.025 212.437 281.585C212.514 281.106 212.476 280.952 212.265 280.952C212.111 280.952 211.65 281.374 211.267 281.891C210.883 282.409 210.384 282.888 210.153 282.945C209.923 283.003 209.635 282.926 209.424 282.734C209.232 282.543 209.079 282.121 209.098 281.776C209.098 281.431 209.136 281.029 209.194 280.857C209.251 280.703 209.463 280.569 209.674 280.569C209.885 280.569 210.096 280.665 210.153 280.761C210.211 280.876 210.153 281.01 210.058 281.048C209.942 281.106 209.866 281.316 209.866 281.527C209.866 281.757 209.942 281.968 210.058 282.006C210.153 282.064 210.576 281.719 211.689 280.358L211.247 280.09C210.96 279.899 210.806 279.611 210.806 279.151C210.787 278.653 210.883 278.423 211.228 278.193C211.535 277.983 212.13 277.887 213.071 277.887ZM211.555 279.247C211.574 279.458 211.727 279.669 211.881 279.707C212.034 279.764 212.341 279.803 212.553 279.803C212.764 279.803 213.013 279.65 213.128 279.42C213.224 279.209 213.32 278.921 213.32 278.749C213.32 278.577 213.128 278.481 212.783 278.481C212.495 278.481 212.092 278.577 211.9 278.672C211.689 278.787 211.535 279.036 211.555 279.247Z" fill="#0045B2"/>
<path d="M213.993 200.421C214.415 200.229 215.125 199.999 215.605 199.922C216.085 199.846 216.948 199.827 217.524 199.884C218.1 199.922 219.271 200.171 220.115 200.421C220.959 200.65 222.341 201.149 223.186 201.513C224.03 201.877 224.625 202.222 224.529 202.279C224.433 202.337 223.646 202.183 222.802 201.934C221.957 201.666 220.537 201.321 219.635 201.168C218.733 201.014 217.409 200.88 216.66 200.88C215.912 200.88 214.799 201.014 214.165 201.168C213.532 201.321 212.976 201.417 212.918 201.359C212.86 201.321 212.918 201.168 213.033 201.034C213.148 200.9 213.59 200.612 213.993 200.421Z" fill="white"/>
<path d="M191.327 204.559C192.382 203.984 193.323 203.448 193.419 203.352C193.534 203.256 193.726 203.18 193.86 203.18C193.994 203.18 194.11 203.256 194.11 203.371C194.11 203.467 193.707 203.908 193.188 204.329C192.689 204.77 191.691 205.402 190.943 205.766C190.194 206.13 188.966 206.609 188.198 206.82C187.181 207.108 186.817 207.146 186.817 206.973C186.817 206.839 187.392 206.475 188.102 206.169C188.832 205.862 190.271 205.134 191.327 204.559Z" fill="white"/>
<path d="M223.032 208.296C221.574 207.855 220.403 207.414 220.422 207.318C220.441 207.223 221.075 207.203 221.823 207.261C222.572 207.318 224.491 207.74 226.065 208.161C227.658 208.602 229.078 209.081 229.231 209.234C229.481 209.464 229.442 209.503 228.847 209.503C228.483 209.503 227.619 209.407 226.928 209.311C226.237 209.196 224.491 208.755 223.032 208.296Z" fill="white"/>
<path d="M210.193 209.004C209.674 208.545 209.31 208.066 209.367 207.97L209.367 207.97C209.444 207.874 209.521 207.778 209.559 207.778C209.617 207.778 209.943 207.912 210.289 208.085C210.615 208.257 211.67 209.024 212.63 209.79C213.59 210.556 214.799 211.457 215.317 211.783C215.854 212.108 216.795 212.568 217.428 212.779C218.061 213.009 218.714 213.316 218.868 213.469C219.117 213.699 219.098 213.718 218.733 213.718C218.484 213.718 217.658 213.526 216.91 213.277C216.142 213.047 214.856 212.453 214.07 211.955C213.283 211.476 212.285 210.786 211.862 210.461C211.44 210.116 210.692 209.464 210.193 209.004Z" fill="white"/>
<path d="M187.392 210.767C189.024 210.288 191.058 209.656 191.903 209.349C192.747 209.043 193.495 208.775 193.553 208.755C193.63 208.755 193.668 208.851 193.649 208.985C193.63 209.1 192.881 209.579 191.979 210.02C191.096 210.461 189.465 211.131 188.352 211.495C187.239 211.859 185.684 212.3 184.897 212.473C184.111 212.645 182.671 212.817 181.731 212.894C180.195 212.99 180.042 212.971 180.291 212.702C180.445 212.549 181.443 212.243 182.498 212.013C183.554 211.802 185.761 211.227 187.392 210.767Z" fill="white"/>
<path d="M205.03 210.327C204.838 209.771 204.704 209.215 204.761 209.119L204.761 209.119C204.838 209.024 204.915 208.928 204.953 208.928C205.011 208.928 205.721 209.618 206.546 210.48C207.352 211.342 208.504 212.396 209.08 212.856C209.655 213.296 210.672 213.967 211.344 214.312C211.997 214.676 212.534 215.059 212.534 215.155C212.534 215.251 212.457 215.232 212.381 215.098C212.265 214.906 212.169 214.906 211.901 215.098C211.575 215.327 211.747 215.423 213.34 216.036C214.319 216.42 215.01 216.784 214.895 216.86C214.76 216.918 214.146 216.841 213.551 216.669C212.937 216.496 211.843 216.075 211.095 215.73C210.346 215.404 209.233 214.791 208.6 214.35C207.966 213.929 206.988 213.066 206.431 212.453C205.817 211.783 205.26 210.921 205.03 210.327Z" fill="white"/>
<path d="M169.985 216.573C169.429 216.381 169.006 216.113 169.064 216.017C169.141 215.921 169.237 215.826 169.313 215.826C169.39 215.826 170.618 216.075 172.039 216.4C173.459 216.707 175.608 217.052 176.798 217.167C178.314 217.301 179.62 217.301 181.212 217.148C182.441 217.033 184.322 216.784 185.377 216.592C186.433 216.4 187.335 216.285 187.392 216.343C187.45 216.4 187.316 216.554 187.104 216.707C186.893 216.86 186.298 217.109 185.761 217.282C185.243 217.435 183.861 217.684 182.69 217.837C181.52 217.991 179.716 218.125 178.66 218.125C177.604 218.125 175.915 217.991 174.917 217.837C173.919 217.684 172.614 217.416 172.039 217.243C171.463 217.071 170.522 216.764 169.985 216.573Z" fill="white"/>
</svg>
