<svg width="257" height="88" viewBox="0 0 257 88" fill="none" xmlns="http://www.w3.org/2000/svg">
<path fill-rule="evenodd" clip-rule="evenodd" d="M25.1192 4.82151C25.1489 4.85109 26.7244 9.46554 28.6269 15.0857C30.4997 20.7059 32.0455 25.4682 32.0455 25.6753C32.0455 25.9415 30.8862 26.0302 22.5329 26.0302L21.6411 25.0837C21.1358 24.5513 20.3629 23.4568 18.9657 21.1496L21.9979 12.956C23.6923 8.43025 25.0895 4.76235 25.1192 4.82151ZM13.9716 36.0874C14.1202 36.0874 15.9633 41.7076 22.0276 61.0823L19.7386 67.2941C18.4901 70.7254 17.3605 73.5355 17.2713 73.5946C17.1821 73.6242 13.2582 73.6242 0 73.5059L6.8669 54.7818C10.6719 44.5176 13.8527 36.0874 13.9716 36.0874ZM116.321 37.7734C117.124 37.8326 118.461 38.2171 119.294 38.6017C120.096 38.9862 121.286 39.8736 121.91 40.5539C122.564 41.2639 123.366 42.4471 123.753 43.1865C124.11 43.926 124.704 45.3755 125.031 46.4403C125.358 47.5052 125.804 49.6941 125.982 51.321C126.22 53.1549 126.309 55.6101 126.19 57.8286C126.072 59.8696 125.745 62.3839 125.388 63.7445C125.061 65.046 124.377 66.9096 123.901 67.8857C123.396 68.8618 122.385 70.3112 121.613 71.1099C120.81 71.9086 119.502 72.8551 118.699 73.2397C117.867 73.6242 116.678 74.0087 116.024 74.127C115.37 74.2454 114.121 74.1566 113.2 73.92C111.951 73.6242 111.238 73.2101 110.138 72.2044C109.365 71.4649 108.652 70.9028 108.592 70.9916C108.503 71.0803 108.444 74.837 108.444 87.5563H99.2282V65.7264C99.2282 53.7465 99.139 42.6837 98.7823 38.4242L107.106 38.6017L107.344 40.3765C107.463 41.3526 107.641 42.2104 107.76 42.2992C107.849 42.3879 107.998 42.24 108.087 42.0034C108.176 41.7667 108.8 40.9681 109.454 40.2581C110.138 39.5482 111.059 38.7792 111.565 38.5425C112.04 38.2763 112.992 37.9805 113.646 37.8622C114.3 37.7143 115.489 37.6847 116.321 37.7734ZM109.454 49.0138C109.068 50.404 109.008 51.883 109.068 56.7933C109.187 62.1472 109.246 63.005 109.781 64.0107C110.108 64.6615 110.732 65.4602 111.178 65.7855C111.951 66.3771 112.07 66.3771 113.111 65.963C113.864 65.6475 114.458 65.1052 114.894 64.3361C115.251 63.6854 115.756 62.2064 116.024 61.0823C116.262 59.9287 116.47 57.6807 116.47 56.0538C116.47 54.4269 116.291 52.238 116.054 51.1731C115.846 50.1082 115.37 48.6884 115.013 47.9785C114.686 47.2981 114.121 46.5882 113.794 46.4403C113.467 46.2629 112.813 46.1445 112.367 46.1445C111.892 46.1445 111.149 46.4108 110.732 46.7361C110.197 47.1305 109.771 47.8897 109.454 49.0138Z" fill="#0C4DB5"/>
<path d="M13.1991 6.06395C13.7639 5.08781 14.7449 3.72714 15.3097 3.01722C15.9042 2.30731 16.4096 1.80445 16.4096 1.86361C16.4393 1.92277 16.142 2.75101 15.815 3.72714C15.4583 4.67369 15.0124 6.47806 14.8043 7.69084C14.5962 8.99235 14.507 10.6784 14.626 11.832C14.7449 12.8969 15.0421 14.8196 15.3097 16.1211C15.5772 17.4226 16.142 19.2861 16.5582 20.2623C17.0041 21.2384 17.8067 22.6878 18.3715 23.516C18.9066 24.3147 19.8876 25.6162 21.6415 27.8051H33.235L33.0566 28.4559C32.9377 28.8404 31.6892 32.5971 27.6463 44.5177L38.675 44.8135L44.3825 60.905L42.6881 62.7685C41.5287 64.07 40.6964 65.4011 39.9532 67.1463C39.3587 68.5366 38.6155 69.8381 38.348 70.0451C37.9913 70.2818 36.6238 70.4001 33.9781 70.4001C30.6487 70.4297 30.0542 70.3409 29.6083 69.8972C29.3407 69.6014 28.5381 68.152 27.8544 66.7026C27.0518 64.9278 26.16 63.5376 23.7224 61.0824L19.4714 47.1799C15.6367 34.6676 15.1016 33.1295 14.0909 31.7984C13.4666 30.9702 12.5748 29.5799 12.1289 28.6925C11.683 27.8051 11.029 26.2078 10.702 25.1429C10.375 24.0781 9.95884 22.0075 9.75076 20.5581C9.45349 18.31 9.48321 17.4522 9.86966 15.145C10.1372 13.666 10.7317 11.3883 11.2371 10.1164C11.7127 8.87403 12.6045 7.04008 13.1991 6.06395Z" fill="#4477C7"/>
<path d="M104.342 38.513C102.736 38.4834 100.864 38.3947 100.12 38.3651C99.3772 38.306 100.626 38.2468 102.855 38.2172C105.114 38.1876 107.017 38.2468 107.076 38.3651C107.136 38.513 105.917 38.5722 104.342 38.513Z" fill="#4477C7"/>
<path d="M108.533 79.5698C108.533 75.1033 108.563 71.2875 108.622 71.0804C108.682 70.8734 108.771 70.6959 108.801 70.6959C108.86 70.6959 108.83 74.5117 108.592 87.7043L108.533 79.5698Z" fill="#4477C7"/>
<path d="M15.9934 73.8609C15.1016 73.9201 13.6747 73.9201 12.8721 73.8609C12.0397 73.8018 12.7829 73.7722 14.5071 73.7722C16.2312 73.7722 16.8852 73.8018 15.9934 73.8609Z" fill="#4477C7"/>
<path d="M14.0902 3.19462C14.2388 2.9284 14.9226 2.10017 15.636 1.36067C16.3495 0.621176 17.0629 0 17.271 0C17.4791 0 17.4493 0.118319 17.1818 0.266218C16.944 0.414118 16.0819 1.24235 15.2793 2.10017C14.4767 2.98756 13.9416 3.49042 14.0902 3.19462Z" fill="#FBFCFE" fill-opacity="0.1"/>
<path d="M15.309 10.7966C15.2496 11.4474 15.1901 11.0333 15.1901 9.90924C15.1901 8.75563 15.2496 8.25277 15.309 8.72605C15.3685 9.19933 15.3685 10.1459 15.309 10.7966Z" fill="#FBFCFE" fill-opacity="0.1"/>
<path d="M25.3567 26.5331C24.7027 26.5923 23.7812 26.5923 23.2758 26.5331C22.7704 26.4739 23.3353 26.4148 24.4649 26.4148C25.5945 26.4148 26.0107 26.4739 25.3567 26.5331Z" fill="#FBFCFE" fill-opacity="0.1"/>
<path d="M30.8561 27.1247C29.3104 27.1839 26.6349 27.1839 24.9108 27.1247C23.1866 27.0951 24.4649 27.036 27.7348 27.036C31.0048 27.036 32.4019 27.0951 30.8561 27.1247Z" fill="#FBFCFE" fill-opacity="0.1"/>
<path d="M11.9202 30.3193C11.7121 29.9052 11.5337 29.5207 11.5337 29.4319C11.5337 29.3432 11.6229 29.284 11.7418 29.284C11.8607 29.284 12.2471 29.8756 12.6336 30.6151C13.02 31.3546 13.2579 32.035 13.1984 32.1533C13.1092 32.3012 12.9903 32.0941 12.9011 31.7096C12.812 31.3546 12.6336 31.0588 12.5147 31.0588C12.3661 31.0588 12.0985 30.7334 11.9202 30.3193Z" fill="#FBFCFE" fill-opacity="0.1"/>
<path d="M98.8414 77.647C98.8117 83.3559 98.782 78.564 98.782 66.9983C98.782 55.4326 98.8117 50.7886 98.8414 56.6454C98.9009 62.5022 98.9009 71.9381 98.8414 77.647Z" fill="#FBFCFE" fill-opacity="0.1"/>
<path d="M126.785 56.7933C126.725 57.5328 126.666 57.0595 126.666 55.758C126.666 54.4565 126.725 53.8649 126.785 54.4269C126.844 54.9889 126.844 56.0538 126.785 56.7933Z" fill="#FBFCFE" fill-opacity="0.1"/>
<path d="M23.1272 61.526C22.9785 61.2007 22.8299 60.8457 22.8299 60.6978C22.8299 60.5795 23.0677 60.8753 23.3947 61.3781C23.692 61.881 24.3757 62.6501 24.9108 63.1529C25.4161 63.6558 25.9809 64.277 26.1296 64.5432C26.2782 64.839 25.7431 64.3953 24.9108 63.5966C24.1082 62.7684 23.3055 61.8514 23.1272 61.526Z" fill="#FBFCFE" fill-opacity="0.1"/>
<path d="M27.4376 67.7378C27.0214 66.9096 26.6944 66.1701 26.7241 66.0222C26.7241 65.9039 27.1997 66.7617 27.7646 67.8857C28.3294 69.0393 28.9536 70.1338 29.1617 70.3408C29.3698 70.5479 29.4293 70.7254 29.3104 70.6958C29.1617 70.6958 28.8644 70.4887 28.6266 70.2521C28.3888 70.0154 28.1807 69.6901 28.1807 69.5126C28.1807 69.3351 27.8537 68.5365 27.4376 67.7378Z" fill="#FBFCFE" fill-opacity="0.1"/>
<path d="M34.1261 71.2874C31.8371 71.2874 29.9049 71.1986 29.8454 71.0803V71.0507C29.786 70.9324 31.7182 70.8437 34.1261 70.8437C36.534 70.8437 38.4662 70.9324 38.4068 71.0507C38.3473 71.1986 36.4151 71.2874 34.1261 71.2874Z" fill="#FBFCFE" fill-opacity="0.1"/>
<path d="M4.9938 74.1862C3.92363 74.2454 2.25893 74.2454 1.27794 74.1862C0.296957 74.127 1.15904 74.0975 3.21019 74.0975C5.26134 74.0975 6.06396 74.127 4.9938 74.1862Z" fill="#FBFCFE" fill-opacity="0.1"/>
<path d="M104.876 38.0692C103.657 38.1284 101.784 38.1284 100.714 38.0692C99.644 38.01 100.655 37.9805 102.944 37.9805C105.233 37.9805 106.095 38.0396 104.876 38.0692Z" fill="#F6F9FC" fill-opacity="0.3"/>
<path d="M98.8414 44.3697C98.7819 45.1092 98.7225 44.5768 98.7225 43.1865C98.7225 41.7963 98.7819 41.2047 98.8414 41.8554C98.9008 42.5062 98.9008 43.6302 98.8414 44.3697Z" fill="#F6F9FC" fill-opacity="0.3"/>
<path d="M36.2069 44.281C34.6611 44.3401 32.2532 44.3401 30.8561 44.281C29.4589 44.2514 30.7372 44.1922 33.6801 44.1922C36.6231 44.1922 37.7527 44.2514 36.2069 44.281Z" fill="#F6F9FC" fill-opacity="0.3"/>
<path d="M108.889 88L108.8 79.8063C108.77 75.2806 108.83 71.5832 108.978 71.5832C109.097 71.5832 109.513 71.9381 110.673 73.21L109.038 71.7311L108.889 88Z" fill="#F6F9FC" fill-opacity="0.3"/>
<path d="M7.52051 74.127L12.5741 73.9495C15.3684 73.8608 17.6574 73.7425 17.6871 73.7129C17.7168 73.6833 17.6871 73.8016 17.6276 73.9495C17.5385 74.127 15.6062 74.2158 7.52051 74.127Z" fill="#F6F9FC" fill-opacity="0.3"/>
<path d="M33.0861 70.6071C32.4322 70.6662 31.5106 70.6662 31.0053 70.6071C30.4999 70.5479 31.0647 70.4888 32.1943 70.4888C33.324 70.4888 33.7401 70.5479 33.0861 70.6071Z" fill="#5986CD"/>
<path d="M10.1965 73.8609C9.39385 73.92 8.1156 73.92 7.37243 73.8609C6.62926 73.8017 7.31297 73.7721 8.85877 73.7721C10.4046 73.7721 11.0288 73.8017 10.1965 73.8609Z" fill="#5986CD"/>
<path d="M106.363 87.7634C105.144 87.8225 103.004 87.8225 101.607 87.7634C100.209 87.7338 101.22 87.6747 103.836 87.6747C106.452 87.6747 107.582 87.7338 106.363 87.7634Z" fill="#5986CD"/>
<path d="M27.676 27.8643C24.4358 27.8052 21.7009 27.6868 21.582 27.5685C21.4631 27.4502 24.1088 27.391 27.4382 27.4206C30.7973 27.4798 33.5322 27.5981 33.5322 27.7164C33.5322 27.8643 30.8865 27.9235 27.676 27.8643Z" fill="#89A9DB"/>
<path d="M99.1393 77.3514C99.1096 83.0307 99.0798 78.505 99.0798 67.2942C99.0798 56.0539 99.1096 51.4099 99.1393 56.9413C99.1988 62.4727 99.1988 71.6425 99.1393 77.3514Z" fill="#89A9DB"/>
<path d="M36.9508 70.6072C36.2968 70.6663 35.3752 70.6663 34.8699 70.6072C34.3942 70.548 34.9293 70.4889 36.0589 70.4889C37.2183 70.4889 37.6047 70.548 36.9508 70.6072Z" fill="#89A9DB"/>
<path d="M4.69713 73.861C3.80533 73.9201 2.40817 73.9201 1.57581 73.861C0.773189 73.8018 1.48663 73.7722 3.21079 73.7722C4.93495 73.7722 5.58894 73.8018 4.69713 73.861Z" fill="#89A9DB"/>
<path d="M15.0121 11.2403C14.9527 11.9798 14.8932 11.5065 14.8932 10.205C14.8932 8.90346 14.9527 8.31187 15.0121 8.87388C15.0716 9.4359 15.0716 10.5008 15.0121 11.2403Z" fill="#F2F5FB"/>
<path d="M9.36402 19.2268C9.30457 19.7888 9.24512 19.2564 9.24512 18.0436C9.24512 16.8309 9.30457 16.3576 9.36402 17.0083C9.42348 17.6591 9.42348 18.6648 9.36402 19.2268Z" fill="#F2F5FB"/>
<path d="M20.571 26.0302C20.3035 25.7935 19.6792 24.9949 19.1739 24.2554C18.6685 23.5159 18.4902 23.1018 18.7577 23.2793C19.0252 23.4863 19.4414 23.6342 19.6495 23.5751C19.8873 23.5455 20.4224 23.9596 20.8386 24.4625C21.2845 24.9949 21.5223 25.4386 21.3439 25.4386C21.1953 25.4386 21.0467 25.6752 21.0467 25.9414C21.0764 26.4147 21.0169 26.4147 20.571 26.0302Z" fill="#F2F5FB"/>
<path d="M27.5866 27.45C22.3249 27.5388 21.7601 27.4796 21.3439 27.0063C20.9575 26.533 20.9575 26.5035 21.3439 26.8288C21.6412 27.0655 23.6329 27.2134 33.3833 27.3613L27.5866 27.45Z" fill="#F2F5FB"/>
<path d="M15.4878 38.1283C15.7553 37.9804 15.9931 37.6255 16.0228 37.3593V37.3297C16.0228 37.0635 17.5686 41.8258 19.4414 47.9193C21.2845 54.0127 22.8303 59.0413 22.8303 59.0709C22.8303 59.13 22.6222 59.1596 22.3844 59.1596C22.1466 59.1596 21.9088 59.3075 21.879 59.4554C21.8196 59.6329 20.244 54.9593 18.3713 49.0729C15.2499 39.3707 15.0121 38.365 15.4878 38.1283Z" fill="#F2F5FB"/>
<path d="M28.1217 44.488C28.0325 44.3401 28.0028 43.9851 28.1217 43.6598C28.3 43.0977 28.3298 43.0977 28.3892 43.7189C28.4784 44.3993 28.5081 44.3993 33.8292 44.3993C39.1503 44.3993 39.18 44.3993 39.3287 45.05C39.3881 45.4346 39.3881 45.7895 39.3287 45.8783C39.2692 45.967 39.1503 45.7304 39.0611 45.3458C38.8828 44.6951 38.8233 44.6951 33.5915 44.6951H33.5914C30.7079 44.6951 28.2406 44.6063 28.1217 44.488Z" fill="#F2F5FB"/>
<path d="M30.1134 70.9028L34.1265 70.7253C36.3263 70.6366 38.1693 70.5182 38.1991 70.4887C38.2288 70.4591 38.1991 70.5478 38.1396 70.7253C38.0504 70.9028 36.4452 70.9915 30.1134 70.9028Z" fill="#F2F5FB"/>
<path fill-rule="evenodd" clip-rule="evenodd" d="M40.726 4.58474L54.222 38.6015C61.6537 57.3256 67.8071 72.9141 68.0152 73.9494L50.4169 73.8015L38.7046 39.4889C32.2836 20.617 26.9922 5.08759 26.9922 4.9397C26.9922 4.82138 27.3489 4.67348 27.8245 4.61432C28.2704 4.55516 31.362 4.52558 40.726 4.58474ZM145.602 37.7733C146.672 37.862 148.218 38.1874 149.021 38.4832C149.853 38.779 151.161 39.5185 151.964 40.1397C152.737 40.7609 153.926 42.0624 154.58 43.0385C155.204 44.0146 156.007 45.5528 156.363 46.4402C156.69 47.3276 157.166 49.1911 157.404 50.5814C157.731 52.3857 157.82 54.2789 157.701 57.2368C157.612 59.692 157.344 62.0879 157.077 63.1528C156.809 64.1289 156.185 65.7558 155.709 66.7615C155.204 67.7968 154.164 69.335 153.361 70.1632C152.558 71.021 151.131 72.1451 150.18 72.6775C149.169 73.2099 147.535 73.7719 146.345 73.979C144.74 74.2748 143.789 74.2748 142.184 74.0086C141.024 73.8015 139.449 73.3578 138.616 72.9733C137.814 72.5888 136.476 71.6126 135.644 70.814C134.841 69.9857 133.741 68.5363 133.206 67.5898C132.671 66.6136 131.958 64.6909 131.571 63.3007C131.006 61.1709 130.917 60.0469 130.917 56.0536C130.947 52.2674 131.066 50.8772 131.541 49.1024C131.868 47.8896 132.552 46.0852 133.028 45.1091C133.533 44.133 134.663 42.5652 135.525 41.6187C136.536 40.4946 137.784 39.5481 138.914 39.0157C139.895 38.5424 141.381 38.0099 142.184 37.8916C143.016 37.7437 144.532 37.6846 145.602 37.7733ZM141.827 47.5642C141.441 48.422 141.024 49.9898 140.846 51.0842C140.697 52.2083 140.549 54.3676 140.549 55.9057C140.549 57.4439 140.668 59.5145 140.816 60.4906C140.965 61.4667 141.232 62.857 141.441 63.5965C141.649 64.336 142.213 65.2825 142.659 65.7262C143.254 66.3178 143.819 66.5545 144.562 66.5545C145.364 66.5545 145.751 66.3474 146.197 65.7262C146.554 65.2825 147.029 64.1881 147.326 63.3007C147.713 61.9992 147.832 60.5202 147.832 56.0536C147.832 51.4392 147.743 50.1081 147.297 48.6587C146.999 47.6825 146.375 46.5289 145.959 46.0557C145.483 45.5824 144.829 45.257 144.413 45.257C143.997 45.257 143.402 45.4345 143.075 45.6415C142.748 45.8782 142.184 46.736 141.827 47.5642ZM210.704 37.5958C210.942 37.5958 212.071 37.7141 213.231 37.8916C214.539 38.0691 215.966 38.5424 217.066 39.134C218.047 39.6664 219.414 40.7313 220.127 41.5595C220.871 42.3582 221.852 43.8372 222.327 44.8133C222.803 45.7894 223.457 47.653 223.814 48.9545C224.319 50.8772 224.438 52.2083 224.438 55.9057C224.438 59.6624 224.349 60.9343 223.814 62.857C223.457 64.1585 222.743 66.0812 222.238 67.1461C221.703 68.2109 220.603 69.7491 219.771 70.5773C218.968 71.4056 217.541 72.4113 216.649 72.855C215.758 73.2987 214.093 73.8311 212.934 74.0086C211.328 74.2748 210.407 74.2748 208.861 74.0086C207.731 73.8015 206.126 73.3283 205.294 72.9437C204.402 72.5296 203.064 71.5239 202.202 70.6365C201.37 69.7787 200.389 68.4772 200.002 67.7377C199.616 66.9982 199.081 65.6671 198.754 64.7797C198.457 63.8923 198.07 62.295 197.892 61.2301C197.743 60.1652 197.595 57.7693 197.595 55.9057C197.595 53.9535 197.803 51.4983 198.07 50.1377C198.338 48.8362 199.081 46.6768 199.735 45.3162C200.508 43.6893 201.4 42.3878 202.47 41.3229C203.332 40.4946 204.699 39.4594 205.502 39.0452C206.334 38.6607 207.731 38.1578 208.623 37.9804C209.515 37.7733 210.466 37.5958 210.704 37.5958ZM207.821 49.6052C207.494 51.173 207.315 53.214 207.345 55.9057C207.345 58.0946 207.523 60.7568 207.731 61.8217C207.91 62.8866 208.266 64.0993 208.504 64.543C208.742 65.0163 209.188 65.6375 209.515 65.9629C209.872 66.3178 210.526 66.5545 211.09 66.5545C211.685 66.5545 212.28 66.3178 212.696 65.9037C213.052 65.5192 213.558 64.6318 213.825 63.8923C214.093 63.1528 214.45 61.1118 214.658 59.3074C214.896 56.8819 214.896 55.2254 214.658 52.7999C214.45 50.9955 214.033 48.777 213.706 47.8304C213.35 46.9135 212.785 45.9373 212.428 45.7007C212.042 45.4641 211.388 45.257 210.942 45.257C210.427 45.257 209.862 45.6021 209.247 46.2923C208.564 47.0614 208.207 47.9192 207.821 49.6052ZM75.1497 38.4536H94.7694V45.8486H84.6623V73.6536H75.1497V38.4536ZM167.66 38.4536H190.787V66.8503H192.065C192.749 66.8503 193.492 66.9686 193.7 67.0869C194.027 67.2644 194.057 68.8321 193.76 83.415L186.774 83.2671L186.596 80.0133C186.477 78.2089 186.387 76.0496 186.328 73.6536H168.938L168.7 75.0439C168.581 75.8425 168.492 77.5286 168.492 78.8301C168.492 80.1316 168.373 81.6993 168.046 83.415H164.717C162.874 83.415 161.328 83.3854 161.328 83.3262C161.298 83.2967 161.209 79.6879 161.09 75.2805C160.971 70.0745 161.001 67.2052 161.209 67.0869C161.357 66.9686 162.011 66.8503 162.636 66.8503C163.438 66.8503 163.855 66.6728 164.182 66.1699C164.449 65.815 165.014 64.3064 165.49 62.857C165.965 61.4076 166.589 58.9229 166.857 57.3847C167.243 55.3437 167.422 52.3266 167.511 46.4994L167.66 38.4536ZM176.132 50.9659C176.043 54.0718 175.745 57.4143 175.389 59.4553C175.062 61.3484 174.497 63.5669 174.17 64.4247C173.813 65.2825 173.546 66.0516 173.546 66.1108C173.546 66.1995 175.21 66.2587 177.261 66.2587H180.977V45.8486H176.31L176.132 50.9659ZM230.324 38.4832H239.242V52.3857H239.896C240.49 52.4153 240.936 51.5575 246.822 38.4536L251.489 38.4832C254.076 38.4832 256.186 38.5424 256.186 38.6311C256.186 38.7199 254.224 42.0328 251.876 46.0261C249.498 50.0194 247.565 53.3323 247.565 53.421C247.565 53.5098 248.041 53.8647 248.635 54.2493C249.26 54.6042 250.181 55.4916 250.746 56.2311C251.281 56.9706 252.024 58.3017 252.351 59.1891C252.678 60.0765 253.392 62.5316 253.957 64.6614C254.492 66.7911 255.265 69.4237 255.681 70.5773C256.067 71.7309 256.483 72.8846 256.573 73.1804C256.751 73.6536 256.424 73.6832 247.565 73.6832L246.971 72.4113C246.674 71.7309 245.93 69.2462 245.336 66.8799C244.741 64.5135 243.939 62.0288 243.522 61.3188C243.136 60.6385 242.482 59.8694 242.125 59.6328C241.769 59.3666 240.996 59.1595 239.39 59.0412L239.242 73.6832H230.324V38.4832Z" fill="#0C4DB5"/>
<path d="M50.5358 4.88078C50.2088 3.75675 49.852 2.57356 49.7331 2.30734C49.5845 2.01154 49.5845 1.7749 49.7331 1.7749C49.852 1.7749 50.6547 2.8102 51.5167 4.08213C52.3788 5.32448 53.5084 7.21759 54.0435 8.28246C54.5786 9.34734 55.3218 11.1517 55.7082 12.2757C56.0947 13.3998 56.5703 15.4112 56.7487 16.7127C56.927 18.0142 56.9865 19.6707 56.8676 20.4102C56.7784 21.1497 56.4811 22.4808 56.2433 23.3682C55.9758 24.2556 55.2326 26.2374 54.5489 27.746C53.8652 29.2546 53.2112 30.3786 53.0923 30.2603C53.0031 30.142 52.1113 28.101 49.3467 21.4455L50.0304 19.5228C50.3871 18.4579 50.8627 16.6536 51.0708 15.5295C51.3087 14.2576 51.3978 12.2166 51.2789 10.2052C51.1897 8.31204 50.8925 6.09356 50.5358 4.88078Z" fill="#4477C7"/>
<path d="M90.013 38.3652C87.3079 38.4243 82.8488 38.4243 80.0545 38.3652C77.2602 38.3356 79.4897 38.2764 84.9594 38.2764C90.4292 38.2764 92.7181 38.3356 90.013 38.3652Z" fill="#4477C7"/>
<path d="M184.99 38.3652C181.72 38.4243 176.429 38.4243 173.248 38.3652C170.067 38.3356 172.743 38.306 179.194 38.306C185.644 38.306 188.26 38.3356 184.99 38.3652Z" fill="#4477C7"/>
<path d="M239.242 38.4539L234.723 38.3652L230.205 38.2764L239.39 38.306V52.3564L239.242 38.4539Z" fill="#4477C7"/>
<path d="M253.124 38.5131C251.311 38.4835 249.052 38.4243 248.16 38.3652C247.268 38.306 248.754 38.2468 251.489 38.2173C254.254 38.1877 256.483 38.2468 256.483 38.3947C256.483 38.5131 254.967 38.5722 253.124 38.5131Z" fill="#4477C7"/>
<path d="M92.2425 46.0855C90.9345 46.1151 88.6456 46.1151 87.1889 46.0855C85.7026 46.0263 86.7728 45.9672 89.5671 45.9672C92.3317 45.9672 93.5505 46.0263 92.2425 46.0855Z" fill="#4477C7"/>
<path d="M108.652 58.4203C108.592 59.8993 108.563 58.7457 108.563 55.906C108.563 53.0663 108.592 51.8536 108.652 53.2438C108.711 54.6341 108.711 56.9709 108.652 58.4203Z" fill="#4477C7"/>
<path d="M239.331 66.7026C239.301 62.7981 239.331 59.4556 239.42 59.2485C239.48 59.0415 239.569 58.864 239.598 58.864C239.658 58.864 239.628 62.2361 239.39 73.8018L239.331 66.7026Z" fill="#4477C7"/>
<path d="M48.6622 2.36641C48.3055 1.62692 48.0974 0.798682 48.1866 0.532464V0.502884C48.3055 0.236666 48.5433 2.69189e-05 48.7514 0.0296068C49.0487 0.0296068 49.0487 0.0591866 48.7514 0.177506C48.5731 0.236666 48.3947 0.502884 48.3947 0.739523C48.3947 0.976161 48.692 1.6565 49.0487 2.21851C49.4351 2.81011 49.6432 3.37213 49.5243 3.49045C49.4054 3.60877 49.019 3.10591 48.6622 2.36641Z" fill="#FBFCFE" fill-opacity="0.1"/>
<path d="M191.232 66.4363L191.084 52.1789C190.994 44.3402 191.024 38.0101 191.143 38.1284C191.262 38.2467 191.351 44.6656 191.232 66.4363Z" fill="#FBFCFE" fill-opacity="0.1"/>
<path d="M167.213 47.801C167.183 49.6054 167.124 48.1856 167.124 44.6952C167.124 41.2047 167.183 39.7257 167.213 41.4414C167.272 43.157 167.272 45.9967 167.213 47.801Z" fill="#FBFCFE" fill-opacity="0.1"/>
<path d="M194.502 71.1691L194.353 68.8915C194.264 67.6491 194.294 66.7026 194.443 66.8209C194.562 66.9392 194.621 67.9449 194.502 71.1691Z" fill="#FBFCFE" fill-opacity="0.1"/>
<path d="M160.673 75.754C160.614 76.4935 160.554 75.961 160.554 74.5708C160.554 73.1805 160.614 72.5889 160.673 73.2397C160.732 73.8904 160.732 75.0145 160.673 75.754Z" fill="#FBFCFE" fill-opacity="0.1"/>
<path d="M75.0002 74.1567L80.0538 73.9792C82.8481 73.8904 85.1371 73.7721 85.1668 73.7426C85.1965 73.713 85.1668 73.8017 85.1073 73.9792C85.0182 74.1567 83.0859 74.2454 75.0002 74.1567Z" fill="#FBFCFE" fill-opacity="0.1"/>
<path d="M185.733 74.275L177.35 74.1862L168.937 74.1271H185.881V74.9553C185.881 75.6357 185.881 75.6357 185.733 74.275Z" fill="#FBFCFE" fill-opacity="0.1"/>
<path d="M237.16 74.1862C235.941 74.2454 233.86 74.2454 232.582 74.1862H232.552C231.274 74.1271 232.255 74.0679 234.782 74.0679C237.338 74.0679 238.409 74.1271 237.16 74.1862Z" fill="#FBFCFE" fill-opacity="0.1"/>
<path d="M254.729 74.1862C253.51 74.2454 251.37 74.2454 249.972 74.1862C248.605 74.1271 249.616 74.0679 252.202 74.0679C254.818 74.0679 255.977 74.1271 254.729 74.1862Z" fill="#FBFCFE" fill-opacity="0.1"/>
<path d="M54.0725 74.482C53.3591 74.5412 52.1997 74.5412 51.5457 74.482C50.9215 74.3933 51.516 74.3637 52.8835 74.3637C54.2806 74.3637 54.8157 74.3933 54.0725 74.482Z" fill="#FBFCFE" fill-opacity="0.1"/>
<path d="M163.913 83.9476C162.457 83.9772 161.149 83.918 161.03 83.7997C160.941 83.6814 162.13 83.6222 166.589 83.8589L163.913 83.9476Z" fill="#FBFCFE" fill-opacity="0.1"/>
<path d="M190.667 83.9476C188.557 83.9772 186.714 83.918 186.595 83.7997C186.506 83.6814 188.23 83.6222 194.532 83.8589L190.667 83.9476Z" fill="#FBFCFE" fill-opacity="0.1"/>
<path d="M30.5589 4.3483C29.9941 4.40746 28.924 4.40746 28.1808 4.3483C27.4376 4.28914 27.9133 4.22998 29.2212 4.22998C30.5292 4.22998 31.1238 4.28914 30.5589 4.3483Z" fill="#F6F9FC" fill-opacity="0.3"/>
<path d="M50.9813 12.1278C50.9218 12.8673 50.8624 12.394 50.8624 11.0925C50.8624 9.79099 50.9218 9.19939 50.9813 9.76141C51.0407 10.3234 51.0407 11.3883 50.9813 12.1278Z" fill="#F6F9FC" fill-opacity="0.3"/>
<path d="M90.0126 38.0693C87.3075 38.1285 82.8485 38.1285 80.0541 38.0693C77.2598 38.0397 79.4893 37.9806 84.9591 37.9806C90.4288 37.9806 92.7178 38.0397 90.0126 38.0693Z" fill="#F6F9FC" fill-opacity="0.3"/>
<path d="M184.99 38.0693C181.72 38.1285 176.429 38.1285 173.248 38.0693C170.067 38.0397 172.742 38.0101 179.193 38.0101C185.644 38.0101 188.26 38.0397 184.99 38.0693Z" fill="#F6F9FC" fill-opacity="0.3"/>
<path d="M237.161 38.0693C235.942 38.1285 233.861 38.1285 232.553 38.0693C231.245 38.0397 232.256 37.9806 234.782 37.9806C237.309 37.9806 238.379 38.0397 237.161 38.0693Z" fill="#F6F9FC" fill-opacity="0.3"/>
<path d="M254.253 38.0693C252.945 38.1285 250.746 38.1285 249.349 38.0693C247.951 38.0397 249.022 37.9806 251.727 37.9806C254.432 37.9806 255.561 38.0397 254.253 38.0693Z" fill="#F6F9FC" fill-opacity="0.3"/>
<path d="M240.133 52.2676C239.747 52.1789 239.687 51.114 239.687 45.0797L239.658 38.0101L239.776 44.9614C239.836 49.99 239.955 51.9718 240.222 52.1493C240.48 52.3268 240.45 52.3662 240.133 52.2676Z" fill="#F6F9FC" fill-opacity="0.3"/>
<path d="M95.304 43.0387C95.2446 44.0149 95.1851 43.3345 95.1851 41.5597C95.1851 39.7554 95.2446 38.9567 95.304 39.7849C95.3635 40.5836 95.3635 42.0626 95.304 43.0387Z" fill="#F6F9FC" fill-opacity="0.3"/>
<path d="M229.967 64.7799C229.937 69.5718 229.877 65.5785 229.877 55.9059C229.877 46.2333 229.937 42.2992 229.967 47.1799C230.026 52.0606 230.026 59.988 229.967 64.7799Z" fill="#F6F9FC" fill-opacity="0.3"/>
<path d="M92.5691 46.3517C91.2612 46.4108 88.9722 46.4108 87.5156 46.3517C86.0292 46.2925 87.0994 46.2629 89.8937 46.2629C92.6583 46.2629 93.8771 46.2925 92.5691 46.3517Z" fill="#F6F9FC" fill-opacity="0.3"/>
<path d="M108.978 58.8639C108.919 60.4021 108.889 59.071 108.889 55.9059C108.889 52.7409 108.919 51.469 108.978 53.0959C109.038 54.7227 109.038 57.3258 108.978 58.8639Z" fill="#F6F9FC" fill-opacity="0.3"/>
<path d="M197.267 57.5328C197.208 58.1836 197.148 57.5033 197.148 56.0538C197.148 54.5749 197.208 54.0424 197.267 54.8706C197.327 55.6693 197.327 56.8821 197.267 57.5328Z" fill="#F6F9FC" fill-opacity="0.3"/>
<path d="M239.658 66.8505C239.628 63.0347 239.658 59.7513 239.717 59.5443C239.776 59.3372 240.074 59.1597 240.371 59.1893C240.876 59.2189 240.876 59.2189 240.371 59.3372C239.895 59.4259 239.866 60.0767 239.717 73.8017L239.658 66.8505Z" fill="#F6F9FC" fill-opacity="0.3"/>
<path d="M160.703 70.8438C160.644 71.6424 160.584 71.0508 160.584 69.5127C160.584 67.9745 160.644 67.2942 160.703 68.0337C160.763 68.7732 160.763 70.0155 160.703 70.8438Z" fill="#F6F9FC" fill-opacity="0.3"/>
<path d="M194.294 78.2387C194.235 79.2149 194.175 78.5345 194.175 76.7597C194.175 74.9554 194.235 74.1567 194.294 74.9849C194.354 75.7836 194.354 77.2626 194.294 78.2387Z" fill="#F6F9FC" fill-opacity="0.3"/>
<path d="M161 82.5278C160.941 83.0898 160.881 82.5574 160.881 81.3446C160.881 80.1318 160.941 79.6586 161 80.3093C161.06 80.9601 161.06 81.9658 161 82.5278Z" fill="#F6F9FC" fill-opacity="0.3"/>
<path d="M38.734 4.3483C38.08 4.40746 37.0692 4.40746 36.5044 4.3483C35.9396 4.28914 36.4747 4.22998 37.6935 4.22998C38.9123 4.22998 39.3879 4.28914 38.734 4.3483Z" fill="#C5D5ED"/>
<path d="M167.511 45.7009C167.481 47.1503 167.421 46.0263 167.421 43.1866C167.421 40.3469 167.481 39.1342 167.511 40.5244C167.57 41.9147 167.57 44.2515 167.511 45.7009Z" fill="#C5D5ED"/>
<path d="M247.416 73.8313L252.173 73.6538C254.789 73.5651 256.959 73.4468 256.988 73.4172C257.018 73.3876 256.988 73.4764 256.929 73.6538C256.84 73.8313 254.997 73.9201 247.416 73.8313Z" fill="#C5D5ED"/>
<path d="M82.4324 73.8609C81.1244 73.9201 78.9246 73.9201 77.5275 73.8609C76.1303 73.8313 77.2005 73.7722 79.9056 73.7722C82.6108 73.7722 83.7404 73.8313 82.4324 73.8609Z" fill="#C5D5ED"/>
<path d="M182.017 73.8609C179.728 73.9201 175.864 73.9201 173.397 73.8609C170.929 73.8313 172.802 73.7722 177.558 73.7722C182.315 73.7722 184.306 73.8313 182.017 73.8609Z" fill="#C5D5ED"/>
<path d="M237.309 73.8609C236.001 73.9201 233.801 73.9201 232.404 73.8609C231.007 73.8313 232.077 73.7722 234.782 73.7722C237.488 73.7722 238.617 73.8313 237.309 73.8609Z" fill="#C5D5ED"/>
<path d="M56.4214 74.1567C55.2026 74.2159 53.3298 74.2159 52.2597 74.1567C51.1895 74.0975 52.2002 74.068 54.4892 74.068C56.7781 74.068 57.6402 74.1271 56.4214 74.1567Z" fill="#C5D5ED"/>
<path d="M230.234 64.7799C230.204 69.7493 230.175 65.756 230.175 55.9059C230.175 46.0558 230.204 42.0034 230.234 46.8841C230.294 51.7647 230.294 59.8104 230.234 64.7799Z" fill="#5986CD"/>
<path d="M94.8581 45.9079C94.7095 46.0262 94.6797 44.3698 94.7689 42.2104L94.9175 38.3059L95.0067 42.0034C95.0365 44.0444 94.977 45.7896 94.8581 45.9079Z" fill="#5986CD"/>
<path d="M190.995 59.4555C190.965 63.4488 190.935 60.3134 190.935 52.5043C190.935 44.6952 190.965 41.4414 190.995 45.2572C191.054 49.073 191.054 55.4623 190.995 59.4555Z" fill="#89A9DB"/>
<path d="M166.708 83.6223C165.816 83.6814 164.211 83.6814 163.141 83.6223C162.07 83.5631 162.814 83.5335 164.776 83.5335C166.738 83.5335 167.6 83.5631 166.708 83.6223Z" fill="#89A9DB"/>
<path d="M191.976 83.6223C190.905 83.6814 189.241 83.6814 188.26 83.6223C187.279 83.5631 188.141 83.5335 190.192 83.5335C192.243 83.5335 193.046 83.5631 191.976 83.6223Z" fill="#89A9DB"/>
<path d="M57.2239 20.558C57.1645 21.3862 57.1348 20.765 57.1348 19.2269C57.1348 17.6887 57.1645 17.0084 57.2239 17.7479C57.2834 18.4874 57.2834 19.7297 57.2239 20.558Z" fill="#F2F5FB"/>
<path d="M75.0601 64.7798C75.0303 69.5718 75.0006 65.5785 75.0006 55.9059C75.0006 46.2333 75.0303 42.2992 75.0601 47.1798C75.1195 52.0605 75.1195 59.9879 75.0601 64.7798Z" fill="#F2F5FB"/>
<path d="M84.8699 66.8504C84.8402 70.6662 84.8105 67.6195 84.8105 60.047C84.8105 52.4746 84.8402 49.3391 84.8699 53.0958C84.9294 56.8524 84.9294 63.0346 84.8699 66.8504Z" fill="#F2F5FB"/>
<path d="M63.4071 74.1566C62.5748 74.2158 61.1182 74.2158 60.1372 74.1566C59.1562 74.0975 59.8102 74.0679 61.6235 74.0679C63.4369 74.0679 64.2098 74.0975 63.4071 74.1566Z" fill="#F2F5FB"/>
<path d="M181.186 61.0824C181.156 64.0108 181.126 61.7628 181.126 56.0539C181.096 50.345 181.156 47.9786 181.186 50.7295C181.245 53.4804 181.245 58.154 181.186 61.0824Z" fill="#FBFCFE" fill-opacity="0.1"/>
<path d="M148.189 57.385C148.129 58.2724 148.1 57.6808 148.1 56.0539C148.1 54.427 148.129 53.6875 148.189 54.427C148.248 55.1665 148.248 56.4976 148.189 57.385Z" fill="#FBFCFE" fill-opacity="0.1"/>
<path d="M140.459 57.3848C140.4 58.2722 140.37 57.6215 140.37 55.9058C140.37 54.1902 140.4 53.4507 140.459 54.2789C140.519 55.0776 140.519 56.4974 140.459 57.3848Z" fill="#F6F9FC" fill-opacity="0.3"/>
<path d="M215.074 57.089C215.014 57.651 214.955 57.1186 214.955 55.9058C214.955 54.6931 215.014 54.2198 215.074 54.8705C215.133 55.5213 215.133 56.527 215.074 57.089Z" fill="#F6F9FC" fill-opacity="0.3"/>
<path d="M181.483 61.0824C181.453 64.0108 181.423 61.7628 181.423 56.0539C181.393 50.345 181.453 47.9786 181.483 50.7295C181.542 53.4804 181.542 58.154 181.483 61.0824Z" fill="#C5D5ED"/>
<path d="M176.012 48.8364C175.953 47.4757 175.983 46.1742 176.042 45.9376C176.161 45.6418 176.874 45.5826 181.423 45.6714L176.22 45.8488L176.101 51.3211L176.012 48.8364Z" fill="#EBF0F9" fill-opacity="0.6"/>
<path d="M179.044 66.466C177.915 66.5251 176.101 66.5251 175.031 66.466C173.961 66.4068 174.912 66.3772 177.112 66.3772C179.312 66.3772 180.204 66.4068 179.044 66.466Z" fill="#EBF0F9" fill-opacity="0.6"/>
</svg>
