<svg width="410" height="410" viewBox="0 0 410 410" fill="none" xmlns="http://www.w3.org/2000/svg">
<rect width="410" height="410" fill="#F2F2F2"/>
<path fill-rule="evenodd" clip-rule="evenodd" d="M97.1192 170.822C97.1489 170.851 98.7244 175.466 100.627 181.086C102.5 186.706 104.046 191.468 104.046 191.675C104.046 191.942 102.886 192.03 94.5329 192.03L93.6411 191.084C93.1358 190.551 92.3629 189.457 90.9657 187.15L93.9979 178.956C95.6923 174.43 97.0895 170.762 97.1192 170.822ZM85.9716 202.087C86.1202 202.087 87.9633 207.708 94.0276 227.082L91.7386 233.294C90.4901 236.725 89.3605 239.535 89.2713 239.595C89.1821 239.624 85.2582 239.624 72 239.506L78.8669 220.782C82.6719 210.518 85.8527 202.087 85.9716 202.087ZM188.321 203.773C189.124 203.833 190.461 204.217 191.294 204.602C192.096 204.986 193.286 205.874 193.91 206.554C194.564 207.264 195.366 208.447 195.753 209.187C196.11 209.926 196.704 211.375 197.031 212.44C197.358 213.505 197.804 215.694 197.982 217.321C198.22 219.155 198.309 221.61 198.19 223.829C198.072 225.87 197.745 228.384 197.388 229.745C197.061 231.046 196.377 232.91 195.901 233.886C195.396 234.862 194.385 236.311 193.613 237.11C192.81 237.909 191.502 238.855 190.699 239.24C189.867 239.624 188.678 240.009 188.024 240.127C187.37 240.245 186.121 240.157 185.2 239.92C183.951 239.624 183.238 239.21 182.138 238.204C181.365 237.465 180.652 236.903 180.592 236.992C180.503 237.08 180.444 240.837 180.444 253.556H171.228V231.726C171.228 219.747 171.139 208.684 170.782 204.424L179.106 204.602L179.344 206.376C179.463 207.353 179.641 208.21 179.76 208.299C179.849 208.388 179.998 208.24 180.087 208.003C180.176 207.767 180.8 206.968 181.454 206.258C182.138 205.548 183.059 204.779 183.565 204.543C184.04 204.276 184.992 203.98 185.646 203.862C186.3 203.714 187.489 203.685 188.321 203.773ZM181.454 215.014C181.068 216.404 181.008 217.883 181.068 222.793C181.187 228.147 181.246 229.005 181.781 230.011C182.108 230.662 182.732 231.46 183.178 231.786C183.951 232.377 184.07 232.377 185.111 231.963C185.864 231.647 186.458 231.105 186.894 230.336C187.251 229.685 187.756 228.206 188.024 227.082C188.262 225.929 188.47 223.681 188.47 222.054C188.47 220.427 188.291 218.238 188.054 217.173C187.846 216.108 187.37 214.688 187.013 213.978C186.686 213.298 186.121 212.588 185.794 212.44C185.467 212.263 184.813 212.145 184.367 212.145C183.892 212.145 183.149 212.411 182.732 212.736C182.197 213.131 181.771 213.89 181.454 215.014Z" fill="#0C4DB5"/>
<path d="M85.1991 172.064C85.7639 171.088 86.7449 169.727 87.3097 169.017C87.9042 168.307 88.4096 167.804 88.4096 167.864C88.4393 167.923 88.142 168.751 87.815 169.727C87.4583 170.674 87.0124 172.478 86.8043 173.691C86.5962 174.992 86.507 176.678 86.626 177.832C86.7449 178.897 87.0421 180.82 87.3097 182.121C87.5772 183.423 88.142 185.286 88.5582 186.262C89.0041 187.238 89.8067 188.688 90.3715 189.516C90.9066 190.315 91.8876 191.616 93.6415 193.805H105.235L105.057 194.456C104.938 194.84 103.689 198.597 99.6463 210.518L110.675 210.814L116.383 226.905L114.688 228.768C113.529 230.07 112.696 231.401 111.953 233.146C111.359 234.537 110.616 235.838 110.348 236.045C109.991 236.282 108.624 236.4 105.978 236.4C102.649 236.43 102.054 236.341 101.608 235.897C101.341 235.601 100.538 234.152 99.8544 232.703C99.0518 230.928 98.16 229.538 95.7224 227.082L91.4714 213.18C87.6367 200.668 87.1016 199.129 86.0909 197.798C85.4666 196.97 84.5748 195.58 84.1289 194.693C83.683 193.805 83.029 192.208 82.702 191.143C82.375 190.078 81.9588 188.007 81.7508 186.558C81.4535 184.31 81.4832 183.452 81.8697 181.145C82.1372 179.666 82.7317 177.388 83.2371 176.116C83.7127 174.874 84.6045 173.04 85.1991 172.064Z" fill="#4477C7"/>
<path d="M176.342 204.513C174.736 204.483 172.864 204.395 172.12 204.365C171.377 204.306 172.626 204.247 174.855 204.217C177.114 204.188 179.017 204.247 179.076 204.365C179.136 204.513 177.917 204.572 176.342 204.513Z" fill="#4477C7"/>
<path d="M180.533 245.57C180.533 241.103 180.563 237.287 180.622 237.08C180.682 236.873 180.771 236.696 180.801 236.696C180.86 236.696 180.83 240.512 180.592 253.704L180.533 245.57Z" fill="#4477C7"/>
<path d="M87.9934 239.861C87.1016 239.92 85.6747 239.92 84.8721 239.861C84.0397 239.802 84.7829 239.772 86.5071 239.772C88.2312 239.772 88.8852 239.802 87.9934 239.861Z" fill="#4477C7"/>
<path d="M86.0902 169.195C86.2388 168.928 86.9226 168.1 87.636 167.361C88.3495 166.621 89.0629 166 89.271 166C89.4791 166 89.4493 166.118 89.1818 166.266C88.944 166.414 88.0819 167.242 87.2793 168.1C86.4767 168.988 85.9416 169.49 86.0902 169.195Z" fill="#FBFCFE" fill-opacity="0.1"/>
<path d="M87.309 176.797C87.2496 177.447 87.1901 177.033 87.1901 175.909C87.1901 174.756 87.2496 174.253 87.309 174.726C87.3685 175.199 87.3685 176.146 87.309 176.797Z" fill="#FBFCFE" fill-opacity="0.1"/>
<path d="M97.3567 192.533C96.7027 192.592 95.7812 192.592 95.2758 192.533C94.7704 192.474 95.3353 192.415 96.4649 192.415C97.5945 192.415 98.0107 192.474 97.3567 192.533Z" fill="#FBFCFE" fill-opacity="0.1"/>
<path d="M102.856 193.125C101.31 193.184 98.6349 193.184 96.9108 193.125C95.1866 193.095 96.4649 193.036 99.7348 193.036C103.005 193.036 104.402 193.095 102.856 193.125Z" fill="#FBFCFE" fill-opacity="0.1"/>
<path d="M83.9202 196.319C83.7121 195.905 83.5337 195.521 83.5337 195.432C83.5337 195.343 83.6229 195.284 83.7418 195.284C83.8607 195.284 84.2471 195.876 84.6336 196.615C85.02 197.355 85.2579 198.035 85.1984 198.153C85.1092 198.301 84.9903 198.094 84.9011 197.71C84.812 197.355 84.6336 197.059 84.5147 197.059C84.3661 197.059 84.0985 196.733 83.9202 196.319Z" fill="#FBFCFE" fill-opacity="0.1"/>
<path d="M170.841 243.647C170.812 249.356 170.782 244.564 170.782 232.998C170.782 221.433 170.812 216.789 170.841 222.645C170.901 228.502 170.901 237.938 170.841 243.647Z" fill="#FBFCFE" fill-opacity="0.1"/>
<path d="M198.785 222.793C198.725 223.533 198.666 223.059 198.666 221.758C198.666 220.456 198.725 219.865 198.785 220.427C198.844 220.989 198.844 222.054 198.785 222.793Z" fill="#FBFCFE" fill-opacity="0.1"/>
<path d="M95.1272 227.526C94.9785 227.201 94.8299 226.846 94.8299 226.698C94.8299 226.579 95.0677 226.875 95.3947 227.378C95.692 227.881 96.3757 228.65 96.9108 229.153C97.4161 229.656 97.9809 230.277 98.1296 230.543C98.2782 230.839 97.7431 230.395 96.9108 229.597C96.1082 228.768 95.3055 227.851 95.1272 227.526Z" fill="#FBFCFE" fill-opacity="0.1"/>
<path d="M99.4376 233.738C99.0214 232.91 98.6944 232.17 98.7241 232.022C98.7241 231.904 99.1997 232.762 99.7646 233.886C100.329 235.039 100.954 236.134 101.162 236.341C101.37 236.548 101.429 236.725 101.31 236.696C101.162 236.696 100.864 236.489 100.627 236.252C100.389 236.015 100.181 235.69 100.181 235.513C100.181 235.335 99.8537 234.536 99.4376 233.738Z" fill="#FBFCFE" fill-opacity="0.1"/>
<path d="M106.126 237.287C103.837 237.287 101.905 237.199 101.845 237.08V237.051C101.786 236.932 103.718 236.844 106.126 236.844C108.534 236.844 110.466 236.932 110.407 237.051C110.347 237.199 108.415 237.287 106.126 237.287Z" fill="#FBFCFE" fill-opacity="0.1"/>
<path d="M76.9938 240.186C75.9236 240.245 74.2589 240.245 73.2779 240.186C72.297 240.127 73.159 240.097 75.2102 240.097C77.2613 240.097 78.064 240.127 76.9938 240.186Z" fill="#FBFCFE" fill-opacity="0.1"/>
<path d="M176.876 204.069C175.657 204.128 173.784 204.128 172.714 204.069C171.644 204.01 172.655 203.98 174.944 203.98C177.233 203.98 178.095 204.04 176.876 204.069Z" fill="#F6F9FC" fill-opacity="0.3"/>
<path d="M170.841 210.37C170.782 211.109 170.722 210.577 170.722 209.187C170.722 207.796 170.782 207.205 170.841 207.855C170.901 208.506 170.901 209.63 170.841 210.37Z" fill="#F6F9FC" fill-opacity="0.3"/>
<path d="M108.207 210.281C106.661 210.34 104.253 210.34 102.856 210.281C101.459 210.251 102.737 210.192 105.68 210.192C108.623 210.192 109.753 210.251 108.207 210.281Z" fill="#F6F9FC" fill-opacity="0.3"/>
<path d="M180.889 254L180.8 245.806C180.77 241.281 180.83 237.583 180.978 237.583C181.097 237.583 181.513 237.938 182.673 239.21L181.038 237.731L180.889 254Z" fill="#F6F9FC" fill-opacity="0.3"/>
<path d="M79.5205 240.127L84.5741 239.95C87.3684 239.861 89.6574 239.742 89.6871 239.713C89.7168 239.683 89.6871 239.802 89.6276 239.95C89.5385 240.127 87.6062 240.216 79.5205 240.127Z" fill="#F6F9FC" fill-opacity="0.3"/>
<path d="M105.086 236.607C104.432 236.666 103.511 236.666 103.005 236.607C102.5 236.548 103.065 236.489 104.194 236.489C105.324 236.489 105.74 236.548 105.086 236.607Z" fill="#5986CD"/>
<path d="M82.1965 239.861C81.3939 239.92 80.1156 239.92 79.3724 239.861C78.6293 239.802 79.313 239.772 80.8588 239.772C82.4046 239.772 83.0288 239.802 82.1965 239.861Z" fill="#5986CD"/>
<path d="M178.363 253.763C177.144 253.823 175.004 253.823 173.607 253.763C172.209 253.734 173.22 253.675 175.836 253.675C178.452 253.675 179.582 253.734 178.363 253.763Z" fill="#5986CD"/>
<path d="M99.676 193.864C96.4358 193.805 93.7009 193.687 93.582 193.569C93.4631 193.45 96.1088 193.391 99.4382 193.421C102.797 193.48 105.532 193.598 105.532 193.716C105.532 193.864 102.886 193.923 99.676 193.864Z" fill="#89A9DB"/>
<path d="M171.139 243.351C171.11 249.031 171.08 244.505 171.08 233.294C171.08 222.054 171.11 217.41 171.139 222.941C171.199 228.473 171.199 237.642 171.139 243.351Z" fill="#89A9DB"/>
<path d="M108.951 236.607C108.297 236.666 107.375 236.666 106.87 236.607C106.394 236.548 106.929 236.489 108.059 236.489C109.218 236.489 109.605 236.548 108.951 236.607Z" fill="#89A9DB"/>
<path d="M76.6971 239.861C75.8053 239.92 74.4082 239.92 73.5758 239.861C72.7732 239.802 73.4866 239.772 75.2108 239.772C76.9349 239.772 77.5889 239.802 76.6971 239.861Z" fill="#89A9DB"/>
<path d="M87.0121 177.24C86.9527 177.98 86.8932 177.506 86.8932 176.205C86.8932 174.903 86.9527 174.312 87.0121 174.874C87.0716 175.436 87.0716 176.501 87.0121 177.24Z" fill="#F2F5FB"/>
<path d="M81.364 185.227C81.3046 185.789 81.2451 185.256 81.2451 184.044C81.2451 182.831 81.3046 182.358 81.364 183.008C81.4235 183.659 81.4235 184.665 81.364 185.227Z" fill="#F2F5FB"/>
<path d="M92.571 192.03C92.3035 191.794 91.6792 190.995 91.1739 190.255C90.6685 189.516 90.4902 189.102 90.7577 189.279C91.0252 189.486 91.4414 189.634 91.6495 189.575C91.8873 189.545 92.4224 189.96 92.8386 190.462C93.2845 190.995 93.5223 191.439 93.3439 191.439C93.1953 191.439 93.0467 191.675 93.0467 191.941C93.0764 192.415 93.0169 192.415 92.571 192.03Z" fill="#F2F5FB"/>
<path d="M99.5866 193.45C94.3249 193.539 93.7601 193.48 93.3439 193.006C92.9575 192.533 92.9575 192.503 93.3439 192.829C93.6412 193.065 95.6329 193.213 105.383 193.361L99.5866 193.45Z" fill="#F2F5FB"/>
<path d="M87.4878 204.128C87.7553 203.98 87.9931 203.625 88.0228 203.359V203.33C88.0228 203.063 89.5686 207.826 91.4414 213.919C93.2845 220.013 94.8303 225.041 94.8303 225.071C94.8303 225.13 94.6222 225.16 94.3844 225.16C94.1466 225.16 93.9088 225.307 93.879 225.455C93.8196 225.633 92.244 220.959 90.3713 215.073C87.2499 205.371 87.0121 204.365 87.4878 204.128Z" fill="#F2F5FB"/>
<path d="M100.122 210.488C100.032 210.34 100.003 209.985 100.122 209.66C100.3 209.098 100.33 209.098 100.389 209.719C100.478 210.399 100.508 210.399 105.829 210.399C111.15 210.399 111.18 210.399 111.329 211.05C111.388 211.435 111.388 211.79 111.329 211.878C111.269 211.967 111.15 211.73 111.061 211.346C110.883 210.695 110.823 210.695 105.591 210.695H105.591C102.708 210.695 100.241 210.606 100.122 210.488Z" fill="#F2F5FB"/>
<path d="M102.113 236.903L106.126 236.725C108.326 236.637 110.169 236.518 110.199 236.489C110.229 236.459 110.199 236.548 110.14 236.725C110.05 236.903 108.445 236.992 102.113 236.903Z" fill="#F2F5FB"/>
<path fill-rule="evenodd" clip-rule="evenodd" d="M112.726 170.585L126.222 204.602C133.654 223.326 139.807 238.914 140.015 239.949L122.417 239.802L110.705 205.489C104.284 186.617 98.9922 171.088 98.9922 170.94C98.9922 170.821 99.3489 170.673 99.8245 170.614C100.27 170.555 103.362 170.526 112.726 170.585ZM217.602 203.773C218.672 203.862 220.218 204.187 221.021 204.483C221.853 204.779 223.161 205.519 223.964 206.14C224.737 206.761 225.926 208.062 226.58 209.039C227.204 210.015 228.007 211.553 228.363 212.44C228.69 213.328 229.166 215.191 229.404 216.581C229.731 218.386 229.82 220.279 229.701 223.237C229.612 225.692 229.344 228.088 229.077 229.153C228.809 230.129 228.185 231.756 227.709 232.762C227.204 233.797 226.164 235.335 225.361 236.163C224.558 237.021 223.131 238.145 222.18 238.677C221.169 239.21 219.535 239.772 218.345 239.979C216.74 240.275 215.789 240.275 214.184 240.009C213.024 239.802 211.449 239.358 210.616 238.973C209.814 238.589 208.476 237.613 207.644 236.814C206.841 235.986 205.741 234.536 205.206 233.59C204.671 232.614 203.958 230.691 203.571 229.301C203.006 227.171 202.917 226.047 202.917 222.054C202.947 218.267 203.066 216.877 203.541 215.102C203.868 213.89 204.552 212.085 205.028 211.109C205.533 210.133 206.663 208.565 207.525 207.619C208.536 206.495 209.784 205.548 210.914 205.016C211.895 204.542 213.381 204.01 214.184 203.892C215.016 203.744 216.532 203.685 217.602 203.773ZM213.827 213.564C213.441 214.422 213.024 215.99 212.846 217.084C212.697 218.208 212.549 220.368 212.549 221.906C212.549 223.444 212.668 225.514 212.816 226.491C212.965 227.467 213.232 228.857 213.441 229.596C213.649 230.336 214.213 231.283 214.659 231.726C215.254 232.318 215.819 232.554 216.562 232.554C217.364 232.554 217.751 232.347 218.197 231.726C218.554 231.283 219.029 230.188 219.326 229.301C219.713 227.999 219.832 226.52 219.832 222.054C219.832 217.439 219.743 216.108 219.297 214.659C218.999 213.683 218.375 212.529 217.959 212.056C217.483 211.582 216.829 211.257 216.413 211.257C215.997 211.257 215.402 211.434 215.075 211.642C214.748 211.878 214.184 212.736 213.827 213.564ZM282.704 203.596C282.942 203.596 284.071 203.714 285.231 203.892C286.539 204.069 287.966 204.542 289.066 205.134C290.047 205.666 291.414 206.731 292.127 207.56C292.871 208.358 293.852 209.837 294.327 210.813C294.803 211.789 295.457 213.653 295.814 214.954C296.319 216.877 296.438 218.208 296.438 221.906C296.438 225.662 296.349 226.934 295.814 228.857C295.457 230.159 294.743 232.081 294.238 233.146C293.703 234.211 292.603 235.749 291.771 236.577C290.968 237.406 289.541 238.411 288.649 238.855C287.758 239.299 286.093 239.831 284.934 240.009C283.328 240.275 282.407 240.275 280.861 240.009C279.731 239.802 278.126 239.328 277.294 238.944C276.402 238.53 275.064 237.524 274.202 236.636C273.37 235.779 272.389 234.477 272.002 233.738C271.616 232.998 271.081 231.667 270.754 230.78C270.457 229.892 270.07 228.295 269.892 227.23C269.743 226.165 269.595 223.769 269.595 221.906C269.595 219.953 269.803 217.498 270.07 216.138C270.338 214.836 271.081 212.677 271.735 211.316C272.508 209.689 273.4 208.388 274.47 207.323C275.332 206.495 276.699 205.459 277.502 205.045C278.334 204.661 279.731 204.158 280.623 203.98C281.515 203.773 282.466 203.596 282.704 203.596ZM279.821 215.605C279.494 217.173 279.315 219.214 279.345 221.906C279.345 224.095 279.523 226.757 279.731 227.822C279.91 228.887 280.266 230.099 280.504 230.543C280.742 231.016 281.188 231.638 281.515 231.963C281.872 232.318 282.526 232.554 283.09 232.554C283.685 232.554 284.28 232.318 284.696 231.904C285.052 231.519 285.558 230.632 285.825 229.892C286.093 229.153 286.45 227.112 286.658 225.307C286.896 222.882 286.896 221.225 286.658 218.8C286.45 216.995 286.033 214.777 285.706 213.83C285.35 212.913 284.785 211.937 284.428 211.701C284.042 211.464 283.388 211.257 282.942 211.257C282.427 211.257 281.862 211.602 281.247 212.292C280.564 213.061 280.207 213.919 279.821 215.605ZM147.15 204.454H166.769V211.849H156.662V239.654H147.15V204.454ZM239.66 204.454H262.787V232.85H264.065C264.749 232.85 265.492 232.969 265.7 233.087C266.027 233.264 266.057 234.832 265.76 249.415L258.774 249.267L258.596 246.013C258.477 244.209 258.387 242.05 258.328 239.654H240.938L240.7 241.044C240.581 241.843 240.492 243.529 240.492 244.83C240.492 246.132 240.373 247.699 240.046 249.415H236.717C234.874 249.415 233.328 249.385 233.328 249.326C233.298 249.297 233.209 245.688 233.09 241.281C232.971 236.074 233.001 233.205 233.209 233.087C233.357 232.969 234.011 232.85 234.636 232.85C235.438 232.85 235.855 232.673 236.182 232.17C236.449 231.815 237.014 230.306 237.49 228.857C237.965 227.408 238.589 224.923 238.857 223.385C239.243 221.344 239.422 218.327 239.511 212.499L239.66 204.454ZM248.132 216.966C248.043 220.072 247.745 223.414 247.389 225.455C247.062 227.348 246.497 229.567 246.17 230.425C245.813 231.283 245.546 232.052 245.546 232.111C245.546 232.2 247.21 232.259 249.261 232.259H252.977V211.849H248.31L248.132 216.966ZM302.324 204.483H311.242V218.386H311.896C312.49 218.415 312.936 217.558 318.822 204.454L323.489 204.483C326.076 204.483 328.186 204.542 328.186 204.631C328.186 204.72 326.224 208.033 323.876 212.026C321.498 216.019 319.565 219.332 319.565 219.421C319.565 219.51 320.041 219.865 320.635 220.249C321.26 220.604 322.181 221.492 322.746 222.231C323.281 222.971 324.024 224.302 324.351 225.189C324.678 226.076 325.392 228.532 325.957 230.661C326.492 232.791 327.265 235.424 327.681 236.577C328.067 237.731 328.483 238.885 328.573 239.18C328.751 239.654 328.424 239.683 319.565 239.683L318.971 238.411C318.674 237.731 317.93 235.246 317.336 232.88C316.741 230.513 315.939 228.029 315.522 227.319C315.136 226.639 314.482 225.869 314.125 225.633C313.769 225.367 312.996 225.16 311.39 225.041L311.242 239.683H302.324V204.483Z" fill="#0C4DB5"/>
<path d="M122.536 170.881C122.209 169.757 121.852 168.574 121.733 168.307C121.584 168.012 121.584 167.775 121.733 167.775C121.852 167.775 122.655 168.81 123.517 170.082C124.379 171.324 125.508 173.218 126.044 174.282C126.579 175.347 127.322 177.152 127.708 178.276C128.095 179.4 128.57 181.411 128.749 182.713C128.927 184.014 128.986 185.671 128.868 186.41C128.778 187.15 128.481 188.481 128.243 189.368C127.976 190.256 127.233 192.237 126.549 193.746C125.865 195.255 125.211 196.379 125.092 196.26C125.003 196.142 124.111 194.101 121.347 187.445L122.03 185.523C122.387 184.458 122.863 182.654 123.071 181.53C123.309 180.258 123.398 178.217 123.279 176.205C123.19 174.312 122.892 172.094 122.536 170.881Z" fill="#4477C7"/>
<path d="M162.013 204.365C159.308 204.424 154.849 204.424 152.055 204.365C149.26 204.336 151.49 204.276 156.959 204.276C162.429 204.276 164.718 204.336 162.013 204.365Z" fill="#4477C7"/>
<path d="M256.99 204.365C253.72 204.424 248.429 204.424 245.248 204.365C242.067 204.336 244.743 204.306 251.194 204.306C257.644 204.306 260.26 204.336 256.99 204.365Z" fill="#4477C7"/>
<path d="M311.242 204.454L306.723 204.365L302.205 204.276L311.39 204.306V218.356L311.242 204.454Z" fill="#4477C7"/>
<path d="M325.124 204.513C323.311 204.483 321.052 204.424 320.16 204.365C319.268 204.306 320.754 204.247 323.489 204.217C326.254 204.188 328.483 204.247 328.483 204.395C328.483 204.513 326.967 204.572 325.124 204.513Z" fill="#4477C7"/>
<path d="M164.243 212.085C162.935 212.115 160.646 212.115 159.189 212.085C157.703 212.026 158.773 211.967 161.567 211.967C164.332 211.967 165.55 212.026 164.243 212.085Z" fill="#4477C7"/>
<path d="M180.652 224.42C180.592 225.899 180.563 224.746 180.563 221.906C180.563 219.066 180.592 217.854 180.652 219.244C180.711 220.634 180.711 222.971 180.652 224.42Z" fill="#4477C7"/>
<path d="M311.331 232.703C311.301 228.798 311.331 225.456 311.42 225.249C311.48 225.041 311.569 224.864 311.598 224.864C311.658 224.864 311.628 228.236 311.39 239.802L311.331 232.703Z" fill="#4477C7"/>
<path d="M120.662 168.366C120.306 167.627 120.097 166.799 120.187 166.532V166.503C120.306 166.237 120.543 166 120.751 166.03C121.049 166.03 121.049 166.059 120.751 166.178C120.573 166.237 120.395 166.503 120.395 166.74C120.395 166.976 120.692 167.656 121.049 168.219C121.435 168.81 121.643 169.372 121.524 169.49C121.405 169.609 121.019 169.106 120.662 168.366Z" fill="#FBFCFE" fill-opacity="0.1"/>
<path d="M263.232 232.436L263.084 218.179C262.994 210.34 263.024 204.01 263.143 204.128C263.262 204.247 263.351 210.666 263.232 232.436Z" fill="#FBFCFE" fill-opacity="0.1"/>
<path d="M239.213 213.801C239.183 215.605 239.124 214.186 239.124 210.695C239.124 207.205 239.183 205.726 239.213 207.441C239.272 209.157 239.272 211.997 239.213 213.801Z" fill="#FBFCFE" fill-opacity="0.1"/>
<path d="M266.502 237.169L266.353 234.891C266.264 233.649 266.294 232.703 266.443 232.821C266.562 232.939 266.621 233.945 266.502 237.169Z" fill="#FBFCFE" fill-opacity="0.1"/>
<path d="M232.673 241.754C232.614 242.493 232.554 241.961 232.554 240.571C232.554 239.181 232.614 238.589 232.673 239.24C232.732 239.89 232.732 241.014 232.673 241.754Z" fill="#FBFCFE" fill-opacity="0.1"/>
<path d="M147 240.157L152.054 239.979C154.848 239.89 157.137 239.772 157.167 239.743C157.197 239.713 157.167 239.802 157.107 239.979C157.018 240.157 155.086 240.245 147 240.157Z" fill="#FBFCFE" fill-opacity="0.1"/>
<path d="M257.733 240.275L249.35 240.186L240.937 240.127H257.881V240.955C257.881 241.636 257.881 241.636 257.733 240.275Z" fill="#FBFCFE" fill-opacity="0.1"/>
<path d="M309.16 240.186C307.941 240.245 305.86 240.245 304.582 240.186H304.552C303.274 240.127 304.255 240.068 306.782 240.068C309.338 240.068 310.409 240.127 309.16 240.186Z" fill="#FBFCFE" fill-opacity="0.1"/>
<path d="M326.729 240.186C325.51 240.245 323.37 240.245 321.972 240.186C320.605 240.127 321.616 240.068 324.202 240.068C326.818 240.068 327.977 240.127 326.729 240.186Z" fill="#FBFCFE" fill-opacity="0.1"/>
<path d="M126.073 240.482C125.359 240.541 124.2 240.541 123.546 240.482C122.921 240.393 123.516 240.364 124.883 240.364C126.281 240.364 126.816 240.393 126.073 240.482Z" fill="#FBFCFE" fill-opacity="0.1"/>
<path d="M235.913 249.948C234.457 249.977 233.149 249.918 233.03 249.8C232.941 249.681 234.13 249.622 238.589 249.859L235.913 249.948Z" fill="#FBFCFE" fill-opacity="0.1"/>
<path d="M262.667 249.948C260.557 249.977 258.714 249.918 258.595 249.8C258.506 249.681 260.23 249.622 266.532 249.859L262.667 249.948Z" fill="#FBFCFE" fill-opacity="0.1"/>
<path d="M102.559 170.348C101.994 170.407 100.924 170.407 100.181 170.348C99.4376 170.289 99.9133 170.23 101.221 170.23C102.529 170.23 103.124 170.289 102.559 170.348Z" fill="#F6F9FC" fill-opacity="0.3"/>
<path d="M122.981 178.128C122.922 178.867 122.862 178.394 122.862 177.093C122.862 175.791 122.922 175.199 122.981 175.761C123.041 176.323 123.041 177.388 122.981 178.128Z" fill="#F6F9FC" fill-opacity="0.3"/>
<path d="M162.013 204.069C159.307 204.128 154.848 204.128 152.054 204.069C149.26 204.04 151.489 203.981 156.959 203.981C162.429 203.981 164.718 204.04 162.013 204.069Z" fill="#F6F9FC" fill-opacity="0.3"/>
<path d="M256.99 204.069C253.72 204.128 248.429 204.128 245.248 204.069C242.067 204.04 244.742 204.01 251.193 204.01C257.644 204.01 260.26 204.04 256.99 204.069Z" fill="#F6F9FC" fill-opacity="0.3"/>
<path d="M309.161 204.069C307.942 204.128 305.861 204.128 304.553 204.069C303.245 204.04 304.256 203.981 306.782 203.981C309.309 203.981 310.379 204.04 309.161 204.069Z" fill="#F6F9FC" fill-opacity="0.3"/>
<path d="M326.253 204.069C324.945 204.128 322.746 204.128 321.349 204.069C319.951 204.04 321.022 203.981 323.727 203.981C326.432 203.981 327.561 204.04 326.253 204.069Z" fill="#F6F9FC" fill-opacity="0.3"/>
<path d="M312.133 218.268C311.747 218.179 311.687 217.114 311.687 211.08L311.658 204.01L311.776 210.961C311.836 215.99 311.955 217.972 312.222 218.149C312.48 218.327 312.45 218.366 312.133 218.268Z" fill="#F6F9FC" fill-opacity="0.3"/>
<path d="M167.304 209.039C167.245 210.015 167.185 209.335 167.185 207.56C167.185 205.755 167.245 204.957 167.304 205.785C167.363 206.584 167.363 208.063 167.304 209.039Z" fill="#F6F9FC" fill-opacity="0.3"/>
<path d="M301.967 230.78C301.937 235.572 301.877 231.579 301.877 221.906C301.877 212.233 301.937 208.299 301.967 213.18C302.026 218.061 302.026 225.988 301.967 230.78Z" fill="#F6F9FC" fill-opacity="0.3"/>
<path d="M164.569 212.352C163.261 212.411 160.972 212.411 159.516 212.352C158.029 212.292 159.099 212.263 161.894 212.263C164.658 212.263 165.877 212.292 164.569 212.352Z" fill="#F6F9FC" fill-opacity="0.3"/>
<path d="M180.978 224.864C180.919 226.402 180.889 225.071 180.889 221.906C180.889 218.741 180.919 217.469 180.978 219.096C181.038 220.723 181.038 223.326 180.978 224.864Z" fill="#F6F9FC" fill-opacity="0.3"/>
<path d="M269.267 223.533C269.208 224.184 269.148 223.503 269.148 222.054C269.148 220.575 269.208 220.042 269.267 220.871C269.327 221.669 269.327 222.882 269.267 223.533Z" fill="#F6F9FC" fill-opacity="0.3"/>
<path d="M311.658 232.85C311.628 229.035 311.658 225.751 311.717 225.544C311.776 225.337 312.074 225.16 312.371 225.189C312.876 225.219 312.876 225.219 312.371 225.337C311.895 225.426 311.866 226.077 311.717 239.802L311.658 232.85Z" fill="#F6F9FC" fill-opacity="0.3"/>
<path d="M232.703 236.844C232.644 237.642 232.584 237.051 232.584 235.513C232.584 233.975 232.644 233.294 232.703 234.034C232.763 234.773 232.763 236.016 232.703 236.844Z" fill="#F6F9FC" fill-opacity="0.3"/>
<path d="M266.294 244.239C266.235 245.215 266.175 244.535 266.175 242.76C266.175 240.955 266.235 240.157 266.294 240.985C266.354 241.784 266.354 243.263 266.294 244.239Z" fill="#F6F9FC" fill-opacity="0.3"/>
<path d="M233 248.528C232.941 249.09 232.881 248.557 232.881 247.345C232.881 246.132 232.941 245.659 233 246.309C233.06 246.96 233.06 247.966 233 248.528Z" fill="#F6F9FC" fill-opacity="0.3"/>
<path d="M110.734 170.348C110.08 170.407 109.069 170.407 108.504 170.348C107.94 170.289 108.475 170.23 109.694 170.23C110.912 170.23 111.388 170.289 110.734 170.348Z" fill="#C5D5ED"/>
<path d="M239.511 211.701C239.481 213.15 239.421 212.026 239.421 209.187C239.421 206.347 239.481 205.134 239.511 206.524C239.57 207.915 239.57 210.251 239.511 211.701Z" fill="#C5D5ED"/>
<path d="M319.416 239.831L324.173 239.654C326.789 239.565 328.959 239.447 328.988 239.417C329.018 239.388 328.988 239.476 328.929 239.654C328.84 239.831 326.997 239.92 319.416 239.831Z" fill="#C5D5ED"/>
<path d="M154.432 239.861C153.124 239.92 150.925 239.92 149.527 239.861C148.13 239.831 149.2 239.772 151.906 239.772C154.611 239.772 155.74 239.831 154.432 239.861Z" fill="#C5D5ED"/>
<path d="M254.017 239.861C251.728 239.92 247.864 239.92 245.397 239.861C242.929 239.831 244.802 239.772 249.558 239.772C254.315 239.772 256.306 239.831 254.017 239.861Z" fill="#C5D5ED"/>
<path d="M309.309 239.861C308.001 239.92 305.801 239.92 304.404 239.861C303.007 239.831 304.077 239.772 306.782 239.772C309.488 239.772 310.617 239.831 309.309 239.861Z" fill="#C5D5ED"/>
<path d="M128.421 240.157C127.203 240.216 125.33 240.216 124.26 240.157C123.189 240.098 124.2 240.068 126.489 240.068C128.778 240.068 129.64 240.127 128.421 240.157Z" fill="#C5D5ED"/>
<path d="M302.234 230.78C302.204 235.749 302.175 231.756 302.175 221.906C302.175 212.056 302.204 208.003 302.234 212.884C302.294 217.765 302.294 225.81 302.234 230.78Z" fill="#5986CD"/>
<path d="M166.858 211.908C166.709 212.026 166.68 210.37 166.769 208.21L166.918 204.306L167.007 208.003C167.036 210.044 166.977 211.79 166.858 211.908Z" fill="#5986CD"/>
<path d="M262.995 225.456C262.965 229.449 262.935 226.313 262.935 218.504C262.935 210.695 262.965 207.441 262.995 211.257C263.054 215.073 263.054 221.462 262.995 225.456Z" fill="#89A9DB"/>
<path d="M238.708 249.622C237.816 249.681 236.211 249.681 235.141 249.622C234.07 249.563 234.814 249.534 236.776 249.534C238.738 249.534 239.6 249.563 238.708 249.622Z" fill="#89A9DB"/>
<path d="M263.976 249.622C262.905 249.681 261.241 249.681 260.26 249.622C259.279 249.563 260.141 249.534 262.192 249.534C264.243 249.534 265.046 249.563 263.976 249.622Z" fill="#89A9DB"/>
<path d="M129.224 186.558C129.164 187.386 129.135 186.765 129.135 185.227C129.135 183.689 129.164 183.008 129.224 183.748C129.283 184.487 129.283 185.73 129.224 186.558Z" fill="#F2F5FB"/>
<path d="M147.06 230.78C147.03 235.572 147.001 231.578 147.001 221.906C147.001 212.233 147.03 208.299 147.06 213.18C147.12 218.06 147.12 225.988 147.06 230.78Z" fill="#F2F5FB"/>
<path d="M156.87 232.85C156.84 236.666 156.81 233.619 156.81 226.047C156.81 218.475 156.84 215.339 156.87 219.096C156.929 222.852 156.929 229.035 156.87 232.85Z" fill="#F2F5FB"/>
<path d="M135.407 240.157C134.575 240.216 133.118 240.216 132.137 240.157C131.156 240.097 131.81 240.068 133.624 240.068C135.437 240.068 136.21 240.097 135.407 240.157Z" fill="#F2F5FB"/>
<path d="M253.186 227.082C253.156 230.011 253.126 227.763 253.126 222.054C253.096 216.345 253.156 213.979 253.186 216.729C253.245 219.48 253.245 224.154 253.186 227.082Z" fill="#FBFCFE" fill-opacity="0.1"/>
<path d="M220.189 223.385C220.129 224.272 220.1 223.681 220.1 222.054C220.1 220.427 220.129 219.687 220.189 220.427C220.248 221.166 220.248 222.498 220.189 223.385Z" fill="#FBFCFE" fill-opacity="0.1"/>
<path d="M212.459 223.385C212.4 224.272 212.37 223.621 212.37 221.906C212.37 220.19 212.4 219.451 212.459 220.279C212.519 221.078 212.519 222.497 212.459 223.385Z" fill="#F6F9FC" fill-opacity="0.3"/>
<path d="M287.074 223.089C287.014 223.651 286.955 223.119 286.955 221.906C286.955 220.693 287.014 220.22 287.074 220.871C287.133 221.521 287.133 222.527 287.074 223.089Z" fill="#F6F9FC" fill-opacity="0.3"/>
<path d="M253.483 227.082C253.453 230.011 253.423 227.763 253.423 222.054C253.393 216.345 253.453 213.979 253.483 216.729C253.542 219.48 253.542 224.154 253.483 227.082Z" fill="#C5D5ED"/>
<path d="M248.012 214.836C247.953 213.476 247.983 212.174 248.042 211.938C248.161 211.642 248.874 211.583 253.423 211.671L248.22 211.849L248.101 217.321L248.012 214.836Z" fill="#EBF0F9" fill-opacity="0.6"/>
<path d="M251.044 232.466C249.915 232.525 248.101 232.525 247.031 232.466C245.961 232.407 246.912 232.377 249.112 232.377C251.312 232.377 252.204 232.407 251.044 232.466Z" fill="#EBF0F9" fill-opacity="0.6"/>
</svg>
