<svg width="150" height="162" viewBox="0 0 150 162" fill="none" xmlns="http://www.w3.org/2000/svg">
<path fill-rule="evenodd" clip-rule="evenodd" d="M35.2725 116.053C35.2725 141.068 59.3084 141.238 59.3084 141.238H135.166C89.3109 123.371 59.6494 62.1098 75.844 14.2925C75.844 14.2925 35.2725 67.5552 35.2725 116.053Z" fill="#00A5BB"/>
<path fill-rule="evenodd" clip-rule="evenodd" d="M21.4639 116.053C21.4639 130.858 29.9873 136.984 36.806 139.537C41.4086 141.238 48.7388 141.238 48.7388 141.238H81.6391C76.5251 137.154 44.477 107.204 75.6728 14.2925C75.8433 14.2925 21.4639 67.5552 21.4639 116.053Z" fill="#264796"/>
<path fill-rule="evenodd" clip-rule="evenodd" d="M19.5879 49.179C21.2926 49.8598 22.9973 49.3493 23.8496 47.9879C24.7019 46.6265 23.8496 45.2653 22.1449 44.7548C20.6107 44.2442 18.7356 44.4144 17.8832 45.7758C17.0308 47.137 17.8832 48.4984 19.5879 49.179ZM23.1677 42.5425C26.0657 43.5635 26.7475 45.9459 25.2133 48.6685C23.6791 51.3913 20.7812 52.2422 18.2242 51.2212C15.4966 50.2 14.6443 47.8178 16.1785 45.095C17.8832 42.3724 20.7812 41.6916 23.1677 42.5425Z" fill="#264796"/>
<path fill-rule="evenodd" clip-rule="evenodd" d="M28.9675 40.3294C29.138 40.1593 29.3084 39.8189 29.6494 39.6488C29.9903 39.1383 30.1608 38.6278 30.1608 38.1173C30.1608 37.7769 29.9903 37.4366 29.6494 37.0963C29.3084 36.9261 28.797 36.9261 28.4561 37.0963C27.9447 37.2664 27.4333 37.7769 27.0924 38.1173C26.9219 38.2874 26.7514 38.6278 26.581 38.7979L28.9675 40.3294ZM25.2172 32.6719L26.581 33.5228L23.8534 37.2664L25.2172 38.1173C25.3876 37.7769 25.7286 37.4366 25.8991 37.0963C26.581 36.2454 27.4333 35.5648 28.4561 35.0543C29.3084 34.7139 30.1608 34.7139 31.1836 35.2244C31.8655 35.7349 32.2064 36.4156 32.3769 37.0963C32.3769 38.2874 31.5246 39.8189 30.6722 41.0101C29.9903 42.0311 29.3084 42.5416 28.9675 43.0522L21.126 38.4576L25.2172 32.6719Z" fill="#264796"/>
<path fill-rule="evenodd" clip-rule="evenodd" d="M36.297 31.823C36.4674 31.6529 36.638 31.4826 36.979 31.3125C37.8312 30.4616 38.0018 29.6109 37.1494 28.9301C36.4674 28.2495 35.4446 28.5898 34.5924 29.4406C34.4218 29.6109 34.081 29.9511 34.081 30.1214L36.297 31.823ZM30.501 27.0583L32.8876 29.1003C33.0582 28.9301 33.399 28.4196 33.74 28.0793C35.2742 26.5478 37.4904 25.8671 38.854 27.0583C39.536 27.5688 39.7064 28.2495 39.7064 28.9301C39.7064 30.2915 38.6836 31.4826 37.4904 32.6739C36.638 33.5248 35.956 34.0353 35.4446 34.3755L30.1602 29.781L28.285 31.6529L27.0918 30.6319L30.501 27.0583Z" fill="#264796"/>
<path fill-rule="evenodd" clip-rule="evenodd" d="M45.3315 21.1021L42.0927 23.6546L43.4563 25.1861L47.0362 22.4635L48.059 23.8247L42.6041 28.079L36.9785 21.1021L42.2631 17.0181L43.4563 18.2092L40.0471 20.932L41.0699 22.2932L44.3087 19.9108L45.3315 21.1021Z" fill="#264796"/>
<path fill-rule="evenodd" clip-rule="evenodd" d="M50.1027 15.3134C50.6141 16.1641 50.9551 17.1851 51.1255 18.2062C51.1255 18.7167 51.296 19.3974 51.1255 19.9079L54.1939 18.036L51.6369 13.1011L49.5913 14.2924L50.1027 15.3134ZM52.8303 10.3784L56.2396 16.8449L57.2625 16.3344L58.9671 19.7377L57.4329 20.7587L56.2396 18.8869L50.6141 21.9499L51.6369 23.9919L50.1027 25.0129L48.2276 21.7797L48.9095 21.2692C49.0799 20.4184 48.9095 19.7377 48.9095 19.057C48.739 18.036 48.3981 17.1851 47.8867 16.1641L46.6934 14.1221L52.8303 10.3784Z" fill="#264796"/>
<path fill-rule="evenodd" clip-rule="evenodd" d="M58.799 7.65605L59.4808 10.2086C59.8218 11.5699 60.3332 12.9313 60.5036 14.1224C60.6742 12.9313 61.015 11.3998 61.356 10.3787L62.5492 6.12453L64.9358 5.10352L67.4928 13.7822L65.4472 14.6329L64.7654 12.0804C64.4244 10.7191 64.0836 9.5279 63.913 8.33672C63.7426 9.5279 63.4016 10.8892 63.0606 12.0804L62.0378 15.9943L59.4808 17.0153L56.9238 8.33672L58.799 7.65605Z" fill="#264796"/>
<path fill-rule="evenodd" clip-rule="evenodd" d="M70.8988 3.23415L71.2398 6.80769L74.99 5.78668L74.8196 2.21315L77.0356 1.70264L77.888 10.8917L75.6718 11.4022L75.1605 7.65853L71.4102 8.50938L71.7512 12.4233L69.535 13.1039L68.6826 3.74467L70.8988 3.23415Z" fill="#264796"/>
<path fill-rule="evenodd" clip-rule="evenodd" d="M86.2447 5.78327L82.4945 6.29379L82.3239 8.50597L86.5857 7.99548L86.4153 9.69716L79.9375 10.548L80.6193 1.01856L86.9267 0.337891L86.7561 2.03958L82.8355 2.55008L82.6649 4.42192L86.4153 4.08159L86.2447 5.78327Z" fill="#264796"/>
<path fill-rule="evenodd" clip-rule="evenodd" d="M92.5503 0L91.698 3.74371H95.4483L96.3007 0.170165H98.5167L96.3007 9.69961H94.0846L94.9369 5.78573L91.1866 5.61556L90.3342 9.69961H88.1182L90.3342 0H92.5503Z" fill="#264796"/>
<path fill-rule="evenodd" clip-rule="evenodd" d="M104.315 1.01929L102.781 4.59284L106.361 5.2735L107.895 1.69997L109.94 2.0403L106.19 11.3996L103.974 11.0592L105.679 7.14537L102.099 6.46469L100.394 10.3785L98.3486 10.0382L102.269 0.508789L104.315 1.01929Z" fill="#264796"/>
<path fill-rule="evenodd" clip-rule="evenodd" d="M114.542 9.69905L115.053 7.65702C115.223 7.14652 115.394 6.29568 115.564 5.78517C115.053 6.29568 114.542 6.97636 114.201 7.3167L112.496 9.01838L114.542 9.69905ZM111.473 10.3797L109.428 12.4217L107.382 11.7411L115.394 3.74316L117.951 4.76417L115.394 14.8041L113.178 13.9532L113.86 11.4007L111.473 10.3797Z" fill="#264796"/>
<path fill-rule="evenodd" clip-rule="evenodd" d="M125.623 10.5498C125.452 10.3796 125.282 10.2094 124.941 10.0393C124.088 9.52876 123.236 9.52875 122.554 10.3796C121.872 11.2304 122.213 11.9111 123.066 12.4216C123.236 12.5918 123.577 12.7619 123.747 12.7619L125.623 10.5498ZM115.735 14.9742C116.076 14.8039 116.417 14.6338 116.929 14.2934C117.951 13.4427 118.974 12.5918 119.997 12.4216C120.338 12.4216 120.679 12.2515 121.02 12.4216C120.338 11.741 119.997 10.5498 121.02 9.35858C121.702 8.50775 122.384 8.16741 123.236 7.99724C124.259 7.82708 125.282 8.33758 126.304 8.84808C127.157 9.3586 127.839 9.86909 128.35 10.3796L121.872 18.5477L120.168 17.5267L122.725 14.2934L122.213 14.1233C121.872 13.9532 121.531 13.7829 121.19 13.9532C120.338 14.1233 119.315 15.1443 118.463 15.6548C118.122 15.8251 117.951 15.9952 117.611 16.1653L115.735 14.9742Z" fill="#264796"/>
<path fill-rule="evenodd" clip-rule="evenodd" d="M135.338 14.4634C134.486 13.6125 133.634 12.7618 132.781 12.0811L124.087 22.9718C140.963 43.3921 131.417 80.659 101.926 107.716C71.583 135.623 31.5229 142.09 12.4304 122.18C-2.40039 106.695 -0.013825 79.8081 16.0103 55.474C15.1579 54.9635 14.4759 54.453 13.9645 53.7724C-3.25273 80.8291 -5.12788 110.609 11.578 127.966C33.398 150.768 78.7426 143.791 112.836 112.48C147.1 80.9993 157.158 37.0959 135.338 14.4634Z" fill="#264796"/>
<path fill-rule="evenodd" clip-rule="evenodd" d="M5.61261 152.3L5.44214 153.661C5.27168 154.683 5.27168 155.364 5.1012 155.874C5.1012 156.385 4.93074 156.725 4.93074 157.065C4.76026 157.576 4.5898 158.086 4.41932 158.596C4.24886 158.937 3.90792 159.278 3.73746 159.448C3.56698 159.618 3.39652 159.788 3.05558 159.788C2.88512 159.959 2.54418 159.959 2.20324 159.959H2.03277H1.8623V159.788V158.766C1.8623 158.596 1.8623 158.596 1.8623 158.426C1.8623 158.426 1.8623 158.426 2.03277 158.426H2.20324C2.37371 158.426 2.37371 158.426 2.54417 158.256C2.71464 158.256 2.71464 158.086 2.88511 158.086C3.05558 157.916 3.22604 157.746 3.22604 157.576C3.39652 157.405 3.39652 157.065 3.56698 156.725C3.56698 156.385 3.73746 156.044 3.73746 155.534C3.73746 155.024 3.90792 154.343 3.90792 153.832L4.24886 151.28C4.24886 151.11 4.24886 151.11 4.41932 151.11L4.5898 150.939H8.51057H8.68105V151.11L8.34011 159.618C8.34011 159.788 8.34011 159.788 8.34011 159.788C8.34011 159.788 8.34011 159.788 8.16963 159.788H6.80589H6.63542V159.618L6.97635 152.3H5.61261Z" fill="#264796"/>
<path fill-rule="evenodd" clip-rule="evenodd" d="M11.9181 159.96H10.2134H10.043V159.79L10.3839 151.281C10.3839 151.111 10.3839 151.111 10.3839 151.111H10.5544H11.9181H12.0886V151.281L11.9181 155.365C11.9181 155.876 11.9181 156.556 11.7476 156.896C11.7476 157.407 11.5772 157.917 11.5772 158.257C11.7476 157.917 11.9181 157.407 12.0886 156.896C12.2591 156.386 12.4295 156.046 12.6 155.705L14.6456 151.281C14.6456 151.281 14.6456 151.111 14.816 151.111H14.9866H16.6912H16.8616V151.281L16.5208 159.79C16.5208 159.96 16.5208 159.96 16.5208 159.96C16.5208 159.96 16.5208 159.96 16.3502 159.96H14.9866H14.816V159.79L14.9866 155.705C14.9866 155.025 14.9866 154.513 15.157 154.003C15.157 153.493 15.3274 152.982 15.3274 152.642C15.157 153.152 14.9866 153.493 14.816 154.003C14.6456 154.513 14.4752 154.855 14.3046 155.365L12.2591 159.79C12.2591 159.96 12.0886 159.96 12.0886 159.96C12.0886 159.96 12.0886 159.96 11.9181 159.96Z" fill="#264796"/>
<path fill-rule="evenodd" clip-rule="evenodd" d="M18.7376 155.704V154.854C18.7376 154.683 18.7376 154.683 18.7376 154.683H18.9081H19.9309C20.2718 154.683 20.4423 154.683 20.6128 154.683C20.7832 154.683 20.7832 154.513 20.9537 154.513C21.1242 154.343 21.1242 154.173 21.2946 154.002C21.2946 153.832 21.4651 153.661 21.4651 153.321C21.4651 153.151 21.4651 152.981 21.4651 152.811C21.4651 152.641 21.2946 152.641 21.2946 152.471C21.1242 152.3 21.1242 152.3 20.9537 152.3C20.7832 152.3 20.7832 152.3 20.6128 152.3C20.4423 152.3 20.2718 152.3 20.1014 152.471C19.9309 152.471 19.59 152.641 19.249 152.811C19.249 152.811 19.0786 152.811 19.0786 152.981H18.9081C18.9081 152.981 18.9081 152.981 18.7376 152.981V152.811V151.79C18.7376 151.79 18.7376 151.62 18.9081 151.62C18.9081 151.62 19.0786 151.45 19.249 151.45C19.4195 151.28 19.7604 151.28 20.1014 151.11C20.4423 151.11 20.7832 150.939 21.1242 150.939C21.4651 150.939 21.8061 150.939 21.9765 151.11C22.147 151.11 22.4879 151.28 22.6584 151.45C22.8289 151.62 23.1698 151.96 23.1698 152.13C23.3403 152.471 23.3403 152.811 23.3403 153.151C23.3403 153.491 23.3403 153.832 23.1698 154.002C22.9994 154.343 22.9994 154.513 22.6584 154.683C22.4879 154.854 22.3175 154.854 22.147 155.024C21.9765 155.194 21.8061 155.194 21.6356 155.194C21.8061 155.194 21.9765 155.364 22.3175 155.364C22.488 155.534 22.6584 155.534 22.8289 155.704C22.9994 155.874 23.1698 156.044 23.1698 156.385C23.3403 156.555 23.3403 156.895 23.3403 157.235C23.3403 157.746 23.1698 158.086 22.9994 158.426C22.8289 158.766 22.488 159.108 22.147 159.448C21.8061 159.618 21.4651 159.788 21.1242 159.959C20.7832 160.129 20.4423 160.129 19.9309 160.129C19.59 160.129 19.249 160.129 19.0786 160.129C18.7376 160.129 18.5672 159.959 18.2262 159.788C18.0558 159.788 18.0558 159.618 17.8853 159.618L17.7148 159.448V158.086V157.916C17.7148 157.916 17.7148 157.916 17.8853 157.916C17.8853 157.916 18.0558 157.916 18.0558 158.086C18.3967 158.256 18.7376 158.426 18.9081 158.426C19.0786 158.426 19.4195 158.596 19.59 158.596C19.7604 158.596 20.1014 158.596 20.1014 158.596C20.2718 158.596 20.4423 158.426 20.4423 158.426C20.6128 158.256 20.6128 158.086 20.7832 157.916C20.7832 157.746 20.9537 157.576 20.9537 157.235C20.9537 157.065 20.9537 156.895 20.7832 156.725C20.7832 156.555 20.6128 156.385 20.4423 156.385C20.2718 156.215 20.2718 156.215 20.1014 156.215C19.9309 156.215 19.7604 156.215 19.4195 156.215H18.5672H18.3967C18.7376 155.874 18.7376 155.874 18.7376 155.704Z" fill="#264796"/>
<path fill-rule="evenodd" clip-rule="evenodd" d="M26.0695 159.96H24.3648H24.1943V159.79L24.5352 151.281C24.5352 151.111 24.5352 151.111 24.5352 151.111H24.7057H26.0695H26.2399V151.281L26.0695 155.365C26.0695 155.876 26.0695 156.556 25.899 156.896C25.899 157.407 25.7285 157.917 25.7285 158.257C25.899 157.917 26.0695 157.407 26.2399 156.896C26.4104 156.386 26.5809 156.046 26.7513 155.705L28.7969 151.281C28.7969 151.281 28.7969 151.111 28.9674 151.111H29.1379H30.8425H31.0131V151.281L30.6721 159.79C30.6721 159.96 30.6721 159.96 30.6721 159.96C30.6721 159.96 30.6721 159.96 30.5017 159.96H29.1379H28.9674V159.79L29.1379 155.705C29.1379 155.025 29.1379 154.513 29.3083 154.003C29.3083 153.493 29.4788 152.982 29.4788 152.642C29.3083 153.152 29.1379 153.493 28.9674 154.003C28.7969 154.513 28.6265 154.855 28.456 155.365L26.4104 159.79C26.4104 159.96 26.2399 159.96 26.2399 159.96C26.2399 159.96 26.2399 159.96 26.0695 159.96Z" fill="#264796"/>
<path fill-rule="evenodd" clip-rule="evenodd" d="M34.2512 155.874L34.0807 159.618C34.0807 159.788 34.0807 159.788 34.0807 159.788C34.0807 159.788 34.0807 159.788 33.9102 159.788H32.5464H32.376V159.618L32.717 151.11C32.717 150.939 32.717 150.939 32.717 150.939H32.8874H34.2512H34.4216V151.11L34.2512 154.343H37.3196L37.49 151.11C37.49 150.939 37.49 150.939 37.49 150.939H37.6605H39.0243H39.1947V151.11L38.8538 159.618C38.8538 159.788 38.8538 159.788 38.8538 159.788C38.8538 159.788 38.8538 159.788 38.6833 159.788H37.3196H37.1491V159.618L37.3196 155.874H34.2512Z" fill="#264796"/>
<path fill-rule="evenodd" clip-rule="evenodd" d="M41.068 151.281C41.068 151.111 41.068 151.111 41.068 151.111H41.2386H45.1594C45.3298 151.111 45.3298 151.111 45.3298 151.111V151.281V152.132C45.3298 152.302 45.3298 152.302 45.3298 152.302H45.1594H42.6024L42.2614 159.62C42.2614 159.79 42.2614 159.79 42.2614 159.79C42.2614 159.79 42.2614 159.79 42.0908 159.79H40.7272H40.5566V159.62L41.068 151.281Z" fill="#264796"/>
<path fill-rule="evenodd" clip-rule="evenodd" d="M47.3794 155.873C47.3794 156.383 47.3794 156.724 47.3794 157.064C47.3794 157.404 47.55 157.744 47.55 157.915C47.7204 158.255 47.8908 158.426 48.0614 158.426C48.2318 158.596 48.4022 158.596 48.7432 158.596C49.0842 158.596 49.2546 158.596 49.425 158.426C49.5956 158.255 49.9364 158.085 49.9364 157.744C50.107 157.404 50.2774 157.064 50.2774 156.554C50.448 156.043 50.448 155.533 50.448 155.022C50.448 154.512 50.448 154.172 50.2774 153.661C50.2774 153.32 50.107 152.98 49.9364 152.639C49.766 152.469 49.5956 152.299 49.425 152.129C49.2546 151.959 49.0842 151.959 48.9136 151.959C48.7432 151.959 48.4022 151.959 48.2318 152.129C48.0614 152.299 47.8908 152.469 47.7204 152.639C47.55 152.98 47.3794 153.32 47.209 153.832C47.3794 154.682 47.3794 155.193 47.3794 155.873ZM48.7432 160.127C48.2318 160.127 47.8908 160.127 47.55 159.957C47.209 159.787 46.868 159.617 46.5272 159.277C46.1862 158.937 46.0158 158.426 45.8452 157.915C45.6748 157.404 45.6748 156.724 45.6748 156.043C45.6748 155.193 45.8452 154.342 46.0158 153.661C46.1862 152.98 46.5272 152.299 47.0386 151.959C47.3794 151.619 47.7204 151.278 48.2318 151.108C48.5728 150.938 49.0842 150.768 49.5956 150.768C50.107 150.768 50.6184 150.938 50.9594 151.108C51.3002 151.278 51.6412 151.619 51.9822 151.959C52.1526 152.299 52.4936 152.81 52.4936 153.32C52.664 153.832 52.664 154.342 52.664 155.022C52.664 155.873 52.4936 156.724 52.323 157.404C52.1526 158.085 51.8116 158.596 51.4708 159.107C51.1298 159.447 50.7888 159.787 50.2774 159.957C49.766 159.957 49.2546 160.127 48.7432 160.127Z" fill="#264796"/>
<path fill-rule="evenodd" clip-rule="evenodd" d="M55.5614 152.3L55.3908 154.513H55.9022C56.0728 154.513 56.2432 154.513 56.4138 154.343C56.5842 154.343 56.7546 154.173 56.7546 154.002C56.7546 153.832 56.9252 153.832 56.9252 153.661C56.9252 153.491 56.9252 153.321 56.9252 153.321C56.9252 153.151 56.9252 152.981 56.9252 152.811C56.9252 152.641 56.7546 152.641 56.7546 152.471C56.7546 152.471 56.5842 152.3 56.4138 152.3C56.2432 152.3 56.0728 152.3 55.9022 152.3H55.5614ZM55.3908 155.874L55.2204 158.596H55.9022C56.0728 158.596 56.4138 158.596 56.5842 158.426C56.7546 158.426 56.9252 158.256 57.0956 158.086C57.266 157.916 57.266 157.746 57.266 157.746C57.266 157.576 57.266 157.405 57.266 157.235C57.266 157.065 57.266 156.895 57.266 156.725C57.266 156.555 57.0956 156.385 57.0956 156.385C56.9252 156.215 56.9252 156.215 56.7546 156.215C56.5842 156.215 56.4138 156.215 56.0728 156.215H55.3908V155.874ZM53.8566 151.11C53.8566 150.939 53.8566 150.939 53.8566 150.939H54.0272H56.5842C56.9252 150.939 57.266 150.939 57.607 151.11C57.948 151.28 58.1184 151.28 58.2888 151.62C58.4594 151.79 58.6298 151.96 58.6298 152.3C58.8002 152.641 58.8002 152.811 58.8002 153.151C58.8002 153.491 58.8002 153.832 58.6298 154.002C58.4594 154.343 58.2888 154.513 58.1184 154.683C57.948 154.854 57.7774 154.854 57.607 155.024C57.4366 155.194 57.266 155.194 57.0956 155.194C57.266 155.194 57.4366 155.194 57.607 155.364C57.7774 155.364 57.948 155.534 58.1184 155.704C58.2888 155.874 58.4594 156.215 58.6298 156.385C58.8002 156.725 58.8002 157.065 58.8002 157.405C58.8002 157.746 58.8002 158.086 58.6298 158.426C58.4594 158.766 58.2888 158.937 57.948 159.278C57.607 159.448 57.4366 159.618 57.0956 159.788C56.7546 159.959 56.4138 159.959 55.9022 159.959H53.3452C53.1748 159.959 53.1748 159.959 53.1748 159.959V159.788L53.8566 151.11Z" fill="#264796"/>
<path fill-rule="evenodd" clip-rule="evenodd" d="M62.204 156.044H63.9087L63.5678 154.002C63.3973 153.151 63.3973 152.811 63.3973 152.641C63.3973 152.471 63.3973 152.3 63.3973 152.13C63.3973 152.3 63.2268 152.641 63.2268 152.811C63.2268 153.151 63.0564 153.321 63.0564 153.491L62.204 156.044ZM60.8402 159.959H59.647H59.4766C59.4766 159.959 59.4766 159.959 59.4766 159.788C59.4766 159.788 59.4766 159.618 59.647 159.448L62.545 151.45C62.545 151.28 62.7154 151.11 62.7154 151.11C62.7154 151.11 62.8859 150.939 63.0564 150.939H64.2496C64.4201 150.939 64.5906 150.939 64.5906 150.939C64.5906 150.939 64.761 151.11 64.761 151.28L66.6362 159.618V159.788H66.4657H65.102H64.9315C64.9315 159.788 64.9315 159.788 64.9315 159.618L64.5906 157.405H62.204L61.5222 159.618C61.0108 159.788 61.0108 159.959 60.8402 159.959C61.0108 159.959 61.0108 159.959 60.8402 159.959Z" fill="#264796"/>
<path fill-rule="evenodd" clip-rule="evenodd" d="M71.0738 154.854L71.2444 152.3H70.5624C70.392 152.3 70.2216 152.3 70.051 152.3C69.8806 152.3 69.7102 152.471 69.7102 152.471C69.5396 152.641 69.5396 152.811 69.3692 152.981C69.3692 153.151 69.1988 153.321 69.1988 153.661C69.1988 153.832 69.1988 154.002 69.3692 154.173C69.3692 154.343 69.5396 154.513 69.7102 154.513C69.8806 154.683 70.051 154.683 70.2216 154.683C70.392 154.683 70.5624 154.683 70.9034 154.683H71.0738V154.854ZM70.051 156.385L68.3464 159.788C68.3464 159.788 68.3464 159.959 68.176 159.959H68.0054H66.4712C66.4712 159.959 66.4712 159.959 66.3008 159.959C66.3008 159.959 66.3008 159.959 66.3008 159.788C66.3008 159.788 66.3008 159.788 66.3008 159.618L68.3464 156.044C68.0054 155.874 67.6646 155.534 67.3236 155.194C66.9826 154.683 66.9826 154.343 66.9826 153.661C66.9826 153.321 66.9826 152.811 67.153 152.471C67.3236 152.13 67.494 151.79 67.835 151.62C68.0054 151.45 68.3464 151.28 68.6874 151.11C69.0282 150.939 69.3692 150.939 69.8806 150.939H72.6081H72.7786V151.11L72.4376 159.618C72.4376 159.788 72.4376 159.788 72.4376 159.788C72.4376 159.788 72.4376 159.788 72.2672 159.788H70.9034H70.733V159.618L70.9034 156.215H70.051V156.385Z" fill="#264796"/>
<path fill-rule="evenodd" clip-rule="evenodd" d="M78.9159 156.044H80.6207L80.2797 154.002C80.1093 153.151 80.1093 152.811 80.1093 152.641C80.1093 152.471 80.1093 152.3 80.1093 152.13C80.1093 152.3 79.9387 152.641 79.9387 152.811C79.9387 153.151 79.7683 153.321 79.7683 153.491L78.9159 156.044ZM77.5521 159.959H76.3589H76.1885C76.1885 159.959 76.1885 159.959 76.1885 159.788C76.1885 159.788 76.1885 159.618 76.3589 159.448L79.2569 151.45C79.2569 151.28 79.4273 151.11 79.4273 151.11C79.4273 151.11 79.5977 150.939 79.7683 150.939H80.9615C81.1321 150.939 81.3025 150.939 81.3025 150.939C81.3025 150.939 81.4729 151.11 81.4729 151.28L83.3481 159.618V159.788H83.1777H81.8139H81.6435C81.6435 159.788 81.6435 159.788 81.6435 159.618L81.3025 157.405H78.9159L77.8931 159.788C77.7227 159.788 77.7227 159.959 77.5521 159.959C77.7227 159.959 77.7227 159.959 77.5521 159.959Z" fill="#264796"/>
<path fill-rule="evenodd" clip-rule="evenodd" d="M89.4848 158.255V159.446V159.616L89.3144 159.786C89.1438 159.956 88.803 159.956 88.462 159.956C88.121 159.956 87.7802 159.956 87.4392 159.956C86.7574 159.956 86.246 159.786 85.905 159.616C85.3936 159.446 85.0526 159.105 84.7116 158.765C84.3708 158.425 84.2002 157.915 84.0298 157.403C83.8594 156.893 83.8594 156.212 83.8594 155.702C83.8594 154.851 84.0298 154.171 84.2002 153.49C84.3708 152.81 84.7117 152.298 85.2231 151.788C85.564 151.447 86.0754 151.107 86.5868 150.937C87.0982 150.767 87.6096 150.597 88.121 150.597C88.462 150.597 88.6324 150.597 88.9734 150.597C89.3144 150.597 89.4848 150.767 89.6552 150.767C89.8258 150.767 89.8258 150.937 89.8258 150.937L89.9962 151.107V152.298C89.9962 152.468 89.9962 152.468 89.9962 152.468C89.9962 152.468 89.9962 152.468 89.8258 152.468C89.8258 152.468 89.8258 152.468 89.6552 152.468C89.6552 152.468 89.4848 152.468 89.4848 152.298C89.1438 152.128 88.9734 152.128 88.803 152.128C88.6324 152.128 88.462 152.128 88.2916 152.128C87.9506 152.128 87.6096 152.128 87.2688 152.298C86.9278 152.468 86.7574 152.638 86.5868 152.808C86.246 153.15 86.0754 153.49 85.905 154C85.7346 154.511 85.7346 155.021 85.7346 155.532C85.7346 156.042 85.7346 156.382 85.905 156.722C86.0754 157.063 86.0754 157.403 86.246 157.573C86.4164 157.743 86.5868 157.915 86.9278 158.085C87.2688 158.255 87.4392 158.255 87.9506 158.255C88.121 158.255 88.462 158.255 88.6324 158.085C88.803 158.085 89.1438 157.915 89.4848 157.744H89.6552C89.4848 158.085 89.4848 158.085 89.4848 158.255Z" fill="#264796"/>
<path fill-rule="evenodd" clip-rule="evenodd" d="M96.3022 158.255V159.446V159.616L96.1317 159.786C95.9612 159.956 95.6203 159.956 95.2794 159.956C94.9384 159.956 94.5975 159.956 94.2566 159.956C93.5747 159.956 93.0632 159.786 92.7224 159.616C92.211 159.446 91.87 159.105 91.529 158.765C91.1882 158.425 91.0176 157.915 90.8472 157.403C90.6768 156.893 90.6768 156.212 90.6768 155.702C90.6768 154.851 90.8472 154.171 91.0176 153.49C91.1882 152.81 91.529 152.298 92.0404 151.788C92.3814 151.447 92.8928 151.107 93.4042 150.937C93.9156 150.767 94.427 150.597 94.9384 150.597C95.2794 150.597 95.4498 150.597 95.7908 150.597C96.1318 150.597 96.3022 150.767 96.4726 150.767C96.6432 150.767 96.6431 150.937 96.6431 150.937L96.8136 151.107V152.298C96.8136 152.468 96.8136 152.468 96.8136 152.468C96.8136 152.468 96.8136 152.468 96.6431 152.468C96.6431 152.468 96.6432 152.468 96.4726 152.468C96.4726 152.468 96.3022 152.468 96.3022 152.298C95.9612 152.128 95.7908 152.128 95.6203 152.128C95.4498 152.128 95.2794 152.128 95.1089 152.128C94.768 152.128 94.427 152.128 94.0861 152.298C93.7452 152.468 93.5747 152.638 93.4042 152.808C93.0632 153.15 92.8928 153.49 92.7224 154C92.5518 154.511 92.5518 155.021 92.5518 155.532C92.5518 156.042 92.5518 156.382 92.7224 156.722C92.8928 157.063 92.8928 157.403 93.0633 157.573C93.2338 157.743 93.4042 157.915 93.7452 158.085C94.0861 158.255 94.2566 158.255 94.768 158.255C94.9384 158.255 95.2794 158.255 95.4498 158.085C95.6203 158.085 95.9612 157.915 96.3022 157.744H96.4726C96.1318 158.085 96.1317 158.085 96.3022 158.255Z" fill="#264796"/>
<path fill-rule="evenodd" clip-rule="evenodd" d="M99.0264 155.873C99.0264 156.383 99.0264 156.724 99.0264 157.064C99.0264 157.404 99.197 157.744 99.197 157.915C99.3674 158.255 99.5378 158.426 99.7084 158.426C99.8788 158.596 100.049 158.596 100.39 158.596C100.731 158.596 100.902 158.596 101.072 158.426C101.243 158.255 101.583 158.085 101.583 157.744C101.754 157.404 101.924 157.064 101.924 156.554C102.095 156.043 102.095 155.533 102.095 155.022C102.095 154.512 102.095 154.172 101.924 153.661C101.924 153.32 101.754 152.98 101.583 152.639C101.413 152.469 101.243 152.299 101.072 152.129C100.902 151.959 100.731 151.959 100.561 151.959C100.39 151.959 100.049 151.959 99.8788 152.129C99.7084 152.299 99.5378 152.469 99.3674 152.639C99.197 152.98 99.0264 153.32 98.856 153.832C99.0264 154.682 99.0264 155.193 99.0264 155.873ZM100.22 160.127C99.7084 160.127 99.3674 160.127 99.0264 159.957C98.6856 159.787 98.3446 159.617 98.0036 159.277C97.6628 158.937 97.4922 158.426 97.3218 157.915C97.1512 157.404 97.1514 156.724 97.1514 156.043C97.1514 155.193 97.3218 154.342 97.4922 153.661C97.6626 152.98 98.0036 152.299 98.515 151.959C98.856 151.619 99.197 151.278 99.7084 151.108C100.049 150.938 100.561 150.768 101.072 150.768C101.583 150.768 102.095 150.938 102.436 151.108C102.777 151.278 103.118 151.619 103.459 151.959C103.629 152.299 103.97 152.81 103.97 153.32C104.141 153.832 104.141 154.342 104.141 155.022C104.141 155.873 103.97 156.724 103.8 157.404C103.629 158.085 103.288 158.596 102.947 159.107C102.606 159.447 102.265 159.787 101.754 159.957C101.243 159.957 100.731 160.127 100.22 160.127Z" fill="#264796"/>
<path fill-rule="evenodd" clip-rule="evenodd" d="M111.645 151.11L111.304 158.426H111.986H112.156V158.596L111.986 161.66V161.83L111.815 162H110.792H110.622V161.83L110.792 159.788H105.337H105.167V159.618L105.508 151.11C105.508 150.939 105.508 150.939 105.508 150.939C105.508 150.939 105.508 150.939 105.678 150.939H106.872H107.042V151.11L106.701 158.426H109.429L109.77 151.11C109.77 150.939 109.77 150.939 109.77 150.939C109.77 150.939 109.77 150.939 109.94 150.939H111.304H111.474C111.645 150.939 111.645 151.11 111.645 151.11Z" fill="#264796"/>
<path fill-rule="evenodd" clip-rule="evenodd" d="M114.714 159.96H113.009H112.839V159.79L113.18 151.281C113.18 151.111 113.18 151.111 113.18 151.111H113.35H114.714H114.884V151.281L114.714 155.365C114.714 155.876 114.714 156.556 114.543 156.896C114.543 157.407 114.373 157.917 114.373 158.257C114.543 157.917 114.714 157.407 114.884 156.896C115.055 156.386 115.225 156.046 115.396 155.705L117.441 151.281C117.441 151.281 117.441 151.111 117.612 151.111H117.782H119.487H119.658V151.281L119.317 159.79C119.317 159.96 119.317 159.96 119.317 159.96H119.146H117.782H117.612V159.79L117.782 155.705C117.782 155.025 117.782 154.513 117.953 154.003C117.953 153.493 118.123 152.982 118.123 152.642C117.953 153.152 117.782 153.493 117.612 154.003C117.441 154.513 117.271 154.855 117.101 155.365L115.055 159.79C115.055 159.96 114.884 159.96 114.884 159.96C114.884 159.96 114.884 159.96 114.714 159.96Z" fill="#264796"/>
<path fill-rule="evenodd" clip-rule="evenodd" d="M123.065 156.044H124.77L124.429 154.002C124.259 153.151 124.259 152.811 124.259 152.641C124.259 152.471 124.259 152.3 124.259 152.13C124.259 152.3 124.088 152.641 124.088 152.811C124.088 153.151 123.918 153.321 123.918 153.491L123.065 156.044ZM121.702 159.959H120.508H120.338C120.338 159.959 120.338 159.959 120.338 159.788C120.338 159.788 120.338 159.618 120.508 159.448L123.406 151.45C123.406 151.28 123.577 151.11 123.577 151.11C123.577 151.11 123.747 150.939 123.918 150.939H125.111C125.281 150.939 125.452 150.939 125.452 150.939C125.452 150.939 125.622 151.11 125.622 151.28L127.498 159.618V159.788H127.327H125.963H125.793C125.793 159.788 125.793 159.788 125.793 159.618L125.452 157.405H123.065L122.383 159.618C121.872 159.788 121.872 159.959 121.702 159.959C121.872 159.959 121.872 159.959 121.702 159.959Z" fill="#264796"/>
<path fill-rule="evenodd" clip-rule="evenodd" d="M134.654 151.11L134.313 158.426H134.995H135.165V158.596L134.995 161.66V161.83L134.824 162H133.802H133.631V161.83L133.802 159.788H128.346H128.176V159.618L128.517 151.11C128.517 150.939 128.517 150.939 128.517 150.939C128.517 150.939 128.517 150.939 128.687 150.939H130.051H130.221V151.11L129.881 158.426H132.608L132.949 151.11C132.949 150.939 132.949 150.939 132.949 150.939C132.949 150.939 132.949 150.939 133.119 150.939H134.483H134.654V151.11Z" fill="#264796"/>
<path fill-rule="evenodd" clip-rule="evenodd" d="M137.895 159.96H136.189H136.019V159.79L136.359 151.281C136.359 151.111 136.359 151.111 136.359 151.111H136.53H137.895H138.065V151.281L137.895 155.365C137.895 155.876 137.895 156.556 137.724 156.896C137.724 157.407 137.552 157.917 137.552 158.257C137.724 157.917 137.895 157.407 138.065 156.896C138.235 156.386 138.406 156.046 138.576 155.705L140.621 151.281C140.621 151.281 140.621 151.111 140.792 151.111H140.962H142.668H142.838V151.281L142.496 159.79C142.496 159.96 142.496 159.96 142.496 159.96H142.326H140.962H140.792V159.79L140.962 155.705C140.962 155.025 140.962 154.513 141.133 154.003C141.133 153.493 141.303 152.982 141.303 152.642C141.133 153.152 140.962 153.493 140.792 154.003C140.621 154.513 140.451 154.855 140.28 155.365L138.235 159.79C138.235 159.96 138.065 159.96 138.065 159.96C137.895 159.96 137.895 159.96 137.895 159.96Z" fill="#264796"/>
<path fill-rule="evenodd" clip-rule="evenodd" d="M147.953 154.854L148.123 152.3H147.442C147.271 152.3 147.101 152.3 146.93 152.3C146.76 152.3 146.589 152.471 146.589 152.471C146.419 152.641 146.419 152.811 146.249 152.981C146.078 153.151 146.078 153.321 146.078 153.661C146.078 153.832 146.078 154.002 146.249 154.173C146.249 154.343 146.419 154.513 146.589 154.513C146.76 154.683 146.93 154.683 147.101 154.683C147.271 154.683 147.442 154.683 147.782 154.683H147.953V154.854ZM146.93 156.385L145.225 159.788C145.225 159.788 145.225 159.959 145.054 159.959H144.884H143.35C143.35 159.959 143.35 159.959 143.18 159.959C143.18 159.959 143.18 159.959 143.18 159.788C143.18 159.788 143.18 159.788 143.18 159.618L145.225 156.044C144.884 155.874 144.543 155.534 144.202 155.194C143.861 154.683 143.861 154.343 143.861 153.661C143.861 153.321 143.861 152.811 144.032 152.471C144.202 152.13 144.373 151.79 144.713 151.62C144.884 151.45 145.225 151.28 145.567 151.11C145.908 150.939 146.249 150.939 146.76 150.939H149.487H149.657V151.11L149.316 159.618C149.316 159.788 149.316 159.788 149.316 159.788H149.146H147.782H147.612V159.618L147.782 156.215H146.93V156.385Z" fill="#264796"/>
</svg>
